/* XPM */
static char *_ab1c37fe7ce49baa4e5fa45fa207a87[] = {
/* columns rows colors chars-per-pixel */
"64 64 139 2 ",
"   c None",
".  c #000000",
"X  c #0C0100",
"o  c #060E02",
"O  c #0F0B05",
"+  c #140200",
"@  c #1E0300",
"#  c #1D140B",
"$  c #230502",
"%  c #2E0501",
"&  c #270E07",
"*  c #340500",
"=  c #390600",
"-  c #3B0A04",
";  c #281707",
":  c #2B1008",
">  c #251B0D",
",  c #2B1908",
"<  c #153007",
"1  c #352712",
"2  c #3C2715",
"3  c #3F3116",
"4  c #420700",
"5  c #430903",
"6  c #4A0800",
"7  c #560A02",
"8  c #5B0C03",
"9  c #640A00",
"0  c #6D0D02",
"q  c #750C00",
"w  c #7C0D00",
"e  c #7A1006",
"r  c #7F1D00",
"t  c #711708",
"y  c #731E0D",
"u  c #44260C",
"i  c #46280D",
"p  c #402F16",
"a  c #4C2D19",
"s  c #552715",
"d  c #5F2110",
"f  c #423116",
"g  c #47301C",
"h  c #4B311B",
"j  c #4D391A",
"k  c #553615",
"l  c #52361C",
"z  c #7A220F",
"x  c #682713",
"c  c #612915",
"v  c #5D1F21",
"b  c #572126",
"n  c #51242C",
"m  c #5E3D21",
"M  c #5B3E2A",
"N  c #4A2832",
"B  c #402D3C",
"V  c #493837",
"C  c #7F3438",
"Z  c #1E450B",
"A  c #367C13",
"S  c #7D4400",
"D  c #7C4901",
"F  c #7A4A09",
"G  c #5D4335",
"H  c #654223",
"J  c #664B22",
"K  c #6D4B25",
"L  c #714D26",
"P  c #7A4E23",
"I  c #6D5025",
"U  c #735325",
"Y  c #765428",
"T  c #7B5E2A",
"R  c #363245",
"E  c #3A3344",
"W  c #5F4D4A",
"Q  c #4D475E",
"!  c #5F475A",
"~  c #51495C",
"^  c #674841",
"/  c #54764A",
"(  c #544E66",
")  c #585064",
"_  c #800D00",
"`  c #8B0F00",
"'  c #920F00",
"]  c #831302",
"[  c #861B05",
"{  c #961000",
"}  c #9B1000",
"|  c #991A07",
" . c #901C09",
".. c #A51200",
"X. c #AB1200",
"o. c #A71F00",
"O. c #B31300",
"+. c #873E01",
"@. c #8C3A00",
"#. c #A42200",
"$. c #B62506",
"%. c #BB2803",
"&. c #853032",
"*. c #C12C03",
"=. c #824500",
"-. c #975B1E",
";. c #9F5E1B",
":. c #815F2C",
">. c #9A5D20",
",. c #82602C",
"<. c #88652E",
"1. c #8B692F",
"2. c #8D6B30",
"3. c #916F31",
"4. c #957332",
"5. c #997634",
"6. c #9C7935",
"7. c #BE7023",
"8. c #BE7A23",
"9. c #BD7229",
"0. c #A47731",
"q. c #A57831",
"w. c #C67524",
"e. c #C87723",
"r. c #4EB31B",
"t. c #52B61C",
"y. c #AB9B14",
"u. c #BEA716",
"i. c #DC8710",
"p. c #D68E11",
"a. c #DD8810",
"s. c #E18B10",
"d. c #F29F13",
"f. c #FF9D12",
"g. c #FF9C12",
"h. c #FD9C12",
"j. c #DBFC03",
"k. c #DBFC03",
"l. c #DCFD03",
/* pixels */
"                                                                                                                                ",
"                                                                                                                                ",
"                                                . . . . . . . . . . . . .                                                       ",
"                                                . . . . . . . . . . . . .                                                       ",
"                                                1 1 1 1 1 1 1 1 1 1 1 1 1 >                                                     ",
"                                            . . ,.,.,.,.,.,.,.,.,.,.,.,.,.p . . . . . . .                                       ",
"                                            . . ,.,.,.,.,.,.,.,.,.,.,.,.,.f . . . . . . .                                       ",
"                                . . . . . . H H ,.,.,.,.,.,.,.,.,.,.,.,.,.,.,.,.,.,.,.,.,.O .                                   ",
"                                . . . . . . H H ,.,.,.,.,.,.,.,.,.,.,.,.,.,.,.,.,.,.,.,.,.O .                                   ",
"                        . . . . H H H H u u H H ,.,.,.,.,.,.,.,.,.,.,.,.,.,.,.,.,.,.,.,.,.4.5.. .                               ",
"                        . . . . H H H H u u H H ,.,.,.,.,.,.,.,.,.,.,.,.,.,.,.,.,.,.,.,.,.5.6.. .                               ",
"                      . f j j j H H H H u u H H L L L L ,.,.3.3.3.2.,.,.,.,.,.,.,.,.,.,.,.5.6., ; . . . .                       ",
"                    . . I ,.,.,.H H H H u u H H H H H H ,.,.6.6.6.4.,.,.,.,.,.,.,.,.,.,.,.5.6.i u . . . .                       ",
"                    # # U ,.,.,.H H H H u u H H H H H H T T 3.3.3.1.,.,.<.<.<.<.<.<.<.<.<.2.3.i u # # # #                       ",
"                . . H ,.,.,.,.,.H H H H u u H H H H H H H H H H H K ,.2.6.6.6.6.6.6.6.6.6.K H u u ,.,.,.,.. .                   ",
"                . . H ,.,.,.,.,.H H H H u u H H H H H H H H H H H K ,.2.6.6.6.6.6.6.6.6.6.K H u u ,.,.,.,.. .                   ",
"                . . H ,.,.,.,.,.,.,.H H H H H H H H H H H H H H H H H H H H H H H H H H H H H u u ,.,.,.,.,.,.. .               ",
"                . . H ,.,.,.,.,.,.,.H H H H H H H H H H H H H H H H H H H H H H H H H H H H H u u ,.,.,.,.,.,.. .               ",
"                . . l K T ,.,.,.,.,.T T T T H H H H H H H H H H H H H H H H H H H H H H H H H U U ,.,.,.,.,.,.J J . .           ",
"                . . h H T ,.,.,.,.,.,.,.,.,.H H H H H H H H H H H H H H H H H H H H H H H H H :.,.,.,.,.,.,.,.,.,.. .           ",
"                  . 1 2 K Y :.,.,.,.,.,.,.,.L L L L L L H H H H H H H H H H H H H H H H H K L ,.,.,.,.,.,.,.,.,.,.. .           ",
"                    . . l H :.,.,.,.,.,.,.,.,.,.,.,.,.:.H H H H H H H H H H H H H H H H H T ,.,.,.,.,.,.,.,.,.,.,.. .           ",
"                    . . l H T :.:.:.:.,.,.,.,.,.,.,.,.:.H H H H H H H H H H H H H H H H H T ,.,.,.,.,.,.,.,.,.,.,.. .           ",
"                        . . m H H H ,.,.,.,.,.,.,.,.,.,.,.,.,.,.,.,.,.,.,.,.,.,.,.,.,.,.,.,.,.,.,.,.,.,.,.,.,.6.6.. .           ",
"                        . . m H H H ,.,.,.,.,.,.,.,.,.,.,.,.,.,.,.,.,.,.,.,.,.,.,.,.,.,.,.,.,.,.,.,.,.,.,.,.,.6.6.. .           ",
"                            . . . . H H H H ,.,.,.,.,.,.,.,.,.,.,.,.,.,.,.,.,.,.,.,.,.,.,.,.,.,.,.,.,.6.6.6.6.. .               ",
"                            . . . . H H H H ,.,.,.,.,.,.,.,.,.,.,.,.,.,.,.,.,.,.,.,.,.,.,.,.,.,.,.,.,.6.6.6.6.. .               ",
"                                . . V V V V L L L L L L 3.3.3.3.3.3.3.3.3.3.3.3.3.3.3.3.3.3.3.3.3.3.3.3 3 3 3                   ",
"                                . . R R R R H H H H H H 6.6.6.6.6.6.6.6.6.6.6.6.6.6.6.6.6.6.6.6.6.6.6.. . . .                   ",
"                                . . R R R R M M L L P P T T T T T T T T T T T T T T T T T T T 0.q.T T . . . .                   ",
"                                . . R R R R R R ;.;.w.7.. . . . . . . . . . . . . . . . . . . w.w.. .                           ",
"                                . . R R R R R R ;.;.w.7.. . . . . . . . . . . . . . . . . . . w.w.. .                           ",
"                            . . . . R R R R ( ( R R w.e.f.i.. . . . . . . . . . . . . . . s.f.E R . .                 l.l.      ",
"                            . . . . R R R R ( ( R R w.e.f.a.. . . . . . . . . . . . . . . s.f.E R . .                 j.j.      ",
"                    . . . . 5 5 . . R R R R ( ( Q Q w.e.f.a.. . . . . . . . . . . . . . . s.f.~ Q . .     j.j.j.j.j.j.j.j.      ",
"                    . . . . 7 8 . . R R R R ( ( ( ( w.e.f.a.. . . . . . . . . . . . . . . s.f.) ( . .     j.j.j.j.j.j.j.j.      ",
"                    @ $ $ $ 7 8 . . G G R R ( ( ( ( w.e.f.a.. . . . . . . . . . . < Z Z Z y.u./ / Z Z     j.j.j.j.j.j.l.j.      ",
"      . . . . . . . 5 8 8 8 8 8 . . ;.;.R R ( ( ( ( w.e.f.a.. . . . . . . . . . . A r.r.r.t.t.t.t.r.r.t.t.j.j.j.j.j.j.          ",
"      . . . . . . . 5 8 8 8 8 8 . . ;.;.E E ( ( ( ( w.e.f.a.. . . . . . . . . . . A r.r.r.t.t.t.t.r.r.t.t.j.j.j.j.j.j.          ",
"      . $ 7 7 7 7 7 8 8 8 8 8 8 q q ] ] -.-.>.>.9.9.w.e.f.a.. . . . . . . . . . . o o o o p.d.8.8.o o                           ",
"      . % 8 8 8 8 8 8 8 8 8 8 8 _ _ _ _ ;.;.;.;.w.w.w.e.f.a.. . . . . . . . . . . . . . . s.f.w.w.. .                           ",
"        X + - 8 8 8 8 8 q w w w _ _ _ _ [ [ [ [ $.$.$.$.*.%.' ' ' 9 . . . . . . . . . q ' %.*.$.$.. .                           ",
"          . * 8 8 8 8 8 w _ _ _ _ _ _ _ _ _ _ _ O.O.O.O.O.O.O.O.O.w . . . . . . . . . ` O.O.O.O.O.. .                           ",
"          . $ % % % 8 0 w _ _ _ _ _ _ _ _ _ } } O.O.O.O.O.O.O.O.O.{ 7 7 7 7 7 7 7 7 7 } O.O.O.O.O.. .                           ",
"  . . . .   . . . . 8 w _ _ _ _ _ _ _ _ _ _ O.O.O.O.O.O.O.O.O.O.O.O.O.O.O.O.O.O.O.O.O.O.O.O.O.O.O.. .                           ",
"  . X + +   . . X + 9 _ _ _ _ _ _ _ _ _ _ _ O.O.O.O.O.O.O.O.O.O.X.X.O.O.O.O.O.O.O.O.O.O.O.O.O.{ { . .                           ",
"  . % q 4 . . . 6 q w _ _ _ _ _ _ _ _ _ _ _ O.O.O.O.O.O.O.O.O.X.` ' O.O.O.O.O.O.O.O.O.O.O.O.O.+ +                               ",
"  . % _ 4 . . . 7 _ _ _ _ _ _ _ _ _ _ _ _ _ O.O.O.O.O.O.O.O.O..._ ' O.O.O.O.O.O.O.O.O.O.O.O.O.. .                               ",
"  . % _ q 9 9 9 q _ _ _ _ _ _ _ _ _ X.X.X.X.O.O.O.O.` ` ` ` ` ` _ ' O.O.O.O.O.O.O.O.O.O.O.O.O.. .                               ",
"  . % _ _ _ _ _ _ _ _ _ _ _ _ _ _ _ O.O.O.O.O.O.O.O._ _ _ _ _ _ _ ' O.O.O.O.O.O.O.O.O.O.O.O.O.. .                               ",
"    $ = 7 _ _ _ _ _ _ _ _ _ _ _ _ _ { { { { { { { { _ w b v _ _ _ ' O.O.O.O.O.O.O.O.O.O.O.&.C . .                               ",
"      . = _ _ _ _ _ _ _ _ _ _ _ _ _ _ _ _ _ _ _ _ _ _ w R B _ _ _ ' O.O.O.O.O.O.O.O.O.O.O.! ( . .                               ",
"      . * 8 8 8 8 8 q _ _ _ _ _ _ _ _ _ _ _ t t r r r r N n _ _ ` } O.O.O.X...X.O.O.O.o.#.^ W . .                               ",
"        X X X X X X 9 _ _ _ _ _ _ _ _ _ _ _ a a S S S S e e _ ` X.O.O.O.O.} ` ..O.O.O.@.=.F F . .                               ",
"          . . . . . 8 w w w w w w w w w w w g g D D D S _ _ _ ` O.O.O.O.O.} _ } O.O.O.+.D D D . .                               ",
"                    @ @ @ @ @ @ @ @ @ @ s s g g k k r r _ ` ..X.O.| c y ` } ..X.O.z c k k k k . .                               ",
"                    . . . . . . . . . . g g g g g g _ _ _ ` O.O.O. .g d _ } O.O.O.x g g g g g . .                               ",
"                                        # # # # # # * * * = 6 6 6 - # & * 4 6 6 6 : # # # # #                                   ",
"                                        . . . . . . . . . . . . . . . . . . . . . . . . . . .                                   ",
"                                        . . . . . . . . . . . . . . . . . . . . . . . . . . .                                   ",
"                                            . . . . . .                           . . . . . .                                   ",
"                                            . . . . . .                           . . . . . .                                   ",
"                                            . . . .                               . . . .                                       ",
"                                            . . . .                               . . . .                                       "
};
