/* XPM */
static char *_c39cf6cc3274c75b55a5b67b215199b[] = {
/* columns rows colors chars-per-pixel */
"64 64 140 2 ",
"   c None",
".  c #000000",
"X  c #090100",
"o  c #060D02",
"O  c #0F0B05",
"+  c #140200",
"@  c #1D0300",
"#  c #1D140B",
"$  c #220502",
"%  c #2D0501",
"&  c #2A0C06",
"*  c #340500",
"=  c #3A0600",
"-  c #380D05",
";  c #281707",
":  c #2B1008",
">  c #251B0D",
",  c #2B1908",
"<  c #153007",
"1  c #352712",
"2  c #3C2715",
"3  c #3F3116",
"4  c #450700",
"5  c #430903",
"6  c #4A0901",
"7  c #560A02",
"8  c #5B0D04",
"9  c #640B01",
"0  c #6C0C01",
"q  c #740C00",
"w  c #7D0D00",
"e  c #641E0E",
"r  c #7F1D00",
"t  c #44260C",
"y  c #46280D",
"u  c #402F16",
"i  c #492F1B",
"p  c #552715",
"a  c #423116",
"s  c #47301C",
"d  c #4B311A",
"f  c #4D391A",
"g  c #553515",
"h  c #52361C",
"j  c #77220F",
"k  c #79270F",
"l  c #7E3D00",
"z  c #682713",
"x  c #612915",
"c  c #5E3D21",
"v  c #5B3E2A",
"b  c #493837",
"n  c #7F3438",
"m  c #1E450B",
"M  c #367C13",
"N  c #7D4300",
"B  c #7C4901",
"V  c #794B09",
"C  c #5D4335",
"Z  c #654223",
"A  c #664B22",
"S  c #6D4B25",
"D  c #714E26",
"F  c #7A4E23",
"G  c #6D5025",
"H  c #735325",
"J  c #765428",
"K  c #7B5E2A",
"L  c #363245",
"P  c #3A3444",
"I  c #5F4D4A",
"U  c #4D475E",
"Y  c #5F475A",
"T  c #51495C",
"R  c #694641",
"E  c #54764A",
"W  c #544E66",
"Q  c #585164",
"!  c #800D00",
"~  c #8B0F00",
"^  c #920F00",
"/  c #831302",
"(  c #861B04",
")  c #861F0C",
"_  c #961000",
"`  c #9C1000",
"'  c #9E1A03",
"]  c #911C09",
"[  c #A51100",
"{  c #AC1200",
"}  c #AD1D04",
"|  c #B31300",
" . c #902609",
".. c #9D350E",
"X. c #B62406",
"o. c #BB2803",
"O. c #B82E0A",
"+. c #853032",
"@. c #C02C03",
"#. c #824201",
"$. c #804408",
"%. c #975B1E",
"&. c #9F5E1B",
"*. c #BC4212",
"=. c #815F2C",
"-. c #9A5D20",
";. c #82602C",
":. c #88652E",
">. c #8B692F",
",. c #8D6B30",
"<. c #916F31",
"1. c #957332",
"2. c #997634",
"3. c #9C7935",
"4. c #BF7023",
"5. c #BE7A23",
"6. c #BD7229",
"7. c #A47731",
"8. c #A57831",
"9. c #C46C21",
"0. c #C57524",
"q. c #C87723",
"w. c #4AA91A",
"e. c #4EB31B",
"r. c #52B61C",
"t. c #AB9B14",
"y. c #BEA716",
"u. c #DC8710",
"i. c #D68E11",
"p. c #DD8810",
"a. c #DC8810",
"s. c #E18B10",
"d. c #F29F13",
"f. c #FF9D12",
"g. c #FE9D12",
"h. c #FD9C12",
"j. c #DBFC03",
"k. c #DBFD03",
"l. c #DBFC02",
"z. c #DAFD04",
/* pixels */
"                                                                                                                                ",
"                                                                                                                                ",
"                                                . . . . . . . . . . . . .                                                       ",
"                                                . . . . . . . . . . . . .                                                       ",
"                                                1 1 1 1 1 1 1 1 1 1 1 1 1 >                                                     ",
"                                            . . ;.;.;.;.;.;.;.;.;.;.;.;.;.u . . . . . . .                                       ",
"                                            . . ;.;.;.;.;.;.;.;.;.;.;.;.;.a . . . . . . .                                       ",
"                                . . . . . . Z Z ;.;.;.;.;.;.;.;.;.;.;.;.;.;.;.;.;.;.;.;.;.O .                                   ",
"                                . . . . . . Z Z ;.;.;.;.;.;.;.;.;.;.;.;.;.;.;.;.;.;.;.;.;.O .                                   ",
"                        . . . . Z Z Z Z t t Z Z ;.;.;.;.;.;.;.;.;.;.;.;.;.;.;.;.;.;.;.;.;.1.2.. .                               ",
"                        . . . . Z Z Z Z t t Z Z ;.;.;.;.;.;.;.;.;.;.;.;.;.;.;.;.;.;.;.;.;.2.3.. .                               ",
"                      . a f f f Z Z Z Z t t Z Z D D D D ;.;.<.<.<.,.;.;.;.;.;.;.;.;.;.;.;.2.3., ; . . . .                       ",
"                    . . G ;.;.;.Z Z Z Z t t Z Z Z Z Z Z ;.;.3.3.3.1.;.;.;.;.;.;.;.;.;.;.;.2.3.y t . . . .                       ",
"                    # # H ;.;.;.Z Z Z Z t t Z Z Z Z Z Z K K <.<.<.>.;.;.:.:.:.:.:.:.:.:.:.,.<.y t # # # #                       ",
"                . . Z ;.;.;.;.;.Z Z Z Z t t Z Z Z Z Z Z Z Z Z Z Z S ;.,.3.3.3.3.3.3.3.3.3.S Z t t ;.;.;.;.. .                   ",
"                . . Z ;.;.;.;.;.Z Z Z Z t t Z Z Z Z Z Z Z Z Z Z Z S ;.,.3.3.3.3.3.3.3.3.3.S Z t t ;.;.;.;.. .                   ",
"                . . Z ;.;.;.;.;.;.;.Z Z Z Z Z Z Z Z Z Z Z Z Z Z Z Z Z Z Z Z Z Z Z Z Z Z Z Z Z t t ;.;.;.;.;.;.. .               ",
"                . . Z ;.;.;.;.;.;.;.Z Z Z Z Z Z Z Z Z Z Z Z Z Z Z Z Z Z Z Z Z Z Z Z Z Z Z Z Z t t ;.;.;.;.;.;.. .               ",
"                . . h S K ;.;.;.;.;.K K K K Z Z Z Z Z Z Z Z Z Z Z Z Z Z Z Z Z Z Z Z Z Z Z Z Z H H ;.;.;.;.;.;.A A . .           ",
"                . . d Z K ;.;.;.;.;.;.;.;.;.Z Z Z Z Z Z Z Z Z Z Z Z Z Z Z Z Z Z Z Z Z Z Z Z Z =.;.;.;.;.;.;.;.;.;.. .           ",
"                  . 1 2 S J =.;.;.;.;.;.;.;.D D D D D D Z Z Z Z Z Z Z Z Z Z Z Z Z Z Z Z Z S D ;.;.;.;.;.;.;.;.;.;.. .           ",
"                    . . h Z =.;.;.;.;.;.;.;.;.;.;.;.;.=.Z Z Z Z Z Z Z Z Z Z Z Z Z Z Z Z Z K ;.;.;.;.;.;.;.;.;.;.;.. .           ",
"                    . . h Z K =.=.=.=.;.;.;.;.;.;.;.;.=.Z Z Z Z Z Z Z Z Z Z Z Z Z Z Z Z Z K ;.;.;.;.;.;.;.;.;.;.;.. .           ",
"                        . . c Z Z Z ;.;.;.;.;.;.;.;.;.;.;.;.;.;.;.;.;.;.;.;.;.;.;.;.;.;.;.;.;.;.;.;.;.;.;.;.;.3.3.. .           ",
"                        . . c Z Z Z ;.;.;.;.;.;.;.;.;.;.;.;.;.;.;.;.;.;.;.;.;.;.;.;.;.;.;.;.;.;.;.;.;.;.;.;.;.3.3.. .           ",
"                            . . . . Z Z Z Z ;.;.;.;.;.;.;.;.;.;.;.;.;.;.;.;.;.;.;.;.;.;.;.;.;.;.;.;.;.3.3.3.3.X X               ",
"                            . . . . Z Z Z Z ;.;.;.;.;.;.;.;.;.;.;.;.;.;.;.;.;.;.;.;.;.;.;.;.;.;.;.;.;.3.3.3.3.. .               ",
"                                . . b b b b D D D D D D <.<.<.<.<.<.<.<.<.<.<.<.<.<.<.<.<.<.<.<.<.<.<.3 3 3 3                   ",
"                                . . L L L L Z Z Z Z Z Z 3.3.3.3.3.3.3.3.3.3.3.3.3.3.3.3.3.3.3.3.3.3.3.. . . .                   ",
"                                . . L L L L v v D D F F K K K K K K K K K K K K K K K K K K K 7.8.K K . . . .                   ",
"                                . . L L L L L L &.&.0.4.. . . . . . . . . . . . . . . . . . . 0.0.. .                           ",
"                                . . L L L L L L &.&.0.4.. . . . . . . . . . . . . . . . . . . 0.0.. .                           ",
"                            . . . . L L L L W W L L 0.q.f.u.. . . . . . . . . . . . . . . s.f.P L . .                           ",
"                            . . . . L L L L W W L L 0.q.f.p.. . . . . . . . . . . . . . . s.f.P L . .                           ",
"                    . . . . 5 5 . . L L L L W W U U 0.q.f.p.. . . . . . . . . . . . . . . s.f.T U . .                           ",
"                    . . . . 7 8 . . L L L L W W W W 0.q.f.p.. . . . . . . . . . . . . . . s.f.Q W . .                           ",
"                    @ $ $ $ 7 8 . . C C L L W W W W 0.q.f.p.. . . . . . . . . . . < m m m t.y.E E . .                           ",
"            . . . . 5 8 8 8 8 8 . . &.&.L L W W W W 0.q.f.p.. . . . . . . . . . . M e.e.e.r.r.r.r.. .     j.j.j.j.j.j.          ",
"            . . . . 5 8 8 8 8 8 . . &.&.P P W W W W 0.q.f.p.. . . . . . . . . . . M e.e.e.r.r.r.r.. .     j.j.j.j.j.j.          ",
"      . . . * 7 7 7 8 8 8 8 8 8 . . / / %.%.-.-.6.6.0.q.f.p.. . . . . . . . . . . o o o o i.d.5.5.w.w.r.r.j.j.j.j.j.j.j.z.      ",
"      . . . * 8 8 8 8 8 8 8 8 8 . . ! ! &.&.&.&.0.0.0.q.f.p.. . . . . . . . . . . . . . . s.f.0.0.r.r.r.r.j.j.j.j.j.j.j.j.      ",
"      . $ 6 7 8 8 8 8 8 8 8 8 8 0 0 ! ! ( ( ( ( X.X.X.X.@.o.^ ^ ^ 9 . . . . . . . . . q ^ o.@.X.X.                              ",
"      . % 8 8 8 8 8 8 8 8 8 8 8 ! ! ! ! ! ! ! ! | | | | | | | | | w . . . . . . . . . ~ | | | | |                               ",
"      . @ % 5 8 8 8 8 8 0 0 0 0 ! ! ! ! ! ! ! ! | | | | | | | | | _ 7 7 7 7 7 7 7 7 7 ` | | | | |                               ",
"          . * 8 8 8 8 8 w w w w ! ! ! ! ! ! ! ! | | | | | | | | | | | | | | | | | | | | | | | | | . .                           ",
"          . % 6 6 6 8 9 w ! ! ! ! ! ! ! ! ! ~ ~ | | | | | | | | | | { { | | | | | | | | | | | _ _ . .                           ",
"            X X X X 8 w w ! ! ! ! ! ! ! ! ! { { | | | | | | | | | [ ! _ | | | | | | | | | | | + +                               ",
"            . . . . 8 ! ! ! ! ! ! ! ! ! ! ! | | | | | | | | | | | [ ! ^ | | | | | | | | | | | . .                               ",
"  . . . . . . . 4 9 w ! ! ! ! ! ! ! ! ! ! ! | | | | | | | { ~ ~ ~ _ { { | | | | | | | | | | | . .                               ",
"  . . . . . . . 7 ! ! ! ! ! ! ! ! ! ! ! ! ! | | | | | | | { ! ! ! ^ | | | | | | | | | | | | | . .                               ",
"  . @ 4 4 4 4 4 0 ! ! ! ! ! w ! ! ! ` ` ` ` | | | | _ _ _ ^ ! ! ! ^ | | | | | | | | | | | +.n . .                               ",
"  . % ! ! ! ! ! ! ! ! ! ! ! w w ! ! | | | | | | | | ! ! ! ! ! ! ! ^ | | | | | | | | | | | Y W . .                               ",
"  . % 8 0 ! ! ! ! ! ! ! ! ! ! ! ! ! [ [ [ [ [ [ [ [ r r r r ! ! ~ _ | | | X.O.} [ { | | | R I . .                               ",
"      X 4 ! ! ! ! ! ! ! ! ! ! ! ! ! ! ! ! ! ! ! ! ! N N N l ! ~ { | | | | *.9...! [ | | | $.V . .                               ",
"      . = w w w w w w ! ! ! ! ! ! ! ! ! ! w w w w w B B B N ! ~ | | | | | *.0...! [ | | | #.B . .                               ",
"        @ @ @ @ @ @ 9 ! ! ! ! ! ! ! ! ! p p p p p p g g r ( [ { | | | ] x k  .' [ j x x x g g . .                               ",
"          . . . . . 8 ! ! ! ! ! ! ! ! ! s s s s s s s i ! ! | | | | | ) s e ! ` | z s s s s s . .                               ",
"                    % * * * * * * * * * # # # # # # # # * = 6 6 6 6 6 - # & * 4 6 : # # # # #                                   ",
"                    . . . . . . . . . . . . . . . . . . . . . . . . . . . . . . . . . . . . .                                   ",
"                      . . . . . . . . . . . . . . . . . . . . . . . . . . . . . . . . . . . .                                   ",
"                                            . . . . . .                           . . . . . .                                   ",
"                                            . . . . . .                           . . . . . .                                   ",
"                                            . . . .                               . . . .                                       ",
"                                            . . . .                               . . . .                                       "
};
