/* XPM */
static char *ad3dd42b2e2f4c7b8ecf5b477ac41219[] = {
/* columns rows colors chars-per-pixel */
"64 64 147 2 ",
"   c None",
".  c #000000",
"X  c #0C0100",
"o  c #060E02",
"O  c #0F0B05",
"+  c #1D0300",
"@  c #140F07",
"#  c #160301",
"$  c #1D140C",
"%  c #240602",
"&  c #2E0602",
"*  c #330702",
"=  c #3B0600",
"-  c #3B0903",
";  c #291C0E",
":  c #251B0C",
">  c #342512",
",  c #3C2715",
"<  c #3D2815",
"1  c #3F3116",
"2  c #470700",
"3  c #440903",
"4  c #4C0A02",
"5  c #540C04",
"6  c #5B0D03",
"7  c #640A00",
"8  c #6D0D02",
"9  c #740C00",
"0  c #7D0D00",
"q  c #7F1E01",
"w  c #711708",
"e  c #611D1E",
"r  c #44260C",
"t  c #46280D",
"y  c #4B2C11",
"u  c #4C2D19",
"i  c #552715",
"p  c #5B2815",
"a  c #47301C",
"s  c #4D391A",
"d  c #4B311A",
"f  c #543615",
"g  c #52361C",
"h  c #5B3119",
"j  c #7B3B03",
"k  c #612915",
"l  c #63351A",
"z  c #572126",
"x  c #562F27",
"c  c #472A35",
"v  c #493835",
"b  c #7F3438",
"n  c #1E450B",
"m  c #2A5F0F",
"M  c #23500C",
"N  c #327211",
"B  c #387F13",
"V  c #7D4400",
"C  c #764806",
"Z  c #7C4901",
"A  c #7A4A09",
"S  c #65401E",
"D  c #5D4335",
"F  c #654223",
"G  c #6A4725",
"H  c #664B22",
"J  c #6C4A25",
"K  c #714E27",
"L  c #6D5025",
"P  c #765428",
"I  c #795729",
"U  c #7B5C2A",
"Y  c #715426",
"T  c #363245",
"R  c #393445",
"E  c #3D384C",
"W  c #5F4D4A",
"Q  c #5F475A",
"!  c #674841",
"~  c #70544A",
"^  c #7F5D4D",
"/  c #53764A",
"(  c #544E66",
")  c #555064",
"_  c #585064",
"`  c #800D00",
"'  c #8A0F00",
"]  c #930F00",
"[  c #841402",
"{  c #8F1001",
"}  c #971000",
"|  c #9B1000",
" . c #961A04",
".. c #A41100",
"X. c #AB1200",
"o. c #A71F00",
"O. c #AC1F02",
"+. c #B31300",
"@. c #B51B02",
"#. c #B91D01",
"$. c #873E01",
"%. c #8D3A00",
"&. c #9B350E",
"*. c #A42200",
"=. c #B82E0A",
"-. c #B62105",
";. c #853032",
":. c #824500",
">. c #934011",
",. c #87531E",
"<. c #9E5D1B",
"1. c #BB4212",
"2. c #AC651F",
"3. c #855326",
"4. c #885424",
"5. c #815F2C",
"6. c #82602C",
"7. c #8A682F",
"8. c #9F6124",
"9. c #866A38",
"0. c #916E31",
"q. c #967333",
"w. c #9A7633",
"e. c #9C7935",
"r. c #AF6720",
"t. c #A07530",
"y. c #A57931",
"u. c #C46C21",
"i. c #C57524",
"p. c #C87723",
"a. c #3C8915",
"s. c #4EB31B",
"d. c #51B61C",
"f. c #74AC19",
"g. c #7CB01A",
"h. c #86A618",
"j. c #91AD18",
"k. c #DD850F",
"l. c #DD8810",
"z. c #DE8B10",
"x. c #E0870F",
"c. c #E18B10",
"v. c #FF9D12",
"b. c #FC9B11",
"n. c #DBFC03",
"m. c #DBFD03",
"M. c #DCFD04",
/* pixels */
"                                                . . . . . . . . . . . . . . . . .                                               ",
"                                                . . . . . . . . . . . . . . . . .                                               ",
"                                            . . H H H H H H H H H H H H H H H H H : . . .                                       ",
"                                            . . 6.6.6.6.6.6.6.6.6.6.6.6.6.6.6.6.6.; . . .                                       ",
"                                            ; ; 6.6.6.6.6.6.6.6.6.6.6.6.6.6.6.6.6.s > > >                                       ",
"                                        . . F F 6.6.6.6.6.6.6.6.6.6.6.6.6.6.6.6.6.6.6.6.6.O .                                   ",
"                                        . . F F 6.6.6.6.6.6.6.6.6.6.6.6.6.6.6.6.6.6.6.6.6.@ .                                   ",
"                                . . . . r r F F 6.6.6.6.6.6.6.6.6.6.6.6.6.6.6.6.6.6.6.6.6.w.e.. .                               ",
"                                . . . . r r F F 6.6.6.6.6.6.6.6.6.6.6.6.6.6.6.6.6.6.6.6.6.w.e.. .                               ",
"                        . . . . F F F F r r F F F F 6.6.e.e.e.q.6.6.6.6.6.6.6.6.6.6.6.6.6.w.e.r r . .                           ",
"                        . . . . F F F F r r F F F F 6.6.e.e.e.q.6.6.6.6.6.6.6.6.6.6.6.6.6.w.e.t r . .                           ",
"                      . a s < , F F F F r r F F F F K K I I I U 6.7.0.0.0.0.0.0.0.0.0.0.0.U I r r . . . .                       ",
"                    . . L 6.F F F F F F r r F F F F F F F F F J 6.7.e.e.e.e.e.e.e.e.e.e.e.J F r r . . . .                       ",
"                    $ $ Y 6.J J F F F F y y F F F F F F F F F G U 6.0.0.0.0.0.0.0.0.0.0.0.G F r r $ $ $ $                       ",
"                . . F 6.6.6.6.6.F F F F F F F F F F F F F F F F F F F F F F F F F F F F F F F r r 6.6.6.6.. . . .               ",
"                . . F 6.6.6.6.6.F F F F F F F F F F F F F F F F F F F F F F F F F F F F F F F r r 6.6.6.6.. . . .               ",
"                . . F 6.6.6.6.6.6.6.6.6.F F F F F F F F F F F F F F F F F F F F F F F F F F F 5.6.6.6.6.6.6.6.6.6.. .           ",
"                . . F 6.6.6.6.6.6.6.6.6.F F F F F F F F F F F F F F F F F F F F F F F F F F F 5.6.6.6.6.6.6.6.6.6.. .           ",
"                . . g J U 6.6.6.6.6.6.6.U U U U U U U I F F F F F F F F F F F F F F F F F I U 6.6.6.6.6.6.6.6.6.6.. .           ",
"                . . d F U 6.6.6.6.6.6.6.6.6.6.6.6.6.6.5.F F F F F F F F F F F F F F F F F U 6.6.6.6.6.6.6.6.6.6.6.. .           ",
"                  . > , J P P P 6.6.6.6.6.6.6.6.6.6.6.5.K K K K K K K K K K K K K K K K K 5.6.6.6.6.6.6.6.6.6.6.6.. .           ",
"                    . . g F F F 6.6.6.6.6.6.6.6.6.6.6.6.6.6.6.6.6.6.6.6.6.6.6.6.6.6.6.6.6.6.6.6.6.6.6.6.6.6.6.6.6.. .           ",
"                    . . g F F F 5.5.5.5.6.6.6.6.6.6.6.6.6.6.6.6.6.6.6.6.6.6.6.6.6.6.6.6.6.6.6.6.6.6.6.6.6.6.6.6.6.. .           ",
"                        . . . . F F F F 6.6.6.6.6.6.6.6.6.6.6.6.6.6.6.6.6.6.6.6.6.6.6.6.6.6.6.6.6.6.6.6.6.e.e.e.e.. .           ",
"                        . . . . F F F F 6.6.6.6.6.6.6.6.6.6.6.6.6.6.6.6.6.6.6.6.6.6.6.6.6.6.6.6.6.6.6.6.6.e.e.e.e.. .           ",
"                                . . T T F F F F F F F F 6.6.6.6.6.6.6.6.6.6.6.6.6.6.6.6.6.6.6.6.6.e.e.e.e.. . . .               ",
"                                . . T T F F F F F F F F 6.6.6.6.6.6.6.6.6.6.6.6.6.6.6.6.6.6.6.6.6.e.e.e.e.. . . .               ",
"                                . . T T v v v v ,.,.8.8.0.0.0.0.0.0.0.0.0.0.0.0.0.0.0.0.0.0.0.0.0.1 1 1 1                       ",
"                                . . T T T T T T <.<.i.i.e.e.e.e.e.e.e.e.e.e.e.e.e.e.e.e.e.e.e.e.e.. . . .                       ",
"                                . . T T T T E E 4.4.i.i.y.w.U U U U U U U U U U U U U U U t.y.9.9.. . . .                       ",
"                            . . . . T T T T ( ( T T i.i.i.2.. . . . . . . . . . . . . . . r.i.R T . .                           ",
"                            . . . . T T T T ( ( T T i.i.i.2.. . . . . . . . . . . . . . . r.i.R T . .                           ",
"                    . . . . 5 6 . . T T T T ( ( ( ( i.p.v.l.. . . . . . . . . . . . . . . c.v._ ( . .                           ",
"                    . . . . 5 6 . . T T T T ( ( ( ( i.p.v.l.. . . . . . . . . . . . . . . c.v._ ( . .                           ",
"                  . * 3 3 3 6 6 . . 3.3.T T ( ( ( ( i.p.v.l.. . . . . . . . . . . m a.a.a.f.g.) ( . .                           ",
"                . . 3 6 6 6 6 6 . . <.<.T T ( ( ( ( i.p.v.l.. . . . . . . . . . . B d.d.d.d.d.) ( . .                           ",
"                + % 4 6 6 6 6 6 . . >.>.D D ~ ~ ^ ^ i.p.v.l.. . . . . . . . . . . M N N N h.j./ / n n                           ",
"            . . - 6 6 6 6 6 6 6 . . ` ` <.<.<.<.i.i.i.p.v.l.. . . . . . . . . . . . . . . l.b.d.d.s.s.d.d.n.n.n.n.              ",
"            . . - 6 6 6 6 6 6 6 . . ` ` <.<.<.<.i.i.i.p.b.k.. . . . . . . . . . . . . . . x.b.d.d.s.s.d.d.n.n.n.n.              ",
"          . * 5 6 6 6 6 6 6 6 6 9 9 ` ` [ [ [ [ [ [ @.@.#.@.......9 . . . . . . . . . ` ..@.#.O.O.o o     n.n.n.n.n.n.          ",
"          . * 6 6 6 6 6 6 6 6 6 ` ` ` ` ` ` ` ` ` ` +.+.+.+.+.+.+.0 . . . . . . . . . ' +.+.+.+.+.. .     n.n.n.n.n.n.          ",
"      . % 4 5 6 6 6 6 6 6 6 9 0 ` ` ` ` ` ` ` ` ` ` +.+.+.+.+.+.+.X.] ] ] ] ] ] ] ] ] X.+.+.+.+.+.. .         n.n.n.n.          ",
"      . & 6 6 6 6 6 6 6 6 6 0 ` ` ` ` ` ` ` ` ` ` ` +.+.+.+.+.+.+.+.+.+.+.+.+.+.+.+.+.+.+.+.+.+.+.. .         n.n.n.n.          ",
"      . # & & & & & 6 8 8 8 0 ` ` ` ` ` ` ` ` ` | | +.+.+.+.+.+.+.X.| ..+.+.+.+.+.+.+.+.+.+.+.6 6 . .         M.M.M.M.          ",
"      . . . . . . . 6 0 0 0 ` ` ` ` ` ` ` ` ` ` +.+.+.+.+.+.+.+.+...` } +.+.+.+.+.+.+.+.+.+.+.. .                               ",
"      . . . . . . . 6 ` ` ` ` ` ` ` ` ` ` ` ' ' +.+.+.+.+.+.+.+.X.| ` ] +.+.+.+.+.+.+.+.+.+.+.. .                               ",
"        . . . . . . 6 ` ` ` ` ` ` ` ` ` ` ` X.X.+.+.+.+.+.+.+.X.` ` ` ] +.+.+.+.+.+.+.+.+.+.+.. .                               ",
"          . . . . . 6 ` ` ` ` ` ` ` ` ` ` ` +.+.+.+.+.+.+.+.+...` ` ` ] +.+.+.+.+.+.+.+.+.+.+.. .                               ",
"  . . . * 7 7 7 7 7 0 ` ` ` ` ` ` ` ` ` X.X.+.+.+.+.+.+.' ' ' ' ` ` ` ] +.+.+.+.+.+.+.+.+.+.+.. .                               ",
"  . . . = ` ` ` ` ` ` ` ` ` ` ` ` ` ` ` +.+.+.+.+.+.+.+.` ` ` ` ` ` ` ] +.+.+.+.+.+.+.+.+.+.+.. .                               ",
"  . + 2 7 ` ` ` ` ` ` ` ` ` ` ` ` ` ` ` } } } } } } } } z z z e ` ' | ..+.+.+...} X.+.+.+.;.b . .                               ",
"  . & ` ` ` ` ` ` ` ` ` ` ` ` ` ` ` ` ` ` ` ` ` ` ` ` 0 T T T c ` ] +.+.+.+.+.] ` ..+.+.+.Q ( . .                               ",
"  . & 6 6 6 9 ` ` ` ` ` ` ` ` ` ` ` ` ` ` ` w w q q q q v v v x ` ] +.+.+.-.=. .` ..+.o.*.! W . .                               ",
"      X X X 4 ` ` ` ` ` ` ` ` ` ` ` ` ` ` ` u u V V V V C C C j ` ] +.+.+.1.u.&.` ..+.%.:.A A . .                               ",
"      . . . 2 0 0 0 0 0 0 0 0 0 0 0 0 0 0 0 a a Z Z Z Z Z Z Z j 0 { +.+.+.1.i.&.0 ..+.$.Z Z Z . .                               ",
"            + + + + + + + + + + + + + + i i a a f f f f f f f f i p k k k l S h i p k f f f f . .                               ",
"            . . . . . . . . . . . . . . a a a a a a a a a a a a a a a a a a a a a a a a a a a . .                               ",
"                                        $ $ $ $ $ $ $ $ $ $ $ $ $ $ $ $ $ $ $ $ $ $ $ $ $ $ $                                   ",
"                                        . . . . . . . . . . . . . . . . . . . . . . . . . . .                                   ",
"                                        . . . . . . . . . . . . . . . . . . . . . . . . . . .                                   ",
"                                            . . . . . .                           . . . . . .                                   ",
"                                            . . . . . .                           . . . . . .                                   ",
"                                            . . . .                               . . . .                                       ",
"                                            . . . .                               . . . .                                       "
};
