/* XPM */
static char *_27db773835b44238fb96ba710264b1c[] = {
/* columns rows colors chars-per-pixel */
"64 64 150 2 ",
"   c None",
".  c #000000",
"X  c #0A0100",
"o  c #0F0B04",
"O  c #140301",
"+  c #1C0300",
"@  c #140F07",
"#  c #1D140C",
"$  c #230401",
"%  c #2B0601",
"&  c #310601",
"*  c #3A0600",
"=  c #3B0803",
"-  c #291B0E",
";  c #231B0C",
":  c #301E03",
">  c #382204",
",  c #2E2310",
"<  c #342612",
"1  c #3C2715",
"2  c #3F3116",
"3  c #450700",
"4  c #440903",
"5  c #520A02",
"6  c #5B0D04",
"7  c #640A00",
"8  c #6A0B01",
"9  c #720C00",
"0  c #7D0D01",
"q  c #44260C",
"w  c #46280D",
"e  c #402F15",
"r  c #4B2C11",
"t  c #572815",
"y  c #512D19",
"u  c #582B18",
"i  c #552715",
"p  c #47301C",
"a  c #4C3319",
"s  c #4D391A",
"d  c #543615",
"f  c #53361C",
"g  c #533C1C",
"h  c #7E2F00",
"j  c #612915",
"k  c #4E262F",
"l  c #572126",
"z  c #5D3C21",
"x  c #51332C",
"c  c #402D3C",
"v  c #462A36",
"b  c #493834",
"n  c #7F3438",
"m  c #2A5F0F",
"M  c #23500C",
"N  c #327211",
"B  c #387F13",
"V  c #6E4308",
"C  c #794004",
"Z  c #764806",
"A  c #7C4901",
"S  c #7A4A09",
"D  c #714406",
"F  c #65401E",
"G  c #6D461B",
"H  c #774B1C",
"J  c #7E5019",
"K  c #5D4335",
"L  c #654223",
"P  c #694625",
"I  c #664B22",
"U  c #6C4A25",
"Y  c #714E27",
"T  c #765428",
"R  c #795729",
"E  c #7B5C2A",
"W  c #363245",
"Q  c #3B3444",
"!  c #3D384C",
"~  c #5F4D4A",
"^  c #5F475A",
"/  c #674841",
"(  c #70544A",
")  c #7F5D4D",
"_  c #544E66",
"`  c #595064",
"'  c #800D00",
"]  c #8B0F00",
"[  c #930F00",
"{  c #831302",
"}  c #8F1D09",
"|  c #971000",
" . c #9A1000",
".. c #951B08",
"X. c #A51100",
"o. c #AB1200",
"O. c #B31300",
"+. c #B41A02",
"@. c #B91D01",
"#. c #992307",
"$. c #A32201",
"%. c #A42309",
"&. c #B82E0A",
"*. c #A73306",
"=. c #853032",
"-. c #824500",
";. c #81471C",
":. c #824B16",
">. c #934011",
",. c #87531E",
"<. c #9E5D1B",
"1. c #855326",
"2. c #885424",
"3. c #815F2C",
"4. c #9B5E23",
"5. c #82602C",
"6. c #8A682F",
"7. c #9F6024",
"8. c #916E31",
"9. c #967333",
"0. c #997634",
"q. c #9C7935",
"w. c #A7662B",
"e. c #AB7D2D",
"r. c #BE7023",
"t. c #B5772B",
"y. c #C46C21",
"u. c #C57424",
"i. c #C87723",
"p. c #3C8915",
"a. c #7D9F1F",
"s. c #50B71C",
"d. c #74AC19",
"f. c #7CB01A",
"g. c #519D2F",
"h. c #86A618",
"j. c #91AD18",
"k. c #B2812D",
"l. c #DC850F",
"z. c #DD8810",
"x. c #E0860F",
"c. c #E08117",
"v. c #E18B10",
"b. c #E58B19",
"n. c #F39010",
"m. c #FF9D12",
"M. c #FF9C12",
"N. c #FC9B12",
"B. c #DBFC03",
"V. c #DBFD03",
/* pixels */
"                                                . . . . . . . . . . . . . . .                                                   ",
"                                                . . . . . . . . . . . . . . .                                                   ",
"                                            . . I I I I I I I I I I I I I I I , . . . . .                                       ",
"                                            . . 5.5.5.5.5.5.5.5.5.5.5.5.5.5.5.< . . . . .                                       ",
"                                            - - 5.5.5.5.5.5.5.5.5.5.5.5.5.5.5.g < < < < <                                       ",
"                                    . . . . L L 5.5.5.5.5.5.5.5.5.5.5.5.5.5.5.5.5.5.5.5.5.o .                                   ",
"                                    . . . . L L 5.5.5.5.5.5.5.5.5.5.5.5.5.5.5.5.5.5.5.5.5.@ X                                   ",
"                            . . . . L L q q L L 5.5.5.5.5.5.5.5.5.5.5.5.5.5.5.5.5.5.5.5.5.0.q.X .                               ",
"                            . . . . L L q q L L 5.5.5.5.5.5.5.5.5.5.5.5.5.5.5.5.5.5.5.5.5.0.q.X .                               ",
"                    . . . . z L L L L L q q L L L L 5.5.q.q.q.9.5.5.5.5.5.5.5.5.5.5.5.5.5.0.q.q q . .                           ",
"                    . . . . z L L L L L q q L L L L 5.5.q.q.q.9.5.5.5.5.5.5.5.5.5.5.5.5.5.0.q.w q . .                           ",
"                  . e s s s L L L L L L q q L L L L Y Y R R R E 5.6.8.8.8.8.8.8.8.8.8.8.8.E R q q . . . . . .                   ",
"                . . L 5.5.5.L L L L L L q q L L L L L L L L L U 5.6.q.q.q.q.q.q.q.q.q.q.q.U L q q . . . . . .                   ",
"                . . L 5.5.5.U U L L L L r r L L L L L L L L L P E 5.8.8.8.8.8.8.8.8.8.8.8.P L q q # # # # # #                   ",
"                . . L 5.5.5.5.5.L L L L L L L L L L L L L L L L L L L L L L L L L L L L L L L q q 5.5.5.5.5.5.. .               ",
"                . . L 5.5.5.5.5.L L L L L L L L L L L L L L L L L L L L L L L L L L L L L L L q q 5.5.5.5.5.5.. .               ",
"                . . L 5.5.5.5.5.5.5.5.5.L L L L L L L L L L L L L L L L L L L L L L L L L L L 3.5.5.5.5.5.5.5.5.5.. .           ",
"                . . L 5.5.5.5.5.5.5.5.5.L L L L L L L L L L L L L L L L L L L L L L L L L L L 3.5.5.5.5.5.5.5.5.5.. .           ",
"                . . f U E 5.5.5.5.5.5.5.E E E E E E E R L L L L L L L L L L L L L L L L L R E 5.5.5.5.5.5.5.5.5.5.. .           ",
"                . . a L E 5.5.5.5.5.5.5.5.5.5.5.5.5.5.3.L L L L L L L L L L L L L L L L L E 5.5.5.5.5.5.5.5.5.5.5.. .           ",
"                  . < 1 U T T T 5.5.5.5.5.5.5.5.5.5.5.3.Y Y Y Y Y Y Y Y Y Y Y Y Y Y Y Y Y 3.5.5.5.5.5.5.5.5.5.5.5.. .           ",
"                    . . f L L L 5.5.5.5.5.5.5.5.5.5.5.5.5.5.5.5.5.5.5.5.5.5.5.5.5.5.5.5.5.5.5.5.5.5.5.5.5.5.5.5.5.. .           ",
"                    . . f L L L 3.3.3.3.5.5.5.5.5.5.5.5.5.5.5.5.5.5.5.5.5.5.5.5.5.5.5.5.5.5.5.5.5.5.5.5.5.5.5.5.5.. .           ",
"                        . . . . L L L L 5.5.5.5.5.5.5.5.5.5.5.5.5.5.5.5.5.5.5.5.5.5.5.5.5.5.5.5.5.5.5.5.5.q.q.q.q.. .           ",
"                        . . . . L L L L 5.5.5.5.5.5.5.5.5.5.5.5.5.5.5.5.5.5.5.5.5.5.5.5.5.5.5.5.5.5.5.5.5.q.q.q.q.. .           ",
"                                . . W W L L L L L L L P q.q.q.9.5.5.5.5.5.5.5.5.5.5.5.5.5.5.5.q.q.q.q.q.q.X X X X               ",
"                                . . W W L L L L L L L L q.q.q.9.5.5.5.5.5.5.5.5.5.5.5.5.5.5.5.q.q.q.q.q.q.. . . .               ",
"                  . . . . . . . . . W W b b b b ,.,.7.4.2 2 2 g 8.8.8.8.8.8.8.8.8.8.8.8.8.8.8.t.t.2 2 2 2                       ",
"                . . . . . . . . . . W W W W W W <.<.u.r.. . . ; q.q.q.q.q.q.q.q.q.q.q.q.q.q.q.u.u.. . . .                       ",
"                O O O O O O O O . . W W W W ! ! 2.2.u.u.> : . # E E E E E E E E E E E E E e.k.w.w.. . . .                       ",
"            . . = 6 6 6 6 6 6 6 . . W W W W _ _ W W u.i.m.z.. . . . . . . . . . . . . . . v.m.Q W . .                           ",
"            . . = 6 6 6 6 6 6 6 . . W W W W _ _ W W u.i.m.z.. . . . . . . . . . . . . . . v.m.Q W . .                           ",
"          . & 6 6 6 6 6 6 6 6 6 . . W W W W _ _ _ _ u.i.m.z.. . . . . . . . . . . . . . . v.m.` _ . .                           ",
"          . & 6 6 6 6 6 6 6 6 6 . . W W W W _ _ _ _ u.i.m.z.. . . . . . . . . . . . . . . v.m.` _ . .                           ",
"      . $ 4 5 6 6 6 6 6 6 6 6 6 . . 1.1.W W _ _ _ _ u.i.m.z.. . . . . . . . . . . m p.p.p.d.f.g.g.p.p.s.s.B.B.B.B.B.B.          ",
"      . % 6 6 6 6 6 6 6 6 6 6 6 . . <.<.W W _ _ _ _ u.i.m.z.. . . . . . . . . . . B s.s.s.s.s.s.s.s.s.s.s.B.B.B.B.B.B.          ",
"      . % 6 6 6 6 6 6 6 6 6 6 6 & & >.>.K K ( ( ) ) u.i.m.z.. . . . . . . . . . . M N N N h.j.a.a.N N s.s.B.B.B.B.B.B.          ",
"      . % 6 6 6 6 6 6 6 6 6 6 6 0 0 ' ' <.<.<.<.u.u.u.i.m.z.. . . . . . . . . . . . . . . z.N.u.u.. .     B.B.B.B.B.B.B.B.      ",
"      . % 6 6 6 6 6 6 6 6 6 6 6 ' ' ' ' <.<.<.<.u.u.u.i.N.l.X X X . . . . . . . . . . X X x.N.u.u.. .     B.B.B.B.B.B.B.B.      ",
"      . % 6 % X X X 4 6 0 0 0 0 ' ' ' ' { { +.+.+.+.+.+.@.+.X.X.X.9 . . . . . . . . . ' X.+.@.+.+.. .                           ",
"      . % 6 % . . . 4 6 0 ' ' ' ' ' ' ' ' ' O.O.O.O.O.O.O.O.O.O.O.0 . . . . . . . . . ] O.O.O.O.O.. .                           ",
"      . X O X . 3 8 9 0 0 ' ' ' ' ' ' ' o.o.O.O.O.O.O.O.O.O.O.O.O.o.[ [ [ [ [ [ [ [ [ o.O.O.O.O.O.. .                           ",
"      . . . . . 5 ' ' 0 ' ' ' ' ' ' ' ' O.O.O.O.O.O.O.O.O.O.O.O.O.O.O.O.O.O.O.O.O.O.O.O.O.O.O.O.O.. .                           ",
"      . + * * * 8 ' ' ' ' ' ' ' ' ' ' ' O.O.O.O.O.O.O.O.O.O.O.O.O.O.O.O.O.O.O.O.O.O.O.O.O.O.O.6 6 . .                           ",
"      . * 0 0 0 0 ' ' ' ' ' ' ' ' ' ' ' O.O.O.O.O.O.O.O.O.O.O.O.O.O.O.O.O.O.O.O.O.O.O.O.O.O.O.X .                               ",
"      . * ' ' ' ' ' ' ' ' ' ' ' ' ' ] ] O.O.O.O.O.O.o.o.o.o.o.o.o.o.o.o.O.O.O.O.O.O.O.O.O.O.O.X .                               ",
"      . * ' ' ' ' ' ' ' ' ' ' ' ' ' o.o.O.O.O.O.O.O.] ] ] ] ] ] ] ] ] | O.O.O.O.O.O.O.O.O.O.O.X .                               ",
"      . * ' ' ' ' ' ' ' ' ' ' ' ' ' O.O.O.O.O.O.O.O.' ' ' ' ' ' ' ' ' [ O.O.O.O.O.O.O.O.O.O.O.X .                               ",
"  . % 7 9 ' ' ' ' ' ' ' ' ' ' ' ' ' ] ] ] ] ] ] ] ] ' 0 v k ' ' ' ] o.o.O.O.O.O.O.O.O.O.O.O.O.X .                               ",
"  . % ' ' ' ' ' ' ' ' ' ' ' ' ' ' ' ' ' ' ' ' ' ' ' ' 0 W c ' ' ' [ O.O.O.O.O.O.O.O.O.O.O.O.O.X .                               ",
"  . % ' 6 * * * * * * * * * * * * * * * h h h h l l l l W c ' ]  .X.O.O.O.O.O.X.| o.O.O.O.=.n . .                               ",
"  . % ' 3 . . . . . . . . . . . . . . . A A A A W W W W W c ' ] O.O.O.O.O.O.O.[ ' X.O.O.O.^ _ . .                               ",
"  . $ 6 * . . . . . . . . . . . . . . . V V V V b b b b b x ' ] O.o...%.&.&.&.*.*.#...$.$./ ~ . .                               ",
"  . X X X                           . . a a a a Z Z Z Z Z C ' ] O...y ;.y.y.y.c.n.:.y C -.S S . .                               ",
"  . . . .                           . . p p p p A A A A A C 0 ] O.} p H u.u.u.b.N.J p D A A A . .                               ",
"                                    . . p p p p d d d d d d i t j u p f F F F G H f p d d d d . .                               ",
"                                    . . p p p p p p p p p p p p p p p p p p p p p p p p p p p . .                               ",
"                                        # # # # # # # # # # # # # # # # # # # # # # # # # # #                                   ",
"                                        . . . . . . . . . . . . . . . . . . . . . . . . . . .                                   ",
"                                        . . . . . . . . . . . . . . . . . . . . . . . . . . .                                   ",
"                                            . . . . . .                           . . . . . .                                   ",
"                                            . . . . . .                           . . . . . .                                   ",
"                                            . . . .                               . . . .                                       ",
"                                            . . . .                               . . . .                                       "
};
