/* XPM */
static char *d1bbbd270b5d40e282e4acd2f9c30ce8[] = {
/* columns rows colors chars-per-pixel */
"64 64 154 2 ",
"   c None",
".  c #000000",
"X  c #0C0100",
"o  c #0F0B05",
"O  c #140301",
"+  c #1C0300",
"@  c #150E08",
"#  c #140F07",
"$  c #1D140C",
"%  c #230400",
"&  c #2D0501",
"*  c #310500",
"=  c #360802",
"-  c #3B0803",
";  c #291B0E",
":  c #311E03",
">  c #142E07",
",  c #382204",
"<  c #352712",
"1  c #3A2914",
"2  c #3F3116",
"3  c #470700",
"4  c #540900",
"5  c #5B0D04",
"6  c #5F1E1F",
"7  c #600900",
"8  c #6A0B00",
"9  c #750D01",
"0  c #7D0D00",
"q  c #44260C",
"w  c #46280D",
"e  c #402F15",
"r  c #4B2C11",
"t  c #552715",
"y  c #512D19",
"u  c #5F2B15",
"i  c #47301C",
"p  c #4C3219",
"a  c #4D391A",
"s  c #543615",
"d  c #52361B",
"f  c #5D3F1F",
"g  c #54381B",
"h  c #723D08",
"j  c #612915",
"k  c #7F261D",
"l  c #5C1F22",
"z  c #5D3D20",
"x  c #462A36",
"c  c #493837",
"v  c #6D2426",
"b  c #793722",
"n  c #7E3438",
"m  c #26580E",
"M  c #327211",
"N  c #387F13",
"B  c #5B431F",
"V  c #6D4308",
"C  c #7C4901",
"Z  c #794A09",
"A  c #71440A",
"S  c #65401E",
"D  c #6D461B",
"F  c #7C4A1F",
"G  c #734A19",
"H  c #7E5019",
"J  c #5D4335",
"K  c #5D443C",
"L  c #654223",
"P  c #694625",
"I  c #664B22",
"U  c #6B4A25",
"Y  c #714E27",
"T  c #6D5025",
"R  c #725127",
"E  c #765428",
"W  c #7C5A2A",
"Q  c #795729",
"!  c #6B423C",
"~  c #363245",
"^  c #3B3444",
"/  c #3D384C",
"(  c #713C47",
")  c #5F4D4A",
"_  c #5F475A",
"`  c #70544A",
"'  c #7F5D4D",
"]  c #684150",
"[  c #544E66",
"{  c #594B61",
"}  c #585064",
"|  c #800D00",
" . c #8C0F00",
".. c #930F00",
"X. c #971001",
"o. c #9C1000",
"O. c #951B08",
"+. c #821A13",
"@. c #961A10",
"#. c #A61200",
"$. c #AA1200",
"%. c #AB1B01",
"&. c #B31300",
"*. c #B41A02",
"=. c #B91D01",
"-. c #9F2002",
";. c #93290A",
":. c #A42302",
">. c #B33306",
",. c #8A2D2C",
"<. c #C83905",
"1. c #824500",
"2. c #844C17",
"3. c #934011",
"4. c #87531E",
"5. c #9E5D1B",
"6. c #855326",
"7. c #885424",
"8. c #815F2C",
"9. c #9B5E23",
"0. c #82602C",
"q. c #88662E",
"w. c #9F6024",
"e. c #8C6A30",
"r. c #916E31",
"t. c #957333",
"y. c #997634",
"u. c #9C7935",
"i. c #A5662B",
"p. c #BC6D24",
"a. c #B4762B",
"s. c #BE7023",
"d. c #C57424",
"f. c #C87723",
"g. c #3C8915",
"h. c #7D9F1F",
"j. c #50B71C",
"k. c #74AC19",
"l. c #7CB01A",
"z. c #529D2F",
"x. c #86A618",
"c. c #91AD18",
"v. c #DC850F",
"b. c #DD8810",
"n. c #E0870F",
"m. c #E18B10",
"M. c #E38718",
"N. c #F89010",
"B. c #FF9D12",
"V. c #FF9C12",
"C. c #FC9B12",
"Z. c #DBFC03",
"A. c #DBFD03",
"S. c #DCFD03",
/* pixels */
"                                                . . . . . . . . . . . . .                                                       ",
"                                                . . . . . . . . . . . . .                                                       ",
"                                            . . I I I I I I I I I I I I I 1 . . . . . . .                                       ",
"                                            . . 0.0.0.0.0.0.0.0.0.0.0.0.0.e . . . . . . .                                       ",
"                                            ; ; 0.0.0.0.0.0.0.0.0.0.0.0.0.B < < < < < < <                                       ",
"                                . . . . . . L L 0.0.0.0.0.0.0.0.0.0.0.0.0.0.0.0.0.0.0.0.0.o .                                   ",
"                                . . . . . . L L 0.0.0.0.0.0.0.0.0.0.0.0.0.0.0.0.0.0.0.0.0.# .                                   ",
"                        . . . . L L L L q q L L 0.0.0.0.0.0.0.0.0.0.0.0.0.0.0.0.0.0.0.0.0.y.u.. .                               ",
"                        . . . . L L L L q q L L 0.0.0.0.0.0.0.0.0.0.0.0.0.0.0.0.0.0.0.0.0.y.u.. .                               ",
"                    . . I W W W L L L L q q L L L L L P 0.q.u.u.u.t.0.0.0.0.0.0.0.0.0.0.0.y.u.q q . . . .                       ",
"                    . . T 0.0.0.L L L L q q L L L L L L 0.q.u.u.u.t.0.0.0.0.0.0.0.0.0.0.0.y.u.w q . . . .                       ",
"                  . e a Q 0.0.0.L L L L q q L L L L L L Y R Q Q Q W 0.q.r.r.r.r.r.r.r.r.r.W Q q q a a a a . .                   ",
"                . . L 0.0.0.0.0.L L L L q q L L L L L L L L L L L U 0.e.u.u.u.u.u.u.u.u.u.U L q q 0.0.0.0.. .                   ",
"                . . L 0.0.0.0.0.U U L L r r L L L L L L L L L L L U W q.r.r.r.r.r.r.r.r.r.P L q q 0.0.0.0.$ $                   ",
"                . . L 0.0.0.0.0.0.0.L L L L L L L L L L L L L L L L L L L L L L L L L L L L L q q 0.0.0.0.0.0.. .               ",
"                . . L 0.0.0.0.0.0.0.L L L L L L L L L L L L L L L L L L L L L L L L L L L L L q q 0.0.0.0.0.0.. .               ",
"                . . p L W 0.0.0.0.0.0.0.0.0.L L L L L L L L L L L L L L L L L L L L L L L L L 8.0.0.0.0.0.0.0.0.0.. .           ",
"                . . p L W 0.0.0.0.0.0.0.0.0.L L L L L L L L L L L L L L L L L L L L L L L L L 8.0.0.0.0.0.0.0.0.0.. .           ",
"                    @ @ z U 8.0.0.0.0.0.0.0.W W W W W Q L L L L L L L L L L L L L L L L L Q W 0.0.0.0.0.0.0.0.0.0.. .           ",
"                    . . g L 8.0.0.0.0.0.0.0.0.0.0.0.0.8.L L L L L L L L L L L L L L L L L W 0.0.0.0.0.0.0.0.0.0.0.. .           ",
"                      . < 1 R E E E 0.0.0.0.0.0.0.0.0.8.Y Y Y Y Y Y Y Y Y Y Y Y Y Y Y Y Y 8.0.0.0.0.0.0.0.0.0.e.e.. .           ",
"                        . . z L L L 0.0.0.0.0.0.0.0.0.0.0.0.0.0.0.0.0.0.0.0.0.0.0.0.0.0.0.0.0.0.0.0.0.0.0.0.0.u.u.. .           ",
"                        . . z L L L 8.8.8.8.0.0.0.0.0.0.0.0.0.0.0.0.0.0.0.0.0.0.0.0.0.0.0.0.0.0.0.0.0.0.0.0.0.y.y.. .           ",
"                            . . . . L L L L 0.0.0.0.0.0.0.0.0.0.0.0.0.0.0.0.0.0.0.0.0.0.0.0.0.0.0.0.0.u.u.u.u.. .               ",
"                            . . . . L L L L 0.0.0.0.0.0.0.0.0.0.0.0.0.0.0.0.0.0.0.0.0.0.0.0.0.0.0.0.0.u.u.u.u.. .               ",
"            . . . . . . . .     . . ~ ~ ~ ~ L L L L L P u.u.u.u.u.u.u.u.u.u.u.u.u.u.u.u.u.u.u.u.u.u.u.. . . .                   ",
"            . . . . . . . .     . . ~ ~ ~ ~ L L L L L P u.u.u.u.u.u.u.u.u.u.u.u.u.u.u.u.u.u.u.u.u.u.u.. . . .                   ",
"      . . . % = = = = = = = . . . . ~ ~ ~ ~ c c 4.4.w.9.2 2 2 2 2 2 2 2 2 2 2 2 2 2 2 2 2 2 2 a.a.2 2                           ",
"      . . . * 5 5 5 5 5 5 5 . . . . ~ ~ ~ ~ ~ ~ 5.5.d.s.. . . . . . . . . . . . . . . . . . . d.d.. .                           ",
"      . X O - 5 5 5 5 5 5 5 + O . . ~ ~ ~ ~ / / 7.7.d.d., : . . . . . . . . . . . . . . . : , i.i.. .                           ",
"      . & 5 5 5 5 5 5 5 5 5 5 5 . . ~ ~ ~ ~ [ [ ~ ~ d.f.B.b.. . . . . . . . . . . . . . . m.B.^ ~ . .                           ",
"      . & 5 5 5 5 5 5 5 5 5 5 5 . . ~ ~ ~ ~ [ [ ~ ~ d.f.B.b.. . . . . . . . . . . . . . . m.B.^ ~ . .                           ",
"          . . . - 5 5 5 5 5 5 5 . . ~ ~ ~ ~ [ [ [ [ d.f.B.b.. . . . . . . . . . . . . . . m.B.} [ j.j.j.j.S.S.S.S.S.S.S.S.      ",
"          . . . - 5 5 5 5 5 5 5 . . ~ ~ ~ ~ [ [ [ [ d.f.B.b.. . . . . . . . . . . . . . . m.B.} [ j.j.j.j.Z.Z.Z.Z.Z.Z.Z.Z.      ",
"      . . . = 7 8 9 9 9 9 9 9 9 . . 6.6.~ ~ [ [ [ [ d.f.B.b.. . . . . . . . . . . m g.g.g.k.l.z.z.> >     Z.Z.Z.Z.Z.Z.          ",
"      . . . 3 | | | | | | | | | . . 5.5.~ ~ [ [ [ [ d.f.B.b.. . . . . . . . . . . N j.j.j.j.j.j.j.. .     Z.Z.Z.Z.Z.Z.          ",
"    + * * * 5 | | | | | | | | | * * 3.3.J J ` ` ' ' d.f.B.b.. . . . . . . . . . . m M M M x.c.h.h.. .     S.S.S.S.S.S.          ",
"  . & 0 0 0 0 | | | | | | | | | 0 0 | | 5.5.5.5.d.d.d.f.B.b.. . . . . . . . . . . . . . . b.C.f.d.. .                           ",
"  . & | | | | | | | | | | | | | | | | | 5.5.5.5.d.d.d.f.C.v.. . . . . . . . . . . . . . . n.C.d.d.. .                           ",
"  . & | | | | | | | | | | | | | | | | | *.*.*.*.*.*.*.*.=.=.#.#.#.9 . . . . . . . . . | #.=.=.*.*.. .                           ",
"  . & | | | | | | | | | | | | | | | | | &.&.&.&.&.&.&.&.&.&.&.&.&.9 . . . . . . . . .  .&.&.&.&.&.. .                           ",
"% 8 9 | | | | | | | | | | | | | | | | |  . .&.&.&.&.&.&.&.&.&.&.&.$...................$.&.&.&.&.&.. .                           ",
"% | | | | | | | | | | | | | | | | | | | | | &.&.&.&.&.&.&.&.&.&.&.&.&.&.&.&.&.&.&.&.&.&.&.&.&.&.&.. .                           ",
"% | | | | | | | | | | | | | | | | | | | | | o.o.o.o.o.o.&.&.&.&.&.&.&.&.&.&.&.&.&.&.&.&.&.&.&.5 5 . .                           ",
"% | | | | | | | | | | | | | | | | | | | | | | | | | | | &.&.&.&.&.&.&.&.&.&.&.&.&.&.&.&.&.&.&.. .                               ",
"% | 9 8 8 8 8 8 8 8 8 8 8 8 0 | | | | | | | | | | | | | $.$.$.$.$.$.&.&.&.&.&.&.&.&.&.&.&.&.&.. .                               ",
"% | 4 X X X X X X X X X X X 9 | | | | | | | | | | | | | | | | | | ..&.&.&.&.&.&.&.&.&.&.&.&.&.. .                               ",
"% | 4 . . . . . . . . . . . 9 | | | | | | | | | | | | | | | | | | ..&.&.&.&.&.&.&.&.&.&.&.&.&.. .                               ",
"X + +                       + + + + + + x x x x x x | | | | $.$.$.$.&.&.&.&.&.&.&.&.&.&.&.( ] . .                               ",
". . .                       . . . . . . ~ ~ ~ ~ ~ ~ | | | | &.&.&.&.&.&.&.&.&.&.&.&.&.&.&._ [ . .                               ",
"                                    . . f f f f 6 6 | | o.o.&.&.&.&.&.@.v +.X.$.&.&.&.,.n { [ . .                               ",
"                                    . . C C C C | | | | &.&.&.&.&.&.&.k ~ l | o.&.&.&.] [ [ [ . .                               ",
"                                    . . V V V V | |  . .&.&.:.:.:.-.O.k K b ;.>.<.:.O.! ) ) ) . .                               ",
"                                    . . p p p p | | $.$.&.%.1.1.1.h y F p.p.p.M.N.2.y A Z Z Z . .                               ",
"                                    . . i i i i 0 0 &.&.&.%.C C C V i F d.d.d.M.C.H i A C C C . .                               ",
"                                    . . i i i i t t j j j u s s s d i d S S S D G g i s s s s . .                               ",
"                                    . . i i i i i i i i i i i i i i i i i i i i i i i i i i i . .                               ",
"                                        $ $ $ $ $ $ $ $ $ $ $ $ $ $ $ $ $ $ $ $ $ $ $ $ $ $ $                                   ",
"                                        . . . . . . . . . . . . . . . . . . . . . . . . . . .                                   ",
"                                        . . . . . . . . . . . . . . . . . . . . . . . . . . .                                   ",
"                                            . . . . . .                           . . . . . .                                   ",
"                                            . . . . . .                           . . . . . .                                   ",
"                                            . . . .                               . . . .                                       ",
"                                            . . . .                               . . . .                                       "
};
