/* XPM */
static char *_2adf349e86f4dcc9722292056075205[] = {
/* columns rows colors chars-per-pixel */
"64 64 150 2 ",
"   c None",
".  c #000000",
"X  c #0B0100",
"o  c #0F0B05",
"O  c #140201",
"+  c #1B0300",
"@  c #150E08",
"#  c #140F07",
"$  c #1D140C",
"%  c #220400",
"&  c #2D0501",
"*  c #320601",
"=  c #3A0600",
"-  c #360802",
";  c #291B0E",
":  c #311E03",
">  c #142E07",
",  c #382204",
"<  c #352712",
"1  c #3A2914",
"2  c #3F3116",
"3  c #410600",
"4  c #4D0800",
"5  c #530800",
"6  c #5B0D04",
"7  c #600900",
"8  c #6C0B00",
"9  c #740C01",
"0  c #7D0D00",
"q  c #7F1E00",
"w  c #711708",
"e  c #44260C",
"r  c #46280D",
"t  c #402F16",
"y  c #4B2C11",
"u  c #4C2D19",
"i  c #47301C",
"p  c #4C3219",
"a  c #4D391A",
"s  c #543615",
"d  c #52361B",
"f  c #54381B",
"g  c #7E2F00",
"h  c #713D09",
"j  c #483323",
"k  c #5D3D20",
"l  c #442F3E",
"z  c #512B36",
"x  c #493837",
"c  c #692529",
"v  c #792F33",
"b  c #7F3438",
"n  c #2A5F0F",
"m  c #23500C",
"M  c #327211",
"N  c #387F13",
"B  c #5B431F",
"V  c #6E4309",
"C  c #7D4400",
"Z  c #7C4901",
"A  c #794A09",
"S  c #714406",
"D  c #65401E",
"F  c #6D461B",
"G  c #794A1C",
"H  c #7C501C",
"J  c #5D4335",
"K  c #654223",
"L  c #694625",
"P  c #664B22",
"I  c #6B4A25",
"U  c #714E27",
"Y  c #6C5025",
"T  c #725127",
"R  c #765428",
"E  c #795729",
"W  c #7C5A2A",
"Q  c #6D4F37",
"!  c #363245",
"~  c #3B3444",
"^  c #3D384C",
"/  c #523F50",
"(  c #5D4C4A",
")  c #4D455B",
"_  c #4D485F",
"`  c #464257",
"'  c #504652",
"]  c #70544A",
"[  c #7F5E4D",
"{  c #546953",
"}  c #544E66",
"|  c #545064",
" . c #800D00",
".. c #8A0F00",
"X. c #930F00",
"o. c #971000",
"O. c #9B1000",
"+. c #9E180C",
"@. c #941E02",
"#. c #891D17",
"$. c #A51200",
"%. c #AA1200",
"&. c #A0180A",
"*. c #B31300",
"=. c #B41A02",
"-. c #B91D01",
";. c #8E2009",
":. c #A42200",
">. c #B82E0A",
",. c #824500",
"<. c #934011",
"1. c #87531E",
"2. c #9E5D1B",
"3. c #8B4225",
"4. c #855326",
"5. c #885424",
"6. c #815F2C",
"7. c #9B5E23",
"8. c #82602C",
"9. c #88662E",
"0. c #9F6024",
"q. c #8D6A30",
"w. c #916E31",
"e. c #957333",
"r. c #997634",
"t. c #9C7935",
"y. c #A5662B",
"u. c #B4762B",
"i. c #BE7023",
"p. c #C46C21",
"a. c #C57424",
"s. c #C87723",
"d. c #3C8915",
"f. c #51B71C",
"g. c #74AC19",
"h. c #7CB01A",
"j. c #86A618",
"k. c #91AD18",
"l. c #DC850E",
"z. c #DD8810",
"x. c #DE8B10",
"c. c #DC831B",
"v. c #E0870F",
"b. c #E18B10",
"n. c #E58B19",
"m. c #EC9317",
"M. c #FF9D12",
"N. c #FC9B12",
"B. c #DBFC03",
"V. c #DBFD03",
/* pixels */
"                                                . . . . . . . . . . . . .                                                       ",
"                                                . . . . . . . . . . . . .                                                       ",
"                                            . . P P P P P P P P P P P P P 1 . . . . . . .                                       ",
"                                            . . 8.8.8.8.8.8.8.8.8.8.8.8.8.t . . . . . . .                                       ",
"                                            ; ; 8.8.8.8.8.8.8.8.8.8.8.8.8.B < < < < < < <                                       ",
"                                . . . . . . K K 8.8.8.8.8.8.8.8.8.8.8.8.8.8.8.8.8.8.8.8.8.o .                                   ",
"                                . . . . . . K K 8.8.8.8.8.8.8.8.8.8.8.8.8.8.8.8.8.8.8.8.8.# .                                   ",
"                        . . . . K K K K e e K K 8.8.8.8.8.8.8.8.8.8.8.8.8.8.8.8.8.8.8.8.8.r.t.X .                               ",
"                        . . . . K K K K e e K K 8.8.8.8.8.8.8.8.8.8.8.8.8.8.8.8.8.8.8.8.8.r.t.X .                               ",
"                    . . P W W W K K K K e e K K K K K L 8.9.t.t.t.e.8.8.8.8.8.8.8.8.8.8.8.r.t.e e . . . .                       ",
"                    . . Y 8.8.8.K K K K e e K K K K K K 8.9.t.t.t.e.8.8.8.8.8.8.8.8.8.8.8.r.t.r e . . . .                       ",
"                  . t a E 8.8.8.K K K K e e K K K K K K U T E E E W 8.9.w.w.w.w.w.w.w.w.w.W E e e a a a a . .                   ",
"                . . K 8.8.8.8.8.K K K K e e K K K K K K K K K K K I 8.q.t.t.t.t.t.t.t.t.t.I K e e 8.8.8.8.. .                   ",
"                . . K 8.8.8.8.8.I I K K y y K K K K K K K K K K K I W 9.w.w.w.w.w.w.w.w.w.L K e e 8.8.8.8.$ $                   ",
"                . . K 8.8.8.8.8.8.8.K K K K K K K K K K K K K K K K K K K K K K K K K K K K K e e 8.8.8.8.8.8.. .               ",
"                . . K 8.8.8.8.8.8.8.K K K K K K K K K K K K K K K K K K K K K K K K K K K K K e e 8.8.8.8.8.8.. .               ",
"                . . p K W 8.8.8.8.8.8.8.8.8.K K K K K K K K K K K K K K K K K K K K K K K K K 6.8.8.8.8.8.8.8.8.8.. .           ",
"                . . p K W 8.8.8.8.8.8.8.8.8.K K K K K K K K K K K K K K K K K K K K K K K K K 6.8.8.8.8.8.8.8.8.8.. .           ",
"                    @ @ k I 6.8.8.8.8.8.8.8.W W W W W E K K K K K K K K K K K K K K K K K E W 8.8.8.8.8.8.8.8.8.8.. .           ",
"                    . . f K 6.8.8.8.8.8.8.8.8.8.8.8.8.6.K K K K K K K K K K K K K K K K K W 8.8.8.8.8.8.8.8.8.8.8.. .           ",
"                      . < 1 T R R R 8.8.8.8.8.8.8.8.8.6.U U U U U U U U U U U U U U U U U 6.8.8.8.8.8.8.8.8.8.q.q.. .           ",
"                        . . k K K K 8.8.8.8.8.8.8.8.8.8.8.8.8.8.8.8.8.8.8.8.8.8.8.8.8.8.8.8.8.8.8.8.8.8.8.8.8.t.t.. .           ",
"                        . . k K K K 6.6.6.6.8.8.8.8.8.8.8.8.8.8.8.8.8.8.8.8.8.8.8.8.8.8.8.8.8.8.8.8.8.8.8.8.8.r.r.. .           ",
"                            . . . . K K K K 8.8.8.8.8.8.8.8.8.8.8.8.8.8.8.8.8.8.8.8.8.8.8.8.8.8.8.8.8.t.t.t.t.. .               ",
"                            . . . . K K K K 8.8.8.8.8.8.8.8.8.8.8.8.8.8.8.8.8.8.8.8.8.8.8.8.8.8.8.8.8.t.t.t.t.. .               ",
"          . . .                 . . ! ! ! ! K K K K K L t.t.t.t.t.t.t.t.t.t.t.t.t.t.t.t.t.t.t.t.t.t.t.. . . .                   ",
"          . . .                 . . ! ! ! ! K K K K K L t.t.t.t.t.t.t.t.t.t.t.t.t.t.t.t.t.t.t.t.t.t.t.. . . .                   ",
"          . + - + . . . . .     . . ! ! ! ! x x 1.1.0.7.2 2 2 2 2 2 2 2 2 2 2 2 2 2 2 2 2 2 2 u.u.2 2                           ",
"          . * 6 % . . . . .     . . ! ! ! ! ! ! 2.2.a.i.. . . . . . . . . . . . . . . . . . . a.a.. .                           ",
"          . * 6 & O O O O O     . . ! ! ! ! ^ ^ 5.5.a.a., : . . . . . . . . . . . . . . . : , y.y.. .                           ",
"          . * 6 6 6 6 6 6 6 X . . . ! ! ! ! } } ! ! a.s.M.z.. . . . . . . . . . . . . . . b.M.~ ! . .     B.B.B.B.B.B.B.B.      ",
"          . * 6 6 6 6 6 6 6 X . . . ! ! ! ! } } ! ! a.s.M.z.. . . . . . . . . . . . . . . b.M.~ ! . .     B.B.B.B.B.B.B.B.      ",
"      . = 0  . . . . . . . .6 6 . . ! ! ! ! } } } } a.s.M.z.. . . . . . . . . . . . . . . b.M.f.f.f.f.f.f.B.B.B.B.B.B.          ",
"      . =  . . . . . . . . .6 6 . . ! ! ! ! } } } } a.s.M.z.. . . . . . . . . . . . . . . b.M.f.f.f.f.f.f.B.B.B.B.B.B.          ",
"  . & 7 8  . . . . . . . . .9 9 7 7 4.4.! ! } } } } a.s.M.z.. . . . . . . . . . . n d.d.d.g.h.{ { > >                           ",
"  . &  . . . . . . . . . . . . . . .2.2.! ! } } } } a.s.M.z.. . . . . . . . . . . N f.f.f.f.f.| } . .                           ",
"+ * 4  . . . . . . . . . . . . . . .<.<.J J ] ] [ [ a.s.M.z.. . . . . . . . . . . m M M M j.k.[ [ . .                           ",
"% 0 0  . . . . . . . . . . . . . . . . .2.2.2.2.a.a.a.s.M.z.. . . . . . . . . . . . . . . z.N.a.a.. .                           ",
"% 0 0 0 0  . . . . . . . . . . . . . . .2.2.2.2.a.a.a.s.N.l.X X X . . . . . . . . . . X X v.N.a.a.. .                           ",
". X X X 3  . . . . . . . . . . . . .%.%.=.=.=.=.=.=.=.=.-.-.$.$.$.9 . . . . . . . . .  .$.-.-.=.=.. .                           ",
". . . . =  . . . . . . . . . . . . .*.*.*.*.*.*.*.*.*.*.*.*.*.*.*.0 . . . . . . . . . ..*.*.*.*.*.. .                           ",
"        O O O O 6  . . . . . . . . .....*.*.*.*.*.*.*.*.*.*.*.*.*.%.X.X.X.X.X.X.X.X.X.%.*.*.*.*.*.. .                           ",
"          . . . 5  . . . . . . . . . . .*.*.*.*.*.*.*.*.*.*.*.*.*.*.*.*.*.*.*.*.*.*.*.*.*.*.*.*.*.. .                           ",
"          . . . * 3 9  . . . . . . . . .O.O.O.O.*.*.*.*.*.*.*.*.*.*.*.*.*.*.*.*.*.*.*.*.*.*.*.6 6 . .                           ",
"                . . 7  . . . . . . . . . . . . .*.*.*.*.*.*.*.*.*.*.*.*.*.*.*.*.*.*.*.*.*.*.*.X .                               ",
"                . . 5 8 0  . . . . . . . . . . .%.%.%.%.%.%.%.%.%.%.*.*.*.*.*.*.*.*.*.*.*.&.+.X .                               ",
"                    X X 8  . . . . . . . . . . . . . . . . . . . .X.*.*.*.*.*.*.*.*.*.*.*.z l . .                               ",
"                    . . 8  . . . . . . . . . . . . . . . . . . . .X.*.*.*.*.*.*.*.*.*.*.*.l ! . .                               ",
"                        + + + +  . . . . . . . . . . . . . .%.%.%.%.*.*.*.*.*.*.*.*.*.c z ) _ . .                               ",
"                        . . . .  . . . . . . . . . . . . . .*.*.*.*.*.*.*.*.*.*.*.*.*.z ! } } . .                               ",
"                                = = = = g g g g  . .O.O.O.O.*.*.*.%.o.$.*.*.*.#.c v b / ` } } . .                               ",
"                                . . . . Z Z Z Z  . .*.*.*.*.*.*.*.$. .X.*.*.*.c ! ) } } } } } . .                               ",
"                                . . . . V V V V q q :.:.:.:.:.:.:.@.w ;.>.>.>.3.Q ( ' ( ( ( ( . .                               ",
"                                    . . p p p p C C ,.,.,.,.,.,.,.h u G p.p.p.c.m.H j V A A A . .                               ",
"                                    . . i i i i Z Z Z Z Z Z Z Z Z V i G a.a.a.n.N.H i S Z Z Z . .                               ",
"                                    . . i i i i s s s s s s s s s d i d D D D F G f i s s s s . .                               ",
"                                    . . i i i i i i i i i i i i i i i i i i i i i i i i i i i . .                               ",
"                                        $ $ $ $ $ $ $ $ $ $ $ $ $ $ $ $ $ $ $ $ $ $ $ $ $ $ $                                   ",
"                                        . . . . . . . . . . . . . . . . . . . . . . . . . . .                                   ",
"                                        . . . . . . . . . . . . . . . . . . . . . . . . . . .                                   ",
"                                            . . . . . .                           . . . . . .                                   ",
"                                            . . . . . .                           . . . . . .                                   ",
"                                            . . . .                               . . . .                                       ",
"                                            . . . .                               . . . .                                       "
};
