/* XPM */
static char *fed6ff0cdb19424e9e2f9f2adb082517[] = {
/* columns rows colors chars-per-pixel */
"64 64 141 2 ",
"   c None",
".  c #000000",
"X  c #0D0100",
"o  c #060D02",
"O  c #0F0B05",
"+  c #140200",
"@  c #1C0300",
"#  c #1D140B",
"$  c #220501",
"%  c #2E0500",
"&  c #330601",
"*  c #3A0600",
"=  c #281707",
"-  c #2B1908",
";  c #251B0D",
":  c #153007",
">  c #303701",
",  c #352712",
"<  c #3C2715",
"1  c #3F3116",
"2  c #450700",
"3  c #430A03",
"4  c #4B0900",
"5  c #570900",
"6  c #5B0C03",
"7  c #660B01",
"8  c #690C02",
"9  c #760C00",
"0  c #7C0D00",
"q  c #711708",
"w  c #44260C",
"e  c #46290D",
"r  c #402F16",
"t  c #4C2D19",
"y  c #552715",
"u  c #5C2815",
"i  c #512D19",
"p  c #423116",
"a  c #47301C",
"s  c #4B311A",
"d  c #4D391A",
"f  c #533616",
"g  c #52361C",
"h  c #54381B",
"j  c #612915",
"k  c #6C3D18",
"l  c #5E3D21",
"z  c #5B3E2A",
"x  c #493837",
"c  c #7F3538",
"v  c #1E450B",
"b  c #327211",
"n  c #367C13",
"m  c #7C4901",
"M  c #794A09",
"N  c #71440A",
"B  c #734A19",
"V  c #7E5019",
"C  c #5D4335",
"Z  c #654223",
"A  c #664B23",
"S  c #6D4B25",
"D  c #714D26",
"F  c #7A4E23",
"G  c #6D5025",
"H  c #735325",
"J  c #765428",
"K  c #7B5E2A",
"L  c #6B423C",
"P  c #363245",
"I  c #3A3444",
"U  c #713C47",
"Y  c #5F4D4A",
"T  c #4D475E",
"R  c #5F475A",
"E  c #684150",
"W  c #544E66",
"Q  c #594B61",
"!  c #555163",
"~  c #800D00",
"^  c #8C0F00",
"/  c #930F00",
"(  c #831302",
")  c #861B05",
"_  c #951000",
"`  c #9B1000",
"'  c #951B08",
"]  c #9B1A06",
"[  c #A31100",
"{  c #AD1200",
"}  c #A01805",
"|  c #B31300",
" . c #A52407",
".. c #AF2005",
"X. c #B62506",
"o. c #BC2903",
"O. c #8A2D2C",
"+. c #C02C03",
"@. c #C83905",
"#. c #844C17",
"$. c #975B1E",
"%. c #9F5E1B",
"&. c #815F2C",
"*. c #9A5D20",
"=. c #82602C",
"-. c #88652E",
";. c #8B692F",
":. c #8D6B30",
">. c #916F31",
",. c #957332",
"<. c #997634",
"1. c #9C7935",
"2. c #BF7023",
"3. c #BE7229",
"4. c #A47731",
"5. c #A57831",
"6. c #DC5E0A",
"7. c #DE650B",
"8. c #C67524",
"9. c #C87723",
"0. c #3C8915",
"q. c #4EB31B",
"w. c #51B71C",
"e. c #4C9527",
"r. c #549037",
"t. c #529038",
"y. c #829602",
"u. c #AB9B14",
"i. c #BEA716",
"p. c #DC8710",
"a. c #D68E11",
"s. c #DD8810",
"d. c #E18B10",
"f. c #F89010",
"g. c #F29F13",
"h. c #FF9D12",
"j. c #FE9D12",
"k. c #FD9C12",
"l. c #FB9B12",
"z. c #DBFC03",
"x. c #DCFD03",
/* pixels */
"                                                                                                                                ",
"                                                                                                                                ",
"                                                . . . . . . . . . . . . .                                                       ",
"                                                . . . . . . . . . . . . .                                                       ",
"                                                , , , , , , , , , , , , , ;                                                     ",
"                                            . . =.=.=.=.=.=.=.=.=.=.=.=.=.r . . . . . . .                                       ",
"                                            . . =.=.=.=.=.=.=.=.=.=.=.=.=.p . . . . . . .                                       ",
"                                . . . . . . Z Z =.=.=.=.=.=.=.=.=.=.=.=.=.=.=.=.=.=.=.=.=.O .                                   ",
"                                . . . . . . Z Z =.=.=.=.=.=.=.=.=.=.=.=.=.=.=.=.=.=.=.=.=.O .                                   ",
"                        . . . . Z Z Z Z w w Z Z =.=.=.=.=.=.=.=.=.=.=.=.=.=.=.=.=.=.=.=.=.,.<.. .                               ",
"                        . . . . Z Z Z Z w w Z Z =.=.=.=.=.=.=.=.=.=.=.=.=.=.=.=.=.=.=.=.=.<.1.. .                               ",
"                      . p d d d Z Z Z Z w w Z Z D D D D =.=.>.>.>.:.=.=.=.=.=.=.=.=.=.=.=.<.1.- = . . . .                       ",
"                    . . G =.=.=.Z Z Z Z w w Z Z Z Z Z Z =.=.1.1.1.,.=.=.=.=.=.=.=.=.=.=.=.<.1.e w . . . .                       ",
"                    # # H =.=.=.Z Z Z Z w w Z Z Z Z Z Z K K >.>.>.;.=.=.-.-.-.-.-.-.-.-.-.:.>.e w # # # #                       ",
"                . . Z =.=.=.=.=.Z Z Z Z w w Z Z Z Z Z Z Z Z Z Z Z S =.:.1.1.1.1.1.1.1.1.1.S Z w w =.=.=.=.. .                   ",
"                . . Z =.=.=.=.=.Z Z Z Z w w Z Z Z Z Z Z Z Z Z Z Z S =.:.1.1.1.1.1.1.1.1.1.S Z w w =.=.=.=.. .                   ",
"                . . Z =.=.=.=.=.=.=.Z Z Z Z Z Z Z Z Z Z Z Z Z Z Z Z Z Z Z Z Z Z Z Z Z Z Z Z Z w w =.=.=.=.=.=.. .               ",
"                . . Z =.=.=.=.=.=.=.Z Z Z Z Z Z Z Z Z Z Z Z Z Z Z Z Z Z Z Z Z Z Z Z Z Z Z Z Z w w =.=.=.=.=.=.. .               ",
"                . . g S K =.=.=.=.=.K K K K Z Z Z Z Z Z Z Z Z Z Z Z Z Z Z Z Z Z Z Z Z Z Z Z Z H H =.=.=.=.=.=.A A . .           ",
"                . . s Z K =.=.=.=.=.=.=.=.=.Z Z Z Z Z Z Z Z Z Z Z Z Z Z Z Z Z Z Z Z Z Z Z Z Z &.=.=.=.=.=.=.=.=.=.. .           ",
"                  . , < S J &.=.=.=.=.=.=.=.D D D D D D Z Z Z Z Z Z Z Z Z Z Z Z Z Z Z Z Z S D =.=.=.=.=.=.=.=.=.=.. .           ",
"                    . . h Z &.=.=.=.=.=.=.=.=.=.=.=.=.&.Z Z Z Z Z Z Z Z Z Z Z Z Z Z Z Z Z K =.=.=.=.=.=.=.=.=.=.=.. .           ",
"                    . . g Z K &.&.&.&.=.=.=.=.=.=.=.=.&.Z Z Z Z Z Z Z Z Z Z Z Z Z Z Z Z Z K =.=.=.=.=.=.=.=.=.=.=.. .           ",
"                        . . l Z Z Z =.=.=.=.=.=.=.=.=.=.=.=.=.=.=.=.=.=.=.=.=.=.=.=.=.=.=.=.=.=.=.=.=.=.=.=.=.1.1.. .           ",
"                        . . l Z Z Z =.=.=.=.=.=.=.=.=.=.=.=.=.=.=.=.=.=.=.=.=.=.=.=.=.=.=.=.=.=.=.=.=.=.=.=.=.1.1.. .           ",
"                            . . . . Z Z Z Z =.=.=.=.=.=.=.=.=.=.=.=.=.=.=.=.=.=.=.=.=.=.=.=.=.=.=.=.=.1.1.1.1.. .               ",
"                            . . . . Z Z Z Z =.=.=.=.=.=.=.=.=.=.=.=.=.=.=.=.=.=.=.=.=.=.=.=.=.=.=.=.=.1.1.1.1.. .               ",
"                                . . x x x x D D D D D D >.>.>.>.>.>.>.>.>.>.>.>.>.>.>.>.>.>.>.>.>.>.>.1 1 1 1 y.y.x.x.          ",
"                                . . P P P P Z Z Z Z Z Z 1.1.1.1.1.1.1.1.1.1.1.1.1.1.1.1.1.1.1.1.1.1.1.. . . . z.z.z.z.          ",
"                                . . P P P P z z D D F F K K K K K K K K K K K K K K K K K K K 4.5.K K . . > > z.z.z.z.          ",
"          . . .                 . . P P P P P P %.%.8.2.. . . . . . . . . . . . . . . . . . . 8.8.. .     z.z.z.z.z.z.          ",
"          . . .                 . . P P P P P P %.%.8.2.. . . . . . . . . . . . . . . . . . . 8.8.. .     z.z.z.z.z.z.          ",
"          . & 6 $ . . .         . . P P P P W W P P 8.9.h.p.. . . . . . . . . . . . . . . d.h.I P . .     z.z.z.z.              ",
"          . & 6 $ . . .         . . P P P P W W P P 8.9.h.s.. . . . . . . . . . . . . . . d.h.I P . .     z.z.z.z.              ",
"  . . . . . & 6 4 3 3 3 X . . . . . P P P P W W T T 8.9.h.s.. . . . . . . . . . . . . . . d.h.e.e.0.0.w.w.                      ",
"  . . . . . & 6 6 6 6 6 X . . . . . P P P P W W W W 8.9.h.s.. . . . . . . . . . . . . . . d.h.w.w.w.w.w.w.                      ",
"  . + & @ . & 6 6 6 6 6 % $ $ $ . . C C P P W W W W 8.9.h.s.. . . . . . . . . . . : v v v u.i.r.t.b b w.w.                      ",
"  . % 0 2 . & 6 6 6 6 6 6 6 6 6 . . %.%.P P W W W W 8.9.h.s.. . . . . . . . . . . n q.q.q.w.w.! ! . .                           ",
"  . % ~ 2 . & 6 6 6 6 6 6 6 6 6 . . %.%.I I W W W W 8.9.h.s.. . . . . . . . . . . n q.q.q.w.w.! W . .                           ",
"  . % ~ 0 9 0 0 7 6 6 6 0 0 0 0 9 9 ( ( $.$.*.*.3.3.8.9.h.s.. . . . . . . . . . . o o o o a.g.3.3.. .                           ",
"  . % ~ ~ ~ ~ ~ 8 6 6 6 0 ~ ~ ~ ~ ~ ~ ~ %.%.%.%.8.8.8.9.h.s.. . . . . . . . . . . . . . . d.h.8.8.. .                           ",
"  . % ~ ~ ~ ~ ~ 0 0 0 0 0 ~ ~ ~ 0 0 ~ ~ ) ) ....X.X.X.X.+.o./ / / 7 . . . . . . . . . 9 / o.+.X.X.. .                           ",
"  . % ~ ~ ~ ~ ~ ~ ~ ~ ~ ~ ~ ~ ~ 0 0 0 0 ~ ~ | | | | | | | | | | | 0 . . . . . . . . . ^ | | | | | . .                           ",
"  . $ 2 6 ~ ~ ~ ~ ~ ~ ~ ~ ~ ~ ~ ` ` ` ` ` ` | | | | | | | | | | | _ 5 5 5 5 5 5 5 5 5 ` | | | | | . .                           ",
"      . * ~ ~ ~ ~ ~ ~ ~ ~ ~ ~ ~ | | | | | | | | | | | | | | | | | | | | | | | | | | | | | | | | | . .                           ",
"      . & 8 9 ~ ~ ~ ~ ~ ~ ~ ~ ~ { { { { | | | | | | | | | | | | | | | | | | | | | | | | | | | _ _ . .                           ",
"        X X 4 ~ ~ ~ ~ ~ ~ ~ ~ ~ ^ ^ ^ ^ | | | | | | | | | | | | | | | | | | | | | | | | | | | + +                               ",
"          . 2 ~ ~ ~ ~ ~ ~ ~ ~ ~ ~ ~ ~ ~ | | | | | | | | | | | | | | | | | | | | | | | | | | | . .                               ",
"            + @ @ @ 7 ~ ~ ~ ~ ~ ~ ~ ~ ~ ^ ^ ^ ^ ^ ^ ^ ^ ^ ^ ^ _ | | | | | | | | | | | | | U E . .                               ",
"            . . . . 6 ~ ~ ~ ~ ~ ~ ~ ~ ~ ~ ~ ~ ~ ~ ~ ~ ~ ~ ~ ~ ^ | | | | | | | | | | | | | R W . .                               ",
"                    & * * * 0 ~ ~ ~ ~ ~ ~ ~ ~ ~ ~ ~ ~ ~ ~ ^ ` [ | | | [ _ [ | | | | | O.c Q W . .                               ",
"                    . . . . 9 ~ ~ ~ ~ ~ ~ ~ ~ ~ ~ ~ ~ ~ ~ ^ | | | | | ` ~ ` | | | | | E W W W . .                               ",
"                    . . . . 5 6 6 6 6 6 q q ~ ~ ^ ^ ^ ^ ^ / | | | { [ ` ^ [ | o.@. .' L Y Y Y . .                               ",
"                            X X X X X X t t ~ ~ { { { { { { | | | [ ^ _ { | | 6.f.#.i N M M M . .                               ",
"                            . . . . . . a a 0 0 | | | | | | | | | [ 0 _ | | | 7.l.V a N m m m . .                               ",
"                                    . . a a y y ^ ^ | | | | | } j u y u j j j k B h a f f f f . .                               ",
"                                    . . a a a a ~ ~ | | | | | ] a a a a a a a a a a a a a a a . .                               ",
"                                        # # # # & & 4 4 4 4 4 3 # # # # # # # # # # # # # # #                                   ",
"                                        . . . . . . . . . . . . . . . . . . . . . . . . . . .                                   ",
"                                        . . . . . . . . . . . . . . . . . . . . . . . . . . .                                   ",
"                                            . . . . . .                           . . . . . .                                   ",
"                                            . . . . . .                           . . . . . .                                   ",
"                                            . . . .                               . . . .                                       ",
"                                            . . . .                               . . . .                                       "
};
