/* XPM */
static char *dc02f14026194f12991016e747b81390[] = {
/* columns rows colors chars-per-pixel */
"64 64 131 2 ",
"   c None",
".  c #000000",
"X  c #0C0100",
"o  c #060D02",
"O  c #0F0B05",
"+  c #140200",
"@  c #1D0401",
"#  c #1D140B",
"$  c #230502",
"%  c #2D0500",
"&  c #2F0F07",
"*  c #330601",
"=  c #3B0600",
"-  c #360802",
";  c #281707",
":  c #251B0D",
">  c #2B1908",
",  c #153007",
"<  c #352712",
"1  c #3C2715",
"2  c #3F3116",
"3  c #450700",
"4  c #430903",
"5  c #4A0800",
"6  c #560901",
"7  c #5B0C03",
"8  c #630B00",
"9  c #6A0B00",
"0  c #750C00",
"q  c #7C0D00",
"w  c #7F1D00",
"e  c #711708",
"r  c #44260C",
"t  c #46280D",
"y  c #402F16",
"u  c #4C2D19",
"i  c #423116",
"p  c #47301C",
"a  c #4B311B",
"s  c #4D391A",
"d  c #553615",
"f  c #52361C",
"g  c #612915",
"h  c #722411",
"j  c #5E3D21",
"k  c #5B3E2A",
"l  c #493837",
"z  c #1E450B",
"x  c #327211",
"c  c #367C13",
"v  c #7D4400",
"b  c #7C4901",
"n  c #7A4A09",
"m  c #5D4335",
"M  c #654223",
"N  c #664B22",
"B  c #6D4B25",
"V  c #714E26",
"C  c #7A4E23",
"Z  c #6D5025",
"A  c #735325",
"S  c #765428",
"D  c #7B5E29",
"F  c #363245",
"G  c #3A3444",
"H  c #713C47",
"J  c #5F4D4A",
"K  c #4D475E",
"L  c #5F475A",
"P  c #51495C",
"I  c #674841",
"U  c #684150",
"Y  c #54764A",
"T  c #544E66",
"R  c #585064",
"E  c #800D00",
"W  c #8B0F00",
"Q  c #930F00",
"!  c #831302",
"~  c #851B04",
"^  c #951000",
"/  c #9B1000",
"(  c #A41100",
")  c #AD1300",
"_  c #A71F00",
"`  c #B31300",
"'  c #81200D",
"]  c #873E01",
"[  c #8C3A00",
"{  c #A42200",
"}  c #B62506",
"|  c #BB2803",
" . c #C02C03",
".. c #824500",
"X. c #975B1E",
"o. c #9F5E1B",
"O. c #815F2C",
"+. c #9A5D20",
"@. c #82602C",
"#. c #88652E",
"$. c #8B692F",
"%. c #8D6B31",
"&. c #916F31",
"*. c #957332",
"=. c #997634",
"-. c #9C7935",
";. c #BE7123",
":. c #BE7A23",
">. c #BD7229",
",. c #A47731",
"<. c #A57831",
"1. c #C67524",
"2. c #C87723",
"3. c #3C8915",
"4. c #4EB31B",
"5. c #51B61C",
"6. c #AB9B14",
"7. c #BEA716",
"8. c #DC8710",
"9. c #D68E11",
"0. c #DD8810",
"q. c #E18B10",
"w. c #E08B10",
"e. c #F29F13",
"r. c #FD9C12",
"t. c #FF9D12",
"y. c #DBFC02",
"u. c #DBFC03",
"i. c #DBFD03",
"p. c #DCFD03",
"a. c #DDFD03",
/* pixels */
"                                                                                                                                ",
"                                                                                                                                ",
"                                                . . . . . . . . . . . . .                                                       ",
"                                                . . . . . . . . . . . . .                                                       ",
"                                                < < < < < < < < < < < < < :                                                     ",
"                                            . . @.@.@.@.@.@.@.@.@.@.@.@.@.y . . . . . . .                                       ",
"                                            . . @.@.@.@.@.@.@.@.@.@.@.@.@.i . . . . . . .                                       ",
"                                . . . . . . M M @.@.@.@.@.@.@.@.@.@.@.@.@.@.@.@.@.@.@.@.@.O .                                   ",
"                                . . . . . . M M @.@.@.@.@.@.@.@.@.@.@.@.@.@.@.@.@.@.@.@.@.O .                                   ",
"                        . . . . M M M M r r M M @.@.@.@.@.@.@.@.@.@.@.@.@.@.@.@.@.@.@.@.@.*.=.. .                               ",
"                        . . . . M M M M r r M M @.@.@.@.@.@.@.@.@.@.@.@.@.@.@.@.@.@.@.@.@.=.-.. .                               ",
"                      . i s s s M M M M r r M M V V V V @.@.&.&.&.%.@.@.@.@.@.@.@.@.@.@.@.=.-.> ; . . . .                       ",
"                    . . Z @.@.@.M M M M r r M M M M M M @.@.-.-.-.*.@.@.@.@.@.@.@.@.@.@.@.=.-.t r . . . .                       ",
"                    # # A @.@.@.M M M M r r M M M M M M D D &.&.&.$.@.@.#.#.#.#.#.#.#.#.#.%.&.t r # # # #                       ",
"                . . M @.@.@.@.@.M M M M r r M M M M M M M M M M M B @.%.-.-.-.-.-.-.-.-.-.B M r r @.@.@.@.. .                   ",
"                . . M @.@.@.@.@.M M M M r r M M M M M M M M M M M B @.%.-.-.-.-.-.-.-.-.-.B M r r @.@.@.@.. .                   ",
"                . . M @.@.@.@.@.@.@.M M M M M M M M M M M M M M M M M M M M M M M M M M M M M r r @.@.@.@.@.@.. .               ",
"                . . M @.@.@.@.@.@.@.M M M M M M M M M M M M M M M M M M M M M M M M M M M M M r r @.@.@.@.@.@.. .               ",
"                . . f B D @.@.@.@.@.D D D D M M M M M M M M M M M M M M M M M M M M M M M M M A A @.@.@.@.@.@.N N . .           ",
"                . . a M D @.@.@.@.@.@.@.@.@.M M M M M M M M M M M M M M M M M M M M M M M M M O.@.@.@.@.@.@.@.@.@.. .           ",
"                  . < 1 B S O.@.@.@.@.@.@.@.V V V V V V M M M M M M M M M M M M M M M M M B V @.@.@.@.@.@.@.@.@.@.. .           ",
"                    . . f M O.@.@.@.@.@.@.@.@.@.@.@.@.O.M M M M M M M M M M M M M M M M M D @.@.@.@.@.@.@.@.@.@.@.. .           ",
"                    . . f M D O.O.O.O.@.@.@.@.@.@.@.@.O.M M M M M M M M M M M M M M M M M D @.@.@.@.@.@.@.@.@.@.@.. .           ",
"                        . . j M M M @.@.@.@.@.@.@.@.@.@.@.@.@.@.@.@.@.@.@.@.@.@.@.@.@.@.@.@.@.@.@.@.@.@.@.@.@.-.-.. .           ",
"                        . . j M M M @.@.@.@.@.@.@.@.@.@.@.@.@.@.@.@.@.@.@.@.@.@.@.@.@.@.@.@.@.@.@.@.@.@.@.@.@.-.-.. .           ",
"                            . . . . M M M M @.@.@.@.@.@.@.@.@.@.@.@.@.@.@.@.@.@.@.@.@.@.@.@.@.@.@.@.@.-.-.-.-.. .               ",
"                            . . . . M M M M @.@.@.@.@.@.@.@.@.@.@.@.@.@.@.@.@.@.@.@.@.@.@.@.@.@.@.@.@.-.-.-.-.. .               ",
"                                . . l l l l V V V V V V &.&.&.&.&.&.&.&.&.&.&.&.&.&.&.&.&.&.&.&.&.&.&.2 2 2 2                   ",
"                                . . F F F F M M M M M M -.-.-.-.-.-.-.-.-.-.-.-.-.-.-.-.-.-.-.-.-.-.-.. . . .                   ",
"                                . . F F F F k k V V C C D D D D D D D D D D D D D D D D D D D ,.<.D D . . . .                   ",
"                                . . F F F F F F o.o.1.;.. . . . . . . . . . . . . . . . . . . 1.1.. .             u.u.u.u.      ",
"                                . . F F F F F F o.o.1.;.. . . . . . . . . . . . . . . . . . . 1.1.. .             u.u.u.u.      ",
"          . . .             . . . . F F F F T T F F 1.2.t.8.. . . . . . . . . . . . . . . q.t.G F . .     a.a.a.a.u.u.u.u.      ",
"          . . .             . . . . F F F F T T F F 1.2.t.0.. . . . . . . . . . . . . . . q.t.G F . .     u.u.u.u.u.u.u.u.      ",
"          . $ 4 @ . . . . . 4 4 . . F F F F T T K K 1.2.t.0.. . . . . . . . . . . . . . . q.t.P K 3.3.5.5.u.u.u.u.u.u.          ",
"          . * 7 $ . . . . . 6 7 . . F F F F T T T T 1.2.t.0.. . . . . . . . . . . . . . . q.t.R T 5.5.5.5.u.u.u.u.u.u.          ",
"          . * 7 - $ $ $ $ $ 6 7 . . m m F F T T T T 1.2.t.0.. . . . . . . . . . . , z z z 6.7.Y Y x x 5.5.a.a.a.a.a.a.          ",
"          . * 7 7 7 7 7 7 7 7 7 . . o.o.F F T T T T 1.2.t.0.. . . . . . . . . . . c 4.4.4.5.5.5.5.. .                           ",
"          . * 7 7 7 7 7 7 7 7 7 . . o.o.G G T T T T 1.2.t.0.. . . . . . . . . . . c 4.4.4.5.5.5.5.. .                           ",
"  . . . . . * 7 7 7 7 7 7 7 q q 0 0 ! ! X.X.+.+.>.>.1.2.t.0.. . . . . . . . . . . o o o o 9.e.:.:.. .                           ",
"  . . . . . * 7 7 7 7 7 7 7 q E E E E E o.o.o.o.1.1.1.2.t.0.. . . . . . . . . . . . . . . q.t.1.1.. .                           ",
"  . $ 9 = . X + 6 q q q q q E E E E E E ~ ~ ~ ~ } } } }  .| Q Q Q 8 . . . . . . . . . 0 Q |  .} } . .                           ",
"  . % E 3 . . . 6 E E E E E E E E E E E E E E E ` ` ` ` ` ` ` ` ` q . . . . . . . . . W ` ` ` ` ` . .                           ",
"  . % E 8 = = = 9 E E E E q q E E E E E E E / / ` ` ` ` ` ` ` ` ` ^ 6 6 6 6 6 6 6 6 6 / ` ` ` ` ` . .                           ",
"  . % E q q q q q E E E E E E E E E E E E E ` ` ` ` ` ` ` ` ` ` ` ` ` ` ` ` ` ` ` ` ` ` ` ` ` ` ` . .                           ",
"  . % 9 0 E E E E E E E E E E E E E W W W W ` ` ` ` ` ` ` ` ` ` ` ` ` ` ` ` ` ` ` ` ` ` ` ` ` ^ ^ . .                           ",
"      X 3 E E E E E E E E E E E E E ) ) ) ) ` ` ` ` ` ` ` ` ` ` ` ` ` ` ` ` ` ` ` ` ` ` ` ` ` + +                               ",
"      . = E E E E E E E E E E E E E ` ` ` ` ` ` ` ` ` ` ` ` ` ` ` ` ` ` ` ` ` ` ` ` ` ` ` ` ` . .                               ",
"        + @ 6 E E E E E E E E E E E W W W W W W W W W W W W W W W / ` ` ` ` ` ` ` ` ` ` ` H U . .                               ",
"          . 3 E E E E E E E E E E E E E E E E E E E E E E E E E E Q ` ` ` ` ` ` ` ` ` ` ` L T . .                               ",
"            % = = = = = 0 E E E E E E E E E E E E E E E E E E W / ( ` ` ` ` ` ` ` ` ` ` ` L T . .                               ",
"            . . . . . . 9 E E E E E E E E E E E E E E E E E E W ` ` ` ` ` ` ` ` ` ` ` ` ` L T . .                               ",
"              . . . . . 6 7 7 7 7 7 7 7 e e e e w w w w E E W ^ ` ` ` ) ( ) ` ` ` ` ` _ { I J . .                               ",
"                        X X X X X X X X u u u u v v v v E W ) ) ` ` ` ( W / ` ` ` ` ` [ ..n n . .                               ",
"                        . . . . . . . . p p p p b b b v E W ` ` ` ` ` / E / ` ` ` ` ` ] b b b . .                               ",
"                                    . . p p p p d d w ~ ( ( ` ` ` ( W ^ ( ) ` ' g g g d d d d . .                               ",
"                                    . . p p p p p p E E ` ` ` ` ` ( E Q ` ` ` h p p p p p p p . .                               ",
"                                        # # # # # # * * 5 5 5 5 5 3 * = 5 5 5 & # # # # # # #                                   ",
"                                        . . . . . . . . . . . . . . . . . . . . . . . . . . .                                   ",
"                                        . . . . . . . . . . . . . . . . . . . . . . . . . . .                                   ",
"                                            . . . . . .                           . . . . . .                                   ",
"                                            . . . . . .                           . . . . . .                                   ",
"                                            . . . .                               . . . .                                       ",
"                                            . . . .                               . . . .                                       "
};
