/* XPM */
static char *result[] = {
/* columns rows colors chars-per-pixel */
"64 64 42 1 ",
"  c #AE7C04",
". c #AF7C04",
"X c #AF7D04",
"o c #AF7C05",
"O c #AE7D05",
"+ c #DCA200",
"@ c #DDA200",
"# c #DCA300",
"$ c #DDA300",
"% c #DCA201",
"& c #DDA201",
"* c #DCA301",
"= c #DDA301",
"- c #F8B604",
"; c #F9B604",
": c #F8B704",
"> c #F9B704",
", c #F8B605",
"< c #F9B605",
"1 c #F8B705",
"2 c #F9B705",
"3 c #FCB800",
"4 c #FCB900",
"5 c #FCB801",
"6 c #FDB801",
"7 c #FED86E",
"8 c #FFD86E",
"9 c #FED96E",
"0 c #FFD96E",
"q c #FED86F",
"w c #FFD86F",
"e c #FED96F",
"r c #FFD96F",
"t c #FEFEFE",
"y c #FFFEFE",
"u c #FEFFFE",
"i c #FFFFFE",
"p c #FEFEFF",
"a c #FFFEFF",
"s c #FEFFFF",
"d c white",
"f c None",
/* pixels */
"ffffffffffffffffffffffffffffffffffffffffffffffffffffffffffffffff",
"ffffffffffffffffffffffffffffffffffffffffffffffffffffffffffffffff",
"ffffffffffffffffffffffffffffffffffffffffffffffffffffffffffffffff",
"ffffffffffffffffffffffffffffffffffffffffffffffffffffffffffffffff",
"ffffffffffffffffffffffffffffffffffffffffffffffffffffffffffffffff",
"ffffffffffffffffffffffffffffffffffffffffffffffffffffffffffffffff",
"ffffffffffffffffffffffffffffffffffffffffffffffffffffffffffffffff",
"ffffffffffffffffffffffffffffffffffffffffffffffffffffffffffffffff",
"ffffffffffffffffffffffffffffffffffffffffffffffffffffffffffffffff",
"ffffffffffffffffffffffffffffffffffffffffffffffffffffffffffffffff",
"ffffffffffffffffffffffffffffffffffffffffffffffffffffffffffffffff",
"ffffffffffffffffffffffffffffffffffffffffffffffffffffffffffffffff",
"ffffffffffffffffffffffffffffffffffffffffffffffffffffffffffffffff",
"ffffffffffffffffffffffffffffffffffffffffffffffffffffffffffffffff",
"ffffffffffffffffffffffffffffffffffffffffffffffffffffffffffffffff",
"ffffffffffffffffffffffffffffff:>-:54,1ffffffffffffffffffffffffff",
"ffffffffffffffffffffffffffffff<1>-361,ffffffffffffffffffffffffff",
"ffffffffffffffffffffffffff;<ai99e77qdp;1<1ffffffffffffffffffffff",
"ffffffffffffffffffffffffff12pt8qeeqwyt<-21ffffffffffffffffffffff",
"ffffffffffffffffffffffff=#adyaup980wwraauu<>ffffffffffffffffffff",
"ffffffffffffffffffffffff==asydup0rqq0wypta:>ffffffffffffffffffff",
"ffffffffffffffffffffffff=*addass<2 o.Xr7au>2ffffffffffffffffffff",
"ffffffffffffffffffffffff==yaptsy<,oOX qwyd,>ffffffffffffffffffff",
"ffffffffffffffffffffff==-;88at11dsudyd.O80su<,ffffffffffffffffff",
"ffffffffffffffffffffff$%,,80pa2;uippis .99uu-2ffffffffffffffffff",
"ffffffffffffffffffffff#%110q,1ptaayiuass,;00:,ffffffffffffffffff",
"ffffffffffffffffffffff@&1>0w;,tysypyysya;,rq2:ffffffffffffffffff",
"ffffffffffffffffffffff&*<<772<ipsydydaai,>7e1>ffffffffffffffffff",
"ffffffffffffffffffffff+*->7w<>idpptuiatd2,ee,<ffffffffffffffffff",
"ffffffffffffffffffffff@=<<r0:287yaddiyui:<w8:2ffffffffffffffffff",
"ffffffffffffffffffffff%&,;ew,,88auiasyap,1qw1;ffffffffffffffffff",
"ffffffffffffffffffffff=*;;re<,8878ddisua,>0w12ffffffffffffffffff",
"ffffffffffffffffffffff*=--881,870waaiptt:>00<:ffffffffffffffffff",
"ffffffffffffffffffffff%&,,08<2780080asdd2:pd1>ffffffffffffffffff",
"ffffffffffffffffffffff=&<;8w<28e88w8ipad;-ua;<ffffffffffffffffff",
"ffffffffffffffffffffff$=-,eq:>7w888988pt;>dpdaffffffffffffffffff",
"ffffffffffffffffffffff&#:,8r::88q888w7iu-2ddiaffffffffffffffffff",
"ffffffffffffffffffffff$*<>000w1;w98888,>tppdtpffffffffffffffffff",
"ffffffffffffffffffffff$$:<0787<<888788,1iyaspdffffffffffffffffff",
"ffffffffffffffffffffffff..<:87w8>:;12,0888yuffffffffffffffffffff",
"ffffffffffffffffffffffff..11788r;><:--8880uiffffffffffffffffffff",
"ffffffffffffffffffffffffX.:<2,888078780e98$$ffffffffffffffffffff",
"ffffffffffffffffffffffff..,<,;7w8r88w88r0e@=ffffffffffffffffffff",
"ffffffffffffffffffffffffffXX#&1-1-,,,-#=&@ffffffffffffffffffffff",
"ffffffffffffffffffffffffff.X==<,,;,<,-#*#&ffffffffffffffffffffff",
"ffffffffffffffffffffffffffffff&%#%&=$&ffffffffffffffffffffffffff",
"ffffffffffffffffffffffffffffff$*==$&==ffffffffffffffffffffffffff",
"ffffffffffffffffffffffffffffffffffffffffffffffffffffffffffffffff",
"ffffffffffffffffffffffffffffffffffffffffffffffffffffffffffffffff",
"ffffffffffffffffffffffffffffffffffffffffffffffffffffffffffffffff",
"ffffffffffffffffffffffffffffffffffffffffffffffffffffffffffffffff",
"ffffffffffffffffffffffffffffffffffffffffffffffffffffffffffffffff",
"ffffffffffffffffffffffffffffffffffffffffffffffffffffffffffffffff",
"ffffffffffffffffffffffffffffffffffffffffffffffffffffffffffffffff",
"ffffffffffffffffffffffffffffffffffffffffffffffffffffffffffffffff",
"ffffffffffffffffffffffffffffffffffffffffffffffffffffffffffffffff",
"ffffffffffffffffffffffffffffffffffffffffffffffffffffffffffffffff",
"ffffffffffffffffffffffffffffffffffffffffffffffffffffffffffffffff",
"ffffffffffffffffffffffffffffffffffffffffffffffffffffffffffffffff",
"ffffffffffffffffffffffffffffffffffffffffffffffffffffffffffffffff",
"ffffffffffffffffffffffffffffffffffffffffffffffffffffffffffffffff",
"ffffffffffffffffffffffffffffffffffffffffffffffffffffffffffffffff",
"ffffffffffffffffffffffffffffffffffffffffffffffffffffffffffffffff",
"ffffffffffffffffffffffffffffffffffffffffffffffffffffffffffffffff"
};
