/* XPM */
static char *result[] = {
/* columns rows colors chars-per-pixel */
"64 64 44 1 ",
"  c #AE7C04",
". c #AF7C04",
"X c #AE7D04",
"o c #AF7D04",
"O c #AE7C05",
"+ c #AF7C05",
"@ c #AE7D05",
"# c #AF7D05",
"$ c #DDA200",
"% c #DCA300",
"& c #DDA300",
"* c #DCA201",
"= c #DDA201",
"- c #DCA301",
"; c #DDA301",
": c #F8B604",
"> c #F9B604",
", c #F8B704",
"< c #F9B704",
"1 c #F8B605",
"2 c #F9B605",
"3 c #F8B705",
"4 c #F9B705",
"5 c #FCB900",
"6 c #FDB900",
"7 c #FCB801",
"8 c #FDB901",
"9 c #FED86E",
"0 c #FFD86E",
"q c #FED96E",
"w c #FFD96E",
"e c #FED86F",
"r c #FFD86F",
"t c #FED96F",
"y c #FFD96F",
"u c #FEFEFE",
"i c #FFFEFE",
"p c #FEFFFE",
"a c #FFFFFE",
"s c #FEFEFF",
"d c #FFFEFF",
"f c #FEFFFF",
"g c white",
"h c None",
/* pixels */
"hhhhhhhhhhhhhhhhhhhhhhhhhhhhhhhhhhhhhhhhhhhhhhhhhhhhhhhhhhhhhhhh",
"hhhhhhhhhhhhhhhhhhhhhhhhhhhhhhhhhhhhhhhhhhhhhhhhhhhhhhhhhhhhhhhh",
"hhhhhhhhhhhhhhhhhhhhhhhhhhhhhhhhhhhhhhhhhhhhhhhhhhhhhhhhhhhhhhhh",
"hhhhhhhhhhhhhhhhhhhhhhhhhhhhhhhhhhhhhhhhhhhhhhhhhhhhhhhhhhhhhhhh",
"hhhhhhhhhhhhhhhhhhhhhhhhhhhhhhhhhhhhhhhhhhhhhhhhhhhhhhhhhhhhhhhh",
"hhhhhhhhhhhhhhhhhhhhhhhhhhhhhhhhhhhhhhhhhhhhhhhhhhhhhhhhhhhhhhhh",
"hhhhhhhhhhhhhhhhhhhhhhhhhhhhhhhhhhhhhhhhhhhhhhhhhhhhhhhhhhhhhhhh",
"hhhhhhhhhhhhhhhhhhhhhhhhhhhhhhhhhhhhhhhhhhhhhhhhhhhhhhhhhhhhhhhh",
"hhhhhhhhhhhhhhhhhhhhhhhhhhhhhhhhhhhhhhhhhhhhhhhhhhhhhhhhhhhhhhhh",
"hhhhhhhhhhhhhhhhhhhhhhhhhhhhhhhhhhhhhhhhhhhhhhhhhhhhhhhhhhhhhhhh",
"hhhhhhhhhhhhhhhhhhhhhhhhhhhhhhhhhhhhhhhhhhhhhhhhhhhhhhhhhhhhhhhh",
"hhhhhhhhhhhhhhhhhhhhhhhhhhhhhhhhhhhhhhhhhhhhhhhhhhhhhhhhhhhhhhhh",
"hhhhhhhhhhhhhhhhhhhhhhhhhhhhhhhhhhhhhhhhhhhhhhhhhhhhhhhhhhhhhhhh",
"hhhhhhhhhhhhhhhhhhhhhhhhhhhhhhhhhhhhhhhhhhhhhhhhhhhhhhhhhhhhhhhh",
"hhhhhhhhhhhhhhhhhhhhhhhhhhhhhhhhhhhhhhhhhhhhhhhhhhhhhhhhhhhhhhhh",
"hhhhhhhhhhhhhhhhhhhhhhhhhhhh<<<,2476>,hhhhhhhhhhhhhhhhhhhhhhhhhh",
"hhhhhhhhhhhhhhhhhhhhhhhhhhhh:2<<<35811hhhhhhhhhhhhhhhhhhhhhhhhhh",
"hhhhhhhhhhhhhhhhhhhhhhhhX X q9q9tre0ii4<44hhhhhhhhhhhhhhhhhhhhhh",
"hhhhhhhhhhhhhhhhhhhhhhhhO#+#q0et90eeas2,23hhhhhhhhhhhhhhhhhhhhhh",
"hhhhhhhhhhhhhhhhhhhhhhOOy0ee0q0ewqrqqwsppp>:hhhhhhhhhhhhhhhhhhhh",
"hhhhhhhhhhhhhhhhhhhhhhoOw09rrrw0e00q0qsdgi,3hhhhhhhhhhhhhhhhhhhh",
"hhhhhhhhhhhhhhhhhhhh ow0rr09#+O# #. # eq0epi><hhhhhhhhhhhhhhhhhh",
"hhhhhhhhhhhhhhhhhhhh+oyeew9q #X+oo#O #00qruf,<hhhhhhhhhhhhhhhhhh",
"hhhhhhhhhhhhhhhhhhhh+.ewy9o@,:>4,,3<1>X.9wdf>2hhhhhhhhhhhhhhhhhh",
"hhhhhhhhhhhhhhhhhhhh. 9wrt@+2,3<2:,44:@.qesd:3hhhhhhhhhhhhhhhhhh",
"hhhhhhhhhhhhhhhhhh,2909r1,qw<1:>1:32>142.#wwus4,hhhhhhhhhhhhhhhh",
"hhhhhhhhhhhhhhhhhh2,wret:1rq414:4>1>>,<<+#r9ag<1hhhhhhhhhhhhhhhh",
"hhhhhhhhhhhhhhhhhh4>qw094,9y001,22>,4:11 Oqetq1:hhhhhhhhhhhhhhhh",
"hhhhhhhhhhhhhhhhhh1>r0wy4,rqtq21<:,<<:2>O wwey24hhhhhhhhhhhhhhhh",
"hhhhhhhhhhhhhhhhhh4109wr2,9t9tqr:442<<:1+@t9yr3:hhhhhhhhhhhhhhhh",
"hhhhhhhhhhhhhhhhhh,:0wyy4<yq900r>:4><:32O#wq9t3<hhhhhhhhhhhhhhhh",
"hhhhhhhhhhhhhhhhhh,<rwqw::ap0rwyqt><13::++9etr:4hhhhhhhhhhhhhhhh",
"hhhhhhhhhhhhhhhhhh1>ey9931idtq9et9,>1,2: o0yww::hhhhhhhhhhhhhhhh",
"hhhhhhhhhhhhhhhhhh4,wrw0-;dfpu0tr9rq,133#+qqqr>4hhhhhhhhhhhhhhhh",
"hhhhhhhhhhhhhhhhhh:<rr0r;;sfiuwyqqq0<<3,..w00r2<hhhhhhhhhhhhhhhh",
"hhhhhhhhhhhhhhhhhh440r09=;auagsseqqtyq13#.ywr9<:hhhhhhhhhhhhhhhh",
"hhhhhhhhhhhhhhhhhh,:00rw;-dfppdur0yeq93<@+qyr03,hhhhhhhhhhhhhhhh",
"hhhhhhhhhhhhhhhhhhhh13900y=;pfdpfiewrr ow0r01,hhhhhhhhhhhhhhhhhh",
"hhhhhhhhhhhhhhhhhhhh3>t0e0;=padipfyey9.O9rew23hhhhhhhhhhhhhhhhhh",
"hhhhhhhhhhhhhhhhhhhho#w9y990;;421>2>2:t09eww1,hhhhhhhhhhhhhhhhhh",
"hhhhhhhhhhhhhhhhhhhh+.w9rre0;;<32:<>34yyy9qt<4hhhhhhhhhhhhhhhhhh",
"hhhhhhhhhhhhhhhhhhhhhh.#090e99rw0q000ywe9t4<hhhhhhhhhhhhhhhhhhhh",
"hhhhhhhhhhhhhhhhhhhhhhO#09w00r009y09ww9r0q2<hhhhhhhhhhhhhhhhhhhh",
"hhhhhhhhhhhhhhhhhhhhhhhh@ O#0w090r0009<321hhhhhhhhhhhhhhhhhhhhhh",
"hhhhhhhhhhhhhhhhhhhhhhhh. .+9rq0rr90r912><hhhhhhhhhhhhhhhhhhhhhh",
"hhhhhhhhhhhhhhhhhhhhhhhhhhhh;;=%;-&;11hhhhhhhhhhhhhhhhhhhhhhhhhh",
"hhhhhhhhhhhhhhhhhhhhhhhhhhhh=;;-$**=13hhhhhhhhhhhhhhhhhhhhhhhhhh",
"hhhhhhhhhhhhhhhhhhhhhhhhhhhhhhhhhhhhhhhhhhhhhhhhhhhhhhhhhhhhhhhh",
"hhhhhhhhhhhhhhhhhhhhhhhhhhhhhhhhhhhhhhhhhhhhhhhhhhhhhhhhhhhhhhhh",
"hhhhhhhhhhhhhhhhhhhhhhhhhhhhhhhhhhhhhhhhhhhhhhhhhhhhhhhhhhhhhhhh",
"hhhhhhhhhhhhhhhhhhhhhhhhhhhhhhhhhhhhhhhhhhhhhhhhhhhhhhhhhhhhhhhh",
"hhhhhhhhhhhhhhhhhhhhhhhhhhhhhhhhhhhhhhhhhhhhhhhhhhhhhhhhhhhhhhhh",
"hhhhhhhhhhhhhhhhhhhhhhhhhhhhhhhhhhhhhhhhhhhhhhhhhhhhhhhhhhhhhhhh",
"hhhhhhhhhhhhhhhhhhhhhhhhhhhhhhhhhhhhhhhhhhhhhhhhhhhhhhhhhhhhhhhh",
"hhhhhhhhhhhhhhhhhhhhhhhhhhhhhhhhhhhhhhhhhhhhhhhhhhhhhhhhhhhhhhhh",
"hhhhhhhhhhhhhhhhhhhhhhhhhhhhhhhhhhhhhhhhhhhhhhhhhhhhhhhhhhhhhhhh",
"hhhhhhhhhhhhhhhhhhhhhhhhhhhhhhhhhhhhhhhhhhhhhhhhhhhhhhhhhhhhhhhh",
"hhhhhhhhhhhhhhhhhhhhhhhhhhhhhhhhhhhhhhhhhhhhhhhhhhhhhhhhhhhhhhhh",
"hhhhhhhhhhhhhhhhhhhhhhhhhhhhhhhhhhhhhhhhhhhhhhhhhhhhhhhhhhhhhhhh",
"hhhhhhhhhhhhhhhhhhhhhhhhhhhhhhhhhhhhhhhhhhhhhhhhhhhhhhhhhhhhhhhh",
"hhhhhhhhhhhhhhhhhhhhhhhhhhhhhhhhhhhhhhhhhhhhhhhhhhhhhhhhhhhhhhhh",
"hhhhhhhhhhhhhhhhhhhhhhhhhhhhhhhhhhhhhhhhhhhhhhhhhhhhhhhhhhhhhhhh",
"hhhhhhhhhhhhhhhhhhhhhhhhhhhhhhhhhhhhhhhhhhhhhhhhhhhhhhhhhhhhhhhh",
"hhhhhhhhhhhhhhhhhhhhhhhhhhhhhhhhhhhhhhhhhhhhhhhhhhhhhhhhhhhhhhhh"
};
