/* XPM */
static char *result[] = {
/* columns rows colors chars-per-pixel */
"64 64 41 1 ",
"  c #AE7C04",
". c #AF7C04",
"X c #AE7D04",
"o c #AF7D04",
"O c #AE7C05",
"+ c #AF7C05",
"@ c #AE7D05",
"# c #AF7D05",
"$ c #DCA200",
"% c #DDA200",
"& c #DCA300",
"* c #DDA300",
"= c #DCA201",
"- c #DDA201",
"; c #DCA301",
": c #DDA301",
"> c #F8B604",
", c #F9B604",
"< c #F8B704",
"1 c #F9B704",
"2 c #F8B605",
"3 c #F9B605",
"4 c #F8B705",
"5 c #F9B705",
"6 c #FED86E",
"7 c #FFD86E",
"8 c #FED96E",
"9 c #FFD96E",
"0 c #FED86F",
"q c #FFD86F",
"w c #FED96F",
"e c #FFD96F",
"r c #FEFEFE",
"t c #FFFEFE",
"y c #FEFFFE",
"u c #FFFFFE",
"i c #FEFEFF",
"p c #FFFEFF",
"a c #FEFFFF",
"s c white",
"d c None",
/* pixels */
"dddddddddddddddddddddddddddddddddddddddddddddddddddddddddddddddd",
"dddddddddddddddddddddddddddddddddddddddddddddddddddddddddddddddd",
"dddddddddddddddddddddddddddddddddddddddddddddddddddddddddddddddd",
"dddddddddddddddddddddddddddddddddddddddddddddddddddddddddddddddd",
"dddddddddddddddddddddddddddddddddddddddddddddddddddddddddddddddd",
"dddddddddddddddddddddddddddddddddddddddddddddddddddddddddddddddd",
"dddddddddddddddddddddddddddddddddddddddddddddddddddddddddddddddd",
"dddddddddddddddddddddddddddddddddddddddddddddddddddddddddddddddd",
"dddddddddddddddddddddddddddddddddddddddddddddddddddddddddddddddd",
"dddddddddddddddddddddddddddddddddddddddddddddddddddddddddddddddd",
"dddddddddddddddddddddddddddddddddddddddddddddddddddddddddddddddd",
"dddddddddddddddddddddddddddddddddddddddddddddddddddddddddddddddd",
"dddddddddddddddddddddddddddddddddddddddddddddddddddddddddddddddd",
"dddddddddddddddddddddddddddddddddddddddddddddddddddddddddddddddd",
"dddddddddddddddddddddddddddddddddddddddddddddddddddddddddddddddd",
"ddddddddddddddddddddddddddddo+oO@#ewdddddddddddddddddddddddddddd",
"dddddddddddddddddddddddddddd# #+# 87dddddddddddddddddddddddddddd",
"ddddddddddddddddddddddddXXOX0q2222X# .iidddddddddddddddddddddddd",
"ddddddddddddddddddddddddO+oX092322 O @ardddddddddddddddddddddddd",
"dddddddddddddddddddddd+ 67789e69we3242@otudddddddddddddddddddddd",
"ddddddddddddddddddddddOo7e8690q6qq2224.osidddddddddddddddddddddd",
"dddddddddddddddddddddd.Xq668X+.Xe79733+Oyrdddddddddddddddddddddd",
"ddddddddddddddddddddddO 0706o.X.e99722OXaadddddddddddddddddddddd",
"dddddddddddddddddddd .6qew +%*::+@97q7<4.otpdddddddddddddddddddd",
"dddddddddddddddddddd .098e#o-;:%O+77q7>2XOspdddddddddddddddddddd",
"dddddddddddddddddddd.Oqe+o-;-*$;$*. q822O@utdddddddddddddddddddd",
"ddddddddddddddddddddo+qqX.&-;&$=:;.o9744.oirdddddddddddddddddddd",
"ddddddddddddddddddddXOw0328e-:&-%*@o6752OOaydddddddddddddddddddd",
"ddddddddddddddddddddXXw612qe=%;;%:  9q>2o#tudddddddddddddddddddd",
"dddddddddddddddddddd #6634877q:-*-.+7e>>++yrdddddddddddddddddddd",
"ddddddddddddddddddddX#w744qw07*--*X 78>2++ardddddddddddddddddddd",
"dddddddddddddddddddd+#69<26q69$-*$o 6722@oiadddddddddddddddddddd",
"dddddddddddddddddddd.#7w239777:=$*.O7722O@aadddddddddddddddddddd",
"ddddddddddddddddddddXoqw1>q76978$*. 7q>2.X66dddddddddddddddddddd",
"dddddddddddddddddddd##7755776796*-.O7q22 +9wdddddddddddddddddddd",
"dddddddddddddddddddd@.881>77q7786w.X7722O w6dddddddddddddddddddd",
"dddddddddddddddddddd@O795377779099O#76>>@#77dddddddddddddddddddd",
"dddddddddddddddddddd# q7795<7q771,we7822Xo86dddddddddddddddddddd",
"dddddddddddddddddddd@oq0qq3<7777517q972>X.9edddddddddddddddddddd",
"dddddddddddddddddddddd# 8qee3<537q0742#@..dddddddddddddddddddddd",
"dddddddddddddddddddddd.Xe70q4141866745O + dddddddddddddddddddddd",
"ddddddddddddddddddddddX+q787000900>23>.+OOdddddddddddddddddddddd",
"dddddddddddddddddddddd. e7876eq7qq221,X+.odddddddddddddddddddddd",
"dddddddddddddddddddddddd+. o531>2<X@..+odddddddddddddddddddddddd",
"dddddddddddddddddddddddd#@#X3<53<3oOXo++dddddddddddddddddddddddd",
"ddddddddddddddddddddddddddddX.#oOX77dddddddddddddddddddddddddddd",
"dddddddddddddddddddddddddddd@OXo+#77dddddddddddddddddddddddddddd",
"dddddddddddddddddddddddddddddddddddddddddddddddddddddddddddddddd",
"dddddddddddddddddddddddddddddddddddddddddddddddddddddddddddddddd",
"dddddddddddddddddddddddddddddddddddddddddddddddddddddddddddddddd",
"dddddddddddddddddddddddddddddddddddddddddddddddddddddddddddddddd",
"dddddddddddddddddddddddddddddddddddddddddddddddddddddddddddddddd",
"dddddddddddddddddddddddddddddddddddddddddddddddddddddddddddddddd",
"dddddddddddddddddddddddddddddddddddddddddddddddddddddddddddddddd",
"dddddddddddddddddddddddddddddddddddddddddddddddddddddddddddddddd",
"dddddddddddddddddddddddddddddddddddddddddddddddddddddddddddddddd",
"dddddddddddddddddddddddddddddddddddddddddddddddddddddddddddddddd",
"dddddddddddddddddddddddddddddddddddddddddddddddddddddddddddddddd",
"dddddddddddddddddddddddddddddddddddddddddddddddddddddddddddddddd",
"dddddddddddddddddddddddddddddddddddddddddddddddddddddddddddddddd",
"dddddddddddddddddddddddddddddddddddddddddddddddddddddddddddddddd",
"dddddddddddddddddddddddddddddddddddddddddddddddddddddddddddddddd",
"dddddddddddddddddddddddddddddddddddddddddddddddddddddddddddddddd",
"dddddddddddddddddddddddddddddddddddddddddddddddddddddddddddddddd"
};
