/* XPM */
static char *result[] = {
/* columns rows colors chars-per-pixel */
"64 64 40 1 ",
"  c #AE7C04",
". c #AF7C04",
"X c #AE7D04",
"o c #AF7D04",
"O c #AE7C05",
"+ c #AF7C05",
"@ c #AE7D05",
"# c #AF7D05",
"$ c #F8B604",
"% c #F9B604",
"& c #F8B704",
"* c #F9B704",
"= c #F8B605",
"- c #F9B605",
"; c #F8B705",
": c #FCB800",
"> c #FDB800",
", c #FCB900",
"< c #FDB900",
"1 c #FCB801",
"2 c #FDB801",
"3 c #FCB901",
"4 c #FDB901",
"5 c #FED86E",
"6 c #FFD86E",
"7 c #FED96E",
"8 c #FFD96E",
"9 c #FED86F",
"0 c #FFD86F",
"q c #FED96F",
"w c #FFD96F",
"e c #FEFEFE",
"r c #FFFEFE",
"t c #FEFFFE",
"y c #FFFFFE",
"u c #FEFEFF",
"i c #FFFEFF",
"p c #FEFFFF",
"a c white",
"s c None",
/* pixels */
"ssssssssssssssssssssssssssssssssssssssssssssssssssssssssssssssss",
"ssssssssssssssssssssssssssssssssssssssssssssssssssssssssssssssss",
"ssssssssssssssssssssssssssssssssssssssssssssssssssssssssssssssss",
"ssssssssssssssssssssssssssssssssssssssssssssssssssssssssssssssss",
"ssssssssssssssssssssssssssssssssssssssssssssssssssssssssssssssss",
"ssssssssssssssssssssssssssssssssssssssssssssssssssssssssssssssss",
"ssssssssssssssssssssssssssssssssssssssssssssssssssssssssssssssss",
"ssssssssssssssssssssssssssssssssssssssssssssssssssssssssssssssss",
"ssssssssssssssssssssssssssssssssssssssssssssssssssssssssssssssss",
"ssssssssssssssssssssssssssssssssssssssssssssssssssssssssssssssss",
"ssssssssssssssssssssssssssssssssssssssssssssssssssssssssssssssss",
"ssssssssssssssssssssssssssssssssssssssssssssssssssssssssssssssss",
"ssssssssssssssssssssssssssssssssssssssssssssssssssssssssssssssss",
"ssssssssssssssssssssssssssssssssssssssssssssssssssssssssssssssss",
"ssssssssssssssssssssssssssssssssssssssssssssssssssssssssssssssss",
"ssssssssssssssssssssssssssssss.O<14<ssssssssssssssssssssssssssss",
"ssssssssssssssssssssssssssssssoX<<2<ssssssssssssssssssssssssssss",
"ssssssssssssssssssssssssssss.O43 +yiiessssssssssssssssssssssssss",
"ssssssssssssssssssssssssssss..42oOiuitssssssssssssssssssssssssss",
"sssssssssssssssssssssssssssso.1>@.@o Ossssssssssssssssssssssssss",
"ssssssssssssssssssssssssssss@O4,oO@@+ ssssssssssssssssssssssssss",
"ssssssssssssssssssssssssss O>1<:42+Opraussssssssssssssssssssssss",
"ssssssssssssssssssssssssss @><:<1,o+iyiyssssssssssssssssssssssss",
"ssssssssssssssssssssssssssoOq6@o<3O eiiussssssssssssssssssssssss",
"ssssssssssssssssssssssssss+ 50X#32o+ieiissssssssssssssssssssssss",
"ssssssssssssssssssssssssss+Oq8@ ==@@uiurssssssssssssssssssssssss",
"ssssssssssssssssssssssssssoo9qXO==X.iiiissssssssssssssssssssssss",
"ssssssssssssssssssssssssssO#06#O%&O#epipssssssssssssssssssssssss",
"ssssssssssssssssssssssssssO w7+O*=@Oirirssssssssssssssssssssssss",
"ssssssssssssssssssssssssss#ow5.+%%#o66uussssssssssssssssssssssss",
"ssssssssssssssssssssssssss #87O.66.o60trssssssssssssssssssssssss",
"ssssssssssssssssssssssssss@+05Xo06.#w86qssssssssssssssssssssssss",
"ssssssssssssssssssssssssss+@08Oo77O 0867ssssssssssssssssssssssss",
"ssssssssssssssssssssssssssX@05OX07.@5666ssssssssssssssssssssssss",
"ssssssssssssssssssssssssss+@56o@66O#6568ssssssssssssssssssssssss",
"ssssssssssssssssssssssssss@O0q=$09 @6668ssssssssssssssssssssssss",
"sssssssssssssssssssssssssso wq-;98# 6w50ssssssssssssssssssssssss",
"ssssssssssssssssssssssssss #69==qwX.6006ssssssssssssssssssssssss",
"ssssssssssssssssssssssssss @ww$=5w@ q056ssssssssssssssssssssssss",
"ssssssssssssssssssssssssssO.860wqqX+6886ssssssssssssssssssssssss",
"sssssssssssssssssssssssssso 085758 O6666ssssssssssssssssssssssss",
"ssssssssssssssssssssssssssssXO76#O<2<>ssssssssssssssssssssssssss",
"ssssssssssssssssssssssssssss+ 65.X<:,2ssssssssssssssssssssssssss",
"ssssssssssssssssssssssssssssXoq0oO6568ssssssssssssssssssssssssss",
"ssssssssssssssssssssssssssssooq6o#6866ssssssssssssssssssssssssss",
"ssssssssssssssssssssssssssssssoo:,4>ssssssssssssssssssssssssssss",
"ssssssssssssssssssssssssssssss  3><3ssssssssssssssssssssssssssss",
"ssssssssssssssssssssssssssssssssssssssssssssssssssssssssssssssss",
"ssssssssssssssssssssssssssssssssssssssssssssssssssssssssssssssss",
"ssssssssssssssssssssssssssssssssssssssssssssssssssssssssssssssss",
"ssssssssssssssssssssssssssssssssssssssssssssssssssssssssssssssss",
"ssssssssssssssssssssssssssssssssssssssssssssssssssssssssssssssss",
"ssssssssssssssssssssssssssssssssssssssssssssssssssssssssssssssss",
"ssssssssssssssssssssssssssssssssssssssssssssssssssssssssssssssss",
"ssssssssssssssssssssssssssssssssssssssssssssssssssssssssssssssss",
"ssssssssssssssssssssssssssssssssssssssssssssssssssssssssssssssss",
"ssssssssssssssssssssssssssssssssssssssssssssssssssssssssssssssss",
"ssssssssssssssssssssssssssssssssssssssssssssssssssssssssssssssss",
"ssssssssssssssssssssssssssssssssssssssssssssssssssssssssssssssss",
"ssssssssssssssssssssssssssssssssssssssssssssssssssssssssssssssss",
"ssssssssssssssssssssssssssssssssssssssssssssssssssssssssssssssss",
"ssssssssssssssssssssssssssssssssssssssssssssssssssssssssssssssss",
"ssssssssssssssssssssssssssssssssssssssssssssssssssssssssssssssss",
"ssssssssssssssssssssssssssssssssssssssssssssssssssssssssssssssss"
};
