/* XPM */
static char *result[] = {
/* columns rows colors chars-per-pixel */
"64 64 146 2 ",
"   c #030203",
".  c #090002",
"X  c #060709",
"o  c #0B0C0C",
"O  c #0D0E10",
"+  c #110F10",
"@  c #0D1314",
"#  c #0F1619",
"$  c #121315",
"%  c #161817",
"&  c #151719",
"*  c #15191A",
"=  c #1A1D1D",
"-  c #171F22",
";  c #1C1E21",
":  c #172024",
">  c #1B2426",
",  c #1E2328",
"<  c #212224",
"1  c #222827",
"2  c #26272B",
"3  c #252D2F",
"4  c #232E32",
"5  c #2C3232",
"6  c #2C363A",
"7  c #2C393D",
"8  c #323233",
"9  c #32353C",
"0  c #353C3E",
"q  c #343741",
"w  c #333F43",
"e  c #3A3C41",
"r  c #3A3D51",
"t  c #334247",
"y  c #324348",
"u  c #3D4549",
"i  c #3C4A4D",
"p  c #3D4F51",
"a  c #3F5053",
"s  c #404146",
"d  c #45474C",
"f  c #434657",
"g  c #464F53",
"h  c #445256",
"j  c #485155",
"k  c #41575C",
"l  c #45595E",
"z  c #4B5A5F",
"x  c #515052",
"c  c #555A5F",
"v  c #455B60",
"b  c #4B5A60",
"n  c #555965",
"m  c #4E6265",
"M  c #4E656A",
"N  c #526568",
"B  c #5D606C",
"V  c #52686E",
"C  c #4E6970",
"Z  c #556C72",
"A  c #557379",
"S  c #59767F",
"D  c #66686B",
"F  c #616370",
"G  c #656B70",
"H  c #6B6C73",
"J  c #666978",
"K  c #6D6F7A",
"L  c #60767C",
"P  c #727377",
"I  c #747B7F",
"U  c #7C7B7E",
"Y  c #5E7C83",
"T  c #676C87",
"R  c #627F86",
"E  c #6A7E87",
"W  c #637F89",
"Q  c #787B82",
"!  c #5F8084",
"~  c #5F8189",
"^  c #648187",
"/  c #6F8386",
"(  c #64828B",
")  c #6E848A",
"_  c #6D8B8F",
"`  c #708487",
"'  c #708389",
"]  c #7E838B",
"[  c #6D8B92",
"{  c #748E95",
"}  c #798D92",
"|  c #738F99",
" . c #719196",
".. c #759399",
"X. c #7B969C",
"o. c #7C999E",
"O. c #7981A5",
"+. c #7E9BA0",
"@. c #808289",
"#. c #8D8E96",
"$. c #8A8E98",
"%. c #86969C",
"&. c #8F969C",
"*. c #839EA3",
"=. c #8B93B5",
"-. c #84A1A5",
";. c #86A1A8",
":. c #8DA7AC",
">. c #8DA8AD",
",. c #91A8AD",
"<. c #92AAB0",
"1. c #9EB3B9",
"2. c #A8ACB8",
"3. c #A9B6B7",
"4. c #A1B7BC",
"5. c #A6BABF",
"6. c #B1B8BF",
"7. c #A8AFC7",
"8. c #A7ADC8",
"9. c #A9AFC9",
"0. c #A6BAC0",
"q. c #A9BAC0",
"w. c #ACB4CA",
"e. c #B1B7CF",
"r. c #B4B9CF",
"t. c #B4BBD1",
"y. c #B2C4C7",
"u. c #B4C6C9",
"i. c #B7C9CC",
"p. c #B8C9CC",
"a. c #BCC2D3",
"s. c #BDCDD1",
"d. c #C2D0CF",
"f. c #C3CDD3",
"g. c #C4C6D9",
"h. c #CACFDC",
"j. c #C2D1D2",
"k. c #CDD4DE",
"l. c #D0D7DE",
"z. c #D0D8DD",
"x. c #CED5E0",
"c. c #D2D6E1",
"v. c #D5DBE3",
"b. c #E5E6EC",
"n. c #E7E8EC",
"m. c None",
/* pixels */
"m.m.m.m.m.m.m.m.m.m.m.m.m.m.m.m.m.m.m.m.m.m.m.m.m.m.m.m.m.m.m.m.m.m.m.m.m.m.m.m.m.m.m.m.m.m.m.m.m.m.m.m.m.m.m.m.m.m.m.m.m.m.m.m.",
"m.m.m.m.m.m.m.m.m.m.m.m.m.m.m.m.m.m.m.m.m.m.m.m.m.m.m.m.m.m.m.m.m.m.m.m.m.m.m.m.m.m.m.m.m.m.m.m.m.m.m.m.m.m.m.m.m.m.m.m.m.m.m.m.",
"m.  = = = = = = < = = = = = < * % % & & & % % % * * % & * * % % * % % * * * * & * * % % % @ m.m.m.m.m.m.m.  * %   m.m.m.m.m.m.m.",
"m.o j.d.d.d.d.d.d.d.d.s.d.s.d.d.f.j.f.j.f.f.j.f.f.j.j.j.j.j.j.j.j.h.j.j.f.j.j.j.j.j.j.j.j.Q m.m.m.m.m.m.m.  >.i.  m.m.m.m.m.m.m.",
"m.o :.,.:.X.......o.....o...o.+.>.<.:.,.<.>.>.>.<.q.0.0.0.0.0.0.0.q.0.0.q.q.0.0.0.0.0.q.5.B m.m.m.m.m.m.m.  >.i.  m.m.m.m.m.m.m.",
"m.o :.>.:.X...................o.:.>.:.>.>.>.>.>.<.0.0.0.0.0.0.0.0.0.0.0.0.0.0.0.5.5.0.0.5.N m.m.m.m.m.m.m.  5.f.X m.m.m.m.m.m.m.",
"m.o :.:.:........... . ... ...o.>.>.>.>.>.>.<.>.<.0.5.0.5.0.5.0.5.5.5.5.5.5.0.0.5.5.5.q.6.N m.m.m.m.m.m.m.  5.p.  m.m.m.m.m.m.m.",
"m.o ,.:.m O @ @ @ @ @ @ @ @ @ @ @ # # @ # # # # # & @ & & @ & @ & $ # $ # # & & & & > q.q.N m.m.m.m.8 8 5   5.f.X m.m.m.m.m.m.m.",
"m.o >.>.h i h a p p a p a h p p a a a a a a a a a a a a a a a a a a a a a a a a a p O 0.q.N m.m.m.* *.+.%.O 5.s.  m.m.m.m.m.m.m.",
"m.o >.>.k p k k k k k k k k k k v a k k k k a a k k k k k k k a a v k k a v v k v k O 0.q.N m.m.m.n ..+.o.O 5.s.X m.m.m.X m.m.m.",
"m.o >.>.k p p > > > > > > > > > > > > > > > > > > > > > > > > > > > > > > > > > 4 k O 0.q.N m.m.  | ( ( ( o 5.s.  m.m.H P m.m.m.",
"m.o >.>.k p y w h h h h h h h h h a h h k h k h h h h h h k h h h h h h h h h h @ k O 0.0.N m.m.  ( .... .o 5.s.  m.m.U n.  m.m.",
"m.o >.>.k p y N ! ^ ^ ^ ^ ! ^ ! ^ ~ ^ ^ ^ ~ ^ ^ ^ ^ ~ ^ ^ ^ ~ ^ ~ ^ ^ ^ ~ ^ ( Y @ k O 0.0.N m.m.  [ X.X.X.O 5.s.  m.m.U n.  m.m.",
"m.o >.>.k a y N ^ ^ ^ ^ ^ ^ ^ ^ ^ ^ ^ ^ ^ ^ ^ ^ ^ ^ ^ ^ ^ ^ ^ ^ ^ ^ ^ ^ ^ ^ ^ W $ k O 0.q.N m.m.  X.X.X.o.O 5.s.  m.m.U n.  m.m.",
"m.o >.>.k p y N ^ ^ ^ ^ ^ ^ ^ ^ ^ ^ ^ ^ ^ ^ ^ ^ ^ ^ ^ ^ ^ ^ ^ ^ ^ ^ ^ ^ ^ ^ ^ ^ $ k O 0.q.V 1 4 O %.o.X.X.o 0.s.  m.m.U n.  m.m.",
"m.o >.>.k a y V ^ ^ ^ ^ ^ ^ ^ ^ ^ ^ ^ ^ ^ ^ ^ ^ ^ ^ ^ ^ ^ ^ ^ ^ ^ ^ ^ ^ ^ ^ ^ ^ $ k O 0.q.n Z ^ > X.X.X.X.@ q.j.  m.m.Q n.  m.m.",
"m.o >.>.v p t N ^ ^ ^ ^ ^ ^ ^ ^ ^ ^ ^ ^ ^ ^ ^ ^ ^ ^ ^ ^ ^ ^ ^ ^ ^ ^ ^ ^ ^ ^ ^ W $ k @ 0.q.N Z ^ > o.o.%.X.o 5.s.  m.m.Q n.  m.m.",
"m.o >.>.k p t N ^ ^ ^ ^ ^ ^ ^ ^ ^ ^ ^ ^ ^ ^ ^ ^ ^ ^ ^ ^ ^ ^ ^ W ^ ^ ^ ^ ^ ^ ^ ^ $ k o q.q.N Z ^ > o.X.X.o.O 5.f.  m.m.H g.  m.m.",
"m.o >.>.k p t N ^ ^ ^ ^ ^ ^ ^ ^ ^ ^ ^ ^ ^ ^ ^ ^ ^ ^ ^ ^ ^ ^ ^ ) ^ ^ ^ ^ ^ ^ ^ W $ k o 5.q.N Z ( , %.X.X.X.o 5.s.  m.m.H f.  m.m.",
"m.o >.>.l p y N ^ ^ ^ ^ ^ ^ ^ ^ ^ ^ ^ ^ ^ ^ ^ ^ ^ ^ ^ ^ ^ ^ ^ ^ ^ ^ ^ ^ ^ ^ ^ ( $ k $ q.5.N l Z : X.t X o.O 5.s.  m.m.B w.  m.m.",
"m.o >.>.l p t N ^ ^ ^ ^ ^ ^ ^ ^ ^ ^ ^ ^ ^ ^ ^ ^ ^ ^ ^ ^ ^ ^ ^ ^ ^ ^ ^ ^ ^ ^ ^ W $ k o 5.q.N z V = ) Q 6.h o 5.s.      O *   m.m.",
"m.o >.>.l p t N ^ ^ ^ ^ ^ ^ ^ ^ ^ ^ ^ ^ ^ ^ ^ ^ ^ ^ ^ ^ ^ ^ ^ ^ ^ E ^ ^ ^ ^ ^ ^ $ k O 5.q.N z Z - E ] x.i O 0.s.    T q &.  m.m.",
"m.o >.>.l p t N ^ ^ ^ ^ ^ ^ ^ ^ ^ ^ ^ ^ ^ ^ ^ ^ ^ ^ ^ ^ ^ ^ ^ ^ ^ ^ ^ ^ ^ ^ ^ ^ $ k O 0.q.N       X.w O { O 0.s.    t.n c.Q m.m.",
"m.o >.>.l p y N ^ ^ ^ ^ ^ ^ ^ ^ ^ ^ ^ ^ ^ ^ ^ ^ ^ ^ ^ ^ ^ ^ ^ ^ ^ ^ ^ ^ ^ ^ ^ E $ k O 0.q.N m.m.  ..V a ..o 5.s.    r.n c.2.; m.",
"m.o :.:.l p t N ^ ^ ^ ^ ^ ^ ^ ^ ^ ^ ^ ^ ^ ^ ^ ^ ^ ^ ^ ^ ^ ^ ^ ^ ^ ^ ^ ^ ^ ^ ^ W $ k o 0.0.N m.m.. X.| [ X.o 5.s.O ; t.n l.c.< m.",
"m.o :.:.l p t N ^ ^ ^ ^ ^ ^ ^ ^ ^ ^ ^ ^ ^ ^ ^ ^ ^ ^ ^ ^ ^ ^ ^ ^ ^ ^ ^ ^ ^ ^ ^ ( $ k O 0.q.N m.m.  X.X.X.+.o 5.s.2 e t.n l.v.< m.",
"m.o :.>.l p y N ^ ^ ^ ^ ^ ^ ^ ^ ^ ^ ^ ^ ^ ^ E ^ ^ ^ ^ ^ ^ ^ ^ ^ ^ ^ ^ ( ^ ^ ^ E $ k O 0.q.N m.m.  X.X.*.X.O 0.s.2 s t.n l.v.< m.",
"m.o :.>.l p y N ^ ^ ^ ^ ^ ^ ^ ^ ^ ^ ^ ^ ^ ^ ^ ^ ^ ^ ^ ^ ^ ^ ^ ^ ^ ^ ^ ^ ^ ^ W ( $ k O 0.q.N m.m.  X.X.} X.o 0.s.2 s t.n l.v.< m.",
"m.o :.>.l a y M ^ ^ ^ ^ ^ ^ ^ ^ ^ ^ ^ ^ ^ ^ ^ ^ ^ ^ ^ ^ ^ ^ ^ ^ ^ ^ ^ ^ ^ ^ ^ ^ $ k o 0.0.N m.m.  { g d ) O 1.s.2 s r.n l.h.< m.",
"m.o :.:.l a y N ^ ^ ^ ^ ^ ^ ^ ^ ^ ) ^ ^ ^ ^ ^ ^ ^ ^ ^ ^ ^ ^ ^ ^ ^ ^ ^ ^ ^ ^ ^ W $ k O 0.q.N m.m.  E @.l.i O :.i.2 s e.n l.g.< m.",
"m.o :.:.l a y M ^ ^ ^ ^ ^ ^ ^ ^ ^ ^ ^ ^ ^ ^ ^ ^ ^ ^ ^ ^ ^ ^ ^ ^ ^ ^ ^ ^ ^ ^ ^ ( $ k O 0.q.N m.m.  A @.k.w O :.i.< 9 =.f g.f.= m.",
"m.o :.:.l i y N ^ ^ ^ ^ ^ ^ ^ ^ ^ ^ ^ ^ ^ ^ ^ ^ ^ ^ ^ ^ ^ ^ ^ ^ ^ ^ ^ ^ ^ ^ ^ W $ k O 0.6.N m.m.  Y 6 $ Y o :.p.< q =.f a.t.; m.",
"m.o >.:.l a y N ^ ^ ^ ^ ^ ^ ^ ^ ^ ^ ^ ^ ) ^ ^ ^ ^ ^ ^ ^ ^ ^ ^ ^ ^ ^ ^ ^ ^ ^ ^ ^ @ a @ 0.0.N m.m.  ( A C ( @ :.i.- q =.n g.e.: m.",
"m.o >.:.l i t M ^ ^ ^ ^ ^ ^ ^ ^ ^ ^ ^ ^ W ^ ^ ^ ^ ^ ^ ^ ^ ^ ^ ^ ^ ^ ^ ^ ^ ^ ^ W & v @ 0.q.N m.m.  ( ( ( ~ O :.i., q E r 8.9., m.",
"m.o >.>.l p y N ^ ^ ^ ^ ^ ^ ^ ^ ^ ^ ^ ^ ^ ^ ^ ^ ^ ^ ^ ^ ^ ^ ^ ^ ^ ^ ^ ^ ^ ^ ^ ^ $ a O 5.q.N m.m.X ( [ ( ( @ :.i., q E r 9.t., m.",
"m.o >.>.v i y M ^ ^ ^ ^ ^ ^ ^ ^ ^ ^ ^ ^ ^ ^ ^ ^ ^ ^ ^ ^ ^ ^ ^ ^ ^ ^ ^ ^ ^ ^ E ( & a O 5.q.N m.m.X ( ( ( ( O :.i.O & O.f 9.a., m.",
"m.o :.:.l p y N ^ ^ ^ ^ ^ ^ ^ ^ ^ ^ ^ ^ ^ ^ ^ ^ ^ ^ ^ ^ ^ ^ ^ ^ ^ ^ ^ ^ ^ ^ ^ ( $ k O 5.5.N   X   ~ y @ ( O :.i.X   =.f g.Q m.m.",
"m.o :.:.l p y N ^ ^ ^ ^ ^ ^ ^ ^ ^ ^ ^ ^ ^ ^ ^ ^ ^ ^ ^ ^ ^ ^ ^ ^ ^ ^ ^ ^ ^ ^ ^ W $ k O 5.5.N p z * Y G &.a O :.i.    =.f t.q m.m.",
"m.o :.>.l p t N ^ ^ ^ ^ ^ ^ ^ ^ ^ ^ ^ ^ ^ ^ ^ ^ ^ ^ ^ ^ ^ ^ ^ ^ ^ ^ ^ ^ ^ ^ ^ ( $ k O 5.5.N Z ^ > A ] c.y O :.i.    J 9 $.X m.m.",
"m.o :.>.b p t V ^ ^ ^ ^ ^ ^ ^ ^ ^ ^ ^ ^ ^ ^ ^ ^ ^ ^ ^ ^ ^ ^ ^ ^ ^ ^ ^ ^ ^ ^ ^ W $ k + 5.6.N Z ^ > ~ c D M O :.i.  m.m.e T X m.m.",
"m.o :.>.l p y N ^ ^ ^ ^ ^ ^ ^ ^ ^ ^ ^ ^ ^ ^ ^ ^ ^ ^ ^ ^ ^ ^ ^ ^ ^ ^ ^ ^ ^ ^ ^ ^ $ k O 0.6.N Z ^ , ~ p 4 Y o :.i.  m.m.F t.  m.m.",
"m.o :.>.z a y M ^ ^ ^ ^ ^ ^ ^ ^ ^ ^ ^ ^ ^ ^ ^ ^ ^ ^ ^ ^ ^ ^ ^ ^ ^ ^ ^ E ^ ^ ^ ( $ k O 0.q.N Z ^ > ~ Y Y ( @ :.i.  m.m.H f.  m.m.",
"m.o :.:.l a y N ^ ^ ^ ^ ^ ^ ^ ^ ^ ^ ^ ^ ^ ^ ^ ^ ^ ^ ^ ^ ^ ^ ^ ^ ^ ^ ^ ^ W ^ ^ ^ $ k O 0.q.N v V : ( ( [ ( @ ;.i.X m.m.K k.  m.m.",
"m.o :.:.l i y N ^ ^ ^ ^ ^ ^ ^ ^ ^ ^ ^ ^ ^ ^ ^ ^ ^ ^ ^ ^ ^ ^ ^ ^ ^ ^ ^ ^ ^ ^ ^ ( $ k O 0.0.N z Z : ( ( ( ( O ..y.  m.m.U n.  m.m.",
"m.o >.>.l p t N ^ ^ ^ ^ ^ E ^ ^ ^ ^ ^ ^ ^ ^ ^ ^ ^ ^ ^ ^ ^ ^ ^ ^ ^ ^ ^ ^ ( ^ ^ ^ $ k O 0.0.N c V > Y ~ ( ~ o ..y.  m.m.U n.  m.m.",
"m.o :.:.l p y N ^ ^ ^ ^ ^ ^ ^ ^ ^ ^ ^ ^ ^ ^ ^ ^ ^ ^ ^ ^ ^ ^ ^ ^ ^ ^ ^ ^ ^ ^ ^ ^ $ k O 0.0.N X X X A A A A o ..u.  m.m.U n.  m.m.",
"m.o :.:.l p y N ^ ^ ^ ^ ^ ^ ^ ^ ^ ^ ^ ^ ^ ^ ^ ^ ^ ^ ^ ^ ^ ^ ^ ^ ^ ^ ^ ^ ^ ^ ^ ^ $ k @ 0.q.N m.m.X A A A A o ..u.  m.m.U n.  m.m.",
"m.o >.:.l p y M ^ ^ ^ ^ ^ ^ ^ ^ ^ ^ ^ ^ ^ ^ ^ ^ ^ ^ ^ ^ ^ ^ ^ E ^ ^ ^ ^ ^ ^ ^ E $ a O 0.q.N m.m.  A A A A o ..u.  m.m.U n.  m.m.",
"m.o :.:.l a y     X                           X   . X .                     X   $ k + 0.q.N m.m.  ^ A A A o ..y.X m.m.U n.  m.m.",
"m.o :.:.l i a 7 7 7 w w q q 7 q w 7 w 7 7 7 7 7 7 7 7 7 7 q 7 7 q q w q q q 7 w y k O 0.q.N m.m.  ^ W Y ~ o ..y.  m.m.s x m.m.m.",
"m.o :.>.l h k k a v a v k v a k k k k k k k k k k k k k v k k k a k k v a k a v k k o 0.q.N m.m.m.4 ( ( ( O ..y.X m.m.m.m.m.m.m.",
"m.o >.>.l @ # # # # # # # # # # # # & @ # # # # # # # & # # & # # # # # # # & $ # # + 0.6.N m.m.m.m.> > - X ..y.  m.m.m.m.m.m.m.",
"m.o :.:.L 6 6 6 7 7 7 7 7 7 7 7 w w w w w w w w w u u u u s i u i i u u s s i u u u g 0.q.N m.m.m.m.X   X   X.u.X m.m.m.m.m.m.m.",
"m.o :.:.:.X............. ... .o.:.,.:.:.:.:.:.:.<.0.5.0.0.0.5.5.0.0.0.0.0.0.0.0.0.0.0.0.q.N m.m.m.m.m.m.m.  >.i.  m.m.m.m.m.m.m.",
"m.o :.:.:.X...................+.:.:.:.:.:.:.:.:.<.0.0.0.0.0.0.0.0.0.0.0.0.0.q.0.0.0.0.0.0.N m.m.m.m.m.m.m.  >.i.  m.m.m.m.m.m.m.",
"m.o :.:.:................... .o.;.:.:.:.:.:.:.:.:.4.4.4.5.1.5.1.0.4.4.1.4.4.4.4.4.4.4.4.5.N m.m.m.m.m.m.m.  :.i.  m.m.m.m.m.m.m.",
"m.o ' ' ` / ` ` ` ` / / ` / ) ' / ) ) / ) ) / ) / ` ' ` ` ` ' ` ) ) ` ` ` ' ' ' ` ` ` ` ` g m.m.m.m.m.m.m.  %.3.  m.m.m.m.m.m.m.",
"m.      o = = = = 1 1 +                                                 = * * > > < =       m.m.m.m.m.m.m.        m.m.m.m.m.m.m.",
"m.m.m.m.0 R S !  .+.-.t m.m.m.m.m.m.m.m.m.m.m.m.m.m.m.m.m.m.m.m.m.m.m.  ) Y R { X.;.) m.m.m.m.m.m.m.m.m.m.m.m.m.m.m.m.m.m.m.m.m.",
"m.m.m.m.0 ^ ^ R ..-.>.i m.m.m.m.m.m.m.m.m.m.m.m.m.m.m.m.m.m.m.m.m.m.m.  _ ! R { X.:._ m.m.m.m.m.m.m.m.m.m.m.m.m.m.m.m.m.m.m.m.m.",
"m.m.m.m.0 ^ ^ ^ ..-.:.i m.m.m.m.m.m.m.m.m.m.m.m.m.m.m.m.m.m.m.m.m.m.m.  _ ^ ^ [ X.:._ m.m.m.m.m.m.m.m.m.m.m.m.m.m.m.m.m.m.m.m.m.",
"m.m.m.m.o @ @ @ @ & & o m.m.m.m.m.m.m.m.m.m.m.m.m.m.m.m.m.m.m.m.m.m.m.  @ @ @ & & % @ m.m.m.m.m.m.m.m.m.m.m.m.m.m.m.m.m.m.m.m.m.",
"m.m.m.m.m.m.m.m.m.m.m.m.m.m.m.m.m.m.m.m.m.m.m.m.m.m.m.m.m.m.m.m.m.m.m.m.m.m.m.m.m.m.m.m.m.m.m.m.m.m.m.m.m.m.m.m.m.m.m.m.m.m.m.m.",
"m.m.m.m.m.m.m.m.m.m.m.m.m.m.m.m.m.m.m.m.m.m.m.m.m.m.m.m.m.m.m.m.m.m.m.m.m.m.m.m.m.m.m.m.m.m.m.m.m.m.m.m.m.m.m.m.m.m.m.m.m.m.m.m."
};
