/* XPM */
static char *result[] = {
/* columns rows colors chars-per-pixel */
"64 64 158 2 ",
"   c #030203",
".  c #0A0100",
"X  c #060709",
"o  c #0B0C0C",
"O  c #1B0F08",
"+  c #161107",
"@  c #0D0E10",
"#  c #110F10",
"$  c #0D1314",
"%  c #0F1619",
"&  c #121315",
"*  c #161817",
"=  c #151719",
"-  c #151919",
";  c #1A1D1E",
":  c #171F22",
">  c #1C1E21",
",  c #172024",
"<  c #1B2426",
"1  c #1D2628",
"2  c #212224",
"3  c #222827",
"4  c #25262A",
"5  c #252D2F",
"6  c #232E32",
"7  c #2C3232",
"8  c #2C363A",
"9  c #2C393D",
"0  c #323233",
"q  c #32353C",
"w  c #353C3E",
"e  c #353741",
"r  c #323F43",
"t  c #3A3C41",
"y  c #3A3D51",
"u  c #334247",
"i  c #324348",
"p  c #3D4549",
"a  c #3C4A4D",
"s  c #3D4F51",
"d  c #3F5153",
"f  c #404046",
"g  c #45474C",
"h  c #434657",
"j  c #464F54",
"k  c #445256",
"l  c #485155",
"z  c #41575C",
"x  c #45595E",
"c  c #4A5A5F",
"v  c #505052",
"b  c #545A5F",
"n  c #455B60",
"m  c #4B5A60",
"M  c #555965",
"N  c #4F6569",
"B  c #4E6265",
"V  c #526568",
"C  c #5D606C",
"Z  c #52686E",
"A  c #4E6970",
"S  c #556D72",
"D  c #586D72",
"F  c #557379",
"G  c #59757B",
"H  c #66686B",
"J  c #616370",
"K  c #656B70",
"L  c #6B6C72",
"P  c #666978",
"I  c #6D6E7A",
"U  c #60767C",
"Y  c #727377",
"T  c #747B7F",
"R  c #7C7B7D",
"E  c #CC7C34",
"W  c #D99734",
"Q  c #D79934",
"!  c #D89836",
"~  c #DAA63F",
"^  c #D7A540",
"/  c #DAA742",
"(  c #DDBD55",
")  c #DEBD59",
"_  c #5E7C83",
"`  c #676C87",
"'  c #627F86",
"]  c #6A7E87",
"[  c #627F89",
"{  c #7A7B81",
"}  c #5F8084",
"|  c #5F8189",
" . c #648187",
".. c #6F8486",
"X. c #64828B",
"o. c #6E8489",
"O. c #6D8B8F",
"+. c #708487",
"@. c #708389",
"#. c #7E838C",
"$. c #6D8A93",
"%. c #748E95",
"&. c #798D92",
"*. c #738F99",
"=. c #719196",
"-. c #759399",
";. c #7B969C",
":. c #7D999F",
">. c #7981A6",
",. c #808289",
"<. c #8D8E96",
"1. c #8A8E98",
"2. c #86969C",
"3. c #8F969C",
"4. c #839EA3",
"5. c #8B93B5",
"6. c #86A1A8",
"7. c #8DA7AC",
"8. c #8DA8AD",
"9. c #84A1A5",
"0. c #91A8AD",
"q. c #92AAB0",
"w. c #9EB3B9",
"e. c #A8ADB8",
"r. c #A9B6B7",
"t. c #A1B7BC",
"y. c #A6BABF",
"u. c #B0B8BF",
"i. c #A8AFC7",
"p. c #A7ADC9",
"a. c #A8AFC9",
"s. c #A6BAC0",
"d. c #A9BAC0",
"f. c #ACB4CA",
"g. c #B1B7CF",
"h. c #B4B9CF",
"j. c #B4BBD1",
"k. c #B2C4C7",
"l. c #B4C6C9",
"z. c #B7C9CC",
"x. c #B8C9CC",
"c. c #BCC2D3",
"v. c #BDCDD1",
"b. c #C2D0CF",
"n. c #C2C7D7",
"m. c #C3CDD2",
"M. c #C4C6D9",
"N. c #CACFDC",
"B. c #C2D1D2",
"V. c #CDD4DE",
"C. c #D0D7DE",
"Z. c #D0D8DD",
"A. c #CED5E0",
"S. c #D2D6E1",
"D. c #D5DBE3",
"F. c #E6E6EC",
"G. c #E7E8ED",
"H. c None",
/* pixels */
"H.H.H.H.H.H.H.H.H.H.H.H.H.H.H.H.H.H.H.H.H.H.H.H.H.H.H.H.H.H.H.H.H.H.H.H.H.H.H.H.H.H.H.H.H.H.H.H.H.H.H.H.H.H.H.H.H.H.H.H.H.H.H.H.",
"H.H.H.H.H.H.H.H.H.H.H.H.H.H.H.H.H.H.H.H.H.H.H.H.H.H.H.H.H.H.H.H.H.H.H.H.H.H.H.H.H.H.H.H.H.H.H.H.H.H.H.H.H.H.H.H.H.H.H.H.H.H.H.H.",
"H.  ; ; ; ; ; ; ; ; ; ; ; ; ; ; = = = = = = = * - * - * - - - - * - - - - - - - - * - - - $ H.H.H.H.H.H.H.  - -   H.H.H.H.H.H.H.",
"H.o b.b.b.b.b.b.B.b.b.v.b.b.b.b.B.m.B.m.m.B.m.B.m.B.B.B.B.B.B.B.B.B.m.B.m.B.B.B.B.B.B.B.B.{ H.H.H.H.H.H.H.  8.z.  H.H.H.H.H.H.H.",
"H.o 7.0.0.;.-.;.-.-.-.-.:.-.;.:.8.0.0.0.q.q.8.8.q.d.s.s.s.d.s.s.s.d.s.s.d.s.s.s.d.s.d.s.d.V H.H.H.H.H.H.H.  8.z.  H.H.H.H.H.H.H.",
"H.o 8.8.0.-.-.-.-.-.:.=.-.-.-.:.8.8.8.8.7.8.8.8.q.d.s.s.s.s.s.s.s.s.s.s.d.d.s.s.s.s.s.s.d.V H.H.H.H.H.H.H.  y.v.  H.H.H.H.H.H.H.",
"H.o 7.7.7.-.-.-.-.-.=.-.-.=.-.;.8.8.8.7.8.8.8.8.q.s.y.s.y.y.y.s.s.y.s.s.s.s.d.s.y.s.y.d.d.V H.H.H.H.H.H.H.  y.v.  H.H.H.H.H.H.H.",
"H.o 7.8.B @ $ $ $ $ $ $ $ $ $ $ $ $ % % $ % % % % = $ = = % $ = $ = $ = % % = = = & < d.d.V H.H.H.H.0 0 7 . y.v.X H.H.H.H.H.H.H.",
"H.o 8.8.k a d d d d d d d d d d d d d d d d d d d d d d d d d d d k d d s s d s s s @ s.d.V H.H.H.> 4.:.2.$ y.v.  H.H.H.H.H.H.H.",
"H.o 8.8.z s z z z z z z z z z z n d z z z z z d n n d z z z z z z z z z n n n z n z @ s.u.V H.H.H.M *.:.;.o y.v.  H.H.H.X H.H.H.",
"H.o 8.8.z d s < < < < < < < < < < < < < 1 < < < , < < < < < < < < < < < < , < 1 6 d @ s.d.V H.H.  *.X.X.X.o s.v.X H.H.Y Y H.H.H.",
"H.o 8.8.k d i r k k k k d k k k k d k k d z k k k k k k k k k k j k k k k k k k $ n @ s.d.V H.H.  X.-.-.=.@ s.v.  H.H.{ G.  H.H.",
"H.o 8.8.z s i V }  .}  . .}  . . .|  . . .|  . . .|  . . . . .[ |  . .|  . . ._ & z @ s.s.V H.H.  O.;.;.:.o d.v.  H.H.R G.  H.H.",
"H.o 8.8.z d i V  . . . . . . . . . . . . . . . . . . . . . . . . . . . . . . .[ & z @ s.i.V H.H.  :.;.;.:.o s.v.  H.H.R G.  H.H.",
"H.o 8.8.z d i V  . . . . . . . . . . . . . . . . . . . . . . . . . . . . . . . .& z @ s.d.V 3 5 o ;.;.:.:.o s.v.  H.H.R G.  H.H.",
"H.o 8.8.z d i Z  . . . . . . . . . . . . . . . . . . . .X. . . . . . . . . . .[ & z @ s.d.V D  .2 ;.;.:.:.o y.v.X H.H.{ G.  H.H.",
"H.o 8.8.z s i V  . . . . . . . . . . . . . . . . . . . . . . . . . . . . . .[ X.& z @ s.y.Z S  .1 :.;.2.:.o y.v.  H.H.{ F.  H.H.",
"H.o 8.8.z s i V  . . . . . . . . . . . . . . . . . . . . . . . . . . . . . . .[ & z $ s.y.Z S  .1 :.;.;.:.o y.m.  H.H.L M.  H.H.",
"H.o 8.8.z s i V  . . . . . . . . . . . . . . . . . . . . . . . . . . . . . . .X.& z # s.u.V S  .1 ;.;.2.:.o s.v.  H.H.L n.  H.H.",
"H.o 8.8.x s i V  . . . . . . . . . . . . . . . . . . . . . . . . . . . . . . .[ & z o y.y.V z S : ;.r X :.o y.v.  H.H.C f.  H.H.",
"H.o 8.7.x s u V  . . . . . . . . . . . . . . . . . . . . . . . . . . . . . . . .# z o d.d.V c Z >  .{ d.j @ y.v.      # ;   H.H.",
"H.o 8.7.x s u V  . . . . . . . . . . . . . . . . . . . . . . . . . . . . . . .[ & z @ s.d.V c S : ] #.A.p o d.v.    ` e 1.  H.H.",
"H.o 8.7.x s u V  . . . . . . . . . . . . . . . . . . . . . . . . . . . . . . . .= n @ s.d.Z       ;.r $ *.o d.v.    h.M D.{ H.H.",
"H.o 7.8.x s u V  . . . . . . . . . . . . . . . . . . . . . . . . . . . . . . .[ & d @ s.d.V H.H.. -.Z d -.@ s.v.    j.M V.e.> H.",
"H.o 7.7.c s u V  . . . . .[  . . . . . . . . . . . . . . . . . . . . . . . . . .& z @ s.s.Z H.H.. :.*.$.;.o s.v.@ : h.M S.S.2 H.",
"H.o 7.7.x s u V  . . . . . . . . . .] o. . . . . . . . . . . . . . . . . . .[ o.= d @ s.d.V H.H.  :.;.;.:.@ s.v.4 f j.M C.D.2 H.",
"H.o 7.7.n s i N  . . . . . . . . . . . . . . . . . . . . . . . . . . . . . . .[ & z @ s.d.V H.H.  ;.2.:.;.@ s.v.4 f j.M Z.D.2 H.",
"H.o 7.8.x s i V  .[  . . . . . . . . . . . . . . . . . . . . . . . . . . . . . .& z @ s.d.V H.H.  ;.;.%.;.o s.v.4 f h.M C.D.2 H.",
"H.o 7.8.x s i V  . . . . . . . . . . . .]  . . . . . . . . . . . . . . . . . .] = d $ s.d.V H.H.  %.j g o.@ w.v.4 f h.M Z.N.2 H.",
"H.o 7.8.x s i N  . . . . . . . . . . . . . . . . . . . . . . . . . . . . . . .X.= d @ s.d.V H.H.  ] ,.C.p @ 8.z.4 f g.M S.M.2 H.",
"H.o 7.8.x s u N  . . . . . . . . . . . . . . . . . . . . . . . . . . . . . .[ X.& d @ s.d.V H.H.  F #.V.r @ 8.z.2 q 5.h c.n.; H.",
"H.o 7.7.x s u V  . . . . . . . . . . . . . . . . . . . . . . . . . . . . . . .[ = z o s.u.V H.H.   .7 $ _ o 8.x.2 e 5.h c.c.> H.",
"H.o 8.8.z s i N  . . . . . . . . . . . . . . . . . . . . . . . . . . . . . . . .& z o s.d.V H.H.. X.F A | $ 7.z.> y 5.M M.p.4 H.",
"H.o 8.8.n s i V  . . . . . . . . . . . . . . . . . . . . . . . . . . . . . . .] & z @ d.y.V H.H.  X.X.X.| @ 7.z.> e ] y p.p.1 H.",
"H.o 8.8.n s u V  . . . . . . . . . . . . . . . .X. . . . . . . . . . . . . . .X.& z $ y.d.V H.H.  | X.$.X.$ 8.z.> e ] y p.j.1 H.",
"H.o 8.8.n s u B  . . . . . . . . . . . . . . . . . . . . . . . . . . . . . . .[ & z o y.d.V H.H.  $.X.X.X.@ 7.z.@ : >.h p.M.> H.",
"H.o 7.7.n s u V  . . . . . . . . . . . . . . . . . . . . . . . . . .]  . . . .X.& z o y.u.V   X X | u $ X.@ 7.z.  X 5.h c.{ H.H.",
"H.o 7.7.n s u V  . . . . . . . . . . . . . . . . . . . . . . . . . . . . . . .[ & z @ y.y.V a x - _ K 3.d @ 7.z.    5.h M.e H.H.",
"H.o 7.8.c s i V  . . . . . . . . . . . . . . . . . . . . . . . . . . . . . . .[ & z $ s.y.V S  .1 F #.A.i @ 7.z.    P e 1.X H.H.",
"H.o 7.8.n d i Z  . . . . . . . . . . . . . . . . . . . . . . . . . . . . . . . .& z @ s.u.V S | 1 _ b H N @ 7.z.X H.H.t P X H.H.",
"H.o 7.8.x s u V  . . . . . . . . . . . . . . . . . . . . . . . . . . . . . . . .& z @ s.d.V S  .1 X.s 6 | @ 8.z.  H.H.J j.  H.H.",
"H.o 7.8.x s u V  . . . . . . . . . . . . . . . . . . . . . . . . . . . . . . . .& z @ s.u.V S  .< X._ _ X.@ 8.z.  H.H.L n.  H.H.",
"H.o 7.8.x s u V  . . . . . . . . . . . . . . . . . . . . . . . . . . . . . . . .= d @ s.d.V n Z , X.X.X.X.$ 9.z.  H.H.I V.  H.H.",
"H.o 7.7.n s i V  . . . . . . . .G D D S S S S S S S S S S S S D S S D D D D  . .& z @ s.d.V m Z , X.X.X.X.@ -.k.X H.H.R G.  H.H.",
"H.o 8.7.x s u V  . . . . . . . .1               . . . . . . . . . . . . . .  . .= d @ s.s.V c D , G X.X.| @ -.k.  H.H.R G.  H.H.",
"H.o 7.7.x s i V  . . . . . . . .1 ( / ! Q ! Q Q ( / ( ( E Q Q ) ) ) ) ( Q +  . .- d @ s.d.V X X   F F _ F o -.k.  H.H.R G.  H.H.",
"H.o 8.8.x s i V }  . .}  . . .} 1 ( / ! ! ! ! ! ) ^ ( ( E W Q ) ) ( ( ( Q + [  .= n $ s.d.V H.H.  F F F F o -.k.  H.H.R G.  H.H.",
"H.o 8.8.x s i V  ... . . . . . .< ( / ! ! ! ! ! ) ^ ( ( E W Q ) ) ) ) ( Q +  . .$ d @ s.d.V H.H.  F F F F o -.k.X H.H.R G.  H.H.",
"H.o 7.7.x s u           X                     X     X .     .           X     X = z @ s.d.V H.H.   .F F F o -.k.  H.H.R G.  H.H.",
"H.o 7.8.x s d 9 e e 9 i r 8 9 e 9 e e r 9 9 9 e 9 9 9 9 e 9 r 8 9 r e e 9 9 e r u z @ s.d.V H.H.  X.' | | o -.k.  H.H.f v H.H.H.",
"H.o 7.8.n s n d d n z z z z d z z z z z z d n z z z z z n n n d d n z n d n d n d z o d.d.V H.H.H.6 X.X.X.$ -.k.  H.H.H.H.H.H.H.",
"H.o 8.8.x % % = % % % % % % % % % % = $ % % % % % % % % % % % = % % % % % % = $ % % # d.d.V H.H.H.H., , ,   -.k.  H.H.H.H.H.H.H.",
"H.o 7.7.U 8 8 8 8 9 9 9 r 9 9 9 r r r r r r r r r p p p a p p p p p p p p p p p p a j s.d.V H.H.H.H.X X     :.l.  H.H.H.H.H.H.H.",
"H.o 7.8.7.-.-.-.-.-.-.-.=.=.-.:.7.7.7.0.7.7.7.7.q.s.y.s.y.y.y.y.s.s.s.s.s.s.y.d.s.s.d.d.d.V H.H.H.H.H.H.H.  8.z.  H.H.H.H.H.H.H.",
"H.o 7.7.7.-.-.-.-.-.-.-.-.-.-.:.8.8.7.7.7.7.7.8.q.d.s.s.d.s.s.s.s.s.s.s.s.d.s.s.s.s.s.s.d.V H.H.H.H.H.H.H.  8.z.  H.H.H.H.H.H.H.",
"H.o 7.7.7.;.-.-.-.-.-.-.-.-.=.:.8.6.7.7.7.7.7.7.7.t.t.t.t.t.t.t.t.t.t.t.t.t.t.t.t.t.t.t.s.V H.H.H.H.H.H.H.  8.z.  H.H.H.H.H.H.H.",
"H.X @.o.o.o...........+.+...@.@...o.o...o.o...o.o...@.+.+.+.@.@.@.@...o...o.+.+.+.+.+.@.@.k H.H.H.H.H.H.H.  2.r.  H.H.H.H.H.H.H.",
"H.  . . o ; ; ; ; 3 2 $                                                 ; ; ; : < 2 ;     . H.H.H.H.H.H.H.    X   H.H.H.H.H.H.H.",
"H.H.H.H.w ' G  .-.:.6.u H.H.H.H.H.H.H.H.H.H.H.H.H.H.H.H.H.H.H.H.H.H.H.. O._ ' $.;.6.o.H.H.H.H.H.H.H.H.H.H.H.H.H.H.H.H.H.H.H.H.H.",
"H.H.H.H.r  .}  .-.9.8.a H.H.H.H.H.H.H.H.H.H.H.H.H.H.H.H.H.H.H.H.H.H.H.  O._ ' %.;.8.o.H.H.H.H.H.H.H.H.H.H.H.H.H.H.H.H.H.H.H.H.H.",
"H.H.H.H.w  . . .-.4.7.a H.H.H.H.H.H.H.H.H.H.H.H.H.H.H.H.H.H.H.H.H.H.H.  o. . .%.;.8.O.H.H.H.H.H.H.H.H.H.H.H.H.H.H.H.H.H.H.H.H.H.",
"H.H.H.H.o $ $ $ $ = = o H.H.H.H.H.H.H.H.H.H.H.H.H.H.H.H.H.H.H.H.H.H.H.  $ $ $ $ = - $ H.H.H.H.H.H.H.H.H.H.H.H.H.H.H.H.H.H.H.H.H.",
"H.H.H.H.H.H.H.H.H.H.H.H.H.H.H.H.H.H.H.H.H.H.H.H.H.H.H.H.H.H.H.H.H.H.H.H.H.H.H.H.H.H.H.H.H.H.H.H.H.H.H.H.H.H.H.H.H.H.H.H.H.H.H.H.",
"H.H.H.H.H.H.H.H.H.H.H.H.H.H.H.H.H.H.H.H.H.H.H.H.H.H.H.H.H.H.H.H.H.H.H.H.H.H.H.H.H.H.H.H.H.H.H.H.H.H.H.H.H.H.H.H.H.H.H.H.H.H.H.H."
};
