/* XPM */
static char *result[] = {
/* columns rows colors chars-per-pixel */
"64 64 163 2 ",
"   c #030203",
".  c #0A0101",
"X  c #060709",
"o  c #0B0C0C",
"O  c #0B0905",
"+  c #1B0F08",
"@  c #161107",
"#  c #17120A",
"$  c #0D0E10",
"%  c #110F10",
"&  c #0D1314",
"*  c #0F1619",
"=  c #121315",
"-  c #161817",
";  c #151719",
":  c #15191A",
">  c #1A1D1E",
",  c #171F23",
"<  c #1C1E21",
"1  c #172023",
"2  c #1B2426",
"3  c #1E2328",
"4  c #212224",
"5  c #222827",
"6  c #26272B",
"7  c #252D2F",
"8  c #232E32",
"9  c #2C3232",
"0  c #2C363A",
"q  c #2C393D",
"w  c #323233",
"e  c #32353C",
"r  c #353C3E",
"t  c #5E5026",
"y  c #343741",
"u  c #333E43",
"i  c #3A3C41",
"p  c #3A3D51",
"a  c #334247",
"s  c #324348",
"d  c #3D4549",
"f  c #3C4A4D",
"g  c #3D4F51",
"h  c #3F5053",
"j  c #404046",
"k  c #45474C",
"l  c #434657",
"z  c #464F54",
"x  c #445256",
"c  c #485155",
"v  c #41575C",
"b  c #45595E",
"n  c #4A5A5F",
"m  c #505052",
"M  c #545A5F",
"N  c #455B60",
"B  c #4B5A60",
"V  c #555965",
"C  c #4F6569",
"Z  c #4E6265",
"A  c #526568",
"S  c #52686E",
"D  c #5D606C",
"F  c #4E6970",
"G  c #556D72",
"H  c #557379",
"J  c #59767D",
"K  c #66686B",
"L  c #606370",
"P  c #6B6C73",
"I  c #666978",
"U  c #6D6F7A",
"Y  c #656B70",
"T  c #60767C",
"R  c #747B7F",
"E  c #7C7B7D",
"W  c #727377",
"Q  c #CB7C34",
"!  c #D99734",
"~  c #D79934",
"^  c #D89836",
"/  c #DAA63F",
"(  c #BF9F4B",
")  c #BDA04B",
"_  c #C09F4B",
"`  c #D7A540",
"'  c #DAA742",
"]  c #DDBD55",
"[  c #DFBC59",
"{  c #5E7C83",
"}  c #676D87",
"|  c #627F86",
" . c #6A7E87",
".. c #627F89",
"X. c #7A7B81",
"o. c #5F8084",
"O. c #5F8189",
"+. c #648187",
"@. c #6F8486",
"#. c #64828B",
"$. c #6E848A",
"%. c #6D8B8F",
"&. c #708487",
"*. c #708389",
"=. c #7E838B",
"-. c #6D8A92",
";. c #748E95",
":. c #738F99",
">. c #798D92",
",. c #719197",
"<. c #759399",
"1. c #7B969C",
"2. c #7D999F",
"3. c #7981A6",
"4. c #808289",
"5. c #8A8E98",
"6. c #8D8E96",
"7. c #86969C",
"8. c #8F969C",
"9. c #839EA3",
"0. c #8B93B5",
"q. c #86A1A8",
"w. c #8DA7AC",
"e. c #8DA8AD",
"r. c #84A1A5",
"t. c #91A8AD",
"y. c #92AAB0",
"u. c #9EB3B9",
"i. c #A8ADB8",
"p. c #A9B6B7",
"a. c #A1B7BC",
"s. c #A6BABF",
"d. c #B0B8BF",
"f. c #A8AFC7",
"g. c #A7ADC9",
"h. c #A8AFC9",
"j. c #A6BAC0",
"k. c #A9BAC0",
"l. c #ACB4CA",
"z. c #B1B7CF",
"x. c #B4B9CF",
"c. c #B5BBD1",
"v. c #B2C4C7",
"b. c #B7C9CC",
"n. c #B8C9CC",
"m. c #B4C6C9",
"M. c #BCC2D3",
"N. c #BDCDD1",
"B. c #C2D0CF",
"V. c #C2C7D7",
"C. c #C3CDD2",
"Z. c #CACFDC",
"A. c #C4C6D9",
"S. c #C2D1D2",
"D. c #CDD4DE",
"F. c #D0D7DE",
"G. c #D0D8DD",
"H. c #CED5E0",
"J. c #D2D6E1",
"K. c #D5DBE3",
"L. c #E6E6EC",
"P. c #E7E8ED",
"I. c None",
/* pixels */
"I.I.I.I.I.I.I.I.I.I.I.I.I.I.I.I.I.I.I.I.I.I.I.I.I.I.I.I.I.I.I.I.I.I.I.I.I.I.I.I.I.I.I.I.I.I.I.I.I.I.I.I.I.I.I.I.I.I.I.I.I.I.I.I.",
"I.I.I.I.I.I.I.I.I.I.I.I.I.I.I.I.I.I.I.I.I.I.I.I.I.I.I.I.I.I.I.I.I.I.I.I.I.I.I.I.I.I.I.I.I.I.I.I.I.I.I.I.I.I.I.I.I.I.I.I.I.I.I.I.",
"I.  > > > > > > 4 > > > > > > > - - ; ; ; ; ; ; : - : - : : : : - : : : - ; : : : : : - : & I.I.I.I.I.I.I.  ; -   I.I.I.I.I.I.I.",
"I.o B.B.B.B.B.B.B.B.B.B.B.N.B.B.C.S.C.C.C.S.C.S.C.S.S.S.S.S.S.S.S.S.C.S.S.Z.S.S.S.S.S.S.S.X.I.I.I.I.I.I.I.  e.b.  I.I.I.I.I.I.I.",
"I.o w.t.w.1.<.<.<.1.<.2.1.1.<.2.e.y.t.t.e.e.e.e.y.k.j.k.j.k.s.s.j.j.j.j.k.k.j.k.k.j.k.j.k.A I.I.I.I.I.I.I.  e.b.  I.I.I.I.I.I.I.",
"I.o e.w.w.1.<.<.<.<.<.<.<.<.<.2.w.w.w.w.w.e.e.e.y.k.j.j.j.j.s.s.j.j.j.s.k.j.j.j.j.j.j.j.k.A I.I.I.I.I.I.I.  s.N.  I.I.I.I.I.I.I.",
"I.o e.e.w.<.<.<.<.<.,.,.,.,.<.2.e.e.e.e.e.e.e.e.y.j.s.j.s.s.s.s.s.s.s.s.s.s.j.j.j.j.s.k.k.A I.I.I.I.I.I.I.  s.N.  I.I.I.I.I.I.I.",
"I.o w.e.Z $ & & & & & & & & & & & * * & * * * * ; * * = ; * * * * ; ; = * * ; * = = 3 k.k.A I.I.I.I.w w 9 . s.N.X I.I.I.I.I.I.I.",
"I.o e.e.x f x h g g h h h h h h h h h h h h h h h h h h h h h h h h h h h g h g h h & j.k.A I.I.I.: 7.9.7.$ s.N.  I.I.I.I.I.I.I.",
"I.O e.e.v h v v v v v v v v v v N h h N v N N h v v v v v v v v v v v v N h N v N h $ j.d.A I.I.I.V 1.2.1.$ s.N.X I.I.I.X I.I.I.",
"I.& e.e.v g g 2 2 2 2 2 2 2 2 2 2 2 2 1 2 2 2 2 2 2 2 2 2 2 2 2 1 2 2 2 2 2 2 2 8 v $ j.k.A I.I.  ,.O.#.#.$ j.N.  I.I.W W I.I.I.",
"I.O e.e.v g s r x x x x x x x x x x x x h v x x x x x x x x x x x z x x x x x x & v $ j.k.A I.I.  #.<.,.,.$ s.N.  I.I.X.P.  I.I.",
"I.o e.e.v g s A o.+.+.+.o.+.o.+.+.+.O.+.O.+.+.+.+.+.+.O.+.+.+.+.+.+.+.O.+.O.....= v $ j.j.A I.I.  -.1.1.1.$ s.N.  I.I.E P.  I.I.",
"I.o e.e.v g s A +.+.+.+.+.+.+.+.+.+.+.+.+.+.+.+.+.| +.+.+.+.+.+.+.+.+.+.+.+.+.+.= v $ j.k.A I.I.X 1.1.1.2.$ j.N.  I.I.E P.  I.I.",
"I.O e.e.v g s S +.+.+.+.+.+.+.+.+.+.+.+.+.+.+.+.+.+.+.+.+.+.+.+.+.+.+.+.+.+.+.+.= v $ j.k.S 5 8 o 1.1.2.1.o j.N.  I.I.E P.  I.I.",
"I.& e.e.v g s S +.+.+.+.+.+.+.+.+.+.+.+.+.+.+.+.+.+.+.+.+.+.+.+.+.+.+.+.+.+.+.+.= v $ j.k.V G +.5 1.2.1.2.o j.N.X I.I.X.P.  I.I.",
"I.o e.e.v g a A +.+.+.+.+.+.+.+.+.+.+.+.+.+.+.+.+.+.+.+.+.+.+.+.+.+.+.+.+.+.+...= v & k.s.A G +.3 2.1.1.2.o s.N.  I.I.X.L.  I.I.",
"I.o e.e.v g a A +.+.+.+.+.+.+.+.+.+.+.+.+.+.+.+.+.+.+.+.+.+.+.+.+.+.+.+.+.+.+...= v o s.s.A H +.3 1.1.7.2.o s.C.  I.I.P V.  I.I.",
"I.o e.e.v g a A +.+.+.+.+.+.+.+.+.+.+.+.+.+.+.+.+.+.+.+.+.+.+.+.+.+.+.+.+.+.+.#.= v $ s.d.A G #.3 1.1.2.1.o s.N.  I.I.P V.  I.I.",
"I.o e.e.b h a C +.+.+.+.+.+.+.+.+.+.+.+.+.+.+.+.+.+.+.+.+.+.+.+.+.+.+.+.+.+.+...= v $ s.s.A b G , 2.u X 2.$ s.N.X I.I.D l.  I.I.",
"I.o e.w.b g a A +.+.+.+.+.+.+.+.+.+.+.+.+.+.+.+.+.+.+.+.+.+.+.+.+.+.+.+.+.+.+.+.= v o s.k.A n S > $.X.k.x o s.N.      $ :   I.I.",
"I.o e.e.b g a A +.+.+.+.+.+.+.+.+.+.+.+.+.+.+.+.+.+.+.+.+.+.+.+.+.+.+.+.+.+.+.+.= v $ s.k.A n G >  .=.H.f $ k.N.    } y 8.  I.I.",
"I.o e.e.b h a C +.+.+.+.+.+.+.+.+.+.+.+.+.+.+.+.+.+.+.+.+.+.+.+.+.+.+.+.+.+.+.+.= v $ j.k.A       <.u $ ;.o k.N.    c.V J.X.I.I.",
"I.o e.e.b g a A +.+.+.+. .+.+.+.+.+.+.+.+.+.+.+.+.+.+.+.+.+.+.+.+.+.+.+.+.+.+. .= v $ j.k.A I.I.  1.S h <.$ k.N.    c.V J.i.< I.",
"I.o w.w.b g a A +.+.+.+.+.+.+.+.+.#.+.+.+.+.+.+.+.+.+.#.+.+.+.+.+.+. .+.+.+.+.+.= v o j.k.A I.I.. 1.:.-.1.o j.N.$ , x.V F.J.4 I.",
"I.o e.w.b g a A +.+.+.+.+.+.+.+.+.#.+.+.+.+.+.+.+.+.+.+.+.+.+.+.+.#.#.+.+.+.+.+.= v $ j.k.A I.I.  2.1.1.2.$ j.N.6 j x.V F.K.4 I.",
"I.o e.w.b h s C +.+.+.+.+.+.+.+.+.+. .+.+.+.+.+.+.+.+.+.+.+.+.+.+.+.#.+.+.+.+. .= v $ j.k.A I.I.  1.7.2.1.$ j.N.6 j x.V G.K.4 I.",
"I.o e.w.b g a A +.+.+.+.+.+.+.+.+.+.+.+.+.+.+.+.+.+.+.+.+.+.+.+.+.+.+.+.+.+.+.+.= v $ j.k.A I.I.  1.1.;.1.o j.N.6 j x.V F.K.4 I.",
"I.o w.w.b g a C +.+.+.+.+.+.+.+.+.+.+.+.+.+.+.+.+.+.+.+. .+.+.+.+.+.+.+.+.+.+...= v o j.k.A I.I.  ;.z k $.$ u.N.6 j x.V G.Z.4 I.",
"I.o w.w.b g s C +.+.+.+.+.+.+.+.+.+.+.+.+.+.+.+.+.+.+.+.+.+.+.+.+.+.+.+.+.+.+.#.= v $ j.k.A I.I.   .4.F.f o w.b.6 j z.V J.A.4 I.",
"I.o w.w.n g a C +.+.+.+.+.+.+.+.+.+.+.+.+.+.+.+.+.+.+.+.+.+.+.+.+.+.+.+.+.+.+...= v $ j.k.A I.I.  H =.D.u $ w.b.4 e 0.l M.V.> I.",
"I.o w.w.b h a C +.+.+.+.+.+.+.+.+.+.+.+.+.+.+.+.+.+.+.+.+.+.+.+.+.+.+.+.+.+.+.+.= v $ k.k.A I.I.  O.9 = { $ w.n.4 y 0.l M.M.< I.",
"I.O e.e.b g a C +.+.+.+.+.+.+.+.+.+.+.+.+.+.+.+.+.+.+.+.+.+.+.+.+.+.+.+.+.+.+.+.= h & j.k.A I.I.  #.H F #.$ e.b.3 y 0.l A.g.3 I.",
"I.O e.e.b g s C +.+.+.+.+.+.+.+.+.+.+.+.+.#.+.+.+.+.+.+.+.+.+.+.+.+.+.+.+.+.+...; h & j.k.A I.I.  #.#.#.#.$ e.b., y  .p z.z.3 I.",
"I.o e.e.b g a C +.+.+.+.+.+.+.+.+.+.+.+.+.+.+.+.+.+.+.+.+.+.+.+.+.+.+.+.+. .+.#.= v $ s.k.A I.I.X #.-.#.#.$ e.b., y  .p g.c.3 I.",
"I.o e.e.b g s C +.+.+.+.+.+.+.+.+.+.+.+.+. .+.+.+.+.+.+.+.+.+.+.+.+.+.+.+.#.#...; h $ k.k.A I.I.  #.#.#.#.$ e.b.= , 3.l h.M.3 I.",
"I.o e.e.b g a C +.+.+.+.+.+.+.+.+.+.+.+.+.+.+.+.+.+.+.+.+.+.+.+.+.+.+.+.+.+.+.+.= v o s.s.A   O   #.s & O.$ e.b.X X 0.l c.4.I.I.",
"I.o e.e.n g s C +.+.+.+.+.+.+.+.+.+.+.+.+.+.+.+.+.+.+.+.+.+.+.+.+.+.+.+.+.+.+. .= v & s.s.A g n : { Y 8.h $ e.b.    0.l A.y I.I.",
"I.o e.e.n g s S +.+.+.+.+.+.+.+.+.+.+.+.+.+.+.+.+.+.+.+.+.+.+.+.+.+.+.+.+.+.+.+.= v $ s.s.A S +.2 H =.F.s $ w.b.    I e 5.X I.I.",
"I.o w.w.N g s A +.+.+.+.+.+.+.+.+.+.+.+.+.+.+.+.+.+.+.+.+.+.+.+.+.+.+.+.+.+.+.+.= v $ s.d.A H +.2 O.V K C $ e.b.  I.I.i I X I.I.",
"I.o e.w.b g a A +.+.+.+.+.+.+.+.5 t t t t t t t t t t t t t t t t t t t t O +.+.= v $ j.k.A G +.2 #.h 8 O.$ e.b.  I.I.L c.  I.I.",
"I.o e.w.b g a A +.@.+.+.+.+.+.+.3 [ [ [ [ [ [ [ [ [ [ [ [ [ [ [ [ [ [ [ [ # +.+.= v $ j.d.A G +.2 #.{ { #.$ e.b.  I.I.P V.  I.I.",
"I.o w.w.b g a A +.+.+.+.+.+.+.+.3 ] [ [ [ [ [ [ [ [ [ ] [ [ [ [ [ [ [ [ [ @ +.+.= v $ j.k.A N S 2 #.#.#.#.$ q.b.  I.I.U D.  I.I.",
"I.o e.w.b g s A +.+.+.+.+.+.+.+.2 ) ) ) ) ) ) _ ) ( ( ) ) _ _ _ ( ( ( ( ( @ +.+.= v $ j.k.A n G 1 #.#.#.O.$ <.v.X I.I.E P.  I.I.",
"I.o w.w.N g a A +.+.+.+.+.+.+.+.2     X         . . .   . . . . . .     . . +.+.= v $ j.j.A n S 2 { O.#.#.o <.v.X I.I.E L.  I.I.",
"I.o t.w.b g s A +.+.+.+.+.+.+.+.2 ] ' ^ ^ ^ ~ ~ ] ' ] ] Q ! ^ ] [ [ [ ] ~ @ +.+.= v o j.k.A X X   H H H H o <.v.  I.I.E P.  I.I.",
"I.o w.w.v g a A +.o.+.+.+.+.+.+.5 ] ' ^ ^ ^ ~ ^ [ ` ] ] Q ^ ^ ] [ ] ] ] ~ @ +.+.= N & j.k.A I.I.  H H H H o <.v.  I.I.E P.  I.I.",
"I.o t.w.N g s A +.+.+.+.+.+.+.o.2 ] ' ^ ^ ^ ^ ^ [ / ] ] Q ^ ~ [ [ [ [ ] ~ + +.+.= h $ j.k.A I.I.  H H H H o <.v.  I.I.E L.  I.I.",
"I.o w.w.b h a                                 X       X     X       X X X   X   = v $ j.k.A I.I.. +.H H H o <.v.  I.I.E P.  I.I.",
"I.o w.w.b h h q q u u u u y u 0 q u u y 0 q u y q 0 q 0 q y 0 0 y y 0 0 0 q q q a v $ k.k.A I.I.  #.+.O.O.o <.v.  I.I.j m I.I.I.",
"I.o e.w.b h N h h N v v N v h v N v N h h N v N v v v v N v v v h N v v v v v v v v & s.k.A I.I.I.8 #.#.#.& <.v.  I.I.I.I.I.I.I.",
"I.o w.e.b * * ; * * * * * * * * * * * * * * * * * * * ; * * ; * * * * * * ; * * * * o j.d.A I.I.I.I.1 1 1   <.v.  I.I.I.I.I.I.I.",
"I.o w.w.T 0 0 0 0 0 q q q q q q u u u r u u u u u d d d d d d d s d d d f d d d d d z j.k.A I.I.I.I.X X     2.m.  I.I.I.I.I.I.I.",
"I.o w.w.w.1.<.<.<.<.<.<.,.<.<.1.w.w.w.w.w.w.w.w.y.j.s.j.s.j.s.s.j.j.k.j.j.j.s.s.s.j.k.k.k.A I.I.I.I.I.I.I.  e.b.  I.I.I.I.I.I.I.",
"I.o w.w.w.<.<.<.<.<.<.<.<.<.<.1.w.w.w.w.w.w.w.w.y.k.j.j.j.k.j.j.j.j.j.j.j.j.j.j.s.s.j.j.k.A I.I.I.I.I.I.I.  e.b.  I.I.I.I.I.I.I.",
"I.o w.w.w.<.<.<.<.<.<.<.<.<.<.2.w.w.w.w.w.w.w.w.e.a.a.a.a.a.a.a.u.s.u.s.u.s.s.u.u.s.u.s.s.A I.I.I.I.I.I.I.  e.b.  I.I.I.I.I.I.I.",
"I.o *.@.@.$.&.@.@.@.&.&.&.&.*.*.@.$.$.@.$.$.@.$.$.@.*.&.&.&.*.&.$.$.@.$.@.*.*.*.&.&.&.&.*.z I.I.I.I.I.I.I.  7.p.  I.I.I.I.I.I.I.",
"I.      o > > > > 5 4 &                                         .       > : > 1 3 4 >       I.I.I.I.I.I.I.    X   I.I.I.I.I.I.I.",
"I.I.I.I.r | T o.<.2.w.s I.I.I.I.I.I.I.I.I.I.I.I.I.I.I.I.I.I.I.I.I.I.I.. #.{ | -.1.q.$.I.I.I.I.I.I.I.I.I.I.I.I.I.I.I.I.I.I.I.I.I.",
"I.I.I.I.i +.o.o.<.r.e.s I.I.I.I.I.I.I.I.I.I.I.I.I.I.I.I.I.I.I.I.I.I.I.  %.o.+.;.1.e.$.I.I.I.I.I.I.I.I.I.I.I.I.I.I.I.I.I.I.I.I.I.",
"I.I.I.I.r +.+.+.<.9.w.f I.I.I.I.I.I.I.I.I.I.I.I.I.I.I.I.I.I.I.I.I.I.I.  %.+.+.,.1.e.%.I.I.I.I.I.I.I.I.I.I.I.I.I.I.I.I.I.I.I.I.I.",
"I.I.I.I.X * & = * ; ; o I.I.I.I.I.I.I.I.I.I.I.I.I.I.I.I.I.I.I.I.I.I.I.  = & & = ; - * I.I.I.I.I.I.I.I.I.I.I.I.I.I.I.I.I.I.I.I.I.",
"I.I.I.I.I.I.I.I.I.I.I.I.I.I.I.I.I.I.I.I.I.I.I.I.I.I.I.I.I.I.I.I.I.I.I.I.I.I.I.I.I.I.I.I.I.I.I.I.I.I.I.I.I.I.I.I.I.I.I.I.I.I.I.I.",
"I.I.I.I.I.I.I.I.I.I.I.I.I.I.I.I.I.I.I.I.I.I.I.I.I.I.I.I.I.I.I.I.I.I.I.I.I.I.I.I.I.I.I.I.I.I.I.I.I.I.I.I.I.I.I.I.I.I.I.I.I.I.I.I."
};
