/* XPM */
static char *result[] = {
/* columns rows colors chars-per-pixel */
"64 64 168 2 ",
"   c #030203",
".  c #0A0301",
"X  c #0D0A05",
"o  c #060609",
"O  c #0B0C0D",
"+  c #1B0F08",
"@  c #161107",
"#  c #17120A",
"$  c #191208",
"%  c #0D0E10",
"&  c #110F10",
"*  c #0D1314",
"=  c #0F1619",
"-  c #121315",
";  c #161817",
":  c #151719",
">  c #15191A",
",  c #1A1D1D",
"<  c #171F23",
"1  c #1C1E21",
"2  c #172023",
"3  c #1B2426",
"4  c #1E2328",
"5  c #212224",
"6  c #222827",
"7  c #26272B",
"8  c #252D2F",
"9  c #232E32",
"0  c #2C3232",
"q  c #2B363A",
"w  c #2C393D",
"e  c #263133",
"r  c #323233",
"t  c #32353C",
"y  c #353C3E",
"u  c #403718",
"i  c #4C411D",
"p  c #5E5026",
"a  c #343741",
"s  c #323E42",
"d  c #3A3C41",
"f  c #3A3D50",
"g  c #334247",
"h  c #334348",
"j  c #3D454A",
"k  c #3C4A4D",
"l  c #3D4F51",
"z  c #3F5153",
"x  c #404046",
"c  c #45474C",
"v  c #434657",
"b  c #464F54",
"n  c #445256",
"m  c #41575C",
"M  c #45595E",
"N  c #4A5A5F",
"B  c #485155",
"V  c #505052",
"C  c #545A5F",
"Z  c #455C60",
"A  c #4B5A60",
"S  c #555965",
"D  c #4F656A",
"F  c #4E6265",
"G  c #536567",
"H  c #526568",
"J  c #58646D",
"K  c #4E6970",
"L  c #556D72",
"P  c #557379",
"I  c #58747A",
"U  c #60636F",
"Y  c #66686B",
"T  c #6B6C73",
"R  c #6D6F7A",
"E  c #666A74",
"W  c #60767C",
"Q  c #747B7F",
"!  c #7C7B7D",
"~  c #727277",
"^  c #815B21",
"/  c #995F23",
"(  c #9E6225",
")  c #C3782D",
"_  c #C97C2E",
"`  c #CB7C34",
"'  c #C38932",
"]  c #D69934",
"[  c #D89837",
"{  c #D99734",
"}  c #DAA63F",
"|  c #BF9F4B",
" . c #BDA04B",
".. c #C09F4B",
"X. c #D7A540",
"o. c #DAA742",
"O. c #DDBE53",
"+. c #DFBC59",
"@. c #5E7C83",
"#. c #676C87",
"$. c #627F86",
"%. c #627E89",
"&. c #6A7E87",
"*. c #7A7B81",
"=. c #5F8189",
"-. c #5F8084",
";. c #648187",
":. c #64838B",
">. c #6E848A",
",. c #6E878B",
"<. c #708487",
"1. c #708389",
"2. c #7F838B",
"3. c #6E8A92",
"4. c #748E95",
"5. c #768E95",
"6. c #789497",
"7. c #759399",
"8. c #7B969C",
"9. c #7D999F",
"0. c #719195",
"q. c #7981A6",
"w. c #808289",
"e. c #8C8E97",
"r. c #86969C",
"t. c #8F969D",
"y. c #839EA3",
"u. c #8B93B5",
"i. c #8DA7AC",
"p. c #8DA8AD",
"a. c #85A1A6",
"s. c #91A8AD",
"d. c #92ABB0",
"f. c #9DB3B9",
"g. c #A8ADB8",
"h. c #A9B6B7",
"j. c #A1B7BC",
"k. c #A6BABF",
"l. c #B0B8BF",
"z. c #A8AFC6",
"x. c #A8AFC9",
"c. c #A7ADC9",
"v. c #A6BAC0",
"b. c #A9BAC0",
"n. c #ACB4CA",
"m. c #B1B7CF",
"M. c #B4B9CF",
"N. c #B4BBD1",
"B. c #B2C4C7",
"V. c #B7C9CC",
"C. c #B8C9CC",
"Z. c #B4C6C9",
"A. c #BCC2D3",
"S. c #BDCDD1",
"D. c #C2D0CF",
"F. c #C2C7D7",
"G. c #C3CDD2",
"H. c #C7CBDB",
"J. c #C2D1D2",
"K. c #CDD4DE",
"L. c #D0D7DE",
"P. c #D0D9DD",
"I. c #CED5E0",
"U. c #D2D6E1",
"Y. c #D6DBE3",
"T. c #E5E6EC",
"R. c #E7E8ED",
"E. c None",
/* pixels */
"E.E.E.E.E.E.E.E.E.E.E.E.E.E.E.E.E.E.E.E.E.E.E.E.E.E.E.E.E.E.E.E.E.E.E.E.E.E.E.E.E.E.E.E.E.E.E.E.E.E.E.E.E.E.E.E.E.E.E.E.E.E.E.E.",
"E.E.E.E.E.E.E.E.E.E.E.E.E.E.E.E.E.E.E.E.E.E.E.E.E.E.E.E.E.E.E.E.E.E.E.E.E.E.E.E.E.E.E.E.E.E.E.E.E.E.E.E.E.E.E.E.E.E.E.E.E.E.E.E.",
"E.  , , , , , , , , , , , , , , : : : : : : : ; > ; > ; > > > > > > ; > : , > > > ; > > > * E.E.E.E.E.E.E.  > >   E.E.E.E.E.E.E.",
"E.O J.D.D.D.J.S.J.D.D.D.D.S.D.D.J.G.G.G.G.J.G.J.G.J.J.J.J.J.J.J.J.J.J.J.G.J.J.J.J.J.J.J.J.*.E.E.E.E.E.E.E.  p.V.  E.E.E.E.E.E.E.",
"E.O i.s.i.8.9.8.6.6.6.6.8.8.7.9.s.s.s.s.s.s.p.p.d.b.v.v.v.v.v.v.v.b.v.v.b.b.b.v.v.v.v.v.v.J E.E.E.E.E.E.E.  i.C.  E.E.E.E.E.E.E.",
"E.O i.p.s.6.0.6.7.7.7.7.7.7.7.9.i.i.i.i.p.p.p.p.d.b.v.v.v.v.v.v.v.v.v.v.b.v.v.v.v.v.v.v.b.G E.E.E.E.E.E.E.  k.S.  E.E.E.E.E.E.E.",
"E.O i.i.i.6.6.0.7.7.0.7.7.0.7.9.p.p.p.p.p.p.p.p.d.v.v.v.v.v.v.v.k.k.v.k.v.v.v.v.k.v.v.b.b.G E.E.E.E.E.E.E.  k.S.  E.E.E.E.E.E.E.",
"E.O i.i.F % * * * * * * * * * * * = = * = = = = = : = - : - = - : - - = : = = : : - 4 b.b.G E.E.E.E.r r r   k.S.o E.E.E.E.E.E.E.",
"E.O p.p.n k z z z z z z z z z z z z z z z z z z z z z z z z z z z z z z z z z l l z % v.b.G E.E.E.< r.y.r.% k.S.  E.E.E.E.E.E.E.",
"E.O p.p.m z m m Z z m m m m m m Z z m m m m Z z z M m m z m m M z Z z M z Z Z Z Z z % v.b.G E.E.E.A 8.9.8.% k.S.  E.E.E.o E.E.E.",
"E.O p.p.m z l 3 3 3 3 3 3 3 3 3 3 3 3 3 3 3 3 3 3 3 3 3 3 3 3 3 3 3 3 3 3 3 3 3 9 m % v.b.G E.E.  0.:.:.:.% v.S.o E.E.~ ~ E.E.E.",
"E.O p.p.n l h g z m m n n n n n n n n n m n z n n m n n n m n n n n n m n n n n * m % v.b.G E.E.  :.7.0.0.% k.S.  E.E.*.R.  E.E.",
"E.O i.i.z z h G ;.;.-.;.;.-.;.;.;.;.@.;.=.;.;.;.;.;.-.;.;.;.;.;.@.:.;.=.;.;.%.@.= Z % v.b.H E.E.  3.8.8.9.O v.S.  E.E.! R.  E.E.",
"E.O p.p.n l h K ;.;.:.;.;.;.;.;.;.;.;.;.;.;.;.;.;.;.;.;.;.;.;.;.;.;.;.;.;.;.;.:.= z % v.b.H E.E.. 9.7.9.9.O b.S.o E.E.! R.  E.E.",
"E.O p.p.m z h H ;.;.;.;.;.;.;.;.;.;.;.;.;.;.;.;.;.;.;.;.;.;.;.;.;.;.;.;.;.;.;.%.= m O v.b.H 7 8 & 8.9.8.8.% v.S.  E.E.! R.  E.E.",
"E.O p.p.m z h D ;.;.;.;.;.;.;.;.;.;.;.;.;.;.;.;.;.;.;.;.;.;.;.;.;.;.;.;.;.;.;.;.& Z O z.b.H L ;.4 8.8.8.8.O b.S.  E.E.*.R.  E.E.",
"E.O i.i.m z g G ;.;.;.;.;.;.;.;.;.;.;.;.;.;.;.;.;.;.;.;.;.;.;.;.;.;.;.;.;.;.;.%.- m % v.k.G L ;.4 8.9.8.8.O k.G.  E.E.*.T.  E.E.",
"E.O i.p.m l g G ;.;.;.;.;.;.;.;.;.;.;.;.;.;.;.;.;.;.;.;.;.;.;.;.;.;.;.;.;.;.;.:.- m % v.b.G P ;.4 8.8.8.8.O b.S.  E.E.T H.  E.E.",
"E.O i.i.m l g D ;.;.;.;.;.;.;.;.;.;.;.;.;.;.;.;.;.;.;.;.;.;.;.;.;.;.;.;.;.;.;.%.- m % v.b.G L ;.4 8.8.r.8.* k.S.  E.E.T F.  E.E.",
"E.O i.i.m z g H ;.;.;.;.;.;.;.;.;.;.;.;.;.&.;.;.;.;.;.;.;.;.;.;.;.;.;.;.;.;.;.%.- m % v.b.G Z K , 9.g o 8.O k.S.  E.E.J n.  E.E.",
"E.O i.p.M l g H ;.;.;.;.;.;.;.;.;.;.;.;.;.;.;.;.;.;.;.;.;.;.;.;.;.;.;.;.;.;.;.:.- m % v.b.G A L , >.*.b.n % k.S.      & ,   E.E.",
"E.O i.p.M l g H ;.;.;.;.;.;.;.;.;.;.;.;.;.;.;.;.;.;.;.;.;.;.;.;.;.;.;.;.;.;.;.&.& m % v.b.H A L < &.w.I.k O v.S.    #.a e.  E.E.",
"E.O i.p.M z g H ;.;.;.;.;.;.;.;.;.;.;.;.;.;.;.;.;.;.;.;.;.;.;.;.;.;.;.;.;.;.;.:.- Z % v.b.H       8.s % 5.O b.S.    M.S Y.*.E.E.",
"E.O i.p.M z g D ;.;.;.;.%.;.;.;.;.;.;.;.;.;.;.;.;.;.;.;.;.;.;.;.;.;.;.;.;.;.;.%.- z % v.b.H E.E.  6.K z 7.% b.S.    N.S K.g.1 E.",
"E.O i.i.M z h H ;.;.;.;.;.;.;.;.;.;.;.;.;.;.;.;.;.;.;.;.;.;.;.;.;.;.;.;.;.;.;.;.- m % v.b.H E.E.. 8.0.3.9.O v.S.% 1 M.S L.L.5 E.",
"E.O i.i.M l h G $.;.;.;.;.;.;.;.;.;.;.;.;.;.;.;.;.;.;.;.;.;.;.;.;.;.;.;.;.;.;.:.: z % v.b.H E.E.  8.8.8.9.O v.S.7 x M.S L.Y.5 E.",
"E.O i.p.M l h H ;.;.;.;.;.;.;.;.;.;.;.;.;.;.;.;.;.;.;.;.;.;.;.;.;.;.;.;.;.;.;.;.- m % v.b.H E.E.  8.r.8.8.O v.S.7 x M.S L.Y.5 E.",
"E.O i.i.Z k h H ;.;.;.;.;.;.% O % % % & O % % O O % O * % % % O % % % % h ;.;.&.- m % v.b.H E.E.  8.6.4.9.% v.S.7 f M.S L.Y.5 E.",
"E.O i.i.M l h D ;.;.;.;.;.;.X _ _ _ _ _ _ _ _ _ _ _ _ _ _ _ _ _ _ _ _ ) s ;.;.;.- z * v.b.H E.E.  5.b c >.% f.S.7 x M.S L.K.1 E.",
"E.O i.i.M l h D ;.;.;.;.;.;.. _ _ _ _ _ _ _ _ _ _ _ _ _ _ ` _ _ _ _ _ ) s ;.;.%.: z % v.b.H E.E.  &.w.L.k % p.V.7 x M.S L.H.5 E.",
"E.O i.i.M z g D &.;.;.;.;.;.X ` _ _ _ _ _ _ _ _ _ _ _ _ _ _ _ _ _ _ _ ) s ;.;.;.- m % v.b.G E.E.  P w.K.s % i.V.5 t u.v A.H.1 E.",
"E.O i.i.M l g H ;.;.;.;.;.;.. ( ( ( ( ( ( ( ( ( ( ( ( ( ( ( ( ( ( ( ( / e ;.;.;.- m % b.b.G E.E.  @.q - @.O i.C.5 a u.v A.N.1 E.",
"E.O i.p.m l g D ;.;.;.;.;.;.                                              ;.;.;.- z * v.b.H E.E.  :.P K :.% p.V.< a u.S F.m.4 E.",
"E.X i.p.Z l g D ;.;.;.;.;.;.;.u O.O.O.O.O.O.O.O.O.O.O.O.O.O.O.O.O.O.O.O.i ;.;.;.: z % v.b.H E.E.  :.:.:.:.% p.V.4 a &.f c.c.4 E.",
"E.O p.i.M z h D ;.;.;.;.;.;.;.u O.O.O.O.O.O.O.O.O.O.O.O.O.O.O.O.O.O.O.O.i ;.;.;.- m % v.b.H E.E.o :.3.:.:.% p.V.< a &.f c.N.4 E.",
"E.O p.p.M l h D ;.;.;.;.;.;.;.u O.O.O.O.O.O.O.+.O.O.O.O.O.O.O.O.O.O.O.O.i ;.;.%.- m % v.b.H E.E.  :.:.:.:.% p.V.= : q.v c.F.4 E.",
"E.O i.p.M l h G ;.;.;.;.;.;.;.* O O X $ $ $ $ # @ @ $ $ + # # # # # # # $ $ @ D - m O b.k.H . o   :.g * :.O p.V.o X u.v N.*.E.E.",
"E.O i.p.M z g G ;.;.;.;.;.;.;.;.;.L ^ ] [ [ [ [ { ] [ ] [ [ [ [ [ [ [ [ [ [ ' D - m O b.b.H k N > @.E t.z O p.V.    u.v F.a E.E.",
"E.O i.i.M z h G ;.;.;.;.;.;.;.;.:.L ^ ] [ [ [ [ [ [ [ [ [ [ [ [ [ [ [ [ [ [ ' D - m * v.b.G L ;.3 P 2.I.h % p.V.    E t e.o E.E.",
"E.O i.p.M z h G ;.;.;.;.;.;.;.;.;.L ^ [ [ [ [ [ [ [ [ [ [ [ [ [ [ [ [ [ [ [ ' D - M O v.b.G L ;.3 =.S Y D % p.V.  E.E.y #.o E.E.",
"E.O i.i.M l h H ;.;.;.;.;.;.;.;.6 p p p p p p p p p p p p p p p p p p p p X q L - m % k.b.G L ;.3 :.l e =.% p.V.o E.E.U N.  E.E.",
"E.O i.p.M l h H ;.;.;.;.;.;.;.;.3 +.+.+.+.+.+.+.+.+.+.+.+.+.+.+.+.+.+.+.+.# ;.;.- M * v.b.H L ;.3 :.@.@.:.% p.V.  E.E.T H.  E.E.",
"E.O i.p.M l h H ;.;.;.;.;.;.;.;.6 +.+.+.+.+.+.+.+.+.+.O.+.+.+.+.+.+.+.+.+.# ;.;.: z O k.b.H Z K 2 :.:.:.:.% a.V.  E.E.R K.  E.E.",
"E.O i.i.Z k h H ;.;.;.;.;.;.;.;.3  . . . . . . .| ......| ....| | ........@ ;.;.- m % v.b.H N L 2 :.:.:.:.% 6.B.  E.E.! T.  E.E.",
"E.O i.i.M l g H ;.;.;.;.;.;.;.;.3                 . .   . . .   . .     .   ;.;.- m % v.v.H A L 2 P :.:.=.% 0.B.  E.E.! R.  E.E.",
"E.O i.i.M l h H ;.;.;.;.;.;.;.;.3 O.o.[ ] ] ] } O.o.O.+.` { { O.+.+.+.O.{ + ;.;.: z % v.b.H o o o P P @.P O 7.Z.o E.E.! R.  E.E.",
"E.O s.i.M l h H ;.;.;.;.;.;.;.;.3 O.o.[ [ [ ] [ +.o.O.O.` [ [ +.O.+.O.O.] @ ;.;.: Z % v.b.G E.E.  P P P P O 7.B.  E.E.! R.  E.E.",
"E.O i.i.Z l h H ;.;.;.;.;.;.;.-.6 O.} [ [ [ [ [ +.o.O.O.` { ] +.+.+.+.O.] + ;.;.* z % v.b.G E.E.  P P P P O 7.B.  E.E.! T.  E.E.",
"E.O i.i.A l h     o   o           .           o       .       .       o     o o * M * v.b.G E.E.  ;.P P P O 0.Z.  E.E.! T.  E.E.",
"E.O i.i.M l l w w a s s a s w w w s s a w w s a w w w a a w w w a w s a a w w s s m % v.b.G E.E.  ;.%.=.=.% 7.Z.  E.E.x V E.E.E.",
"E.O i.i.M l Z z z m m m m m z Z m m m m z Z m m Z m z m m Z m M z m m m z Z M z m M % b.b.G E.E.E.e :.:.:.% 6.B.  E.E.E.E.E.E.E.",
"E.O i.p.M = = = = = = = = = = = = = = - = = = = = = = = = = = = = = = = = = = - = = % b.b.G E.E.E.E.2 2 2   6.B.o E.E.E.E.E.E.E.",
"E.O i.p.I t w w q w w w w w w w s s s s s s s s s k j j j j j j k k j j j j j j j j b v.b.G E.E.E.E.o o     9.B.  E.E.E.E.E.E.E.",
"E.O i.i.i.6.6.0.0.6.6.7.7.0.6.9.i.i.i.i.i.i.i.i.p.v.v.v.v.j.v.v.v.v.v.v.v.v.k.k.v.v.b.v.b.H E.E.E.E.E.E.E.  p.V.  E.E.E.E.E.E.E.",
"E.O i.i.i.8.7.7.6.6.7.7.7.7.0.9.i.i.i.i.i.i.i.i.d.v.v.v.v.v.b.v.v.v.v.v.v.v.v.v.b.v.v.v.b.G E.E.E.E.E.E.E.  p.V.  E.E.E.E.E.E.E.",
"E.O i.i.i.6.7.7.7.7.7.7.7.7.7.9.i.p.i.p.i.i.p.i.d.v.f.v.f.j.j.j.j.j.j.j.j.j.j.j.j.j.j.j.v.G E.E.E.E.E.E.E.  p.V.. E.E.E.E.E.E.E.",
"E.O 1.<.>.,.<.<.,.>.,.<.<.1.1.1.1.1.>.1.1.;.1.1.1.1.1.<.<.<.1.<.>.1.<.<.<.<.<.<.1.<.1.1.>.b E.E.E.E.E.E.E.  r.h.  E.E.E.E.E.E.E.",
"E.      O , , , 2 5 5 %                                                 , 1 , 1 1 5 ,       E.E.E.E.E.E.E.    o   E.E.E.E.E.E.E.",
"E.E.E.E.y $.W -.0.y.a.g E.E.E.E.E.E.E.E.E.E.E.E.E.E.E.E.E.E.E.E.E.E.E.  :.@.@.3.7.i.>.E.E.E.E.E.E.E.E.E.E.E.E.E.E.E.E.E.E.E.E.E.",
"E.E.E.E.y ;.-.-.6.a.i.j E.E.E.E.E.E.E.E.E.E.E.E.E.E.E.E.E.E.E.E.E.E.E.  3.-.$.4.9.p.>.E.E.E.E.E.E.E.E.E.E.E.E.E.E.E.E.E.E.E.E.E.",
"E.E.E.E.y ;.;.;.6.a.p.j E.E.E.E.E.E.E.E.E.E.E.E.E.E.E.E.E.E.E.E.E.E.E.  3.;.;.0.8.p.,.E.E.E.E.E.E.E.E.E.E.E.E.E.E.E.E.E.E.E.E.E.",
"E.E.E.E.o = * - = = : O E.E.E.E.E.E.E.E.E.E.E.E.E.E.E.E.E.E.E.E.E.E.E.  - * * - : > = E.E.E.E.E.E.E.E.E.E.E.E.E.E.E.E.E.E.E.E.E.",
"E.E.E.E.E.E.E.E.E.E.E.E.E.E.E.E.E.E.E.E.E.E.E.E.E.E.E.E.E.E.E.E.E.E.E.E.E.E.E.E.E.E.E.E.E.E.E.E.E.E.E.E.E.E.E.E.E.E.E.E.E.E.E.E.",
"E.E.E.E.E.E.E.E.E.E.E.E.E.E.E.E.E.E.E.E.E.E.E.E.E.E.E.E.E.E.E.E.E.E.E.E.E.E.E.E.E.E.E.E.E.E.E.E.E.E.E.E.E.E.E.E.E.E.E.E.E.E.E.E."
};
