/* XPM */
static char *result[] = {
/* columns rows colors chars-per-pixel */
"64 64 225 2 ",
"   c #030203",
".  c #0A0201",
"X  c #0B0C0C",
"o  c #070707",
"O  c #1A0F06",
"+  c #190F08",
"@  c #181006",
"#  c #1B1409",
"$  c #161109",
"%  c #0D0E10",
"&  c #0D1314",
"*  c #0F1619",
"=  c #121315",
"-  c #151719",
";  c #15191A",
":  c #1A1D1D",
">  c #181916",
",  c #110F10",
"<  c #29170C",
"1  c #1C1E21",
"2  c #171F22",
"3  c #172024",
"4  c #1B2426",
"5  c #1E2529",
"6  c #212224",
"7  c #26272B",
"8  c #252B2A",
"9  c #232D31",
"0  c #2C393D",
"q  c #2A3437",
"w  c #353738",
"e  c #3E3122",
"r  c #3F3114",
"t  c #593B1B",
"y  c #46301B",
"u  c #4A3723",
"i  c #513D28",
"p  c #59411D",
"a  c #775C1F",
"s  c #66471F",
"d  c #5B4C27",
"f  c #5C4C29",
"g  c #544935",
"h  c #524431",
"j  c #5E573C",
"k  c #6B4523",
"l  c #785D21",
"z  c #6B5530",
"x  c #7B6B3C",
"c  c #353741",
"v  c #333F43",
"b  c #3A3C40",
"n  c #3A3D51",
"m  c #334247",
"M  c #3D454A",
"N  c #39474A",
"B  c #3D4F51",
"V  c #3F5153",
"C  c #2F4043",
"Z  c #414046",
"A  c #45474C",
"S  c #434657",
"D  c #434F52",
"F  c #445256",
"G  c #41575C",
"H  c #45595E",
"J  c #49575A",
"K  c #535559",
"L  c #505044",
"P  c #475B60",
"I  c #555965",
"U  c #4D6467",
"Y  c #526568",
"T  c #55666C",
"R  c #556C72",
"E  c #557379",
"W  c #5B767B",
"Q  c #5A797E",
"!  c #4E6970",
"~  c #696B74",
"^  c #7C7B7D",
"/  c #73787C",
"(  c #636F74",
")  c #845C26",
"_  c #926321",
"`  c #987238",
"'  c #876C29",
"]  c #B96426",
"[  c #B77730",
"{  c #CD7A2D",
"}  c #CB7525",
"|  c #D37A28",
" . c #C97934",
".. c #C7702B",
"X. c #A97B44",
"o. c #B7842D",
"O. c #B78837",
"+. c #B08C3D",
"@. c #DD8C2B",
"#. c #D7892A",
"$. c #C88E34",
"%. c #D38631",
"&. c #CA9234",
"*. c #D99533",
"=. c #D69934",
"-. c #D99933",
";. c #D89A39",
":. c #CE8F2E",
">. c #E18D2A",
",. c #E08D27",
"<. c #EE9D27",
"1. c #E2922D",
"2. c #EE9D29",
"3. c #E6972B",
"4. c #F09C28",
"5. c #F09C27",
"6. c #E79933",
"7. c #DAA53A",
"8. c #DEB037",
"9. c #EDA82D",
"0. c #E4A430",
"q. c #EEA635",
"w. c #ECAA34",
"e. c #ECAC3A",
"r. c #EAA43B",
"t. c #F0A533",
"y. c #F0AB39",
"u. c #F0A933",
"i. c #E7B639",
"p. c #EBB737",
"a. c #F4BE3A",
"s. c #F6BD39",
"d. c #F4C13B",
"f. c #F3C136",
"g. c #BD9D46",
"h. c #AD8A44",
"j. c #BDA04B",
"k. c #BFA457",
"l. c #C79945",
"z. c #C7A348",
"x. c #D9A943",
"c. c #C1A55A",
"v. c #DDBD55",
"b. c #DEBD59",
"n. c #D8B258",
"m. c #DEB34C",
"M. c #EBAA47",
"N. c #EBB44D",
"B. c #F2B343",
"V. c #F2BC4C",
"C. c #F9BC42",
"Z. c #E0BC55",
"A. c #E9B751",
"S. c #F5BD56",
"D. c #E9AB49",
"F. c #F4C344",
"G. c #F3C34A",
"H. c #F3C353",
"J. c #F3C259",
"K. c #F5CA59",
"L. c #ECC24B",
"P. c #FBD16D",
"I. c #F6D165",
"U. c #F5D373",
"Y. c #FBD371",
"T. c #FBCC62",
"R. c #5E7C82",
"E. c #647E84",
"W. c #657E88",
"Q. c #747683",
"!. c #5F8085",
"~. c #648187",
"^. c #64828B",
"/. c #6E848A",
"(. c #6E878B",
"). c #708487",
"_. c #708389",
"`. c #7E838B",
"'. c #6D8B92",
"]. c #758E95",
"[. c #759399",
"{. c #7B969C",
"}. c #7C999E",
"|. c #719096",
" X c #7981A5",
".X c #7E9BA0",
"XX c #808289",
"oX c #87969C",
"OX c #8C8E97",
"+X c #839EA3",
"@X c #8B93B5",
"#X c #8CA7AC",
"$X c #8DA8AC",
"%X c #85A1A7",
"&X c #91A8AD",
"*X c #92AAB0",
"=X c #9EB3B9",
"-X c #A1B7BC",
";X c #A6BABF",
":X c #A9B6B7",
">X c #ADB3BC",
",X c #A8AEC8",
"<X c #A6BAC0",
"1X c #A9BAC0",
"2X c #ACB4CA",
"3X c #B4B9CF",
"4X c #B1B7CF",
"5X c #B4BBD1",
"6X c #B2C4C7",
"7X c #B7C9CC",
"8X c #B6C8CB",
"9X c #BCC2D3",
"0X c #BDCDD1",
"qX c #C2D0CF",
"wX c #C3CDD2",
"eX c #C7CBDB",
"rX c #C1D1D2",
"tX c #CDD4DE",
"yX c #D0D7DF",
"uX c #D0D8DD",
"iX c #D4D9E2",
"pX c #CED5E0",
"aX c #E7E8ED",
"sX c #E5E6EC",
"dX c None",
/* pixels */
"dXdXdXdXdXdXdXdXdXdXdXdXdXdXdXdXdXdXdXdXdXdXdXdXdXdXdXdXdXdXdXdXdXdXdXdXdXdXdXdXdXdXdXdXdXdXdXdXdXdXdXdXdXdXdXdXdXdXdXdXdXdXdXdX",
"dXdXdXdXdXdXdXdXdXdXdXdXdXdXdXdXdXdXdXdXdXdXdXdXdXdXdXdXdXdXdXdXdXdXdXdXdXdXdXdXdXdXdXdXdXdXdXdXdXdXdXdXdXdXdXdXdXdXdXdXdXdXdXdX",
"dX  : : : : : : : : : : : : : : > - - - - > - ; ; ; ; > - - - ; ; ; > ; ; : ; ; : - ; ; ; & dXdXdXdXdXdXdX  ; -   dXdXdXdXdXdXdX",
"dXX rXqXqXqXqXqXrXqXqXqXqX0XqXqXrXwXrXrXwXrXwXwXwXrXrXwXrXrXrXrXrXrXwXrXwXrXrXwXrXrXrXrXrX/ dXdXdXdXdXdXdX  $X7X  dXdXdXdXdXdXdX",
"dXX $X&X&X{.[.{.[.}.[.}.}.[.}.}.$X$X$X&X$X*X*X#X*X1X;X<X<X1X;X;X1X<X<X<X<X<X<X1X;X;X1X1X;XT dXdXdXdXdXdXdX  $X8X  dXdXdXdXdXdXdX",
"dXX $X#X&X[.[.[.[.[.[.[.[.[.[.}.$X$X$X$X$X#X#X#X*X<X;X;X<X<X;X;X<X<X<X<X<X<X<X<X;X;X<X<X>XT dXdXdXdXdXdXdX  ;X0X  dXdXdXdXdXdXdX",
"dXX $X$X#X[.[.[.[.[.|.|.|.|.[.}.$X$X#X#X#X#X#X#X*X<X;X;X;X;X;X;X<X;X;X-X;X;X<X<X;X;X;X;X1XT dXdXdXdXdXdXdX  ;X0X  dXdXdXdXdXdXdX",
"dXX $X#XP = & & & & & & & & & & & * * & * * * * * - * * - * * - * - - & - * - - - - 6 ;X;XT dXdXdXdXw w q   ;XqXo dXdXdXdXdXdXdX",
"dXX $X$XG N V D B B B B D V V B V V V V V V V V V V V V V V V V V V V V B B V B V V % <X;XT dXdXdX; +X+XoX= ;X0X  dXdXdXdXdXdXdX",
"dXX $X$XG V G G G G G G G G H G P V G G G G P V G G G G G G G G F G G G P G G P G G % <X;XT dXdXdXI [.}.[.X ;X0X  dXdXdXo dXdXdX",
"dXX $X$XJ B B 4 4 4 4 4 4 4 4 4 4 4 4 4 4 4 4 4 4 4 4 4 4 4 4 3 4 4 4 4 4 4 4 4 9 G % <X1XY dXdX  |.^.^.^.% <X0Xo dXdX/ / dXdXdX",
"dXX $X$XG B m v F F F F F F F F F F F F V P V G F F F F F F F F F F F F F F F F & G % <X<XY dXdX  ^.[.[.|.X <X0X  dXdXQ.sX  dXdX",
"dXX $X$XG V C Y !.~.~.~.!.~.!.~.~.~.!.~.^.!.~.~.^.~.!.~.~.~.~.~.~.~.!.~.~.!.^.R.& G % <X2XY dXdX  '.[.{.}.X <X0X  dXdX^ sX  dXdX",
"dXX $X$XG V m Y ~.~.~.~.~.~.~.~.~.~.~.~.~.~.~.~.~.~.~.~.~.~.~.~.~.~.~.~.~.^.~.W.= G % <X<XY dXdXo {.[.}.}.X <X0X  dXdX^ aX  dXdX",
"dXX $X$XG V m ! ~.~.~.~.~.~.~.~.~.~.~.~.~.~.~.~.~.~.~.~.~.~.~.~.~.~.~.~.~.~.~.^.= G & <X<XY 7 8 % [.+X{.}.X <X0X  dXdX^ aX  dXdX",
"dXX $X$XG V m Y ~.~.~.~.~.~.~.~.~.~.~.~.~.~.~.~.~.~.~.~.~.^.~.~.~.~.~.~.~.~.~.W.= V % <X1XY R ~.5 oX{.{.}.X <X0Xo dXdX^ aX  dXdX",
"dXX $X$XG B m Y ~.~.~.~.~.~.~.~.~.~.~.~.~.~.~.~.~.~.~.~.~.~.~.~.~.~.~.~.~.^.~.W.= G % ;X;XY R ~.5 {.{.}.}.X ;X0X  dXdXQ.aX  dXdX",
"dXX $X$XG V m Y ~.~.~.~.~.~.~.~.W W W W Q ~.~.~.~.~.~.~.~.~.~.~.^.~.~.~.~.~.~.~.= G % ;X;XY R ~.5 }.oX{.}.% ;X0Xo dXdX~ eX. dXdX",
"dXX $X$XG B m Y ~.~.~.~.~.~.~.U X X X X v ~.~.~.~.~.~.~.^.~.^.~.E.~.~.~.~.~.~.W.= G , ;X>XT E ~.5 {.[.oX{.X ;X0X  dXdX~ wX  dXdX",
"dXX $X$XH V m Y ~.~.~.~.^.~.- e F.L.V.V.' . ).~.~.~.~.~.^.E.E.~.~.~.~.~.~.^.~.~.= G , ;X;XT H ! 2 {.v o }.% ;XwX  dXdXT 2X  dXdX",
"dXX $X$XG B m Y ~.~.~.~.~.& +.8.d.s.s.d.i.7.& T ~.~.~.~.~.~.~.~.~.~.~.~.~.~.^.W.= G % ;X1XY H ! 2 ^.Q.1XF , ;X0X      , :   dXdX",
"dXX $X$XH V m Y ~.~.~.~.8 +.i.F.I.I.I.I.K.f.O.w ~.~.~.~.~.~.~.~.~.~.~.~.~.~.~.^.= G % ;X1XY I R 1 W.XXpXM X ;X0X    Q.c OX  dXdX",
"dXX $X$XH B m Y ~.~.~.C L.d.P.T.0.0.0.0.G.I.f.H.- ~.~.~.~.~.~.~.~.~.~.~.~.~.~.~.* P % ;X1XY       {.v & ].% ;X0X    4XI iXQ.dXdX",
"dXX $X$XH V m Y ~.~.~.j a.F.G.y.5.4.5.5.e.C.K.f.' T ~.~.~.~.~.~.~.~.E.^.~.~.~.~.= V % ;X<XY dXdX  [.T V [., <X0X    3XI yX>X1 dX",
"dXX $X$XP B m Y !.!.F h.F.H.t.<.5.>.u.4.<.5.H.C.8.L ~.~.~.).~.~.~.~.~.~.~.~.~.W.= V & <X1XT dXdX. {.].|.}.% <X0X% 1 3XI yXiX6 dX",
"dXX $X#XG B m Y ~.N X.e.K.M.<.<.>.| d.4.5.<.9.K.s.l.9 ^.~.~.~.~.~.~.~.~.~.~.~.^.* P % <X<XY dXdX  {.}.[.{.X ;X0X7 Z 3XI yXiX6 dX",
"dXX $X#XP B m Y E.9 9.B.S.>.<.5.>.6.d.u.4.4.2.V.H.d.o ^.~.~.~.~.~.~.~.~.~.~.~.W.= V % <X1XY dXdX  {.oX{.{.X <X0X7 Z 3XI uXiX6 dX",
"dXX $X#XP B m Y ~.w w.S.>.>.3.3.e.d.d.d.p.9.5.5.T.d.< Q ~.~.~.~.~.~.~.^.~.~.~.W.- V % <X1XY dXdX  {.{.].{.& <X0X7 n 3XI uXiX6 dX",
"dXX $X#XH B m Y E ` y.N.>.>.| 3.d.e.e.e.d.9.5.5.u.K.i.m ~.~.~.~.~.~.~.~.^.~.~.^.= V & <X<XY dXdX  ].D A (.% =X0X7 Z 3XI uXeX6 dX",
"dXX #X#XH B m Y R ` y.D.>.>.] s.f.} } | d.d.2.<.u.G.i.M ~.~.~.~.^.~.~.~.~.~.~.E.- G % <X;XY dXdX  E.XXyXN % $X7X7 Z 3XI iXeX6 dX",
"dXX $X#XH B m Y # e.P.@.@.>.] f.9.3.3.3.3.C.<.2.9.J.a.l / ~.~.E.E.E.E.E.E.E.^.W.= F & <X1XT dXdX  E XXyXv % #X8X6 c @XS wXwX: dX",
"dXX $X#XH V m Y # u.U.>.>.>...p.0.2.0.6.@.{ 2.2.5.J.d.a @ $ @ @ O O O O O O Q ~.= G X 1X>XY dXdX  W.q = R.X $X9X6 c @XS 5X5X1 dX",
"dXX $X$XG B m Y @ e.U.>.>.>.>.{ p.s.s.s.u.3.2.<.<.J.d.a ] [ $.$.z.z.z.z.&.$.q !.= G % <X1XT dXdX  ^.E ! ^.% #X7X5 c @XS eX,X3 dX",
"dXX $X$XH V m Y # q.U.@.>.>.>.#.0.f.s.s.d.9.5.2.5.J.d.a ..%.*.7.Z.Z.Z.Z.x.;.9 ~.* G % <X<XY dXdX  ^.^.^.^.X #X7X2 c  Xn ,X4X5 dX",
"dXX $X$XH V m Y # q.U.>.>.>.,.1.] ] ] ] f.d.2.<.9.J.d.l [ %.*.;.Z.Z.v.v.x.=.9 W.- V % <X<XY dXdXo ^.'.^.^.& #X7X1 c Q.S ,X5X5 dX",
"dXX $X$XG V m U @ q.U.>.>.>.} w.#.} } } r.d.2.<.<.S.d.l y u i i g g g g h i U W.- V % <X<XY dXdX  ^.^.^.^.& #X7X& 2 W.S ,X9X5 dX",
"dXX $X$XH B m Y # q.U.>.>.>.] f.d.#.#.#.%.d.5.2.<.J.s.l [ O.h.c.c.k.c.k.h.+ E.^.- V & <X;XY o o o !.m & ^.X #X7Xo   @XS 9XQ.dXdX",
"dXX $X#XH B m Y J o.V.M.>.>.| @.f.p.p.y.e.1.9.4.t.H.a.k { -.*.Z.v.v.v.v.-.# ~.W.; V % <X;XY B J 2 R.~ OXG X #X7X    @XB eXc dXdX",
"dXX $X#XH B m T E ` t.D.>.>.>.} B.d.a.d.a.#.4.4.u.K.i.k { *.*.v.v.Z.Z.v.-.@ ^.E.= F , <X;XT R ~.4 E `.yXv % #X7X    ~ c OXo dXdX",
"dXX $X#XJ B m T Q g e.N.>.>.>.@.%.*.d.#.#.2.2.5.V.F.s < t p t d d d d d p o D W.= G % ;X:XT R ~.4 R.I ( Y X #X7X  dXdXc Q.o dXdX",
"dXX $X#XH B m Y ~.9 w.N.D.>.>.>.| ] s.} | 3.4.B.K.d.o p   t t p d f f f f d h W = G % <X1XT R ~.4 ^.B 9 !.% $X7X  dXdX~ 4X  dXdX",
"dXX $X#XH B m Y ~.q D.q.P.@.>.>.,...s.#.>.>.t.J.d.L.# -.  { *.-.m.v.b.L.Z.;._ T = V & <X1XY R ~.4 ^.R.R.^.% $X7X  dXdX~ eX  dXdX",
"dXX $X$XP B m Y ~.~.7 ;.y.N.>.>.,.,...>.>.,.M.V.d.z A.*..  .=.-.m.v.b.v.b.;._ T - G % <X1XY P T 3 ^.^.'.^.% %X7Xo dXdX/ tX  dXdX",
"dXX $X$XH B m Y ~.~.R.z w.C.M.1.>.@.@.,.>.6.S.s.+.' +.o.. ] o.o.g.j.j.j.j.o.) R & V % <X<XT P R 3 ^.^.^.!.& [.6X  dXdXQ.sX  dXdX",
"dXX #X#XP B v Y ~.~.~.0 D.t.T.J.@.>.@.@.M.Y.y.e.  . .   . . .     .     . . 8 ^.= G % <X1XT P T 3 R.!.^.^.% [.6X  dXdX^ aX  dXdX",
"dXX #X#XH B m Y ~.~.~.~.% ;.q.B.Y.Y.Y.P.J.t.-.y v.x.$.k  .*.*.v.v.v.v.v.-.+ ~.~.- V % <X<XY o o o E E R.E X [.6X  dXdX^ aX  dXdX",
"dXX #X#XP B m Y ~.~.~.~.Q , :.u.y.y.y.y.e.y., h.b.x.%.k { ;.=.v.Z.v.b.v.=.+ ~.~.= G & <X<XY dXdX  E E E E X [.6X  dXdX^ aX  dXdX",
"dXX #X#XP B m Y ~.~.~.~.~.E.> y e.q.e.r._ . l.n.b.x.&.k  .-.=.b.b.b.b.v.=.O ~.~.* V % <X1XY dXdX  E E E E X [.6X  dXdX^ aX  dXdX",
"dXX $X#XH B m                                                                 o = G & <X1XY dXdX  ^.E E R.o |.6X  dXdX^ sX  dXdX",
"dXX #X#XH B V 0 c v v v v c 0 c v c v 0 0 0 c c c 0 0 v 0 c v 0 c v c v c c v v m G X <X1XY dXdX  ~.W.R.R.X [.6Xo dXdXZ K dXdXdX",
"dXX $X#XH B G F V G G G G G V G G G G G G V P G V P V G P G G G V G G G V P F V F G % ;X>XT dXdXdX9 ^.^.^.& [.6X  dXdXdXdXdXdXdX",
"dXX $X$XH * * * * * * * * * * * * * = = * * * * * * * * * * - * * * * * * * * - * * , 1X1XY dXdXdXdX3 4 4   [.6X  dXdXdXdXdXdXdX",
"dXX $X#XW 0 w 0 0 0 0 0 0 0 0 0 v v v v v v v v m N M M M M M M N N N M M M M M M M F <X1XY dXdXdXdXo o     .X6X  dXdXdXdXdXdXdX",
"dXX $X#X#X[.[.[.[.[.[.[.[.[.[.}.$X$X#X$X$X$X$X$X*X<X<X<X<X<X;X;X<X<X<X<X<X<X;X;X<X<X<X1X1XY dXdXdXdXdXdXdX  $X7X  dXdXdXdXdXdXdX",
"dXX $X#X&X[.[.[.[.[.[.[.[.[.[.}.#X#X#X#X$X#X#X#X*X<X<X<X<X<X<X<X<X<X<X<X;X<X<X<X<X;X<X<X<XY dXdXdXdXdXdXdX  #X7X  dXdXdXdXdXdXdX",
"dXX #X#X#X[.[.[.[.[.[.[.[.[.[.[.%X#X#X#X#X#X#X#X*X-X-X-X-X-X-X-X-X-X-X<X-X-X-X-X-X-X-X;X;XY dXdXdXdXdXdXdX  $X7X  dXdXdXdXdXdXdX",
"dXX _.).).).).).(.(.(.).).).)._.)././.)./.).)./.).)._._._._._.)./._._._._._.).)._._._._._.D dXdXdXdXdXdXdX  oX:X  dXdXdXdXdXdXdX",
"dX      X : : : : 6 4 $                                                 : : : : 1 6 :       dXdXdXdXdXdXdX    o   dXdXdXdXdXdXdX",
"dXdXdXdX0 ~.Q R.|.+X%Xm dXdXdXdXdXdXdXdXdXdXdXdXdXdXdXdXdXdXdXdXdXdXdX  ^.R.R.'.[.#X/.dXdXdXdXdXdXdXdXdXdXdXdXdXdXdXdXdXdXdXdXdX",
"dXdXdXdXb ~.~.E.[.%X$XN dXdXdXdXdXdXdXdXdXdXdXdXdXdXdXdXdXdXdXdXdXdXdX  '.!.~.|.}.#X(.dXdXdXdXdXdXdXdXdXdXdXdXdXdXdXdXdXdXdXdXdX",
"dXdXdXdX0 ~.~.~.[.+X$XN dXdXdXdXdXdXdXdXdXdXdXdXdXdXdXdXdXdXdXdXdXdXdX  '.~.~.|.[.$X(.dXdXdXdXdXdXdXdXdXdXdXdXdXdXdXdXdXdXdXdXdX",
"dXdXdXdXo * = = - ; ; X dXdXdXdXdXdXdXdXdXdXdXdXdXdXdXdXdXdXdXdXdXdXdX  = & & = - ; - dXdXdXdXdXdXdXdXdXdXdXdXdXdXdXdXdXdXdXdXdX",
"dXdXdXdXdXdXdXdXdXdXdXdXdXdXdXdXdXdXdXdXdXdXdXdXdXdXdXdXdXdXdXdXdXdXdXdXdXdXdXdXdXdXdXdXdXdXdXdXdXdXdXdXdXdXdXdXdXdXdXdXdXdXdXdX",
"dXdXdXdXdXdXdXdXdXdXdXdXdXdXdXdXdXdXdXdXdXdXdXdXdXdXdXdXdXdXdXdXdXdXdXdXdXdXdXdXdXdXdXdXdXdXdXdXdXdXdXdXdXdXdXdXdXdXdXdXdXdXdXdX"
};
