/* XPM */
static char *xpm_[] = {
/* columns rows colors chars-per-pixel */
"64 64 145 2 ",
"   c #050403",
".  c #080606",
"X  c #050805",
"o  c #090807",
"O  c #050408",
"+  c #090609",
"@  c #0D0B0C",
"#  c #100F0E",
"$  c #0A0510",
"%  c #0E0C12",
"&  c #120F12",
"*  c #141314",
"=  c #171318",
"-  c #191719",
";  c #1D1B1D",
":  c #201E1F",
">  c #1F1E20",
",  c #211E23",
"<  c #251C2A",
"1  c #242224",
"2  c #292727",
"3  c #27252B",
"4  c #29262B",
"5  c #2D2B2D",
"6  c #302F2F",
"7  c #3C332D",
"8  c #2D2533",
"9  c #2F2D31",
"0  c #302436",
"q  c #312E34",
"w  c #342E3B",
"e  c #392D3E",
"r  c #323135",
"t  c #35323A",
"y  c #3A353D",
"u  c #3C393E",
"i  c #403A2A",
"p  c #51473E",
"a  c #554F3B",
"s  c #362843",
"d  c #3B2F42",
"f  c #3E2F49",
"g  c #3C3344",
"h  c #3E3B42",
"j  c #3D3149",
"k  c #422E4F",
"l  c #413D44",
"z  c #44324C",
"x  c #453E48",
"c  c #432F52",
"v  c #443252",
"b  c #434046",
"n  c #464349",
"m  c #4A454D",
"M  c #4C484F",
"N  c #514A49",
"B  c #4D4751",
"V  c #4E4A52",
"C  c #4F4B58",
"Z  c #534D56",
"A  c #564E5B",
"S  c #584E5C",
"D  c #545056",
"F  c #56505A",
"G  c #59525D",
"H  c #635746",
"J  c #665853",
"K  c #62565F",
"L  c #6B625C",
"P  c #716556",
"I  c #575060",
"U  c #5C5462",
"Y  c #5F5966",
"T  c #5F5969",
"R  c #615763",
"E  c #615A67",
"W  c #6A5E62",
"Q  c #605768",
"!  c #645D6B",
"~  c #695F6D",
"^  c #665E72",
"/  c #685E72",
"(  c #776F63",
")  c #676070",
"_  c #6C6374",
"`  c #6E657B",
"'  c #736775",
"]  c #73667E",
"[  c #73697F",
"{  c #71697C",
"}  c #75687F",
"|  c #71687E",
" . c #8D7365",
".. c #9D7D6F",
"X. c #8D7871",
"o. c #847879",
"O. c #947F72",
"+. c #9D836F",
"@. c #9B8177",
"#. c #AD9475",
"$. c #B39170",
"%. c #726780",
"&. c #736780",
"*. c #716780",
"=. c #756780",
"-. c #746780",
";. c #756780",
":. c #726880",
">. c #736980",
",. c #716980",
"<. c #756880",
"1. c #756A82",
"2. c #736880",
"3. c #7D7188",
"4. c #86798D",
"5. c #877A92",
"6. c #887C90",
"7. c #91829B",
"8. c #92839C",
"9. c #9C8DA6",
"0. c #9E8DA8",
"q. c #A396AB",
"w. c #A394AE",
"e. c #A993B0",
"r. c #AC95B1",
"t. c #A998B3",
"y. c #AA9BB3",
"u. c #AB99B5",
"i. c #AF99B5",
"p. c #AEA3BB",
"a. c #B0A1B9",
"s. c #B3A2BE",
"d. c #B9A3BC",
"f. c #B8A0BF",
"g. c #DCCB99",
"h. c #E7D18E",
"j. c #EDD58D",
"k. c #E5D09A",
"l. c #B4A3C0",
"z. c #B7A4C1",
"x. c #BCABC6",
"c. c #BFA6C9",
"v. c #BDA9C9",
"b. c None",
"n. c black",
/* pixels */
"b.b.b.b.b.b.b.b.b.b.b.b.b.b.b.b.b.b.b.b.b.b.b.b.b.b.b.b.b.b.b.b.b.b.b.b.b.b.b.b.b.b.b.b.b.b.b.b.b.b.b.b.b.b.b.b.b.b.b.b.b.b.b.b.",
"b.b.b.b.b.b.b.b.b.b.b.b.b.b.b.b.b.b.b.b.b.b.b.b.b.b.b.X . .       . X b.b.b.b.b.b.b.b.b.b.b.b.b.b.b.b.b.b.b.b.b.b.b.b.b.b.b.b.b.",
"b.b.b.b.b.b.b.b.b.b.b.b.b.b.b.b.b.b.b.b.b.b.b.b.b.. 5 u M B B Z M i g X b.b.b.b.b.b.b.b.b.b.b.b.b.b.b.b.b.b.b.b.b.b.b.b.b.b.b.b.",
"b.b.b.b.b.b.b.b.b.b.b.b.b.b.b.b.b.b.b.b.b.b.b.X 4 h A ^ { ,.;.,.1.4.5.Q t   b.b.b.b.b.b.b.b.b.b.b.b.b.b.b.b.b.b.b.b.b.b.b.b.b.b.",
"b.b.b.b.b.b.b.b.b.b.b.b.b.b.b.b.b.b.b.b.b.b.b.@ t ] ,.<.<.<.;.<.3.q.t.p.z $ b.b.b.b.b.b.b.b.b.b.b.b.b.b.b.b.b.b.b.b.b.b.b.b.b.b.",
"b.b.b.b.b.b.b.b.b.b.b.b.b.b.b.b.b.b.b.b.b.3 w ] ;.<.;.;.;.<.,.y.r.1 . ; t j < ; b.b.b.b.b.b.b.b.b.b.b.b.b.b.b.b.b.b.b.b.b.b.b.b.",
"b.b.b.b.b.b.b.b.b.b.b.b.b.b.b.b.b.b.b.b.O h | *.*.| *.;.;.;.] t.e.3 X . 2 9 v s + b.b.b.b.b.b.b.b.b.b.b.b.b.b.b.b.b.b.b.b.b.b.b.",
"b.b.b.b.b.b.b.b.b.b.b.b.b.b.b.b.b.b.; l { ` _ S Q | ] ;.] <.v.0         1 r z s = @ b.b.b.b.b.b.b.b.b.b.b.b.b.b.b.b.b.b.b.b.b.b.",
"b.b.b.b.b.b.b.b.b.b.b.b.b.b.b.b.  o _ | { ! F F E ` ] ;.;.;.x.8 X       1 6 t r z <   n.b.b.b.b.b.b.b.b.b.b.b.b.b.b.b.b.b.b.b.b.",
"b.b.b.b.b.b.b.b.b.b.b.b.b.b.b.b.X @ ' ! S F D F E ] ] 1.s.f.+       . . 1 6 r t v < . n.b.b.b.b.b.b.b.b.b.b.b.b.b.b.b.b.b.b.b.b.",
"b.b.b.b.b.b.b.b.b.b.b.b.b.b.b.  9 g R F Z m h ) ` ,.;.*.l.z.        X   # * 5 t t ,   b.b.b.b.b.b.b.b.b.b.b.b.b.b.b.b.b.b.b.b.b.",
"b.b.b.b.b.b.b.b.b.b.b.b.b.b.b.  u A F n t t r | ,.,.9.p.< %         .     . 2 r t g z O . b.b.b.b.b.b.b.b.b.b.b.b.b.b.b.b.b.b.b.",
"b.b.b.b.b.b.b.b.b.b.b.b.b.b.- 5 m Z x h t h Z | ,.] 0.f.=       .       X   - : 9 j v + O b.b.b.b.b.b.b.b.b.b.b.b.b.b.b.b.b.b.b.",
"b.b.b.b.b.b.b.b.b.b.b.b.b.  - u C F m g q C ] *.5.w.~ g +           .   .     # 9 j v .   b.b.b.b.b.b.b.b.b.b.b.b.b.b.b.b.b.b.b.",
"b.b.b.b.b.b.b.b.b.b.b.b.b.  * r h m B h r Z ] ] 8.c.N .                     . # 9 j v O X b.b.b.b.b.b.b.b.b.b.b.b.b.b.b.b.b.b.b.",
"b.b.b.b.b.b.b.b.b.b.b.b.b.  * r q 9 3 9 9 B _ ` 8.c.m             . .   .     # 6 j v +   b.b.b.b.b.b.b.b.b.b.b.b.b.b.b.b.b.b.b.",
"b.b.b.b.b.b.b.b.b.b.b.b.b.  * 2 3 2 @ ; r l B _ 6.i.V @ .               . . @ * 6 j c .   b.b.b.b.b.b.b.b.b.b.b.b.b.b.b.b.b.b.b.",
"b.b.b.b.b.b.b.b.b.b.b.b.b.b.b.X . X 6 q q r r F T ' M 5 o           .       5 r q j v +   b.b.b.b.b.b.b.b.b.b.b.b.b.b.b.b.b.b.b.",
"b.b.b.b.b.b.b.b.b.b.b.b.b.b.b.b.      = 5 q 9 r b Z ~ _ u t         .   o o 5 t z <   + O b.b.b.b.b.b.b.b.b.b.b.b.b.b.b.b.b.b.b.",
"b.b.b.b.b.b.b.b.b.b.b.b.b.b.b.b.b.b.  X @ @ @ r t r M G ! Q         X   : 5 n h & @   g 0 O   n.b.b.b.b.b.b.b.b.b.b.b.b.b.b.b.b.",
"b.b.b.b.b.b.b.b.b.b.b.b.b.b.b.b.  . 5 6 6 q q . . X r A G F _ ; .   o r n V * X O = r r d j 8 O b.b.b.b.b.b.b.b.b.b.b.b.b.b.b.b.",
"b.b.b.b.b.b.b.b.b.b.b.b.b.b.b.  ; 1 n h q r r , 1 1 , , Z F Y Z M 5 1 n 5 > 1 1 1 5 q t t d w 0 $ . b.b.b.b.b.b.b.b.b.b.b.b.b.b.",
"b.b.b.b.b.b.b.b.b.b.b.b.b.X * 2 b Z D Z V Z V V w @ , 5 * * D F U ! G * 1 5 m n r r r r q r t d d e X b.b.b.b.b.b.b.b.b.b.b.b.b.",
"b.b.b.b.b.b.b.b.b.b.b.b.b.* , u M Z A A F G G B h 3 g x , ; u u i V M * 9 h F Z h y q r r q q q v z   b.b.b.b.b.b.b.b.b.b.b.b.b.",
"b.b.b.b.b.b.b.b.b.b.  > 3 b V D A A Z G ! ! ! I ! { ] { ^ ! l y t 3 > - h F { ) F b r r r q t 9 z e 8 ;   b.b.b.b.b.b.b.b.b.b.b.",
"b.b.b.b.b.b.b.b.b.b.  5 t F A A A S U Q _ ! U ;.;.;.] ] ;.<.<.U F g r X t Z ' _ F b t r r q q 9 q w c <   b.b.b.b.b.b.b.b.b.b.b.",
"b.b.b.b.b.b.b.b.b.b.X q t Z A A S S _ ! U ^ ` ] <.;.] ;.;.;.,._ ' L J i a H O.X.G F Z q t r q w r t c <   n.b.b.b.b.b.b.b.b.b.b.",
"b.b.b.b.b.b.b.b.b.b.  5 y Z A F F A S Q ` *.] -.;.;.;.;.;.;.*.W L +.$.j.j.h.o.) F F D r r r r r r w c < . n.b.b.b.b.b.b.b.b.b.b.",
"b.b.b.b.b.b.b.b.b.b.  5 t Z A S D F t C ,.*.;.;.;.;.;.;.<.;.] | _ G Z r - + N K ` Q F w t r q w t t z ,   b.b.b.b.b.b.b.b.b.b.b.",
"b.b.b.b.b.b.b.b.b.b.  5 r t l D h t _ ` ;.*.] ;.;.;.;.;.=.;.] ] ` U F D : o  ...*.! F A m r q q r r @ . X b.b.b.b.b.b.b.b.b.b.b.",
"b.b.b.b.b.b.b.b.b.b.b.X X . * r q t { | ;.;.;.*.;.;.;.;.=.=.] W L @.$.k.k.g.P K ' ! D F M r q q @ O .   b.b.b.b.b.b.b.b.b.b.b.b.",
"b.b.b.b.b.b.b.b.b.b.b.  X   . # % % G ! ,.;.*.*.<.;.;.;.=.=.] { _ W K P N i N G ' ! F y 5 * @ # X .   b.b.b.b.b.b.b.b.b.b.b.b.b.",
"b.b.b.b.b.b.b.b.b.b.b.          # : q r g Z ^ ] ;.*.;.;.] *.,.^ ! G S F , o u x C b 9 ; > ; * X , > O b.b.b.b.b.b.b.b.b.b.b.b.b.",
"b.b.b.b.b.b.b.b.b.b.b.      @ 1 6 q , 1 , , > m m m B m 0 8 4 1 , 1 , , # . * * * %   > 3 9 ,   v z X b.b.b.b.b.b.b.b.b.b.b.b.b.",
"b.b.b.b.b.b.b.b.b.b.b.  . . = r t t t r r 1 @ t t w t r * % % @ @ @ X   @ . . . X X X r r r 1 X z z . b.b.b.b.b.b.b.b.b.b.b.b.b.",
"b.b.b.b.b.b.b.b.b.b.b.  @ 6 y l V Z F U Q ! ! ! ! Q ! E E E ! E Y M u   1 r l l b 9 ; b h r 3 ; v k   b.b.b.b.b.b.b.b.b.b.b.b.b.",
"b.b.b.b.b.b.b.b.b.b.b.  @ q l A A A A U | ;.;.*.<.<.<.,.;.*.*.` { I m   2 q Z F F b r F M r r r v z   b.b.b.b.b.b.b.b.b.b.b.b.b.",
"b.b.b.b.b.b.b.b.b.b.b.  @ 5 u S A S ' ] ;.;.] ;.<.<.<.<.;.;.] ] | | ! . u F D F F n g F M r q r v z   b.b.b.b.b.b.b.b.b.b.b.b.b.",
"b.b.b.b.b.b.b.b.b.b.b.  @ q h S F F ] ] ;.;.;.;.;.;.<.;.;.;.*.` | | ! X h F A S I F C F M r q r v z   b.b.b.b.b.b.b.b.b.b.b.b.b.",
"b.b.b.b.b.b.b.b.b.b.b.  @ 9 h I F S ] ] ;.;.] ;.;.;.<.;.;.;.*.` | | ! . u F Z S I F F F V r q q v z   b.b.b.b.b.b.b.b.b.b.b.b.b.",
"b.b.b.b.b.b.b.b.b.b.b.  @ 5 i I S S ] ] -.-.] ] =.=.} ] } ] ] *.,.| ! X u F A S A A A A M r q q v z   n.b.b.b.b.b.b.b.b.b.b.b.b.",
"b.b.b.b.b.b.b.b.b.b.b.  @ 5 l Z A S ] *.] ] ] -.=.] } } ] ;.*.] ` ` !   3 w Z A A A A A M r r q v z   n.b.b.b.b.b.b.b.b.b.b.b.b.",
"b.b.b.b.b.b.b.b.b.b.b.  @ 5 u D A S *.] ] ] ] ] =.} ] ] ;.;.] *.` ` ! X r n Z A A A A F M q r q v z   n.b.b.b.b.b.b.b.b.b.b.b.b.",
"b.b.b.b.b.b.b.b.b.b.b.  @ 5 l F F I ] ] ;.;.-.;.=.] =.=.;.;.-.-.,.] ! . h A A S S S A F M r q r v z . b.b.b.b.b.b.b.b.b.b.b.b.b.",
"b.b.b.b.b.b.b.b.b.b.b.  @ 6 i Z S S ] ] ;.;.] ;.;.;.;.=.;.;.*.,.| | !   u F A A A A S F m t q q v z . n.b.b.b.b.b.b.b.b.b.b.b.b.",
"b.b.b.b.b.b.b.b.b.b.b.  @ q z A S S ] ] ;.;.;.;.;.;.;.=.;.;.] ] | | ! . u F Z S A S F F m t q q z z . n.b.b.b.b.b.b.b.b.b.b.b.b.",
"b.b.b.b.b.b.b.b.b.b.b.  @ 6 u Z S S ] ] ;.;.;.;.;.;.;.;.<.;.] *.,.| !   u G A S S S S S Z F m q v z . n.b.b.b.b.b.b.b.b.b.b.b.b.",
"b.b.b.b.b.b.b.b.b.b.b.  @ 9 z S A S ] ;.;.;.] ;.;.;.;.;.;.;.*.,.| | ! X u F A S F S F S F F m q v z   n.b.b.b.b.b.b.b.b.b.b.b.b.",
"b.b.b.b.b.b.b.b.b.b.b.  @ 9 h A S S ] ] ;.;.-.-.;.;.=.=.;.;.] ` | | !   y Z Z S F F F F F D m q z z . n.b.b.b.b.b.b.b.b.b.b.b.b.",
"b.b.b.b.b.b.b.b.b.b.b.  @ 5 h A S S ] *.;.;.] -.;.;.] =.;.;.*.] | ' !   1 t N Z S F I F C D m q v z   n.b.b.b.b.b.b.b.b.b.b.b.b.",
"b.b.b.b.b.b.b.b.b.b.b.  % 9 i I A S ] ] ;.;.;.] =.=.=.-.;.;.*.*.` G n . . o m D A S C I F F m q c z   n.b.b.b.b.b.b.b.b.b.b.b.b.",
"b.b.b.b.b.b.b.b.b.b.b.  @ 9 h S A S ] ;.;.;.] ;.=.=.=.=.;.;.*.*.) r 1 n.  o m F F F F I F F h = z z o n.b.b.b.b.b.b.b.b.b.b.b.b.",
"b.b.b.b.b.b.b.b.b.b.b.b.b.O * r m I ] ;.-.] ;.] =.=.] ;.] ;.*.` ) - X b.    n Z A A A S F F m 6 v z   b.b.b.b.b.b.b.b.b.b.b.b.b.",
"b.b.b.b.b.b.b.b.b.b.b.b.b.X * : x I { ] ;.;.;.;.=.=.;.] ;.;.] *.) -   b.  X n A Z A A S D D b > v z   b.b.b.b.b.b.b.b.b.b.b.b.b.",
"b.b.b.b.b.b.b.b.b.b.b.b.b.b.b.b., , G ^ *.] ] ] =.=.;.] Q U *.*.) - X b.  X n V h n A A D F t O k z . b.b.b.b.b.b.b.b.b.b.b.b.b.",
"b.b.b.b.b.b.b.b.b.b.b.b.b.b.b.b.n.+ i Z / ` *.*.=.=.;.] S A *.*.) -   b.  @ n m r h F m V D y X 8 0   b.b.b.b.b.b.b.b.b.b.b.b.b.",
"b.b.b.b.b.b.b.b.b.b.b.b.b.b.b.b.b.b.. 1 l M S _ ` ] ,.` S S ^ _ ^ -   b.  X l l q h D r t h 6 X     b.b.b.b.b.b.b.b.b.b.b.b.b.b.",
"b.b.b.b.b.b.b.b.b.b.b.b.b.b.b.b.b.b.b.b.  . X n Z T _ ` B B Z _ ^ - X b.  X 5 r r u m 3 , X   b.b.b.b.b.b.b.b.b.b.b.b.b.b.b.b.b.",
"b.b.b.b.b.b.b.b.b.b.b.b.b.b.b.b.b.b.b.b.b.b.b.      x _ % O D _ ^ - X b.    4 r r ;     X b.b.b.b.b.b.b.b.b.b.b.b.b.b.b.b.b.b.b.",
"b.b.b.b.b.b.b.b.b.b.b.b.b.b.b.b.b.b.b.b.b.b.b.b.b.b.O   . X Z _ / =   b.  . 3 2 O b.b.b.b.b.b.b.b.b.b.b.b.b.b.b.b.b.b.b.b.b.b.b.",
"b.b.b.b.b.b.b.b.b.b.b.b.b.b.b.b.b.b.b.b.b.b.b.b.b.b.b.b.b.b.@ F ! - X b.        b.b.b.b.b.b.b.b.b.b.b.b.b.b.b.b.b.b.b.b.b.b.b.b.",
"b.b.b.b.b.b.b.b.b.b.b.b.b.b.b.b.b.b.b.b.b.b.b.b.b.b.b.b.b.b.b.% % O X b.    b.b.b.b.b.b.b.b.b.b.b.b.b.b.b.b.b.b.b.b.b.b.b.b.b.b.",
"b.b.b.b.b.b.b.b.b.b.b.b.b.b.b.b.b.b.b.b.b.b.b.b.b.b.b.b.b.b.b.b.b.X   b.b.b.b.b.b.b.b.b.b.b.b.b.b.b.b.b.b.b.b.b.b.b.b.b.b.b.b.b.",
"b.b.b.b.b.b.b.b.b.b.b.b.b.b.b.b.b.b.b.b.b.b.b.b.b.b.b.b.b.b.b.b.b.b.b.b.b.b.b.b.b.b.b.b.b.b.b.b.b.b.b.b.b.b.b.b.b.b.b.b.b.b.b.b."
};
