/* XPM */
static char *ad018a00c6784dc2b50506f9cbaa5022f5PU6BF0iKPEkol2[] = {
/* columns rows colors chars-per-pixel */
"64 64 229 2 ",
"   c None",
".  c #1B0202",
"X  c #16040A",
"o  c #1C050B",
"O  c #16090B",
"+  c #1C090C",
"@  c #1B0A07",
"#  c #1B0912",
"$  c #180B14",
"%  c #1D131D",
"&  c #1F1016",
"*  c #210405",
"=  c #230A06",
"-  c #21060A",
";  c #230B0C",
":  c #2A0D0C",
">  c #26110A",
",  c #2B110A",
"<  c #2B1409",
"1  c #31120D",
"2  c #341E0F",
"3  c #38180F",
"4  c #220214",
"5  c #220E12",
"6  c #290B13",
"7  c #23011D",
"8  c #240D1B",
"9  c #280112",
"0  c #310F10",
"q  c #251215",
"w  c #2B1213",
"e  c #2F1A14",
"r  c #22141B",
"t  c #2B151B",
"y  c #2C1B1D",
"u  c #241B1F",
"i  c #311514",
"p  c #3A1611",
"a  c #331A13",
"s  c #3C1B14",
"d  c #331C1C",
"f  c #3C1D1D",
"g  c #311618",
"h  c #310F07",
"j  c #33241F",
"k  c #3B241D",
"l  c #3C2A1D",
"z  c #392717",
"x  c #1E1925",
"c  c #1E1728",
"v  c #240122",
"b  c #25022A",
"n  c #2B0926",
"m  c #231623",
"M  c #2B1622",
"N  c #231A23",
"B  c #2B1C23",
"V  c #221A29",
"C  c #2B182A",
"Z  c #341D24",
"A  c #3B1E23",
"S  c #331F28",
"D  c #270D35",
"F  c #381438",
"G  c #2B2124",
"H  c #2E2128",
"J  c #352324",
"K  c #3C2323",
"L  c #3D2B23",
"P  c #332429",
"I  c #3C2429",
"U  c #3E2C2C",
"Y  c #342927",
"T  c #401D18",
"R  c #442315",
"E  c #44241C",
"W  c #4B251E",
"Q  c #442B1E",
"!  c #4C2B1D",
"~  c #472617",
"^  c #512E1F",
"/  c #58251B",
"(  c #4E3B16",
")  c #45331C",
"_  c #4C341D",
"`  c #4E3B1C",
"'  c #4A3315",
"]  c #513B16",
"[  c #52351D",
"{  c #523A1D",
"}  c #5B3B1F",
"|  c #60361E",
" . c #521F22",
".. c #431B35",
"X. c #432424",
"o. c #4D2525",
"O. c #442C23",
"+. c #4C2B23",
"@. c #442529",
"#. c #4C2529",
"$. c #462D2B",
"%. c #4B2B2A",
"&. c #512424",
"*. c #522B23",
"=. c #592D25",
"-. c #512529",
";. c #542C2A",
":. c #5C2F2C",
">. c #4D3323",
",. c #4E3921",
"<. c #4C322B",
"1. c #45332B",
"2. c #523423",
"3. c #5B3225",
"4. c #533A22",
"5. c #5C3C24",
"6. c #53342B",
"7. c #5C362C",
"8. c #5D3A2B",
"9. c #533A2E",
"0. c #412232",
"q. c #433130",
"w. c #4A3633",
"e. c #5C3A31",
"r. c #573C35",
"t. c #623C25",
"y. c #643B2B",
"u. c #6A3C2D",
"i. c #663629",
"p. c #653B31",
"a. c #693C31",
"s. c #663D3F",
"d. c #4F401C",
"f. c #52411D",
"g. c #5B432C",
"h. c #5B4427",
"j. c #5C4434",
"k. c #634026",
"l. c #64412A",
"z. c #6D422D",
"x. c #664528",
"c. c #71422C",
"v. c #7A492E",
"b. c #634430",
"n. c #6C4232",
"m. c #634B33",
"M. c #6C4B34",
"N. c #6A443B",
"B. c #634C3D",
"V. c #6B4C3C",
"C. c #62443E",
"Z. c #724E33",
"A. c #724C3A",
"S. c #784735",
"D. c #6D523C",
"F. c #68503B",
"G. c #73523D",
"H. c #7A533A",
"J. c #5F4941",
"K. c #614B42",
"L. c #6B4C42",
"P. c #6C5444",
"I. c #6D5B44",
"U. c #6E5B4A",
"Y. c #685348",
"T. c #735443",
"R. c #735A45",
"E. c #725B4A",
"W. c #7A5E49",
"Q. c #7A6149",
"!. c #7E6451",
"~. c #824A2E",
"^. c #804B35",
"/. c #875338",
"(. c #955B3D",
"). c #995839",
"_. c #9D6839",
"`. c #AF7630",
"'. c #8C5942",
"]. c #81654C",
"[. c #84694E",
"{. c #8A664B",
"}. c #986949",
"|. c #8D714C",
" X c #94724A",
".X c #836652",
"XX c #846B54",
"oX c #8A6C53",
"OX c #896D5A",
"+X c #926F56",
"@X c #8C7253",
"#X c #8D7159",
"$X c #987255",
"%X c #BB7B4D",
"&X c #AC7652",
"*X c #AA7859",
"=X c #B37858",
"-X c #896D63",
";X c #8E6F65",
":X c #B27B62",
">X c #C27D5B",
",X c #C77E58",
"<X c #CD8E32",
"1X c #D48F3F",
"2X c #D79939",
"3X c #DFA932",
"4X c #EAA93B",
"5X c #F4B433",
"6X c #F2B33C",
"7X c #E4B430",
"8X c #BD835C",
"9X c #B08150",
"0X c #CD8744",
"qX c #C6844A",
"wX c #D28C45",
"eX c #DA994A",
"rX c #CB8455",
"tX c #C6835C",
"yX c #C9825B",
"uX c #C98656",
"iX c #D28E58",
"pX c #D69356",
"aX c #DCA145",
"sX c #E9A745",
"dX c #ECB346",
"fX c #F2B342",
"gX c #F3B14A",
"hX c #C38263",
"jX c #C88361",
/* pixels */
"                                                                                                                                ",
"                                                                                                                                ",
"                                          =XhXhXtXiXpXeXfXfXfXfXfXsXiXjXiXpXuX:X                                                ",
"                                    -X8X>XtXuXrXrXeX6X5X5X5X5X5X5X4XwX0X4X5X1XrX>X*X                                            ",
"                                XX#X+X8XtXyXyXhXtXpXgXgXgXfX6X6X6XsXiXaXdXdX7XaXyX&X|.@X-X                                      ",
"                              ;X#X@X#XhX,XtX}.I.R.}.qX9X+X@X@X|.@XoXW.].oX|.8XuXtX=X;X#X@X;X                                    ",
"                            Q.@X#X.X].z.c.z.M.I.U.R.E.XXoXoXoXoXoXXXW.R.!.[.c.z.c.H.].[.@XoXE.                                  ",
"                          U.Q.XX[.h.{ l.u.u.u.V.V.B.B.B.B.B.B.B.B.B.Y.Y.P.b.u.u.u.t.{ b.[.XXE.U.                                ",
"                        Y.I.E.E.m.4.4.5.3.*.*.;.f i g e i i g g e d U q.w.;.%.*.[ { { 4.x.W.I.I.Y.                              ",
"                    r.B.R.E.L.;.o.L L +.o.X.J B o o % r y d d o r % N N N 5 N A ! ` { { { g.I.U.R.L.                            ",
"                    s.V.I.T.z.z.n.@.J J K J G x X O u J J J K * V m m x x o m V m %.N.k.` 4.V.E.R.A.                            ",
"                    N.M.P.z.z.z.c.p.- J J K X.o.: w <.o.o.o.X.. P P J P J o t B G r %.8.{ ] z.x.D.M.N.                          ",
"                    Z.M.g.z.n.n.n.T . J K @.o.^ e d 4.W o.o.o.o K K J J J + A K J B t a _ ` { =.6.V.c.                          ",
"                    G.F.] 5.c.y.$.M X J X.o.#.2.e K 8.o.o.&.%.8 X.X.K K J r X.o.X.Z 5 = a +.+.o.&.V.n.                          ",
"                    R.B.! +.*.Z V m o X.o.&.o.2.z @.u.&.o.&.@.m >.o.o.o.X.M @.o.o.o.: o 8 B K K +.V.P.                          ",
"                    OX!.R.L.Z N G J o @.&.&.*.,.z +.l.4.2.&.+.P ` o.&.#.o.t <.*.o.&.0 # x M +.,.[ 4.I.                          ",
"                    m.h.f.j.G B Q >.t @.&.*.4.` z 6.G.d.{ =.! I ` 2.o.o.o.K >.>.o.o.Z m x K *.{ ] { P.                          ",
"                    j.` ( l.j K _ 5.M #.o.>.5.t.Q 1.R.b.5.[ _ J ( 4._ _ _ k ,.[ *.o.Z N B K O.{ ( ` P.                          ",
"                    g.{ ] p.d %.[ l.Z #.*._ t.n.W 1.R.G.l.} 4.J g.g.5.5.{ z 4.5.7.+.J B X.K j ` ` ,.P.                          ",
"                  C.b.l.k.y.y I l O.J 6 , < i f B Y g.g.5.2.%.Z U d p a i A $.$.U J r ; : 6 J k.k.t.M.                          ",
"                  t s X.W d % o @ o @ . 5 q e J N % = = = = - o O r r y d = - + @ X . . . X M S I @.:                           ",
"                  # d $.) $.<.9.9.<.$.E +.$.>.6.<.@.E E E E E E R +.+.<.6.~ R R 2 2 a g w o %.+.O.O.o 8                         ",
"                  ; >.g.h.v.u.Q.!.P.K.p.u.u.y.y.u.p.y.y.u.u.a.u.u.a.u.u.a.y.p.7.>.>.o.@.J - 7.M.g.g.g +                         ",
"                  1.D.D.G.].: _ K K J J o.i.^.^.^.S.V.j.N.N.N.N.o.o.o.X.X.o.o.o.+.*.*.X.B . f .XT.G.B.N                         ",
"                  $.z.z.c.R., ) B S X.W *./.yXyXyXtX8X*X*X#X@X#Xo.o.o.K K o.&.+._ Z.u.K t . d R.M.h.4.N                         ",
"                  $.c.c.c.F., ) K @.A f f 3./.(.(.(.(.).'.H.H.D.o.o.o.K J o.X.Q k.&Xv.K Z . e P.z.{ ,.N                         ",
"                  $.z.z.z.V.q >.^ @.m V N z k.c.c.c.c.x.z.c.z.4.X.o.o.K J o.K k c.yX~.! +.h e P.c.5.2.N                         ",
"                  J h.l.u.y., _ %.C t @.o.^ t.y.7.8.8.8.7.y.z.4.J #.o.K K o.J <.{.8X(./.=X$X1 n.c.z.*.m                         ",
"                  J [ { { y., _ o.S @.&.o.^ t.p i i ; + # f y.>.K o.o.X.X.o.A w.E.{.H.M.R.P.1 l.t.y.+.m                         ",
"                  Z +.>._ y., _ o.K X.o.o.^ 5.3 9.7.P N c S <.k K o.o.X.o.&.M y 9.F._ z 1.O., l.} 2.o.m                         ",
"                  Z &.o.&.t., _ *.X.K X.o.+.t.p e.e.J x x M J l K o.o.X.X.o.B q a B.k o + . 1 y.6.+.o.m                         ",
"                  Z o.o.&.t., [ &.#.K K K Q t.p J.B.P c c N k ` J o.o.X.X.o.K q . $.k # m . 1 y.;.! _ m                         ",
"                  Z o.o.*.t., [ &.o.@.#.K O.t.s K.B.U B B J >.( P +.&.o.o.&.J B & X . $ m . 1 y.*.4.{ N                         ",
"                  Z +.>.4.t., [ &.&.o.o.y l t.A.T.T..XW.P.M.8.{ m +.&.&.o.o.J B m m m m m . 1 y.*.4.x.N                         ",
"                  Z >.{ { y.: _ &.o.o.o.w z t.z.n.z.z.z.z.z.l.4.8 o.o.o.o.o.K J S B Z C m . 1 y.*.y.z.N                         ",
"                  Z 2.{ { y., _ o.+.&.W = a 8.u.a.u.a.a.a.y.y.6.- o.o.o.o.o.K J K o.X.K m . 1 i.*.y.z.N                         ",
"                  A &.2.4.t., >.o.#./  .4 o ; : : ; ; ; = = ; + o o.o.o.o.o.K J X.o.o.K r . 1 y.;.*.a.N                         ",
"                  g o.o.W t.: >.+.! 3X7X' y m m x N N N m m m r K o.o.o.o.o.K J X.o.o.X.P . 1 i.;.o.o.m                         ",
"                  w K K o.i., m.].{.sXsX XXXK.Y N M P H N N J J J o.o.o.o.o.X.J X.o.o.X.J . 1 i.*.o.o.r                         ",
"                  w J J k y.g I.R.S.qXqX^.A.P.1.y M J J B M J K @.o.o.o.o.o.+.@.J &.o.X.J . 1 y.X.K o..                         ",
"                  w J J z >.g P.A.c.%XrX~.n.T.9.t d X.K Z B X.X.o.o.K K o.o.&.K J o.o.X.J . 1 t.X.J J .                         ",
"                  w J l ) ) g V.| `.sXsX2X_.N.7.K K o.X.A j >.o.o.K J K o.o.o.I B o.o.X.J . : { >.k J .                         ",
"                  w J Q ( ) i y./ <XwX0XsX`.3.=.X.K o.o.X.l ` *.o.J k X.&.o.k S B o.o.X.J . , ` ( 4.+..                         ",
"                  a ,.,.` ) 1 8.~ _.rX$X{.M.2.=.X.K o.&.X.O.>.&.#.o.o.o.B C P L >.W W X.J . : ,.( { +..                         ",
"                  a 4.4.` ) < 4.~ Z.>X%Xj.U >.*.X.J o.o.X.L 4.&.#.o.o.#.B L ) ) >.X.o.X.J . : ,.( { ! .                         ",
"                  i *.2.4.' > _ _ 8.'.>XE j ) +.K K o.o.X.O._ +.K X.o.#.B %.+.+.L J X.X.P . : ,.` 4.! .                         ",
"                  Z o.&.! 5.> { 4.L }.>XW z ` +.X.K o.o.o.*.y.p.k J o.o.J #.o.X.G M X.X.M . : { ,.Q K .                         ",
"                  Z o.o.&.y.= l >.w &X>Xs 2 O.#.X.X.&.&.o.=.u.n.y.W o.o.K o.-.A N J.S.X.m X > ) L P K .                         ",
"                  Z o.o.&.[ : l ) < R ~ = 2 O.X.K X.o.o.o.=.u.:.=.&.o.o.K o.E J 7.=XN.C M * : ' l J @..                         ",
"                  Z o.o.&.' ; J >.d $ $ 5 k L X.K K o.o.o.=.a.&.W o.o.o.K o.J =.).yXv.*.y.=.: >.Q X.o..                         ",
"                  Z o.o.&.' o y P J N N J I G K K X.o.o.o.=.a.-.o.o.o.o.K o.K p.&XtX)./.$X{.: *.*.o.o..                         ",
"                  Z o.o.o._ @ t 5 ; + + ; + q @.X.K o.o.o.=.a.-.o.o.o.o.K o.Z <.Q.&X(.A.U.Y.= o.&.o.o..                         ",
"                  Z o.o.&.Q = k A f f f f f X.o.X.K o.o.o.=.a.-.o.&.o.o.K @.C q O.W.3.1 w w : o.o.o.o..                         ",
"                  d o.o.&.X.= Q o.o.o.o.o.o.o.o.X.K &.&.o.*.a.-.o.&.&.o.K @.y q w K.k o O . : o.o.o.o..                         ",
"                  g o.o.&.o.: >.*.&.o.*.=.*.! +.K J ! +.X.+.p.-.o.&.&.o.K $.E t . k d # m . : o.o.o.o..                         ",
"                  g #.o.o.X., 4.3.:.e.V.n.t.[ { z l 4.8.+.@.p.*.*.*.3.3.X.>.Q P r + + & m . : o.o.o.o..                         ",
"                  g #.&.o.X.= a s X.q.w.<.*.^ { e w a s i K p.y.y.M.G.N.f e 1 w $ $ # # # . : o.o.o.o..                         ",
"                  i o.&.&.X..     D D F F F ..0.n b b 4 o q E W W <.<.+.: 7 v b b b v 7 v 7 6 o.o.o.&..                         ",
"                  w @.X.o.X.*                             4 o o o o - 9 4                   6 o.o.o.o..                         ",
"                  q K J J Z .                                                               8 J J J J .                         ",
"                                                                                                                                ",
"                                                                                                                                ",
"                                                                                                                                ",
"                                                                                                                                "
};
