/* XPM */
static char *xpm_[] = {
/* columns rows colors chars-per-pixel */
"64 64 150 2 ",
"   c #4A392D",
".  c #453C36",
"X  c #493E36",
"o  c #463D39",
"O  c #493F39",
"+  c #4C4136",
"@  c #47413C",
"#  c #4C433B",
"$  c #544336",
"%  c #52463C",
"&  c #59463C",
"*  c #55493E",
"=  c #5B4A3E",
"-  c #604536",
";  c #4D4541",
":  c #4F4842",
">  c #514741",
",  c #544A43",
"<  c #5A4D43",
"1  c #554E49",
"2  c #584F4A",
"3  c #5C5146",
"4  c #57504B",
"5  c #5B524C",
"6  c #514F53",
"7  c #5D5651",
"8  c #5F5953",
"9  c #604A40",
"0  c #635145",
"q  c #695546",
"w  c #62554C",
"e  c #69564A",
"r  c #64584E",
"t  c #6D5A4D",
"y  c #705C4C",
"u  c #615751",
"i  c #635B54",
"p  c #6A5D54",
"a  c #655E59",
"s  c #685F59",
"d  c #715C52",
"f  c #6C6156",
"g  c #66605B",
"h  c #6B635C",
"j  c #6F685F",
"k  c #776156",
"l  c #7B6554",
"z  c #72655C",
"x  c #7A675D",
"c  c #74695E",
"v  c #7D6A5D",
"b  c #6D6661",
"n  c #6E6863",
"m  c #706762",
"M  c #736B64",
"N  c #7A6E65",
"B  c #756E69",
"V  c #796F68",
"C  c #7B7066",
"Z  c #76706B",
"A  c #7C736C",
"S  c #7F786F",
"D  c #7E7670",
"F  c #7E7871",
"G  c #826B5B",
"H  c #846E61",
"J  c #847163",
"K  c #8C7564",
"L  c #81766D",
"P  c #82796F",
"I  c #8B7B6F",
"U  c #90796A",
"Y  c #807771",
"T  c #837B73",
"R  c #897E75",
"E  c #867E78",
"W  c #897F78",
"Q  c #8A8177",
"!  c #878079",
"~  c #8C837B",
"^  c #8E887D",
"/  c #988270",
"(  c #91867E",
")  c #98877D",
"_  c #938A7F",
"`  c #988A7F",
"'  c #8E8680",
"]  c #8F8880",
"[  c #918780",
"{  c #948B83",
"}  c #998E85",
"|  c #958E89",
" . c #988F88",
".. c #979187",
"X. c #9A9187",
"o. c #969088",
"O. c #9D948B",
"+. c #9D948C",
"@. c #9E958D",
"#. c #9E968D",
"$. c #9D958E",
"%. c #9E988E",
"&. c #9C9790",
"*. c #9F9790",
"=. c #9F9990",
"-. c #A09589",
";. c #A0968B",
":. c #A1968E",
">. c #A1978F",
",. c #A1988F",
"<. c #A1998F",
"1. c #A2988F",
"2. c #A19790",
"3. c #A39990",
"4. c #A19992",
"5. c #A49991",
"6. c #A49B92",
"7. c #A69B93",
"8. c #A79C91",
"9. c #A49D93",
"0. c #A49C94",
"q. c #A69D94",
"w. c #A89D95",
"e. c #A99E95",
"r. c #A89E96",
"t. c #AA9F97",
"y. c #A79F98",
"u. c #A99F98",
"i. c #AAA096",
"p. c #AAA098",
"a. c #ABA09A",
"s. c #ADA39A",
"d. c #AEA39A",
"f. c #B0A297",
"g. c #B1A49C",
"h. c #B2A69D",
"j. c #B5A99E",
"k. c #B8AA9F",
"l. c #B5AAA1",
"z. c #B5AAA2",
"x. c #B7AEA5",
"c. c #BBAEA3",
"v. c #BCAEA6",
"b. c #BDAFA8",
"n. c #BDB1A6",
"m. c #BDB2A9",
"M. c #C2B4AB",
"N. c #C4B8AF",
"B. c #C7B9AF",
"V. c #CABCB1",
/* pixels */
"q.q.+.q.q.2.M > { i.3.y.3., h., +.5.3.=.+.3..., a [ +.+.&.| ' E T O { ~ f.5.r.+.f * r l.B.1.+.+.&.5.q.3.&.+., i r.m.x.q.+.f > { ",
"( q.+.+.5.{ b 4 { 2.q.q.3.< u.1 Z +.+.3.3.&.~ @ h A Z Z B n n u u O ( ~ >.5.0.{ 3 * S { X.T R { V 2.=.3.5.2.> 5 r ~ 3.3.9.+.m } ",
"X.~ v.+. .( b 1  .+.+.3.>.1 D 1 | 3.3.3.3.] S o b Z Z n B B i < 9 O T B ~ 3.+.N 3 3 C P ~ +.9.+.[ ] +.+.&.| % 5 ( T +.q.9.1.~ h ",
"5.o.S r.m M a , [ >.+.3.+.1 D 1 ~ +.| =.+.Z a @ b Z B Z B 8 0 N b : S i ~ +.V m , 3 h A P ~ ^ Q ~ R a +.X.M # 7 1.O.M +.5.1.m _ ",
"{ 3.n B b g > ; 8 h P ~ X., n ; g Z Z B D M a . 7 8 M n 8 2 1 > 1 @ h > g n n i 3 w 4 Z M T T m Y B a m n b @ 4 _ $ $ p } +.c ] ",
"8 i n h i 2 ; # , 4 > 2 4 o a o : , 1 4 h 5 % * o : > : @ ; > > > # 4 # > 5 5 1 < 0 * + , 3 # > # : @ @ o O X % < + # @ # > , 5 ",
"E g 3 < , 0 d.m.v.h.c < * # : % # * # > 1 * = % , % # $ % P W r A _ ( Q ~ 5 % r X._ { { , = z >.y * % * % z ~ ~ h.c.l.c % P ^ T ",
"9.9.9.N % Y B.1.3.9.1.3.M % * { ~ f >.[ Q Q C { 5.m % % u 5.3.p 1.9.+.#.+.3.i 4 9.q.+.d.Q z d.m.G t - * A 5.r.r.+.S x p h >.q.9.",
"0.0.3.W < h +.q.q.3.3.3.S > p 3.q.Z R %.+.>.+.+.} ( 0 % T q.3.h _ 3.3.9.3.+.Z 5 9.q.9.1.5.9.>.i.G G x - #.q.q.i.=.T X . R 1.;.>.",
"0.3.3.3.# a p.5.+.q.3.+.R < N q.%.A M R S D } +.( ~ i , T 3.3.m z 3.=.3.+.X.% 5 o.+.3.3.9.r.5.>._ l G e ~ q.p.u.i.+.h o ~ 9.;.;.",
"X.5.3.5., T q.q.F [ v.R h , A { { V =.=.+.3.S { r.t.( # w ~ ~ +.3.+.&.%.+.Z @ 1 +.=.+.3.1.5.r.I G t l e z } d.l.j.+.C 1 5 [ >.R ",
"L &.1.' : T 3.3.u.S V A C 4 b B B $.q.i.+.^ 5 ~ >.+.M # 7 ~ +.2.3.3.2.+.^ Z @ 1 T +.i.2.1.1.r.R v d y 0 p ~ 3.q.%.+.m 4 M p { 1.",
"h T T m # m ..3.1.9.1.3.~ @ M T ' 3.3.&.=.n , h g B b o , B Z S A A D +.b h # # b M n n Q ] { L H H N < 5 W 3.[ M m m , s 5 1 ~ ",
"> , : , 3 # S 1 j Z T T p # 5 h g B Z n b a # 1 i 4 4 # * > i 7 5 i 7 < , > % # : : > # 7 S n , ; ; O & * > , , > > # O < u 5 > ",
", 0 < 5 q , > * # # % # , 3 5 , r < 5 % @ # < w f C J N x z w X z r 0 h C N c h * , z f g 5 i h z i 0 % < M S N N p p m m 4 # , ",
"f.( f.T { { { A * p g S X.+.+.c ( R X.f % p { #.9.d.d.{ r.r.T . A X.q.&.v.i.| { 5 5 } +.3.q.=.+.3. .b O } q.h.l.q.5.9.r.r.+.# ( ",
"&.| =.3.+.=.p.R < S T Q Q d.r.f 5.x R m 4 M ;.1.#.O.>.5.2.+.A . b { a.R +.3.3.{ , < L { 3.5.5.5.3.+.b @ N 0.f.w.q.9.5.5.3.5.% { ",
"q.5.=.0.5.=.+.a S +.>.u.Q L C 3 } r p _ P g 1.;.A } O.+.+.{ g . 5 F h.+.[ F 3.q.w < 5 h M | u.l.d.W g # . ;.t. .{ >.1.>.5.1.5 { ",
"0.0.3.3.3.$.3.p ~ $.%.3.>.+.1.p ( r c 1.Q 1 m M { 2.3.3.3.S o o 5 b ~ 3.3.3.q.+.[ , $ ; 0 < A V B b i *   ) 7.0.R ~ +.O.O.S * [ ",
"0.2.+.2.&.$.! i i +.%.%.1.1.%.3.m ~ 3.+.S 1 X.i.3.3.3.+.{ n ; . 5 h T +.1.h 3.+.+.= < i * % , i B n i + - } 2.=.>.+.~ ~ ~ +.# ( ",
"i E E ~ n n b 8 5 ..%.1.{ +.3.+...^ 1.#.b : Q T ~ ~ T B m h : X , s D +.>.3 M V f < 5 g i & r O : b , % $ S T T T T { +.O.h # ~ ",
"@ : : ; ; 1 , > + A F , , < > , > p i 8 # , 5 g h b a g h , # % # u b B n # g h , < 3 3 2 , , O o ; # % % b h h 5 5 2 E T o < h ",
"# X < [ O % T ^ _ 1.p.+.~ { w + % # % $ * * > , % < < , , % g M.M.M.f.l.+.R 5 * L 3.+.+.A V M.h.l.u.{ L < , < , * % * * , # * % ",
"} h 3.3.3.X X.M.m.M.l.p.m 5.r.r.f 5 # % 3 F S Q ~ Q T p * + h q.t.t.u.0.q.^ % 2 R q.n.M.} ~ 5.5.=.=.3.q.r % < y t t - % % ^ m.M.",
"p.r.r.+.%.@ { #.#.9.9.9.T ~ 9.9.1.{ p * X.3.A 2.q.q.3.=.M = i p.r.5.$.3.3.$.: ^ %.%.3.q.+.S ~ 5.9.5.9.5., = x U / G k t * [ +.+.",
"q.0.5.0.{ + X.3.%.i.5.9.+.Q 3.5.9.X.r 3 3.3.M =.1.3.1.9.{ 3 4 %.5.2.3.=.3.o.: S 3.3.=.3.2.A M.2.3.>.3.>.< < v G H v G p 5 X.q.=.",
"9.5.5.+.j @ ! >.1.1.9.r.q.M h X.1.{ c Z 3.3.h 3.+.+.1.=.+.: p 1.5.3.q.9.+.D o { ( Q X.#.2.N 0.+.>.+.>.>.% q G G v x k e w { q.=.",
"A 1.9.+.c # m ~ 1.>.+.#.9.p +.d.j.c.h m +.+.+.S +.+.$.3.M : i %.3.+.q.3.3.S # 3.9.~ X.1.>.c | >.>.>.{ ~ # = G N v z r 0 r { 9.3.",
" .T [ h 7 @ n S X.1.{ ~ { 7 T T S F 4 4 X.#.F 5 { +.+.%.E 4 2 +.5.%.2.+.D 1 o [ ~ T Z Z W : ~ #.T ~ ~ T % 0 x x p e < % < Q { E ",
"5 > > , # # 2 8 g m m Z m ; 1 5 7 g + # i i 4 : 4 4 i h i # 1 8 B m h u < & o s m m n g 1 @ ; w 4 2 1 > % < = # . . . 3 * 1 5 4 ",
"< % + # 3 3 = * # * * > , * > 3 * < < > @ # # * # + # # # < < * o @ % 2 % % > O + # @ + # , < 3 3 3 h N k r , r m p < % = w i 3 ",
"T V # = z 3 h f h P X.X.#.{ { r i { { { h [ w , * _ { j.h.+.} _ * X Z { W p ~ { X.X.~ * # 5 ( T R g k.c.5.P z +.8.1.R r #.9.{ $.",
">.5.X y U i S C V ^ ..9.3.3.+.w T +._ M V M m < f 1.2.9.#.+.{ F Z + p.9.} N v.{ v.m.m.X.# u >.i.r.1.r.r.9.S R q.q.3.h.l.W ] o.3.",
"r.>.X q G _ h.p.1.X.T { 3.q.+.r M L L c A P h 5 } 9.5.( L S +.' i + ~ +.[ R 5.>.1.5.+.+.# T { r.d.r.r.5.5.V N 5.r.+.Q ^ { 5.q.3.",
"1.N X q J J q.j.i.1.%.Q 9.+.+.r < 3.>.T r.f.7.a W  .} L d.u.q.3.# # . . # N 9.#.=.| +.+.# ^ 3.3.5.9.5.1.+.M ( S { ;.X.n.} ] 1.9.",
"{ C X < G R +.9.9.1.5.+.=.=.+.0 > ~ ;.>.L { m i z A } 5.9.>.R E . % % , g.z >.>.Q g { [ # [ >.+.1.X.>.#.>.7 S +.h P 1.1.+.^ S $.",
"| i X Z 1.1.1.3.%.3.%.+.3.| | 2 > g ^ 1.>.V 5 o i M ( +.^ Q h g + * = = >.u b 7 M   a m # g ~ ' { [ { ~ M 4 c T [ B A >.2.N S M ",
"4 # % u M Q R ! E F E Z i , , , < , , n m p , % 2 2 4 5 Z z a : * 3 3 < 2 # > @ # & > 1 . # ; , : > > > : % # 5 5 4 # u 5 5 4 , ",
"{ * # % r r < * , * % * # % O X . . X + % % Y f.k.k.;.M._ b < % $ # % X . . X X % $ r N < M z T Q i # % _ d.n.l.v.f._ % % % ;.O.",
"B.B.M.j.c # r h g V l.m.r r h.N.n.n.j.3.s O l.k.5.t.8.( { ~ 4 { 1.j.>.#.} 5.r.>.5 2 ( ( V &.+.+.3.9.~ # V.p.9.q.l.p.>.^ * R g.r.",
"l.d.j.f.} i M +.=.{ +.+.[ X.u.3.1.9.9.q.~ . ..9.9.3.9.3.X.S p { 1.$.X.{ >.3.+.{ # ~ +.~ b } 3.5.r.5. .% M.r.5.9.r.q.+.m % c.B.j.",
"d.5.5.>.p 0 z +.3.=.&.3.l.q.5.3.#.$.+.+.~ @ S 1.3.=.+.3.&.T A { #._ { A ^ ^ T T @ T q.3.[ L L +.5.5.~ % } { R [ q.q.S 7 V 1.r.q.",
"r.5.r.P = < { 5.5.3.+.>.a.3.3.3.#.1.+.+.n o B { 3.3.&.+.+.A a ^ 3.3.{ ^ +.q.2.{ ; b R R X.3.9.r.r.r.s # V { 9.5.5.1.V 5 w f ~ q.",
"0.+.| i 9 , [ 9.5.+.+.+.+.3.2.+.$.X.} Q 8 o B ! +.3.+.+.+.B 5 S 2.+.9.q.{ 3.5.} 1 4 ~ +.5.9.1.=.5.| i > m | ;.( ' ~ b 2 = = - } ",
"B ~ T $ i # g _ %.o.+.F B E ~ o.+.' b b 1 o n F ' +.+.+. .D 2 b A +.>.#.S R ' T , ; T R #.~ ~ Z W n , # n n 7 . , b h % = 3 % 5 ",
"5 5 1 + . . 4 g T ! T 5 4 8 g g g a 7 @ @ o : g b b a a a u O # i R ( ~ , % , : o @ 4 4 M F V i 7 5 % 4 1 , # % # ; ; + = * = * ",
"3 w w r w , % % * > > # : : # # o # # u z h h h > , 2 , > : : # , h N < % > ; # o X * , . . # > % % < < # # c M N C C C w z f * ",
"{ { ;.X.X.( , O A { ;.} { { X.( T # % g R ~ ~ ~ 2 W ~ ( Y D A : % * < = } Q R M @ w ^ ~ # # X.} 1.5.T V . m h.h.j.h.h.i.Z c...{ ",
"9.+.>.>.>.>.>.% A R W Z E Q R F T > , T T Z T Z @ [ ~ O.+.~ T < * Z { l.[ ~ E B : i Q E . # T { >.[ Q M . N u.5.2.5.5.;.A r.p R ",
"9.O. .| 2.2.h % 5 s f > 1 h D +.^ , @ S P B S n @ +.+.+.+.{ i # , E ' ~ [ ^ ~ b ; 4 g g # # c h h h a 1 O S u.r.9.3.+.>.~ 9.u ( ",
"5.1.>.L +.| V 2 3.r.r.3.i h 3.%.{ , @ n h g p g o O.#.;.+.~ 7 o > g b S T L D D , : ~ S # , 5.d.h.h.B # # , +.>.;.;.+.;.{ 3.u [ ",
"9.>.1.+.2.+.T , T T L S 1 S T T S : # 7 T R F : . S O.O.{ T ^ 2 5 Q [ W ^ [ | E 1 g T m # Z ~ X.o.{ _ E > g 3.+.( ~ ~ T R +.s [ ",
"[ 5.>.>.+.~ h > B S S M 1 i F S S ; > D D T D M @ m D X.D [ ~ : i F T T T C g 8 ; ; i > > m V F S Q ] ! o g 1.+.[ >.>.{ 4 g u [ ",
"> 2 2 1 2 2 , % a b b a 1 1 8 a i # * Z A F D M @ h a g W T V > : i g i u i i 5 # @ : : * X , a b b h b # : b Z i h T T M 5 1 : ",
"# # % % % % % % > > , # # % > > # # # 7 4 i 5 1 # # @ @ ; ; ; % . o @ > % , , % O , T { { } M # % # @ # % 8 X.3.q.p.m.V.>.~ % % ",
"e 9 = * * S 0.d.r.p p r.u.9.X # N +.' 5 @ # 5 w u 5 r u # , % w +.5.1.N h & % p p 5.( ;.>.;.9.5.%.9.r.o.* i +.q.r.i.q.9.5.>.p 0 ",
"K d 9 & p +.=.q.+.f T 3.u.3.O . T [ 5.3.4 # +.9.9.Z ^ ! 4 # ~ { A r.r.;.+.{ < T { h.R +.3. .2.>.>.#.>.2.p g 9.2.+.q.+.0.w.1.w J ",
"x u e < z r.5.5.R >.3.q.q.3.. . S F T F 1 @ A D S n F F > o { E A +.&.+.#.} u T E d.c.{ +.3.1.1.>.5.9.5.p p 3.9.3.5.9.5.5.5.3 l ",
"d e 2 < +.q.9.9.j.} +.q.3.3.. p b S D F , # m T S B S S : % Z R ( +.3.3.2.T , N S E +.{ C { &.;.>.+.3.&.i y +.3.3.&.2.5.3.~ = G ",
"0 2 > % T 3.1.9.5.9.5.3.9.3.@ g B S D D ; : m S D A n g : . S S R _ 3.3. .V # , b F { { +.p ~ >.+.+.+.+., p O.#.+.=.| +.;.7 = k ",
"O O 6 < A R F O.X.| =.~ ! E O 2 b M M B > > s m b b g M , . B Z B W ^ Q A 5 + o 4 8 E E M M 4 S W W E D > f +.Q | ( #.+.%., * & ",
"& & > < > * , 2 7 i 7 5 2 ; , > : 1 , : < % # # ; # ; : @ # 1 1 4 n n g , o % , * 1 i a ; ; : % o ; : > % < m n a 7 P T T # = & ",
"< < & p c z r % 4 5 3 , f 4 i = < h z z p i < % < 4 5 7 g h p p i < > F 7 p.>.3.f $ # > w h h M | &.X.| T p * % # % > # # * * z ",
"O.} { 5.r.q.Q 3 { A Z w 9.S R p [ &.q.q.3.+.5 % r M T { ! F D W V % , +.w n.3.9.p * r f.j.3.q.u.0.q.9.3.+.+.< # P +.X.4 . . w 1."
};
