/* XPM */
static char *xpm_[] = {
/* columns rows colors chars-per-pixel */
"64 64 245 2 ",
"   c #361A09",
".  c #301B11",
"X  c #2E2114",
"o  c #392518",
"O  c #3B322F",
"+  c #411E08",
"@  c #46260B",
"#  c #4B2B0C",
"$  c #522E0C",
"%  c #472817",
"&  c #522E1A",
"*  c #4E311C",
"=  c #54341B",
"-  c #593618",
";  c #62361D",
":  c #623C1C",
">  c #532F22",
",  c #4B3525",
"<  c #523323",
"1  c #5D3C22",
"2  c #593A27",
"3  c #533D31",
"4  c #643B23",
"5  c #6D3D23",
"6  c #68431D",
"7  c #73441C",
"8  c #59432B",
"9  c #47423B",
"0  c #5E4534",
"q  c #654224",
"w  c #6C4423",
"e  c #65432B",
"r  c #6C442C",
"t  c #684A29",
"y  c #6D4A2C",
"u  c #764928",
"i  c #734C2D",
"p  c #79532B",
"a  c #664B37",
"s  c #6D4C33",
"d  c #724C33",
"f  c #764D37",
"g  c #6A5339",
"h  c #6E543B",
"j  c #755334",
"k  c #7D5433",
"l  c #7C5A35",
"z  c #74533B",
"x  c #78573B",
"c  c #7C593C",
"v  c #7D6139",
"b  c #354652",
"n  c #4A4A48",
"m  c #584D43",
"M  c #4E5550",
"N  c #585854",
"B  c #6C584B",
"V  c #745B47",
"C  c #7B5C43",
"Z  c #6D6348",
"A  c #7B634B",
"S  c #6A6559",
"D  c #776757",
"F  c #5A6968",
"G  c #666C65",
"H  c #75756D",
"J  c #84542B",
"K  c #835533",
"L  c #845C35",
"P  c #895C33",
"I  c #81573B",
"U  c #845C3B",
"Y  c #8B5D3C",
"T  c #925E38",
"R  c #8B6437",
"E  c #85623D",
"W  c #8B633C",
"Q  c #93643C",
"!  c #98663A",
"~  c #926A3E",
"^  c #9A6C3C",
"/  c #9D713E",
"(  c #A2713F",
")  c #865E42",
"_  c #846444",
"`  c #8B6542",
"'  c #8B6A45",
"]  c #87664A",
"[  c #8C6A4C",
"{  c #976947",
"}  c #936C44",
"|  c #9B6C44",
" . c #916C4B",
".. c #8E704A",
"X. c #987346",
"o. c #9D7344",
"O. c #94724B",
"+. c #9C744B",
"@. c #9D794B",
"#. c #8A6D54",
"$. c #966E53",
"%. c #8C7359",
"&. c #947453",
"*. c #9C7552",
"=. c #9C7B54",
"-. c #95785A",
";. c #9C7C5B",
":. c #A37345",
">. c #A2754C",
",. c #A87449",
"<. c #A47A4D",
"1. c #AA7849",
"2. c #AB7C4D",
"3. c #A47C53",
"4. c #AA7D52",
"5. c #A47C59",
"6. c #877966",
"7. c #9A7D62",
"8. c #8A7E70",
"9. c #A37E62",
"0. c #9E825B",
"q. c #AD824E",
"w. c #B5844E",
"e. c #A38155",
"r. c #AC8354",
"t. c #AD8855",
"y. c #A3845D",
"u. c #AC845B",
"i. c #AD8A5D",
"p. c #B38454",
"a. c #B98755",
"s. c #B48A56",
"d. c #BB8954",
"f. c #B3865A",
"g. c #B48B5C",
"h. c #BB8D5C",
"j. c #B3935F",
"k. c #BC925D",
"l. c #9A8266",
"z. c #918674",
"x. c #A48564",
"c. c #A78866",
"v. c #AC8A63",
"b. c #B48D63",
"n. c #BA8E62",
"m. c #B58C68",
"M. c #A9936D",
"N. c #B59265",
"B. c #BC9463",
"V. c #B3936A",
"C. c #BB956A",
"Z. c #BA9969",
"A. c #BD996B",
"S. c #A78D72",
"D. c #A89476",
"F. c #B79776",
"G. c #BC9B72",
"H. c #BBA17A",
"J. c #C3945C",
"K. c #CC935A",
"L. c #CB985E",
"P. c #C29563",
"I. c #C59667",
"U. c #C49A65",
"Y. c #C99B65",
"T. c #C49C6B",
"R. c #C99D6A",
"E. c #C39D72",
"W. c #C79E75",
"Q. c #C6A26D",
"!. c #CDA369",
"~. c #CCA26D",
"^. c #D2A46C",
"/. c #D4A96F",
"(. c #D9A86A",
"). c #C5A373",
"_. c #CCA473",
"`. c #CDA975",
"'. c #C4A47A",
"]. c #CAA67A",
"[. c #C6A97B",
"{. c #CDAA7A",
"}. c #D1A672",
"|. c #D3AB75",
" X c #DAAD74",
".X c #D7AB7B",
"XX c #D3AD7B",
"oX c #CFB37A",
"OX c #D5B27D",
"+X c #D9B378",
"@X c #DAB37D",
"#X c #E1B77D",
"$X c #929A91",
"%X c #AE9D84",
"&X c #9BA69D",
"*X c #BAA688",
"=X c #B2AE98",
"-X c #A3B2AA",
";X c #B5BBA7",
":X c #C7AA86",
">X c #CCAB82",
",X c #D2AD82",
"<X c #CCB387",
"1X c #D5B383",
"2X c #DAB582",
"3X c #D5B886",
"4X c #DCBA84",
"5X c #D3B58B",
"6X c #D9B789",
"7X c #D6BB8B",
"8X c #DCBC8B",
"9X c #C3AF95",
"0X c #CAB796",
"qX c #D6BB92",
"wX c #DCBE92",
"eX c #D6B998",
"rX c #E0B782",
"tX c #E2BC85",
"yX c #E1BE8B",
"uX c #E2BD93",
"iX c #C8BEA9",
"pX c #BAC4BC",
"aX c #DEC18D",
"sX c #DEC293",
"dX c #DBC39A",
"fX c #E2C28D",
"gX c #E8C68B",
"hX c #E2C493",
"jX c #E4C995",
"kX c #E3C59A",
"lX c #E9C698",
"zX c #E4CA9B",
"xX c #E9CC9C",
"cX c #EBD19D",
"vX c #CAC1AC",
"bX c #DDC8A4",
"nX c #E6CDA1",
"mX c #EACDA3",
"MX c #E4C9AA",
"NX c #E9D2A8",
"BX c #F2D4AB",
"VX c #EED8B8",
"CX c #F3DAB4",
"ZX c #F7E0BC",
"AX c #F5E3C4",
/* pixels */
"  A.p.:.o N n z ` 1.~.r.}.|.+X3.yXV   z OX@XE tX#X!.n.|.4.^.J.r.tX4X+.T.;.% @X/.2X_.4 Y.p.4.4 .X|.!.!.@X:.P > !.4 f.k ; P 4Xu  .",
"k 2.1.& Q 2 J <.! }.~ '.}.^.~.* d < % +X2X@X2X.Xs.p Y.h.v.m.^.T.C.+XOXY ~.Q.c.oX| | R.1.}.h.~.Y./.U.}. XtX Xp r J p.:.J.1.k K.L.",
"s.# | e _.U P.) }. XtX`.E P.I.^.J ) `  X|.!.@ p >Xn.| ^.2X X+ B.B.x k :.{ _ = XXP ( Y.J.^.^.p }.}.!.@X X~.s.1.Y.R.a.d.d.n.Y.I.!.",
"r.  = { | P.| p Y.R.U._.}.^.` _.@X4 |.Y.!.< J.J.:.P }.: n.P.] +.-.j K r.u.* ^.B.T.}.Y.r.|./.|.|./.|..XXX .P.!.u.J.0.Q P.J.J.{ ,X",
"o - | *.` B.!.5.^ J.k.~.R.h.|.<.}.4 _.}.!.J.Y.^.| Y L @ % s eXM.a g D.l.< j.!.,.XX3..XtX}.+XXX+Xo.Y.uXx.f.T.|.p.2.8 1X_.pX&XoXJ ",
"-.4.6 ^ n. Xk.}.R.^.|.^.R.!.}.d.6 J.U.+X~.J.p.d.4.u `.f.5 E.A.x.%.H.M.h &.3..Xs.4 @XOX|.2X^.p * _.~.I.<.: 3..X} fX4X0.y $XF B  X",
"C P.! n.$.W.Y.^.C._ |.p Y.R.P.P.|.k.R.+X| h.k.Q.^.!.p..X2.4  .x.V.v.% A e.B.U.@X+XT.2XrX@X2 B.<.~.U.h.T.@Xs.O.E.yX4XG., H &XF ] ",
"c Y u u } J.( }.tXs.r.XXY.h.d._.` ^.R.}.^ W.XX.XR.}.4X_.XX| f =.v.y.k.* A q.~.Q }.f.f ,XtX^.1.gXT.U.k.p.p R 4Xp.yXE._.%.O n N & ",
"h.g.P.J ]. X/./.% .XXX`.1XU.~.p E.`.U.~.l `./ Q.P.G.+Xg..XQ.y.b.y.j W h.>.{.}.2.8XXX{.{.w Q.1X1XhXI.~.OXlXgX+X4XB.8X4X@X#Xj I.I.",
"g.].J.B.$XM +X@XB H _.].{.XXy.4X1X).P ! jXhXoXg x {.h.N.@XR.B.d ..j.i.n.m.=.|..XvX;X,X~ x O.+XOXNX|.A.kX@ cXx.aXhX8XgX X XC.N.7 ",
"N.) @X_.U.XX~ @X-X$XF 1X+X|.^ XX@XZ.@XfX@XOX@XXX+X'.2XXX*.% mX{.T.I.T.= ) _.L ~.D.H < z hXR sXkX1XY R jXaXt C v.fX4XN.Z.|.L.J. X",
"o {.XX_.].XX6Xu.F b b <XOX] ^ ~.4X2XgXoX|.@X3X@X4X4XOX% 1XXX].B.U 3.B.V.P.T.|.2.[ 8 A.hXgXyXx ) OX=.Z.zXzXy.1X;.hXuXfX1XQ.( +X X",
"Q.}./.|.lXxX8XXXn b f 2XU.+.A kXOX2XR A.Q._.4X@X2X4X8X4XR.s.B.| h.f.L 2X@X;.XX1X}.3.,X8X<X@X_.@X4X' 2XZ.kX .].* cXU tXT.XXy NX_ ",
"k.`.>XQ.+.].Y _.^ r.}.I.|.|.|.,XXX3.@X@X6 XXP.@X.X' 4X`.T.r.O.P.a.J .X@X1X1XE.+.{.8X{.q XXH.8X4X@.1X4X2XuX+.4XG.NXA.'.- x !.2X|.",
"H.3 r.} | T K ).T.B.g.U XX}.P.C.8Xy.i.2XU.q.8XB.|.OX8XwX~.T.XX`.U.OXT.Q.hX4X2XT.8XO.2XdX- `.4X1XyX1X6X4X2X6XL ) | c E.+.3.P.x./.",
"s 1 Q.T. Xu .X|.I.>.W 1XR.T.2.T.`.= OXyXoXk aXY Y e.8XwX@X|.OXXX7.yX@XR rX@XXXXXd.3..XL xX@X# i fX2XT.2XAXnXx.I.& C XXXXg.p.4X; ",
"B.&.).}.|.h. X2XW.Y.XX`.W Q.T.1Xq q 8XaXP.U.Q.< ).<.hX2X@X4XsXsX0.sXfXsXjX<.oXaX6X2XhXjXy 4Xj jXc XXaXkXzXO.k { i k.XXOX+X}.2XhX",
"q |.Q.B.o.k.|.Q.4X{.XXXXk.!.X.@X2XN.aX2Xu {.{.@X3XA.aX4XjX).sXaXdXnXl jXjXjX..`.yX4XhXjX<XaXsXaXjXmX7XzXsXzXu.{.T XX_.' @X2X X2X",
"5XT.B.P XXXX.Xb.T.h XX4X2XB.Z.6X4X8X8X8X<.v <XjXy _.aXl hXhXE cXcXcX* jXjX>XsXvX6XnXmXmXx 4X@.E mXc.4XhX8X7X8X=.hXkXsX{..Xi w 4X",
"{.$ ~ N.B.*.OXfX{.7 OXp 2Xu.4Xz sX_.U `.NXsX@.aXoX[.aXaXaX8XzXzXzXzXjXnXF.hXjX- _ nXNX&.mXB.8X1Xh 5X;.1 bXfXfXG.jXxXzXhXy 8X1XT.",
":X1 '.v.I -.2X@X~._.|.W.1X@X2XxX2X`.q.1.mX8X@XaXaXQ.X.6 A.`.aXgXcXjXjXsXW sXv.sXzXsXnXg *X`.'.[.l.h x.;.VXdX8XjX3XsXVX` A.{.A.k.",
"N.V b.5.z #.P.~.P.}.}.).OX_.1X2X` Z.i.4X2X2X|...OXOX!.Q.oXjXjXjXaXjXv 4Xw aXsXsXzX:XcX*X0.'.0.G.c.#.x.-.8.kX'.sXdX8XaXd _ A.m.` ",
"5.Y.5 r j g.u.f.3.R.~.@XXX4.T.r.1Xs.3.).{.3X1XZ oX`.!.Z.hXjXZ.aXaXsXjX3X] e.[.t.{.g dXzX:X<XC V.&.&.#.S.bXN.,X6X*X5X:X0XH.a v.=.",
"c.P V.[ &.B r.XXg.B.>.fX&.j.O.3.1 c s < eXoXoX0 ).aX3X- jXv aXaX# = F.Z.j.'.%.dXaX[.NXH.:X]  .#.=.v.C [ 7.5X1XsX5.hX1X] a v.U e ",
"1 B.J.r ; p R.h.h.w ].{._.4.kXXXT.) +._.[ `.{.OXaX3X4XaX5X8X3X@XoXjXaX{.OXOXy _.jXnXZXsXy.w.~ =.V.5.] AX[.b.f.1X8XBXtXt u.{.[ x ",
"B.}.T.o.I.XXP.R.u.uXXX~ P.u.XXXXJ }._.+.).j.{.OXp @X3XsXfX].@XOXgXaX7XN.OX5X4X1XM.X.cXnXsX5X1XV.V.$.- ,X{.v.U.3.k 6X4X@X: ].T.b.",
"D.U._.!.>.Y..XzXOX2XR.K P.J.P.6.e.T.`.T.@X~.`.dXaXu zXaXoXxX- OXg 6 4XaX4XfXjXi R X.kX6XoX3.G.).x.C.G.E.].{.kX.XC.).|.1XB.5.} m.",
"XXB.XX4 T.*.}._.@X@Xu 2XY q D |.`.{.).XX2X3X4XaX4XaXo p OXoX=.~.OX3Xi.OXfXaXhXaX3XoXu.Z.A.N.e dXkXB.{.XXwXu.C.uX4 % OX.XJ uX2X|.",
"G.|.|.|.! 1 | XXF.hX@X|.{.B.y F.:.kXfXtX8X4Xi.@X@X@.l _ {.Q.Q._.~.4XOX3XfXE aX@XtX@XB.fX8X].8XkX8X4.g.1X@XOX{.R.K q +XP.yXrX2X` ",
"-.8 !.|.:XT.K L Q w r k.<X}.4Xw 8XwXfX4XE _.Z.* jXsXaXt @.6 Q.3XaXZ.$XS jXjXeXaXaXOXt fX;X1X+XhXjX7X).G.OX].q $.2 8X/.4XgX}.2X:.",
"D [ Q.P.| f.P b.1 r p.r 2 +X@X5X2X8XzX1XxXh T.  aXaXaX$ .XOXo 4X4XaX/.q.aXhXhXfX4XB.y # n W yX'.hX8Xu.,X_.n.y q h.<.Y.N.tXB.P.4X",
"S n c.P.@ 3.> 4X2X}.#XY .X}.XX{.NXq 8X8XV 2 C qX<X0.dXaXL T.- 4X8X4Xv.fXaXt aXfXaX~.fX4X4XW ).sX4X# ,XZ.k r m.<.gXXX^ XX2XR.i  X",
"F.G.C.h._.X.|.XX.X| ^.U..X`.+.3X1XOX4X_.'.E _.3X{.S.aXaX).A.@XdXOXoX& 7XdXkXfX7XyXaX8X4X4X|.XX3X2X1XOXaXT.) 3.fX4X|.|.% }.| <.1 ",
"1XB.- = P.W I.*XQ.5 f.i.i OXOX~.hXOX).4XOX4X4X4X- 0.aX3XaX4X1X3XaXaXv.1XOXaXfX- 2X4XfX4X4XjXXX{.~.# z 1X~.p._.XX.X).f.}.  T.+Xw.",
"T.].tXu  XQ _.O } R.f.OX@XXX!.1X2X@Xi 2X@X_.@XN.aXaX<XaX4XhX>X7.aX8XaX8XQ.4XfX@X2XiX= 4X@XOXt sXc =XB ' p hXT.j Y +XK r 4 |.Y.2X",
"W.@X}.R.}.}.T.|.).R.).`.XXOX~.2X4X+X|.g.3XOX{.  aXoX8XaX2XaX,X= oX1X3X1XaX4X<X7Xt iXN @XoXJ.7X3Xa e.{.@._.U.@._.T.e % }..X@ K.,.",
"T.1.~.B._.` _.| S h y T.{ {.8X4XVXj >XT. .5X1XwX3X7XS.1XE sX1X5X@ 3Xe.7 4X`.oX{.V 9 0 XXi ` OX8Xc.OX= .X`.!.v.{.~.`.Y }.T..X X!.",
"'.~.'.M.%.*Xz.Y T.}.@XE.,XT.@XbXdXqXD l E 4X1X@X< oX1X1XOXj.`.oX{.5X`.OX2X_.Z.l `.q.!.}.r.2X6XT.mXOXx T.B.~.d.@Xr k >X%XB 6X^.Y ",
"B. X+.o _., n | ~.i.XX- XX` w h 8 V m Q XX1XOX2XvX.Xq `.8X1XOX`.[.t _.7X} 3.!.XX{.OXB.P.XXXX{.g.4XOX2X_.` % 1.1.U.f.R.3 h u (.^.",
"_.+Xu.  }.g.r.0XP |.,X1X).E.E.p a B o s 1XXX=.1 e I.b.G.oX@XsX[.6 V.# U.'.` 4X4Xs.{.Q.1X# =.3X@X@X~. X,Xz x.J.P.~.f.g.3.n.K.R.#X",
"{ s.Y K W.I.5.4._.|.3.XX).B.,X].` s f _._.XX'.I.W.T.Q g.OXA.@.u.@.g H.0 U.] OXOXhX6X~ |._.Z o Z.U.@X@X,X$ _._.>.>X>Xg.C.n.Y.Y.2X",
"O % | | v.E }.y p |.}.|.k.h.U.{.XX} h.$ _._.u.).R.g.6XZ.1Xo.L dX{.O.S m 2.BX{.{.6X_ C } XXp.T.0Xr.2X.X{.i _._.B.A.0 XXXXa pX1XL ",
"g 5.2.4.p.~.R.2XXXp.f.|.L .XXX@ XXv.].7XW.U.<.W.{.2XxXw e.i T.[ wX>X3.3._.}.p oX` x j E `.|.OXC.!.L.3XZXh._.$ XX8X6X{.OX-X-Xo .X",
"x.G.) m.W.|.~..X|.C.Q.5.1Xe OXv.1XXX&.8X .n.6X|.eXOX8.4X@.T.G.A.v.V.<.4X~.~.}.].| o.y {.Q.|.'.T.r.r._._.4X[ x.>.8X8XMX8 z.S N  X",
"r | Y _ U T.f.Q _.T.h.o.XX.X_.C.1X{.OX@X2XB.OX_.8X{.{.1XB.B.~ ;.z =.+.~.2X.XE _.B.L 2XOXT.OXT.U.R.C.P.E.6X@XI g.XX<X<X8.G $XG 5 ",
"y p.B.u.=.g T.E.i r.~.OX{ _.].'.2 oX3.L .XXXm.3X1X{.N..X;.A.p * r.+.B.{.~.oX{.OXT.U.1XA.`.~.2X4XU.R.T.@X[.wX2X8X*.O.1X-.X n 9 g.",
"W.h.h.f.z.G n.f.< rXXXXX>XR.).6XzX1X].tX`.Y.8XkX!.)..XdXaX>X.X{.8 >X].1X2X:Xc.OX~.6 2X1Xk.oX@X4X1XXX_._.4X4Xv.4X1XuXtX.X.XW.B.p.",
"A.t C.e.H m , _ l 5XU.T.aX{.{.wXc.5XfX@X XfX8X< l ].<XsXzX<X4XOX7 8X1XaXaXc A.8XaXaX2X1Xi 4X4X2X4X`.`.1X1XxXE jX8X6X4XE.*.).w.w.",
"B.- {  .+.5.E.+.1XsXOXyXXXuXOXaXhX8XhXhX  lXhX8XjXdXsXwXsX7X6X3XaXxX>X8X4XaX5X8XOX6XL ;._.fX{.2X@XaX2XwX8X@ hX].wX7X&.>.].R.w.2.",
"<.'.A.OX0XC.W..XXXXXQ.g.OXF.6X8XfXjXhXhXh jX6XfX- 4XmXdXsX8XaXjXv.hX:X8XaX2X<X2X2Xo.8X4X2X1X@X6X@X1X_.1XX.5X{.XX4XyX1X=X&X3 R.R.",
">XB.B.W.sX=.T.+.2XT.8X8XE 8X8XV.cXF.bXhXi.6XsXc.v.-.F.A sXhX8XuXhXfX8Xv.~ aXwX0.fX4X2XyXXX2..X@ 1X|.XXN.uXT.q.C.kX].>X{ S u.h ^.",
"x.B.=._.r ^.B.XX= ].1X6X).[.7X1XmXwXkXnXG.C.F.0.0.l.V.l.dX8X@ 4Xy.hX1XhXaXsX8XgX4XU.4XfX8XP P.,X.X}._.{.kX>X2XXXI.K _.] &.Z.a Y.",
"g.n.:.d u.| B.{.AX_.U @ 1XXX'.OXn.yXr.x :Xv.x 7.&.&.7.#.u.j wX[ aXfXCXfX4XD.BX_.T.W.2.XXnXn.| 5X_.~.T.1X+.].s 6X) q p.&.l.#.z ` ",
"5.e R.>.| < +X`.<X).t 8X, N.{.hX8XXX8X[ G.C 7.l.j ] C C {.[ E %.yX8X8X4X2X2X4X.XaXsXT.`.:X6XvX$X- B.~.4X6X].3.u.[ }.|.OX+.G.T.+.",
"&.4 U.XX}.L .X@X` 2XtXfX6XXXq 6XsXjX|.1Xn.#.f.4.<.4.A m.N.5XyXN.8XaXaXt.4X@XXX4X;X;X. v.uXuXS N 5.U.<.6X6X,X+.`.) }.T.{.yXXX_.T ",
"= XX,X2XhXkX.X1X=.}.yX4XwXS.c.wX8X3X3..XR.I.g.Z.+.+.9.n.{.4XXXC.l.7X1X}.4X@XOXXXl.S , l XXtX^.Y._.:.k.6X6X8Xt i XXW.n.E.B..X X^.",
"_._.].bXaXjX<Xz H.Z.3X<X-.7X9XbXkX6X1X@XQ.4X'.Z.3.x.&.5XXX].4X2XkXOX1XY !.u BX_.q } 4X8X@X|.Y..X`.2XyX].6X5Xs.N.W.XXOXB.Z.2XXX@.",
"T.} l.wXxXOX8X-.Z.`.1XF.9X#.l.l.mX'.1X6 `._.Q.T.:.4.B.# `.OXo.2XG.`.2X+Xw Q.XXR.@X2X&.;.`.U.6XwXc .X].W hX{.A.].7.B.+.R.R.Y XX|.",
"B.`._._ 8XsXkXu.[ V.:Xy.x.C S.a Z eX1X2X.X_.@..XI.Y.P.R.~._.2Xk OX.X@XW s OX|.|. X+X8X4X= B.6X6XG.~.,X{.nXG.m.} 2 T.`.I.2X}.x. X",
"r.X , 1Xv.MX1X0XH.bX< c.] %.7.z.qXqX,XXX`._.} !.R.I.R.J.zX).E ` }.~.} c p.>.|.!.$X6.,X1X).g.s.e >XXX_.XXOX= >.` 5.E 3. .R.|.,X.X",
"k.  %.wXzXC qXf.<X9Xl.z S.9.#.#.A >X{.V.W J.U.lX~.P.^ ~.i 5 kX[ <.P.p.h.R..XU.] +.a k s E.U.K tXz._.R.m.U ).A.k $.` ; { 4.U.>.W.",
"k.T.f.,X4X4XCXwX2 p.3.*.-.] a 0XkXi.T.{./.) T.I.I.}.|.' k ]..   a.}.} XX|.}..Xk.p.2X@.BX2 h.,X1Xr R.B.E.m.+.l z % .XR.2.5  X}./.",
"-.@ U.h.# B.yXyXhX5X{.' D.z > ,X].].k.h.1X}.6.n P.U.]._.h.< & T Y.R.^.kXXXU.U /.p.; tX4Xi |.|.1X6XP.4 |.].h.R.T ^.%X^.W.(.a.R.L.",
"X L.J.1X X& +XW.g.W _.5.e C.W.}.g._.|. X+X/.}.}.J.( R.Y |.@.4 K  X.X!.!.Y.OX}./.@X  @X|.5.1X2XXX,X*.uXXXB.@XwX,XI.4 L.(..X^.K. X"
};
