/* XPM */
static char *result[] = {
/* columns rows colors chars-per-pixel */
"64 64 25 1 ",
"  c #2A2A24",
". c #2B2A24",
"X c #2A2B24",
"o c #2B2B24",
"O c #2A2A25",
"+ c #2B2A25",
"@ c #2A2B25",
"# c #2B2B25",
"$ c #86A0A0",
"% c #87A0A0",
"& c #86A1A0",
"* c #87A1A0",
"= c #86A0A1",
"- c #87A0A1",
"; c #86A1A1",
": c #87A1A1",
"> c #FAF2D4",
", c #FBF2D4",
"< c #FAF3D4",
"1 c #FBF3D4",
"2 c #FAF2D5",
"3 c #FBF2D5",
"4 c #FAF3D5",
"5 c #FBF3D5",
"6 c None",
/* pixels */
"6666666666666666666666666666666666666666666666666666666666666666",
"6666666666666666666666666666666666666666666666666666666666666666",
"6666666666666666666666666666666666666666666666666666666666666666",
"6666666666666666666666666666666666666666666666666666666666666666",
"6666666666666666666666666666666666666666666666666666666666666666",
"6666666666666666666666666666666666666666666666666666666666666666",
"6666666666666666666666666666666666666666666666666666666666666666",
"6666666666666666666666666666666666666666666666666666666666666666",
"6666666666666666666666666666666666666666666666666666666666666666",
"6666666666666666666666666666666666666666666666666666666666666666",
"6666666666666666666666666666666666666666666666666666666666666666",
"6666666666666666666666666666666666666666666666666666666666666666",
"6666666666666666666666666666666666666666666666666666666666666666",
"6666666666666666666,4355,134,1214>51,542351666666666666666666666",
"66666666666666666664,2,4>1,5<>,2<23,43><2>,666666666666666666666",
"666666666666666666654>44<<>2,<54>551<<,2<12666666666666666666666",
"666666666666666666651<541>2<1,<>1><42443>,2666666666666666666666",
"666666666666666<44,5<3,;=$;:$-=&:*-%*-=31,>,,<166666666666666666",
"666666666666666<5>>,<21&;=:==$$&=&-*=-%32,1311<66666666666666666",
"666666666666666443>113,---:==&-*&:=;:;&<<25<54566666666666666666",
"666666666666666<3>,5<35:$$&;$%;$%$&%;-=44>>,><<66666666666666666",
"666666666666666<5>4*&=;:=;;,2>251,1---:-$;:1414O++O6666666666666",
"666666666666666<233&%-=-*$*515<,55>=-%-%%%-><<1O#@+6666666666666",
"6666666666666664155%::-;;:=><4,1345-*$-:==$<411O@. 6666666666666",
"6666666666666661,<5$;$;*:=;3<45><>5*%:%&$*:<3>3O@#@6666666666666",
"66666666666666633,2:=-==%&=,1,<,111:;:*==--1<1>@X# 6666666666666",
"666666666666666,>>2-=-;$;$=14111535:=-=-:--<<>2@+#+6666666666666",
"666666666666666>225::-:-=:%<<125112=:--$-%*5213++O 6666666666666",
"666666666666666>535%---%$$*12<>><55&:==-=--,,25OO#@6666666666666",
"6666666666666665>15%---&%=*<111<,11=*$===%:<514Xoo+6666666666666",
"666666666666666334>-:%=:-*:<5511111=*-;$*:%<,<<Xoo@6666666666666",
"666666666666666,122--:-==%*1<,141<1-;$$--%$,>2< o#.6666666666666",
"6666666666666663211--%--$%:11511111*-;:$$$-,344.##@6666666666666",
"6666666666666665,11%-------25,2,3>1:*&$=*==25<,o.o+6666666666666",
"6666666666666661111----:%--,54>,3,4*-:$:;-*231<+#Xo6666666666666",
"66666666666666611<1---=-*-%2515<125*-%;&==%14,, o#+6666666666666",
"6666666666666661111:-------2><3254<$$=%;:%;<<4,+o X6666666666666",
"666666666666666,1,11<15*&%&==$$*%=:&-$$15551414.+o 6666666666666",
"6666666666666661111,,<5%&=*&$%%;-*=;%$$,1145<<4. +o6666666666666",
"666666666666666,1113,<3$***$;&=$-%;%$==3,14,>31o@ #6666666666666",
"6666666666666661<114,<4$*&%$&-*-:&%;-%=<,13><21oo .6666666666666",
"6666666666666666666<<533242211,,<3,315><<5>@#  Oo++6666666666666",
"6666666666666666666>5>5255211533,2233215<21 +O+ +oO6666666666666",
"6666666666666666666>535<131351<2>25555<,3<5O+ @..+#6666666666666",
"66666666666666666665,>4<2,3235<3<>,324>12,2  @ @o.o6666666666666",
"66666666666666666666666X.OOOoO. X +@ OO+#X +O.@66666666666666666",
"66666666666666666666666o.+ooX #+OOO .O###@. oO@66666666666666666",
"66666666666666666666666#+XoOo+ ..O .X Oo..+O #+66666666666666666",
"66666666666666666666666o +++O.O@.@O#@@ +o +.X  66666666666666666",
"6666666666666666666666666666666666666666666666666666666666666666",
"6666666666666666666666666666666666666666666666666666666666666666",
"6666666666666666666666666666666666666666666666666666666666666666",
"6666666666666666666666666666666666666666666666666666666666666666",
"6666666666666666666666666666666666666666666666666666666666666666",
"6666666666666666666666666666666666666666666666666666666666666666",
"6666666666666666666666666666666666666666666666666666666666666666",
"6666666666666666666666666666666666666666666666666666666666666666",
"6666666666666666666666666666666666666666666666666666666666666666",
"6666666666666666666666666666666666666666666666666666666666666666",
"6666666666666666666666666666666666666666666666666666666666666666",
"6666666666666666666666666666666666666666666666666666666666666666",
"6666666666666666666666666666666666666666666666666666666666666666",
"6666666666666666666666666666666666666666666666666666666666666666",
"6666666666666666666666666666666666666666666666666666666666666666"
};
