/* XPM */
static char *result[] = {
/* columns rows colors chars-per-pixel */
"64 64 25 1 ",
"  c #2A2A24",
". c #2B2A24",
"X c #2A2B24",
"o c #2B2B24",
"O c #2A2A25",
"+ c #2B2A25",
"@ c #2A2B25",
"# c #2B2B25",
"$ c #86A0A0",
"% c #87A0A0",
"& c #86A1A0",
"* c #87A1A0",
"= c #86A0A1",
"- c #87A0A1",
"; c #86A1A1",
": c #87A1A1",
"> c #FAF2D4",
", c #FBF2D4",
"< c #FAF3D4",
"1 c #FBF3D4",
"2 c #FAF2D5",
"3 c #FBF2D5",
"4 c #FAF3D5",
"5 c #FBF3D5",
"6 c None",
/* pixels */
"6666666666666666666666666666666666666666666666666666666666666666",
"6666666666666666666666666666666666666666666666666666666666666666",
"6666666666666666666666666666666666666666666666666666666666666666",
"6666666666666666666666666666666666666666666666666666666666666666",
"6666666666666666666666666666666666666666666666666666666666666666",
"6666666666666666666666666666666666666666666666666666666666666666",
"6666666666666666666666666666666666666666666666666666666666666666",
"6666666666666666666666666666666666666666666666666666666666666666",
"6666666666666666666666666666666666666666666666666666666666666666",
"6666666666666666666666666666666666666666666666666666666666666666",
"6666666666666666666666666666666666666666666666666666666666666666",
"6666666666666666666666666666666666666666666666666666666666666666",
"6666666666666666666666666666666666666666666666666666666666666666",
"666666666666666666666664>>151<244<,1>>16666666666666666666666666",
"66666666666666666666666,5255<5122>1<51<6666666666666666666666666",
"6666666666666666666666654>44>14155,<4>36666666666666666666666666",
"66666666666666666666666512541<51<13,,456666666666666666666666666",
"6666666666666666666,21><,33*%-=*;*=><42X@OO666666666666666666666",
"6666666666666666666<52<1552$&=$-=$$21,1O  O666666666666666666666",
"6666666666666666666>>515513;-:*$=-&2<4,OO+O666666666666666666666",
"6666666666666666666131<5445&$$*-&-;1,2<OO+.666666666666666666666",
"6666666666666666666><5>*-=:*&:*$-&;12,,@@OO666666666666666666666",
"66666666666666666661345::%$::=$*=*&<,,,+@O@666666666666666666666",
"66666666666666666661451::=$-;;;;:=*<11,+OO+666666666666666666666",
"666666666666666666634<3$$*-*$=&;---2,5>+OO+666666666666666666666",
"666666666666666666644<,525,*-=%;;*;1255OO# 666666666666666666666",
"666666666666666666613113151*$=%*%*%>455 O@ 666666666666666666666",
"6666666666666666666,5,2131<;===:-*$<1>1. OO666666666666666666666",
"66666666666666666664>1<1<>1;&:;*=%;2><5oX+#666666666666666666666",
"66666666666666666666666<>51::$&=&=*135> O O666666666666666666666",
"666666666666666666666661>,1:%$&*&&*11,1  OO666666666666666666666",
"66666666666666666666666<4<1=&%;=*%%45<<OO@+666666666666666666666",
"66666666666666666666666,<<>=:&;--;*1>,3OOX 666666666666666666666",
"666666666666666<>,>3442<451%&-;*-*:545<4<,,>14>66666666666666666",
"666666666666666>51>4<>,5,>2$::-%&*%<33455,,55<566666666666666666",
"66666666666666614,1<,51453>&%$$:;:&4352<3>51>2566666666666666666",
"6666666666666661,5121>3,,,5%$%::$&=,,<1<1,5145366666666666666666",
"6666666666666662552;%:-=;*-$;:$:*-&&=-;==$=<2,2@O O6666666666666",
"6666666666666662411$$;$-;=;$==%%$&$--%=%*%-<3>3XO#O6666666666666",
"6666666666666661,25$%=$&-:--$-:=%;--%;-&;*&54<>O@O@6666666666666",
"6666666666666663,52=%%-:%=%*;*:$%=:%:-&%=:-242,O OO6666666666666",
"6666666666666663151141<51115,>5>>4>3><>><5>531>O@ O6666666666666",
"666666666666666><>11,54<<,5<22>224<44535,<>354, OO@6666666666666",
"6666666666666664,3<,11211,>,31>331><51<<11355,<O   6666666666666",
"666666666666666>115>1,<,5,51335<<5424441>5>1,33.OO 6666666666666",
"6666666666666666666@ O@. @OOOOOOOO@OOOO @++@O+@O#@O6666666666666",
"6666666666666666666 OO@+.O+ OOO@. OOOOOO## @+X@@OO 6666666666666",
"6666666666666666666#O+.. O +OOOOOOOOOO+O@+OOO@O@+OO6666666666666",
"6666666666666666666+OOOO OOO@O+O+OXOOO O@O @ O@O++ 6666666666666",
"6666666666666666666666666666666666666666666666666666666666666666",
"6666666666666666666666666666666666666666666666666666666666666666",
"6666666666666666666666666666666666666666666666666666666666666666",
"6666666666666666666666666666666666666666666666666666666666666666",
"6666666666666666666666666666666666666666666666666666666666666666",
"6666666666666666666666666666666666666666666666666666666666666666",
"6666666666666666666666666666666666666666666666666666666666666666",
"6666666666666666666666666666666666666666666666666666666666666666",
"6666666666666666666666666666666666666666666666666666666666666666",
"6666666666666666666666666666666666666666666666666666666666666666",
"6666666666666666666666666666666666666666666666666666666666666666",
"6666666666666666666666666666666666666666666666666666666666666666",
"6666666666666666666666666666666666666666666666666666666666666666",
"6666666666666666666666666666666666666666666666666666666666666666",
"6666666666666666666666666666666666666666666666666666666666666666"
};
