/* XPM */
static char *result[] = {
/* columns rows colors chars-per-pixel */
"64 64 25 1 ",
"  c #2A2A24",
". c #2B2A24",
"X c #2A2B24",
"o c #2B2B24",
"O c #2A2A25",
"+ c #2B2A25",
"@ c #2A2B25",
"# c #2B2B25",
"$ c #86A0A0",
"% c #87A0A0",
"& c #86A1A0",
"* c #87A1A0",
"= c #86A0A1",
"- c #87A0A1",
"; c #86A1A1",
": c #87A1A1",
"> c #FAF2D4",
", c #FBF2D4",
"< c #FAF3D4",
"1 c #FBF3D4",
"2 c #FAF2D5",
"3 c #FBF2D5",
"4 c #FAF3D5",
"5 c #FBF3D5",
"6 c None",
/* pixels */
"6666666666666666666666666666666666666666666666666666666666666666",
"6666666666666666666666666666666666666666666666666666666666666666",
"6666666666666666666666666666666666666666666666666666666666666666",
"6666666666666666666666666666666666666666666666666666666666666666",
"6666666666666666666666666666666666666666666666666666666666666666",
"6666666666666666666666666666666666666666666666666666666666666666",
"6666666666666666666666666666666666666666666666666666666666666666",
"6666666666666666666666666666666666666666666666666666666666666666",
"6666666666666666666666666666666666666666666666666666666666666666",
"6666666666666666666666666666666666666666666666666666666666666666",
"6666666666666666666666666666666666666666666666666666666666666666",
"6666666666666666666666666666666666666666666666666666666666666666",
"6666666666666666666666666666666666666666666666666666666666666666",
"66666666666666666666666,<55>><<3<,,1<5<1211666666666666666666666",
"666666666666666666666664<,1<1<,<31,11145,21666666666666666666666",
"6666666666666666666666655,1<5>4,>>454<11<3>666666666666666666666",
"66666666666666666666666,1>51111,>5132<1,2,1666666666666666666666",
"666666666666666,4<511,55<<5::%*=*&$:*;:,>53<<1<66666666666666666",
"666666666666666<<3>11411<11%:::=%;-=:*-55<1<15566666666666666666",
"66666666666666614,,415,3551-=:&:%=%--$:>51>,,1366666666666666666",
"666666666666666<15,3<5<>311=:==-:=-$%$=<>,4>4,<66666666666666666",
"666666666666666,1,,-*%-::;=155,1<,<-;*=-*=;1>5>OOOO6666666666666",
"6666666666666665155*;---%=$51115511;$&$-$%:1<<>OOO 6666666666666",
"666666666666666<141$=;-%&::,,1151,1;--:&%*%<3<<OOO+6666666666666",
"666666666666666511,--$*&:%*15111<1,=:=:*---,111@OOO6666666666666",
"666666666666666>3,111551515111511,1=;$%=-$$4<52+OOO6666666666666",
"6666666666666661155,<5,,151,51313<1%=:::=*%5<1<OOOO6666666666666",
"6666666666666665,,,11111551111<2111&=:*&&$:<4<1OOOO6666666666666",
"666666666666666,>,<<413<1,<<11115,1:;:-:%&->,31OOOO6666666666666",
"6666666666666666666111311,1*-:=;;:=:-=%1<>1>,,1OOOO6666666666666",
"66666666666666666661,511,11-;=%$:::*;-=<4<15311OOOO6666666666666",
"6666666666666666666>1111,12$%*&=;*%%:=-5451,,3,O+OO6666666666666",
"66666666666666666665,111,>1-;$&-%%**=*&51,1<4,3OOOO6666666666666",
"66666666666666611<13355;&-*&=-*231151<1<11,5213OOOO6666666666666",
"666666666666666,35115<1;;%;;--:11,1<,3153133<5,+@OO6666666666666",
"6666666666666661145411,;*$&---&42<3>3,3551,54,1OOOO6666666666666",
"666666666666666,<1><1>1--%-$%*-<,4254<<151114<3OOOO6666666666666",
"666666666666666253>;*%&-$&-=;*;&;*:%&-=%%:=>443OOOO6666666666666",
"666666666666666<>51=*-;%-;*$--;*:&$:--;$&-:2145 OXO6666666666666",
"6666666666666662343*;=&=--*-;$*=%%==$**%*=;<,2<.@O.6666666666666",
"666666666666666>,1<&-%*=%=&%=:&%:=$:;=%;*:*3<51XX@+6666666666666",
"666666666666666342>4<4351313>,5,34>3>3>,5,2>5<2 oO+6666666666666",
"66666666666666644<24513<<,5111<<,><24154,2>35>>OO #6666666666666",
"666666666666666,3343>441<<3>55><3122112223,5553OOoo6666666666666",
"666666666666666>>1514>4523134>1,3,4553<1115,11>.X .6666666666666",
"6666666666666666666X OX.XX@#O +.X #@  +@ +oO#.X#+O.6666666666666",
"6666666666666666666#.+XO## oOo.Xo.#O. +O#.@@o.O .#.6666666666666",
"6666666666666666666+@X..O@XO#.#++@OooX.#O@#.o #+.#X6666666666666",
"6666666666666666666++@+.+O #X+@O.+X.O@ +@oO@X @++#X6666666666666",
"6666666666666666666666666666666666666666666666666666666666666666",
"6666666666666666666666666666666666666666666666666666666666666666",
"6666666666666666666666666666666666666666666666666666666666666666",
"6666666666666666666666666666666666666666666666666666666666666666",
"6666666666666666666666666666666666666666666666666666666666666666",
"6666666666666666666666666666666666666666666666666666666666666666",
"6666666666666666666666666666666666666666666666666666666666666666",
"6666666666666666666666666666666666666666666666666666666666666666",
"6666666666666666666666666666666666666666666666666666666666666666",
"6666666666666666666666666666666666666666666666666666666666666666",
"6666666666666666666666666666666666666666666666666666666666666666",
"6666666666666666666666666666666666666666666666666666666666666666",
"6666666666666666666666666666666666666666666666666666666666666666",
"6666666666666666666666666666666666666666666666666666666666666666",
"6666666666666666666666666666666666666666666666666666666666666666"
};
