/* XPM */
static char *result[] = {
/* columns rows colors chars-per-pixel */
"64 64 25 1 ",
"  c #2A2A24",
". c #2B2A24",
"X c #2A2B24",
"o c #2B2B24",
"O c #2A2A25",
"+ c #2B2A25",
"@ c #2A2B25",
"# c #2B2B25",
"$ c #86A0A0",
"% c #87A0A0",
"& c #86A1A0",
"* c #87A1A0",
"= c #86A0A1",
"- c #87A0A1",
"; c #86A1A1",
": c #87A1A1",
"> c #FAF2D4",
", c #FBF2D4",
"< c #FAF3D4",
"1 c #FBF3D4",
"2 c #FAF2D5",
"3 c #FBF2D5",
"4 c #FAF3D5",
"5 c #FBF3D5",
"6 c None",
/* pixels */
"6666666666666666666666666666666666666666666666666666666666666666",
"6666666666666666666666666666666666666666666666666666666666666666",
"6666666666666666666666666666666666666666666666666666666666666666",
"6666666666666666666666666666666666666666666666666666666666666666",
"6666666666666666666666666666666666666666666666666666666666666666",
"6666666666666666666666666666666666666666666666666666666666666666",
"6666666666666666666666666666666666666666666666666666666666666666",
"6666666666666666666666666666666666666666666666666666666666666666",
"6666666666666666666666666666666666666666666666666666666666666666",
"6666666666666666666666666666666666666666666666666666666666666666",
"6666666666666666666666666666666666666666666666666666666666666666",
"6666666666666666666666666666666666666666666666666666666666666666",
"6666666666666666666666666666666666666666666666666666666666666666",
"66666666666666666666666,,5<414314,<<>5<351,666666666666666666666",
"6666666666666666666666641<>41,14145413,>553666666666666666666666",
"66666666666666666666666,>,1>44312<31<,>>>14666666666666666666666",
"66666666666666666666666>1,3,<3>414513<<,4<1666666666666666666666",
"66666666666666615213342-%==;=%:-;==---:511>352166666666666666666",
"666666666666666>>,<42,<-=;-%--&-;-*-%:=1511315466666666666666666",
"666666666666666>2,11,34-$:;=*:%%---%==*1111,>3466666666666666666",
"666666666666666>42,1<34-==&=&%=$=$;=;%-<41,1,<166666666666666666",
"6666666666666661<><:%=:31,22>5>,115=*-*:=:%1115X .X6666666666666",
"666666666666666<41,-%--<1<,133,51,<-=%:$;;*1111o.#X6666666666666",
"6666666666666665124-=*-3>51<>411422-:--:&=*5<11o@X#6666666666666",
"66666666666666633<,;-&$<1215341>,4<-%%;*-:;213<oXO@6666666666666",
"66666666666666631<1,1424211$---=*%%-=-%51<11,,,+.@ 6666666666666",
"666666666666666>2>214,4>23,&$-&:*;%-%-$11111111+O.o6666666666666",
"6666666666666662>,3,3,>4542-=-%:--$-::-4,1<<2,3#@O#6666666666666",
"66666666666666631,352>5,45>=-:-%&*;*--%1>1131<5+o.+6666666666666",
"6666666666666661111,,1,421511>131,1-=--=:--4,<1+#Oo6666666666666",
"666666666666666,11<1<2<,2154<4<14>4---=---->12>@XX 6666666666666",
"6666666666666661<113,,1>43242311534--=;:---3<2<Oo..6666666666666",
"666666666666666111<3<135123>12452><:=&%---=,3>3.+OO6666666666666",
"66666666666666632,>-$&=:*;*1>>><1><:-%-;-%=3115XOO#6666666666666",
"6666666666666661<,<:-%-:-%%112,>351*--$:;-;1151.OX 6666666666666",
"666666666666666,,23;&*%;--%44<51,<3%=-%--;:>111@OOO6666666666666",
"6666666666666665512--:--:--4>44535<-=-==%;&1111X@O 6666666666666",
"6666666666666662,<31<11=%*%-:=$=--::%-:11151,11o+O@6666666666666",
"666666666666666,<11<<51-=$=$:%$:%***%%$11111145.  o6666666666666",
"666666666666666,,53<1<1-*&;;*%---::-$=;11,<4445+#  6666666666666",
"666666666666666555311<3-&*--=-*::===---1511,341  ++6666666666666",
"66666666666666666664,>,515<1,1,,1515>112<<,OOOOO.+o6666666666666",
"66666666666666666665,<1,1>51131>1,2<<3<51,1O@OO X +6666666666666",
"666666666666666666615211<1<4114111<3>211,<5OOOOO##O6666666666666",
"6666666666666666666<1>>,3151151551<,3<11<5<O+OOO@ .6666666666666",
"66666666666666666666666o+@@o#X@oo.#O#@.o@X.#+++66666666666666666",
"66666666666666666666666o+@X+@..X+.@. @##+X ##.@66666666666666666",
"66666666666666666666666+..+@o.++..X .oO.#.o.##+66666666666666666",
"66666666666666666666666oO.@+@O+ .O O@#X+@...X .66666666666666666",
"6666666666666666666666666666666666666666666666666666666666666666",
"6666666666666666666666666666666666666666666666666666666666666666",
"6666666666666666666666666666666666666666666666666666666666666666",
"6666666666666666666666666666666666666666666666666666666666666666",
"6666666666666666666666666666666666666666666666666666666666666666",
"6666666666666666666666666666666666666666666666666666666666666666",
"6666666666666666666666666666666666666666666666666666666666666666",
"6666666666666666666666666666666666666666666666666666666666666666",
"6666666666666666666666666666666666666666666666666666666666666666",
"6666666666666666666666666666666666666666666666666666666666666666",
"6666666666666666666666666666666666666666666666666666666666666666",
"6666666666666666666666666666666666666666666666666666666666666666",
"6666666666666666666666666666666666666666666666666666666666666666",
"6666666666666666666666666666666666666666666666666666666666666666",
"6666666666666666666666666666666666666666666666666666666666666666"
};
