/* XPM */
static char *result[] = {
/* columns rows colors chars-per-pixel */
"64 64 25 1 ",
"  c #2A2A24",
". c #2B2A24",
"X c #2A2B24",
"o c #2B2B24",
"O c #2A2A25",
"+ c #2B2A25",
"@ c #2A2B25",
"# c #2B2B25",
"$ c #86A0A0",
"% c #87A0A0",
"& c #86A1A0",
"* c #87A1A0",
"= c #86A0A1",
"- c #87A0A1",
"; c #86A1A1",
": c #87A1A1",
"> c #FAF2D4",
", c #FBF2D4",
"< c #FAF3D4",
"1 c #FBF3D4",
"2 c #FAF2D5",
"3 c #FBF2D5",
"4 c #FAF3D5",
"5 c #FBF3D5",
"6 c None",
/* pixels */
"6666666666666666666666666666666666666666666666666666666666666666",
"6666666666666666666666666666666666666666666666666666666666666666",
"6666666666666666666666666666666666666666666666666666666666666666",
"6666666666666666666666666666666666666666666666666666666666666666",
"6666666666666666666666666666666666666666666666666666666666666666",
"6666666666666666666666666666666666666666666666666666666666666666",
"6666666666666666666666666666666666666666666666666666666666666666",
"6666666666666666666666666666666666666666666666666666666666666666",
"6666666666666666666666666666666666666666666666666666666666666666",
"6666666666666666666666666666666666666666666666666666666666666666",
"6666666666666666666666666666666666666666666666666666666666666666",
"6666666666666666666666666666666666666666666666666666666666666666",
"6666666666666666666666666666666666666666666666666666666666666666",
"66666666666666611,11115,>51544,<51<<234,135555166666666666666666",
"66666666666666611151,1531,<25>11,432<>1><5<115566666666666666666",
"666666666666666112,11,132<134>2<2<,3>22,111115166666666666666666",
"6666666666666665<1511<<<<53>235<11412<4,<<31<1566666666666666666",
"6666666666666664<35;--;*==-1,5,1<1>*%-&%*=-133166666666666666666",
"6666666666666661,23--=--:=:>5,41<4,%-:%--=-5,5,66666666666666666",
"6666666666666661<43=%--&*%%<53<,551$$-=--:&,>5366666666666666666",
"666666666666666>425:%=%-=-%4,<14<>2%::----=5>1166666666666666666",
"666666666666666,<1<---::--$4>1>>133;$$-:-:$5<5<o #X6666666666666",
"666666666666666,5<>;%--;$-:,43344>>=*=%;*%;53<,+..X6666666666666",
"6666666666666661322::=--;-*>2114<32;-%=%=%%<551X#+#6666666666666",
"666666666666666425,%:---$-*1,12<,<<-&$=:;-=>53<O+ +6666666666666",
"66666666666666651<,:-*:-%-=4<,>114,%-$-%$::3<,>X.+.6666666666666",
"666666666666666,>><$=-;-=:=4,13<151=;-$:=:;1>,5#O o6666666666666",
"666666666666666<2>5--%==-=$1234><5>-:=:%;:%><23+#.O6666666666666",
"6666666666666664133;---=--=432<<4<>-=%--=%%5<2>.#.#6666666666666",
"666666666666666255>1544$:-$--%$;-----%=%-;&>34>#.@X6666666666666",
"6666666666666665<5<5,><$--&=::=::--**=-;=-$5>31 @oX6666666666666",
"666666666666666541>41>4-%%--%----=--%-%*$:;<>2>OXOO6666666666666",
"66666666666666641143412--%%-:-=:-:%--%--%:-<5>2oO  6666666666666",
"66666666666666615115<4141<55><,>35>:;%=--%:,<<5o@OX6666666666666",
"66666666666666611155>>2,3431411>3,1---;=--=5>5,+ .+6666666666666",
"66666666666666611513,,54114<44<14<4----=$:->513.#@.6666666666666",
"6666666666666661151<,5<,344222<32,4=-%-:=%*4,3,X+.o6666666666666",
"66666666666666666666666O+OOO O+>,,1--%--**&>,3,.+++6666666666666",
"66666666666666666666666 OOOOO O45<<%;**=$:-1255@X@#6666666666666",
"66666666666666666666666+O OOO  1><4%;$$-%=-4,41.+  6666666666666",
"66666666666666666666666OOOOOO@O>>14:-%:*-;=,325.XO+6666666666666",
"6666666666666666666666666666666<<113311>22<<52,.+##6666666666666",
"6666666666666666666666666666666>54<1,3113,55555#o#+6666666666666",
"6666666666666666666666666666666<,<41524<>,31<15 @.O6666666666666",
"6666666666666666666666666666666224<33<51<,4,11<o#O.6666666666666",
"66666666666666666666666666666666666.o .O#+o O+  #@#6666666666666",
"66666666666666666666666666666666666. @...oO.o.@@@@O6666666666666",
"66666666666666666666666666666666666o XO + X+ o+ + +6666666666666",
"66666666666666666666666666666666666X #Xo#oOo  .oXO.6666666666666",
"6666666666666666666666666666666666666666666666666666666666666666",
"6666666666666666666666666666666666666666666666666666666666666666",
"6666666666666666666666666666666666666666666666666666666666666666",
"6666666666666666666666666666666666666666666666666666666666666666",
"6666666666666666666666666666666666666666666666666666666666666666",
"6666666666666666666666666666666666666666666666666666666666666666",
"6666666666666666666666666666666666666666666666666666666666666666",
"6666666666666666666666666666666666666666666666666666666666666666",
"6666666666666666666666666666666666666666666666666666666666666666",
"6666666666666666666666666666666666666666666666666666666666666666",
"6666666666666666666666666666666666666666666666666666666666666666",
"6666666666666666666666666666666666666666666666666666666666666666",
"6666666666666666666666666666666666666666666666666666666666666666",
"6666666666666666666666666666666666666666666666666666666666666666",
"6666666666666666666666666666666666666666666666666666666666666666"
};
