/* XPM */
static char *result[] = {
/* columns rows colors chars-per-pixel */
"64 64 25 1 ",
"  c #2A2A24",
". c #2B2A24",
"X c #2A2B24",
"o c #2B2B24",
"O c #2A2A25",
"+ c #2B2A25",
"@ c #2A2B25",
"# c #2B2B25",
"$ c #86A0A0",
"% c #87A0A0",
"& c #86A1A0",
"* c #87A1A0",
"= c #86A0A1",
"- c #87A0A1",
"; c #86A1A1",
": c #87A1A1",
"> c #FAF2D4",
", c #FBF2D4",
"< c #FAF3D4",
"1 c #FBF3D4",
"2 c #FAF2D5",
"3 c #FBF2D5",
"4 c #FAF3D5",
"5 c #FBF3D5",
"6 c None",
/* pixels */
"6666666666666666666666666666666666666666666666666666666666666666",
"6666666666666666666666666666666666666666666666666666666666666666",
"6666666666666666666666666666666666666666666666666666666666666666",
"6666666666666666666666666666666666666666666666666666666666666666",
"6666666666666666666666666666666666666666666666666666666666666666",
"6666666666666666666666666666666666666666666666666666666666666666",
"6666666666666666666666666666666666666666666666666666666666666666",
"6666666666666666666666666666666666666666666666666666666666666666",
"6666666666666666666666666666666666666666666666666666666666666666",
"6666666666666666666666666666666666666666666666666666666666666666",
"6666666666666666666666666666666666666666666666666666666666666666",
"6666666666666666666666666666666666666666666666666666666666666666",
"6666666666666666666666666666666666666666666666666666666666666666",
"6666666666666661111,>511<5<2><3145<415<>5,,666666666666666666666",
"66666666666666613115,,541<>51,14,4541,3<52>666666666666666666666",
"666666666666666511,11<5,>><2,<2,,431>>>><54666666666666666666666",
"666666666666666,1511111>1,5,1>>2325<2<<,2<1666666666666666666666",
"6666666666666661435--%:;%;=;=*:::$=-*-:3142OOOO66666666666666666",
"666666666666666>3,<---%=;;-$:-;&=$%-:-=15,1OOOO66666666666666666",
"6666666666666664>31-----=-:=%;-*%-=%&;*3111OOO@66666666666666666",
"666666666666666<223--%--=$*$&%=$$$==&%;<4<<OOOO66666666666666666",
"666666666666666<<>4:%;&-:--3,22,<141,51<111@OOO66666666666666666",
"666666666666666<45,$-%=-%--533151,4,13<11<,O.OO66666666666666666",
"666666666666666<12<%:&-;:*%>,4,1443,,,,<,15OOOO66666666666666666",
"66666666666666653<1&-&$-:*-5>45,,211<111<,5OOO+66666666666666666",
"666666666666666,1<,-:-%-%%-$%:-*:*--:=%11<1<,3266666666666666666",
"6666666666666663222:---:---&$-&:&;%%=--1<135<<<66666666666666666",
"66666666666666612,4-:------%%;%--:==::-415><23366666666666666666",
"6666666666666663,,2-::----%%:&-%&$=:-*=1>1134<566666666666666666",
"6666666666666661,11>21>521551<1,1>4==%-$;-:53<5+@ #6666666666666",
"666666666666666,21<1<22335551>455>5=--;-:;-<<2>@XX 6666666666666",
"666666666666666,<2,31,314,4433,153<:--;:-%$3<2<+#..6666666666666",
"666666666666666,11>51115,55><454241:-*$-%;&,3>3++O@6666666666666",
"66666666666666624,<%=&=:*&-12<>1,<1&%*%;$%%5151XOo#6666666666666",
"666666666666666,,,1;%&=--$-,12,,331*-;&:;:;51,<.+oo6666666666666",
"666666666666666,<23;$*$:-=$4515,><5%=%%--;*>11,XOOO6666666666666",
"666666666666666,>13-----:-&4>42531<-=--%%&&<<<1XX  6666666666666",
"6666666666666664,43,<11;$**-=$$$--;&%-$1111131>++ @6666666666666",
"6666666666666665,1<>455-=-=;:%%*%%&=$$$>1115>45.@  6666666666666",
"666666666666666<,5341<<=**==&$-=--&-%==<,154444.+ X6666666666666",
"6666666666666665153<1<4-$*--$**%:;$--%-<<152<4<XX+@6666666666666",
"66666666666666666664>,35<541,121,515>1544<,+.O#O..X6666666666666",
"666666666666666666652>,,5421<,>3,32><,14<>5+O+O oo+6666666666666",
"666666666666666666615411<3,51,4<,14254,>2<3OoO +##O6666666666666",
"6666666666666666666141<1212,55545,<3,<1,45> .@ @X.o6666666666666",
"66666666666666666666666o#@O oX#oo.oO##+.#X.##+#66666666666666666",
"66666666666666666666666.+#X+o.o +O@O O@OOX+oo.#66666666666666666",
"66666666666666666666666# #. o+O#.+o .XO+X.o+.#+66666666666666666",
"66666666666666666666666+ +@ O.O+.  O@@X.# . XX.66666666666666666",
"6666666666666666666666666666666666666666666666666666666666666666",
"6666666666666666666666666666666666666666666666666666666666666666",
"6666666666666666666666666666666666666666666666666666666666666666",
"6666666666666666666666666666666666666666666666666666666666666666",
"6666666666666666666666666666666666666666666666666666666666666666",
"6666666666666666666666666666666666666666666666666666666666666666",
"6666666666666666666666666666666666666666666666666666666666666666",
"6666666666666666666666666666666666666666666666666666666666666666",
"6666666666666666666666666666666666666666666666666666666666666666",
"6666666666666666666666666666666666666666666666666666666666666666",
"6666666666666666666666666666666666666666666666666666666666666666",
"6666666666666666666666666666666666666666666666666666666666666666",
"6666666666666666666666666666666666666666666666666666666666666666",
"6666666666666666666666666666666666666666666666666666666666666666",
"6666666666666666666666666666666666666666666666666666666666666666"
};
