/* XPM */
static char *result[] = {
/* columns rows colors chars-per-pixel */
"64 64 25 1 ",
"  c #2A2A24",
". c #2B2A24",
"X c #2A2B24",
"o c #2B2B24",
"O c #2A2A25",
"+ c #2B2A25",
"@ c #2A2B25",
"# c #2B2B25",
"$ c #86A0A0",
"% c #87A0A0",
"& c #86A1A0",
"* c #87A1A0",
"= c #86A0A1",
"- c #87A0A1",
"; c #86A1A1",
": c #87A1A1",
"> c #FAF2D4",
", c #FBF2D4",
"< c #FAF3D4",
"1 c #FBF3D4",
"2 c #FAF2D5",
"3 c #FBF2D5",
"4 c #FAF3D5",
"5 c #FBF3D5",
"6 c None",
/* pixels */
"6666666666666666666666666666666666666666666666666666666666666666",
"6666666666666666666666666666666666666666666666666666666666666666",
"6666666666666666666666666666666666666666666666666666666666666666",
"6666666666666666666666666666666666666666666666666666666666666666",
"6666666666666666666666666666666666666666666666666666666666666666",
"6666666666666666666666666666666666666666666666666666666666666666",
"6666666666666666666666666666666666666666666666666666666666666666",
"6666666666666666666666666666666666666666666666666666666666666666",
"6666666666666666666666666666666666666666666666666666666666666666",
"6666666666666666666666666666666666666666666666666666666666666666",
"6666666666666666666666666666666666666666666666666666666666666666",
"6666666666666666666666666666666666666666666666666666666666666666",
"6666666666666666666666666666666666666666666666666666666666666666",
"6666666666666666666124,1<542,<3151<<,5<>5,,666666666666666666666",
"66666666666666666663,>141<251,14,>25133152,666666666666666666666",
"666666666666666666611443><>25<5,,431<>3><15666666666666666666666",
"66666666666666666661115>1,5152>2,21<2<<,2><666666666666666666666",
"66666666666666615335111--;===*::*$=-*--31<2OOOO66666666666666666",
"666666666666666>3,<1111=;;%$=-$&;$---:=15,1OO@O66666666666666666",
"6666666666666664<3111,1---:=*;%**-=$;:*141,.XOO66666666666666666",
"66666666666666642>,<,11-=$$$&%=&$$=-$%;44><OOO 66666666666666666",
"666666666666666<<>4:%=&::=-3322,1,<1,5,,<11@OO 66666666666666666",
"666666666666666<453$-==-%--333<51,4,33<11>,O.OO66666666666666666",
"6666666666666662,3<%:&-=*:%>,4,1523,,1,<,15OOO+66666666666666666",
"666666666666666,511&-&&--%-5>,5,,311111><,5O#OO66666666666666666",
"6666666666666665,><-:--:-%-&%:-*:*--:=%111<<,3,66666666666666666",
"66666666666666644>2&--::--=&$-*;&;%%==:<4135<<<66666666666666666",
"6666666666666661335-:------%%;%--:$=-:-415>1>3366666666666666666",
"6666666666666663,,2-:--%-:%%:;-$;$=*-*=1,1<31<566666666666666666",
"6666666666666661,11------%-55>,11<>==$%$:-:2313+# #6666666666666",
"666666666666666,41<--------415245>5=:-;-:;-4<<>@oX 6666666666666",
"6666666666666661<33:-------423,,53<::-::-$=,><<.#o.6666666666666",
"666666666666666,1<3=-----=->54542>1:-&$-%=&>,23..@@6666666666666",
"6666666666666662<3>%%;=%*&-15<>,1><&%*%=;%-5155oOo#6666666666666",
"666666666666666,>,1;%$=-$*%,15,>35<*-;$:;:;511<.+oo6666666666666",
"666666666666666,>23&$*$:-=$45<51,<3%%*%-&;%21,,XO#O6666666666666",
"6666666666666661>12:--:-:-&4>525,<>-=--*%&&44<1oX  6666666666666",
"6666666666666662,4,1<<1&$**=%*%&-::&%=$1114131>++.@6666666666666",
"6666666666666665>1<>455-=$=::%%*$%:;$&-<1,,<>55.@O 6666666666666",
"66666666666666611434,<1-:*$-&$-=:-&-*=;2,15>444.+ X6666666666666",
"6666666666666665153<11<-$&*-$***::$--%;<5,5,451o@O@6666666666666",
"66666666666666666664>135<5411141,515>15243,+OO+Oo.o6666666666666",
"66666666666666666665,>,,42214,,3,32><,15<>1O ++ +#o6666666666666",
"666666666666666666615451<,<5<,4<134255>22<3 .O Oo#@6666666666666",
"666666666666666666644>2,212,33155,422<51<12O+@ @o.o6666666666666",
"66666666666666666666666o#@O .X@oo.o@#+...X.##+#66666666666666666",
"66666666666666666666666..#X+o.oX+O@OOO#+OX+o..@66666666666666666",
"66666666666666666666666#.#+X#+ #+Oo ..O+o o+o#+66666666666666666",
"66666666666666666666666oO.@ O.OOO OO@@X.# .  X.66666666666666666",
"6666666666666666666666666666666666666666666666666666666666666666",
"6666666666666666666666666666666666666666666666666666666666666666",
"6666666666666666666666666666666666666666666666666666666666666666",
"6666666666666666666666666666666666666666666666666666666666666666",
"6666666666666666666666666666666666666666666666666666666666666666",
"6666666666666666666666666666666666666666666666666666666666666666",
"6666666666666666666666666666666666666666666666666666666666666666",
"6666666666666666666666666666666666666666666666666666666666666666",
"6666666666666666666666666666666666666666666666666666666666666666",
"6666666666666666666666666666666666666666666666666666666666666666",
"6666666666666666666666666666666666666666666666666666666666666666",
"6666666666666666666666666666666666666666666666666666666666666666",
"6666666666666666666666666666666666666666666666666666666666666666",
"6666666666666666666666666666666666666666666666666666666666666666",
"6666666666666666666666666666666666666666666666666666666666666666"
};
