/* XPM */
static char *result[] = {
/* columns rows colors chars-per-pixel */
"64 64 25 1 ",
"  c #2A2A24",
". c #2B2A24",
"X c #2A2B24",
"o c #2B2B24",
"O c #2A2A25",
"+ c #2B2A25",
"@ c #2A2B25",
"# c #2B2B25",
"$ c #86A0A0",
"% c #87A0A0",
"& c #86A1A0",
"* c #87A1A0",
"= c #86A0A1",
"- c #87A0A1",
"; c #86A1A1",
": c #87A1A1",
"> c #FAF2D4",
", c #FBF2D4",
"< c #FAF3D4",
"1 c #FBF3D4",
"2 c #FAF2D5",
"3 c #FBF2D5",
"4 c #FAF3D5",
"5 c #FBF3D5",
"6 c None",
/* pixels */
"6666666666666666666666666666666666666666666666666666666666666666",
"6666666666666666666666666666666666666666666666666666666666666666",
"6666666666666666666666666666666666666666666666666666666666666666",
"6666666666666666666666666666666666666666666666666666666666666666",
"6666666666666666666666666666666666666666666666666666666666666666",
"6666666666666666666666666666666666666666666666666666666666666666",
"6666666666666666666666666666666666666666666666666666666666666666",
"6666666666666666666666666666666666666666666666666666666666666666",
"6666666666666666666666666666666666666666666666666666666666666666",
"6666666666666666666666666666666666666666666666666666666666666666",
"6666666666666666666666666666666666666666666666666666666666666666",
"6666666666666666666666666666666666666666666666666666666666666666",
"6666666666666666666666666666666666666666666666666666666666666666",
"6666666666666665<<2,4<<4132213>555223245315351,66666666666666666",
"666666666666666<31153214,11253,4>322<55<,1,<11166666666666666666",
"666666666666666144<2,,<44,,45<<3,12>><52<21<5,,66666666666666666",
"666666666666666<4,<>,531224<,51,,2>>2<,2,1>1<1,66666666666666666",
"666666666666666<2<1&&%-=&&*;=&&==&;%;$;:-;=>334 O+O6666666666666",
"66666666666666634<>-===$$-=*$&;*=$%*&-$$-%-4255XOO 6666666666666",
"6666666666666664514-$=%*-%*;$;;*$&==;;&$%*:>5>>+OOO6666666666666",
"666666666666666<4,2;;%:$:%::;-;;:%*;-:-$$;->25>O OO6666666666666",
"666666666666666<5<55,3,1<<44<2,5,45*:*;*===>215@OO@6666666666666",
"666666666666666125511<1,11,<1<3,442:-*&*&;:<534OOOO6666666666666",
"6666666666666661>>3,>><<<4>4,41,>34$*=&--$=44,1O+OO6666666666666",
"6666666666666661325<441,15235423<,3%$%-;=--1513OOOO6666666666666",
"6666666666666666666666621<54>>>&--$-%&;2<5444><OOOO6666666666666",
"66666666666666666666666<<11122<::=$--$:,<1342>2O+O+6666666666666",
"66666666666666666666666,151<412-$-*=-&:154,43<5OOOO6666666666666",
"66666666666666666666666,553>5<5:=:$$;$;533<,<2>OOOO6666666666666",
"66666666666666666666666,3,>$%*$--;-,1,,152<.+OO+OOO6666666666666",
"666666666666666666666661511:==$--=;52<15511OO OO O 6666666666666",
"66666666666666666666666,411-%*-&$;=3<,>1,4,+OOO+O@+6666666666666",
"6666666666666666666666651,5*-%-=$$-1>>4<15,@OOO+++O6666666666666",
"666666666666666666666661,1<$=$::=-&>115OO.@O@OO66666666666666666",
"66666666666666666666666<554%:&$-;%=<133OOOOOOOO66666666666666666",
"66666666666666666666666>5>,;-=---*=4<11OO@OO#+O66666666666666666",
"666666666666666666666665,,<--=:$&%:,>>,O@OOXOO 66666666666666666",
"666666666666666666666661<><;=$&;--$1<51@OOO666666666666666666666",
"66666666666666666666666554<:=$*%*%-4551OO+O666666666666666666666",
"666666666666666666666661511$=;;&;%%3<5,O+OO666666666666666666666",
"666666666666666666666664113:=**===-1,3,OOOO666666666666666666666",
"66666666666666666666666<3><,5135>32,<14OO O666666666666666666666",
"66666666666666666666666,44332233,,,33,5O.O+666666666666666666666",
"66666666666666666666666<>,<1112>2253433 O @666666666666666666666",
"66666666666666666666666<>451541,<<4>>1,O#@O666666666666666666666",
"666666666666666666666666666@@O. O+@O#+O@O+o666666666666666666666",
"666666666666666666666666666OOO@oO OOO.@OOOO666666666666666666666",
"666666666666666666666666666+#Oo@O+@+OOO@O@ 666666666666666666666",
"666666666666666666666666666OOOOO + @O@+OO# 666666666666666666666",
"6666666666666666666666666666666666666666666666666666666666666666",
"6666666666666666666666666666666666666666666666666666666666666666",
"6666666666666666666666666666666666666666666666666666666666666666",
"6666666666666666666666666666666666666666666666666666666666666666",
"6666666666666666666666666666666666666666666666666666666666666666",
"6666666666666666666666666666666666666666666666666666666666666666",
"6666666666666666666666666666666666666666666666666666666666666666",
"6666666666666666666666666666666666666666666666666666666666666666",
"6666666666666666666666666666666666666666666666666666666666666666",
"6666666666666666666666666666666666666666666666666666666666666666",
"6666666666666666666666666666666666666666666666666666666666666666",
"6666666666666666666666666666666666666666666666666666666666666666",
"6666666666666666666666666666666666666666666666666666666666666666",
"6666666666666666666666666666666666666666666666666666666666666666",
"6666666666666666666666666666666666666666666666666666666666666666"
};
