/* XPM */
static char *result[] = {
/* columns rows colors chars-per-pixel */
"64 64 25 1 ",
"  c #2A2A24",
". c #2B2A24",
"X c #2A2B24",
"o c #2B2B24",
"O c #2A2A25",
"+ c #2B2A25",
"@ c #2A2B25",
"# c #2B2B25",
"$ c #86A0A0",
"% c #87A0A0",
"& c #86A1A0",
"* c #87A1A0",
"= c #86A0A1",
"- c #87A0A1",
"; c #86A1A1",
": c #87A1A1",
"> c #FAF2D4",
", c #FBF2D4",
"< c #FAF3D4",
"1 c #FBF3D4",
"2 c #FAF2D5",
"3 c #FBF2D5",
"4 c #FAF3D5",
"5 c #FBF3D5",
"6 c None",
/* pixels */
"6666666666666666666666666666666666666666666666666666666666666666",
"6666666666666666666666666666666666666666666666666666666666666666",
"6666666666666666666666666666666666666666666666666666666666666666",
"6666666666666666666666666666666666666666666666666666666666666666",
"6666666666666666666666666666666666666666666666666666666666666666",
"6666666666666666666666666666666666666666666666666666666666666666",
"6666666666666666666666666666666666666666666666666666666666666666",
"6666666666666666666666666666666666666666666666666666666666666666",
"6666666666666666666666666666666666666666666666666666666666666666",
"6666666666666666666666666666666666666666666666666666666666666666",
"6666666666666666666666666666666666666666666666666666666666666666",
"6666666666666666666666666666666666666666666666666666666666666666",
"6666666666666666666666666666666666666666666666666666666666666666",
"6666666666666666666,4411<5,21<31425<154252,666666666666666666666",
"66666666666666666665<2,41<<5>>,4<24>432<3>,666666666666666666666",
"666666666666666666651>43<<>35453>131<>22<52666666666666666666666",
"666666666666666666615,5<1>513>>2,><42<<,>34666666666666666666666",
"66666666666666614251111==:=;=*-&:%=-%-=3112151566666666666666666",
"666666666666666>3,<1<41=;==$=--&=&--=:%33,,111<66666666666666666",
"6666666666666665>31<121-=-:=*;-*$*:--:%511,<15166666666666666666",
"66666666666666642>>5131:;%$%&-=$%;=-$%;<4><1,1166666666666666666",
"66666666666666641<4:%=&*;&-3323,1,<------=-5111OOOO6666666666666",
"666666666666666<452$-==-%-%533<153>-==--:-%>1<1OOOO6666666666666",
"6666666666666664,51%:&=:::%>>4,<4>3----:---5<11OOO+6666666666666",
"6666666666666661315;%&&-:$*5<45,>25----%---1115OO@O6666666666666",
"66666666666666631><1111:%%=&%*-*%*--;=%11<<415>@OO 6666666666666",
"6666666666666662>,21111--:=&$-:$&&%-$--4<5,4<>4OOOO6666666666666",
"666666666666666,335,151--%-$%;*=-;$=::=415>5>33OOOO6666666666666",
"66666666666666633,35,11*-=-%:;-*$$=*%&$1,5<3123OOOO6666666666666",
"6666666666666661>11=-%--%%;3<,511<1=$$&-=::2215.#X#6666666666666",
"66666666666666623<<=:----:%4<2525,5=*-;;:;:<<4>@X@ 6666666666666",
"666666666666666,,3,=----=-->23<<53<;:%=:-%$3>4>.+..6666666666666",
"6666666666666663>13-%--:%-:>15552,1:-&:%%=*2322+@@@6666666666666",
"6666666666666662513$$*=%;$%551>>1,<$%&$$=*-5<53X@.@6666666666666",
"6666666666666661><,-=$=:-&%>15>>3,<:-;=:;-&511>.+oo6666666666666",
"666666666666666<523;$%$;-=$45<51,<5%-*%;==%2>,3o@X 6666666666666",
"666666666666666,<1<-=-%%:-&2>1253<<-==%*&*;4<<5o. O6666666666666",
"6666666666666662>5,1<<3;&%*=%&%&%=:&==$1114151>.O.@6666666666666",
"6666666666666663<,11445-$$$=;%%&%%-;$$=1<1>1><5.+..6666666666666",
"66666666666666613134><,=**-%&$-=:%;%$;=3,54>444@@ O6666666666666",
"6666666666666665153<1,4-$*:-$:*-::$;-%=<414>441.X X6666666666666",
"66666666666666666664,131214111>1,215<13213>## + o#.6666666666666",
"66666666666666666665,,134431<3,3<24,<>13<>1 O+# +#.6666666666666",
"6666666666666666666<5311>3554,<<1>4455>4313O+OO+o#@6666666666666",
"666666666666666666652>4>214,32151,<2<131<12O.@O@o.o6666666666666",
"66666666666666666666666##@+.ooX X.OO#O+.+X.@#+#66666666666666666",
"66666666666666666666666.+oX.o.o@+OO   #++X...@#66666666666666666",
"66666666666666666666666###+Xoo #.Oo.ooO#o.o+.#.66666666666666666",
"66666666666666666666666oO.O O.OO. OO#@Xo# o X o66666666666666666",
"6666666666666666666666666666666666666666666666666666666666666666",
"6666666666666666666666666666666666666666666666666666666666666666",
"6666666666666666666666666666666666666666666666666666666666666666",
"6666666666666666666666666666666666666666666666666666666666666666",
"6666666666666666666666666666666666666666666666666666666666666666",
"6666666666666666666666666666666666666666666666666666666666666666",
"6666666666666666666666666666666666666666666666666666666666666666",
"6666666666666666666666666666666666666666666666666666666666666666",
"6666666666666666666666666666666666666666666666666666666666666666",
"6666666666666666666666666666666666666666666666666666666666666666",
"6666666666666666666666666666666666666666666666666666666666666666",
"6666666666666666666666666666666666666666666666666666666666666666",
"6666666666666666666666666666666666666666666666666666666666666666",
"6666666666666666666666666666666666666666666666666666666666666666",
"6666666666666666666666666666666666666666666666666666666666666666"
};
