/* XPM */
static char *result[] = {
/* columns rows colors chars-per-pixel */
"64 64 25 1 ",
"  c #2A2A24",
". c #2B2A24",
"X c #2A2B24",
"o c #2B2B24",
"O c #2A2A25",
"+ c #2B2A25",
"@ c #2A2B25",
"# c #2B2B25",
"$ c #86A0A0",
"% c #87A0A0",
"& c #86A1A0",
"* c #87A1A0",
"= c #86A0A1",
"- c #87A0A1",
"; c #86A1A1",
": c #87A1A1",
"> c #FAF2D4",
", c #FBF2D4",
"< c #FAF3D4",
"1 c #FBF3D4",
"2 c #FAF2D5",
"3 c #FBF2D5",
"4 c #FAF3D5",
"5 c #FBF3D5",
"6 c None",
/* pixels */
"6666666666666666666666666666666666666666666666666666666666666666",
"6666666666666666666666666666666666666666666666666666666666666666",
"6666666666666666666666666666666666666666666666666666666666666666",
"6666666666666666666666666666666666666666666666666666666666666666",
"6666666666666666666666666666666666666666666666666666666666666666",
"6666666666666666666666666666666666666666666666666666666666666666",
"6666666666666666666666666666666666666666666666666666666666666666",
"6666666666666666666666666666666666666666666666666666666666666666",
"6666666666666666666666666666666666666666666666666666666666666666",
"6666666666666666666666666666666666666666666666666666666666666666",
"6666666666666666666666666666666666666666666666666666666666666666",
"6666666666666666666666666666666666666666666666666666666666666666",
"6666666666666666666666666666666666666666666666666666666666666666",
"6666666666666666666,2>11<3,2,>31425<,5<>52>666666666666666666666",
"666666666666666666645214<<15>,>4<,4353213>,666666666666666666666",
"66666666666666666665<244<<235453,135<<12<52666666666666666666666",
"666666666666666666651>341>2<1>><,><42<<,>3<666666666666666666666",
"666666666666666<445,11,=$&=;;*=&-&-%*-=3,33,51166666666666666666",
"66666666666666613>21<>1=&-;$==;&=&%-=:%3231111<66666666666666666",
"666666666666666543,1,4,;;-:-%&-*&---::*5>,3<55466666666666666666",
"66666666666666653,,5<55:&%=&&-=$%$;==-=44241<1166666666666666666",
"666666666666666<1>4*&=&:;;-342211,<----=%--1535 +OO6666666666666",
"666666666666666<233$--;%*$:45311552=:-=-=%%><<1O+@O6666666666666",
"6666666666666664,55%;:=;;*-<<43<2>1--=--:--1111O@. 6666666666666",
"6666666666666661315;-&;*-$:4<23,<>5&--%&%*:<515@@#O6666666666666",
"66666666666666635,<---=-$&=11,<,,11-;:%-:--515>@ + 6666666666666",
"666666666666666>>32----%&;=11<11533:=-$--%-2<,3O+OO6666666666666",
"666666666666666>355%%--%=*%><141115==%-----4233+OOO6666666666666",
"666666666666666>3,3=--%%-$-15211,1<&-==--=-,134OO+@6666666666666",
"666666666666666<>551115%%$;-;=-%:--=&;&-=*:2255.@o+6666666666666",
"6666666666666662,521<11--:%=%-=%---;*$==-;;<,<<X.X 6666666666666",
"666666666666666,1331<11==-:--=-:---;;%%:-%$3,2<..+.6666666666666",
"666666666666666,>15,1,1=$-:-=:=&=--*-&:&%&:3334+#@@6666666666666",
"6666666666666666666515,1114<1,>3>,1&%&$$=-=5453##o#6666666666666",
"6666666666666666666111<1,,,,55>,,3<*=;%:;-&3,1>.O.o6666666666666",
"66666666666666666665111111124151,21%-&*&=&%>>,,O#o+6666666666666",
"66666666666666666661,1<<<112>13534<=$=%&&%-<<4>+o X6666666666666",
"66666666666666666665<15;&%*==$%&$=:$$;$55151432o..X6666666666666",
"6666666666666666666,,<5%$=;=&$%;=-=;*&&<<1>5<<4.++o6666666666666",
"666666666666666666641>,$*&:-*;==--;%===231<,<44@@ #6666666666666",
"6666666666666666666<1<<=%&;%$-%--&%=%$=<<14,441oo o6666666666666",
"66666666666666666661>,3,242411>5>4,5<12<<5>@@ + #+o6666666666666",
"666666666666666666625>534555<3,3132>5213<21OOO+ +#+6666666666666",
"6666666666666666666<535<1333<,<>>>5255<>315O++@.o#@6666666666666",
"666666666666666666641><22,2332<5<,,32<11<,2 X@ Oo.o6666666666666",
"66666666666666666666666o+OOOo@# o.+#+O+.. .O+.X66666666666666666",
"66666666666666666666666..+ .X #OOOO O #.##  .XO66666666666666666",
"66666666666666666666666#Oo#@oo #.OXoX @#o.+O.#.66666666666666666",
"66666666666666666666666oO++ +.OO XO+#@ oo #.X  66666666666666666",
"6666666666666666666666666666666666666666666666666666666666666666",
"6666666666666666666666666666666666666666666666666666666666666666",
"6666666666666666666666666666666666666666666666666666666666666666",
"6666666666666666666666666666666666666666666666666666666666666666",
"6666666666666666666666666666666666666666666666666666666666666666",
"6666666666666666666666666666666666666666666666666666666666666666",
"6666666666666666666666666666666666666666666666666666666666666666",
"6666666666666666666666666666666666666666666666666666666666666666",
"6666666666666666666666666666666666666666666666666666666666666666",
"6666666666666666666666666666666666666666666666666666666666666666",
"6666666666666666666666666666666666666666666666666666666666666666",
"6666666666666666666666666666666666666666666666666666666666666666",
"6666666666666666666666666666666666666666666666666666666666666666",
"6666666666666666666666666666666666666666666666666666666666666666",
"6666666666666666666666666666666666666666666666666666666666666666"
};
