/* XPM */
static char *result[] = {
/* columns rows colors chars-per-pixel */
"64 64 253 2 ",
"   c #1A0E19",
".  c #26131E",
"X  c #35181D",
"o  c #3B0C13",
"O  c #280E24",
"+  c #2B1325",
"@  c #2C132C",
"#  c #271625",
"$  c #331524",
"%  c #351B25",
"&  c #3A1B24",
"*  c #33152B",
"=  c #341A2C",
"-  c #3B1B2C",
";  c #391528",
":  c #2D1632",
">  c #3B1D32",
",  c #351832",
"<  c #3C222D",
"1  c #392226",
"2  c #3D2233",
"3  c #3D2733",
"4  c #33231E",
"5  c #47181D",
"6  c #47231F",
"7  c #431D24",
"8  c #431D2C",
"9  c #4A1E29",
"0  c #421D32",
"q  c #421E3D",
"w  c #541A22",
"e  c #4D2325",
"r  c #44232B",
"t  c #4C252C",
"y  c #492829",
"u  c #552C2B",
"i  c #5B2C2C",
"p  c #552727",
"a  c #55322C",
"s  c #442433",
"d  c #4B2532",
"f  c #4C2B33",
"g  c #472837",
"h  c #532C33",
"j  c #5B2D33",
"k  c #542A37",
"l  c #4D3337",
"z  c #543334",
"x  c #5B3234",
"c  c #553239",
"v  c #5C333A",
"b  c #5A393A",
"n  c #612C2D",
"m  c #642B26",
"M  c #69362C",
"N  c #633434",
"B  c #6B3534",
"V  c #643A35",
"C  c #6B3B35",
"Z  c #64363C",
"A  c #643A3B",
"S  c #6B3B3B",
"D  c #6B3638",
"F  c #733D33",
"G  c #733C3B",
"H  c #7A3A34",
"J  c #6A2F31",
"K  c #6C423C",
"L  c #6A4337",
"P  c #744134",
"I  c #7A4335",
"U  c #74433C",
"Y  c #7B453C",
"T  c #75493D",
"R  c #7B4A3C",
"E  c #7C4935",
"W  c #7C4C33",
"Q  c #4C3647",
"!  c #583A43",
"~  c #513249",
"^  c #643C42",
"/  c #653A45",
"(  c #793C40",
")  c #5B4144",
"_  c #5C4559",
"`  c #6C4A43",
"'  c #684747",
"]  c #724442",
"[  c #7A4642",
"{  c #734B44",
"}  c #7C4C44",
"|  c #784B4B",
" . c #7B534B",
".. c #7A5445",
"X. c #6A4C53",
"o. c #795756",
"O. c #714E54",
"+. c #7F645B",
"@. c #765962",
"#. c #786274",
"$. c #803D34",
"%. c #834334",
"&. c #83453C",
"*. c #834B3D",
"=. c #8B4D3B",
"-. c #8B4739",
";. c #84523D",
":. c #8B523D",
">. c #865136",
",. c #95573E",
"<. c #924C3B",
"1. c #A25C39",
"2. c #AB6539",
"3. c #844B43",
"4. c #874B42",
"5. c #845343",
"6. c #8B5443",
"7. c #8C5A44",
"8. c #83544B",
"9. c #8C564A",
"0. c #8C5B4B",
"q. c #835849",
"w. c #945544",
"e. c #945A45",
"r. c #9A5C44",
"t. c #935D4B",
"y. c #9A5D4B",
"u. c #965547",
"i. c #875A53",
"p. c #955C54",
"a. c #914F42",
"s. c #A25C47",
"d. c #9C6146",
"f. c #95624C",
"g. c #9C624C",
"h. c #9D694D",
"j. c #89645A",
"k. c #956353",
"l. c #9C6552",
"z. c #9C6B5A",
"x. c #976958",
"c. c #9F7659",
"v. c #A2654B",
"b. c #AB6B4D",
"n. c #A6684A",
"m. c #AF724D",
"M. c #B7784E",
"N. c #A26652",
"B. c #A46B54",
"V. c #AA6D53",
"C. c #A46D59",
"Z. c #B56E52",
"A. c #A57254",
"S. c #AC7255",
"D. c #A5735B",
"F. c #AC745B",
"G. c #AD7C5D",
"H. c #A97A57",
"J. c #B37553",
"K. c #BB7A55",
"L. c #B2765C",
"P. c #B47A5B",
"I. c #BA7D5C",
"U. c #B87755",
"Y. c #B06F4E",
"T. c #8D6E6A",
"R. c #876666",
"E. c #93726E",
"W. c #9C7867",
"Q. c #887272",
"!. c #947572",
"~. c #957974",
"^. c #9B7B74",
"/. c #997B78",
"(. c #936B68",
"). c #A97A65",
"_. c #B57C64",
"`. c #AC7B76",
"'. c #BC815C",
"]. c #B8825C",
"[. c #AC805D",
"{. c #9C827E",
"}. c #A98168",
"|. c #B58263",
" X c #BC8363",
".X c #B98769",
"XX c #A78577",
"oX c #BA8B75",
"OX c #BA9178",
"+X c #BB906D",
"@X c #C2835C",
"#X c #C6885D",
"$X c #C28563",
"%X c #C48B64",
"&X c #CA8C64",
"*X c #C38C6A",
"=X c #C98C69",
"-X c #CB9165",
";X c #CC946C",
":X c #C7926A",
">X c #D1946A",
",X c #D39A6D",
"<X c #D69666",
"1X c #CB9573",
"2X c #CD9C73",
"3X c #C79878",
"4X c #D29C74",
"5X c #DA9E73",
"6X c #D49C78",
"7X c #C48E72",
"8X c #DBA476",
"9X c #D4A37C",
"0X c #DBA67A",
"qX c #DDAC7C",
"wX c #D7A476",
"eX c #E3AB79",
"rX c #ECB57E",
"tX c #9D8782",
"yX c #A48782",
"uX c #B0968A",
"iX c #BBA199",
"pX c #C89A87",
"aX c #C8A688",
"sX c #DCAC83",
"dX c #D3AC8B",
"fX c #D8A885",
"gX c #DDB38C",
"hX c #DBB185",
"jX c #DDB79A",
"kX c #D0AA96",
"lX c #E2AB82",
"zX c #E3B385",
"xX c #E6BA8B",
"cX c #EBBC8D",
"vX c #E5B58A",
"bX c #E6BE93",
"nX c #EABC94",
"mX c #F0BC8D",
"MX c #CCB1A3",
"NX c #ECC28E",
"BX c #EDC494",
"VX c #ECC59A",
"CX c #EECA9C",
"ZX c #E7C397",
"AX c #F1CB9B",
"SX c #F0C796",
"DX c #F0C08E",
"FX c #EAC6A3",
"GX c #F1CBA4",
"HX c #F2D3A9",
"JX c #ECD3B1",
"KX c #D4C9BD",
"LX c None",
/* pixels */
"LXLXLXLXLXLXLXLXLXLXLXLXLXLXLXLXLXLXLXLXLXLXLXLXLXLXLXLXLXLXLXLXLXLXLXLXLXLXLX8.LXLXLXLXLXLXLXLXLXLXLXLXLXLXLXLXLXLXLXLXLXLXLXLX",
"LXLXLXLXLXLXLXLXLXLXLXLXLXI LXLXLXLXLXLXLXLXLXLXLXLXLXLXLXH LXLXLXLXLXLXLXLXLX9.LXLXLXLXLXLXLXLXLXLXLXLXLXLXLXLXLXLXLXLXLXLXLXLX",
"LXLXLXLXLXLXLXLXLXLXLXLXLX%.LXLXLXLXLXLXLXLXLXLXLXLXLXLXD.LXLXLXLXLXLXLX}.LXLX*.LXLXLXLXLXLXLXLXLXLXLXLXLXLXLXLXLXLXLXLXLXLXLXLX",
"LXLXLXLXLXLXLXLXLXLXLXLXLX%.LXLXLXLXLXLXLXLXLXLXLXLXLX_.OXLXLXLXLXLXLXLXL.LXx.LXLXLXLXLXLXLXLXLXLXLXLXLXLXLXLXLXLXLXLXLXLXLXLXLX",
"LXLXLXLXLXLXLXLXLXLXLXLXLX%.LXLXLXLXLXLXLXLXLXLXLXLXe.i LXLXA.LXLXLXLXLXN.{ LXLXLXLXLXLXLXLXLXLXLXLXLXLXLXLXLXLXLXLXLXLXLXLXLXLX",
"LXLXLXLXLXLXLXLXLXLXLXLXLX%.LXLXLXLXLXLXLXR t.LXLXLX7.LXLXLXm.LXLXLXLXLX*.f.0.LXLXLXLXLXLXLXLXLXLXLXLXLXn LXLXLXLXLXLXLXLXLXLXLX",
"LXLXLXLXLXLXLXLXLXLXLXLXLXs.LXLXLXaX_.LXl.LXLXLXLXLX7.LXLXLX%XB.LX=.I.5.k v.LXLXB.LXLXLX%.LXLXLXLXLXLXLXp LXLXLXLXLXLXLXLXLXLXLX",
"LXLXLXLXLXLXLXLXLXLXLXLXLXLXLXLXLXS.LXLXLXLXLXLXLXLXV LXLXLXLXLXLXT r LXu LXLXLXq.LXLXLX-.LX-.LXLXLXLXf.;.w.,.I T LXLXLXLXLXLXLX",
"LXLXLXLXLXLXLXLXLXLXLXk.LXLX&.b i.LXLX}.LX7XLX XLX:.LX{ aXKXj.oXp LXLXLXR 9XdX..E ,.J pX<.LXLXU LXLXA.# LXLXLXLXLXLXLXLXLXLXLXLX",
"LXLXLXLXLXLXLXLXLXLXLXLXLXI M :.M LXaXLXG.*X$X#XLXg.5.&Xv.n.W 5.1 LX3XbXqXcXB..X` LXLX@ LXLXLX .LXP e LXLXLXLXLXLXLXLXLXLXLXLXLX",
"LXLXLXLXLXLXLXLXLXLXLXLXLXLXLXLX& LX<XM.&X@XJ.%XLXJ.J.=.I t.zXu m.v.zX'.eX@X].U.f.U LX- LXLX7.7.A.4 LXLXLXLXLX:.LXLXLXLXLXLXLXLX",
"LXLXLXLXLXLXLXLXLXLXMXLX4.z.LXLXLXR._.MXL.Y.n.Y.#X$XV.t.*Xf.9X X..-XxXwXDXmXeXw.d.1 l t LXA.1 LXX LXLXLXLXLXLX3.LXLXLXLXLXLXLXLX",
"LXLXLXLXLXLXLXLXLXLXLXLXLX7.4X9X}.y x.h.C.U..XlX>XV.P.P.&XwX&X;Xt.&XzXNXeXwXb.n.&.LX%.Z.3.r LXLXLXLXLXLXLXLX9.LXLXLXLXLXLXLXLXLX",
"LXLXLXLXLXLXLXLXLX*XLXLXLXuX9X#X@X'.` L _.$X7XgX>.J.=XzXhX:X].K.K.6XBX-XqX,X:XJ.v.H.P L LXX LX..LX..LXLXLXr LX*.Y LXLXLXLXLXLXLX",
"y.LXLXLXLXLXLXLXLXLXLXD.>X>X4X5XP.>X1Xy jXU.3XvX7.'.G.CXAXzX&XK.b.=XNX@XqX,XM.-XV.n.s.%.=.0.1 9.3.B LXLXLXi 9 C.LXLXLXLXLXLXLXLX",
"a.LXLXLXLXLXLXLXLXLX4XLX .U.<XM.zX:.hXo.{.fX9XsXF.BXP.VXxX0X#X8XNX:.0Xd.'.h.7.3X_.r.=.e.z R r L LXLXl LXLXp LXLXLXLXLXLXLXLXLXLX",
"LXm LXLXLXLXLXLXLXLXLX.XLX XP.U.hX).F HXHXbXCXsXHX XA.VX;X;X3XfXV 6.fX1Xh.2Xd.F D.I } j.C J.0.U b B Z 1 ; LXH LXLXLXLXLXLXLXLXLX",
"LXLXW e.LXLXLXLXLXLXLX3X4X-X%XK.e.*XdXHXHXCXCXZX9X%X,XP.A.h. XnX0.fXpXFX9XK.e.*.D.6.4.% P.[ 4.C U z y 9 p LXLXLXLXLXLX} LXLXLXLX",
"LXr.F M B.Z.LXLXLXLXOX.X$X,X,X-XqXF.dXHXCXCXbXsX-XwX4Xq.|.d.h.xX.XlXVXhXP.d.E r._.=.B F B.a e.r.:.*.J LXLXLXLXp i LXLX5.LXLXLXLX",
"M G LXLX} B e.I.LXLXLXU.,.f.8X@XF.gXVXAXCXSXeXwX-X'.].F.V.3X$XnXsXAXcXA.%Xt.S.T H.G R #Xz 9.6.U w.x G D i 7 k LXLX] LXG LXLXLXLX",
"LXLXLXLXLXLXH <.J i LXLXr.9X&X,X8XnXCXBXNXxX;X'.d.3X.X%XD.` FXxXBXeX4X1X9.B.ZXI OXP ;.V S.e.N P 6.} x B : LXLXLXG LXLXLXLXLXLXLX",
"LXLXLXLXz.N X . LX! N &.y.P I.Z.2X;XwXcXwX-X'.%XlX XE F } C.a cXcX8XB.'.K.:XP  .XXy |.l.$ x L.C & h D H R p e LXLXLXLXLX6.&.LXLX",
"LXLXLXk.LXLXLXLXLXLXLX9.I 3.:XM.M.0X%X'.'.:X-X[.F.*._.).;.x.ZX8X8X4XP.v.+X0.:.j.OXW.).y OXuXT Z x N B i # LXLXD LXLXLXLXA LXLXLX",
"LXLXLXLXLXLXV.M.>X=XeX%Xv.$X .t.J.'.0Xr.$X+X).q.ZX3.sX2XK FXzXP.<X'.t.G.8.V.S.9XhXZX3XxX3X .k F H C r e LXt u LXv LXLXLX] LXLXLX",
"LXLXLXLXLXLXLXLX.XP.8X8X#XJ.;X0.g.7.3X:.r.K 3XD.AXz.AXL.OXgXH.I.#X%XhXoX} I.>XnXBXqXBX2X2XP.J.N.t s h j z LXLXs X.LXLXLXy.LXC &.",
"LXLXLXLXLXLXLXLX:X0XzX;XlX>X%XZ.x .X|.i D.;.).6XAXvXAXBXVX_.;.2X'.t..XC F.F.cXNXNXNX0X|.P.].b.h.'.d.&.i G $ LXLXLXLXLX3.r LXLXLX",
"LXLXLXLX8._.&XlX8X<XqX8XJ.8X#Xw.d.uX0.G dXaX:XGXCXBXAXBXBX9XH.v.i.8.uXhXF.7XqXcXvX4XsXG.;.t.:.{ h &.Y &.I % LXLXLXLXLXC LXLXLXLX",
"LXLXLXLXLXLXLXR &XeXrXvXnXK.lX6XJ.P.3.M T M S.3XCXBXBX4XsX|.v.u ).jXP >. XF.zX:X*X_.t.V. XJ.[ S { R e $ , ( s LXl LXf.& LXLXLXLX",
"LXb.1.n.LXLXLX%XeX5XeXS.VXr.S.*XlXr.K 8.vXSXAXAXSXqXlX4X XG.nXfX6.V B.V.r. XS.*Xt.{ f. XG e.P x ;.d d ; LX# Q ) LXk.z LXp LXLXLX",
"LXLXLX=X@XU.K.,X<X5X5X0XFXJ.B.R 7XzXG.j 7.@X&XwXqX;X XcXmX*Xt.7.=.g.r.:.D.I.J._.=X2X5.l.x d !  .d &.<.- # O LXtXM . LXLXLX$ LXLX",
"LXLXLXLXLXLXLXr.<X-X8X%XGXU.3.B.=X7.A.L.D.F d.g.:X3XFXB ;.%Xx l.U.g.3.3..X` l.fX XV [ T N._.L.q.j k.t x d * v v y LXLXLXLXLXLXLX",
"LXLXLXLXLXLX X;XI I #X>XCXr.#X&X&Xv.I.r.Y .XvXzX4XL.D.F.U B.y.=XU.b.v.&.).9.vX' % +X[ } e.y S *.K D.C % h j p.LXf N i LXLXLXLXLX",
"LX5.LXLXLXLXb.I.@X&X5XI. X;XfXv.9X{ v.C <XJ.u u 3X>XJ.1X_.F.F S.7 B y.6.i sXk.pXdX8 d.B.3.G 1 V fXh i.t.9.G 0 LXLX^ LX3 z LXLXLX",
"LXLXp.3._.LXLXS.:.:.u GXT v.I.N.9Xu.I.sX] r.] d.i...'.V.P.L.v.d.:.f N.+XfXsX2XdXG f.9X6 N r jXaXY 8.^ ^ 9 J d d g LX( LXN J LXLX",
"LXLXLXLX' s.;.e.F Y ZX}.L.L.Y dXD.v x U _.zXU V B.3.K J.z.d.6.#X#X5.e.&XhXqXZXSXVXHXGXBXbXvXa 1 ] y 8 S X m LXLXLXLXLXLXLXf LXLX",
"LXLXLXLXLXD..X7.].J.,.&.k.N.| dXt.S.'.). .r *X_.D.R T r I m.-X-Xv.,. XS.zXqX2X]._.B.T 4.G.B.P.z.e d Z j z d g g LXLXLXLXLXLXLXLX",
"LXLXLXLX@Xw.V.3.=.&.C x.h t.x aXB j y.8.XXXXp.`.@X%X0.} V dX*XR zX1X9.P.NXeX7.].I.D.v [ [ 3.[ g.L 0.A D v ! s 0 8 p u LXLXLXLXLX",
"LXLXfX[.;.LXz LXi &.#Xb.l.gX} 8.*.D.@XB./ JXz.gXa i kXD P n.J.ZXlX`  .<  XwX.X .A.G.l.c / d 8.h z A u u d : LXLX- LXLXLXLXX.LXLX",
"LXLXD.L LXLXLX).V p &.i 2Xx v.t nXG j 3XfXe NXnXf.1Xe S.).e.6.3Xd 9.U 3X7XF.y.D.U x f.r.G G s N ] = A f @ , ~ k LXLXLXLX3 LXLXLX",
"LXl.LXLXLXLXLXLX} ] &.d.Y F.G [ ;.$X6XuXxXAXSXBXSX1X_.i.k.5.N a C.9.fXo.t ].B.] S D.^ z c A - ] 2 v S ].- s O.LXLXs LXLXLXLXLXLX",
"LX7.LXLX,.<.<.=.C k ,.<.i T =XK.0.z._.+.gXAXBXcXqX0X3Xg.B.8.! R.' k.{ U ] K  Xb S ' H * 0.3.s | ; A.h ' } s > s LXg f LXLXLXLXLX",
"LX%.LXB.LXu.LXLXC r.9 p a.B.5X>XL.a 7 3X1X0XlXeX,X;X9X9.6.A `.).z.j 2 g.v.v l.k U 9 G / ).c = U [.$ f g z.Q = s % LXLXLXLXg LXLX",
"LXY LXLXLXLXV x. Xe.} lXzXeX@Xn.A.OXjX6  X0.8X8XvX-X:XL.l.t.u B Z G..X;  .p.4.8.U h ] $ x.+ z.A * @ D , $ = LXLXLXLXLXLXl LXLXLX",
"LXLXLXLXLXLXLX6.U n.6.-.,.r.I.I.S D p *X5.;X%XqXzXB._.J.D.[ N / 3.^ 0.D.} ^ h K c ] A ).2 A > - B > s.s 9.* 2 c LXLXLXl LXLXLXLX",
"LXLXLXLXLXI.0.N LXLXj U I Y  Xt.h r.6.A k.j.:X4XzX3.D. .p.g.s | u.A Z 9 9.V.i.T C U q.b ' k l % u T.) : : @ @ LXLX. # LXLXLXLXLX",
"LXLXa %.R P z X.a B p u 7 }.P 9.{ C.z.8.x ..:X| cXD S./ s v.t.- l.c l.N o.( p $X;XB.; f c > % ` xX) l ` l LXQ # +   LXLXLXLXLXLX",
"&.6.LXLXC LXLXj.1 LXi b *XP.T u T B T z b aXr > cXk = d.C g.G x.p l.Z [ i.t.0 > s G.;X+XO.' dXW.* = * * @ O @ LXLXLXLX< LXLXLXLX",
"&.LXLX` LXLXLXI F R C A.n p K N y d = q.9XV D h }.s r f.:.n.k ^ 0.- N B 9.3.t.d D k C o.).}.z 3 < @ * - LXLXO r LXLXLX3 LXLXLXLX",
"LXLXLX3.LXLXLXLXK LXp.LX@ = (..X*.+XVXG.2 | d [ t r ] Z 6 l.$XR 9 t M M v.g o.g , g [ * k ] > @ @ LXLX> # LXLXLX= LXLXLXLXLXLXLX",
"LXLXLXLXLXLXLXLXLXU U LX< - ; * & y.> * { f 0 = N.9.6.R C & ; oX3X .; + [ 4.v k D - h j G ; C u * # LX0 LX% + r LXLXLXLX| LXLXLX",
"LXLXLXLXLXLXLXLXi.N 1 X LXLXr Z }.= & $ f.x D D @ t 4.K.J.J.b.J > * G v = =.G > N @ : / v s @ @ h u 0 0 * LXLXLXLXLXLXLXLXLXLXLX",
"LXLXLXLXLXLXLXH i LXLXr LXl kX7X; h Z $ { ! * x - C v * z p e N 9 0 3.y.@ [ S s v ; * & U 7 = LX* $ 0 LXLX! LXLXLXLXLXLXLXLXLXLX",
"LXLXLXLXLXLXB LXLXLX' LXLXMX+ d ! O.l 8 f.- > k / , ( , Z D 7 $XY  .l.O t @ | ^ > | k O 0 * , LXLXLXLX.   LX; LXLX# LXLXLXLXLXLX",
"LXLXLXLXLXLXLXLXLXLX9._.p % # , O.> * +Xv v h H d d > N r s @ ! t.q : O G > t 0 , * r > s * + # yXd LXLX) LXLXX & LXLXLXLXLXLXLX",
"LXLXLXLXLXLXLXLXLXh LXLXLXLX1 LXLX+ 2 H.% = > t ' : + [ d @ * @ ' O.! , R. .; ^ > #.s s O LXLX< : ! ~.^.X.{.LXLXLXLXLXLXLXLXLXLX",
"LXLXj LXLXLXLXLXLXLXLXj.I.1 iXQ {./._ c.c < N - d e.e.: : @ $ .., : > * * 6.- * > Q X.* * - O.o.@.- - - & * E.^.iXLX~.yXLXLXLXLX",
"LXLXLXF :.LXLXLXLXB.P B.7 LXLX< yXq.0.L g Q ^ ^ : @ U y.&.y.p.O @ O ^ c * ; h.c s : : g T.T.s Q !.R.T.E.(.E.!.^.^./.^.XXXX^.LXLX",
"LXLXLXLXs.1.2.2.2.M LXLXLXLXLX}.;.L O.o.o.) 2 X.> z @ Q > ! : t 8., @ ^ > : 2 z O.o.R.O._ ~.!.!.!.!.E.E.~.^./.yXLX^.XXLXLXLXLXLX",
"LXLXLXLXLXm w 5 o LXLXLXLXB.V.K f LX^.^.~.~.T.O.[ b s X.X.| @.@.h y > g c X.R.! { T.^.{.R.!.~.~.!.!.LXLXi.LXLXLXLXLXLXLXLXLXLXLX",
"LXLXLXLXLXLXLXLXLXLXLXLX&.&.H J LXLXLXLXLX/.^.j.j R.E.E.!.E.!./.R./ Q.!.Q./.{.!.) 5.).LX~.~.LXLXLXLXLXLXLX!.^.LXLXLXLXLXLXLXLXLX",
"LXLXLXLXLXLXLXLXLXLXLXLXLXLXLXLXLXLXLXLXLXLX7Xi.LX! XXyX{.tXtXtXtXY /.tXLXLXLXLXQ.X...y.b LXLXLXLXLXLXLXLXLXLXLXLXLXLXLXLXLXLXLX",
"LXLXLXLXLXLXLXLXLXLXLXLXLXLXLXLXLXLXLXLXR F.LXLXLXLXLXt LXLXLXLX' LXh.LXLXLXLXLXLXLXLXLXf.W LXR 5.LXLXLXLXLXLXLXLXLXLXLXLXLXLXLX",
"LXLXLXLXLXLXLXLXLXLXLXLXLXLXLXLXLXLXLXLXLXLXLXLXLXLXLXLXLXLXLXk.U LXLX0.LXLXLXLXLXLXLXLXLXLXV LXLXLXLXLXLXLXLXLXLXLXLXLXLXLXLXLX",
"LXLXLXLXLXLXLXLXLXLXLXLXLXLXLXLXLXLXLXLXLXLXLXLXLXLXLXLXLXLXLXLXLXLXLXLX*.*.S LXLXLXLXLXLXLX& 7 LXLXLXLXLXLXLXLXLXLXLXLXLXLXLXLX"
};
