/* XPM */
static char *_f5c0f491229439dabac5f1921596771[] = {
/* columns rows colors chars-per-pixel */
"64 64 125 2 ",
"   c black",
".  c #82602C",
"X  c #654223",
"o  c #B31200",
"O  c #800D00",
"+  c #9C7935",
"@  c #363245",
"#  c #5B0C03",
"$  c #82612C",
"%  c #664323",
"&  c #916F31",
"*  c #C67623",
"=  c #44260C",
"-  c #83602C",
";  c #544E66",
":  c #970F00",
">  c #7B0D01",
",  c black",
"<  c #030200",
"1  c #704E26",
"2  c #DBFD03",
"3  c #7A5F29",
"4  c #B01200",
"5  c None",
"6  c #550A02",
"7  c black",
"8  c #47301C",
"9  c #1C140B",
"0  c black",
"q  c #340601",
"w  c #9D5D1C",
"e  c #8D0E00",
"r  c black",
"t  c #A61100",
"y  c #352712",
"u  c black",
"i  c #7C4702",
"p  c #FE9D12",
"a  c #1C0200",
"s  c #523617",
"d  c black",
"f  c black",
"g  c #470800",
"h  c black",
"j  c black",
"k  c #800C00",
"l  c black",
"z  c #DD8810",
"x  c #B92704",
"c  c #88652E",
"v  c #0D0100",
"b  c #050000",
"n  c #815F2C",
"m  c #060000",
"M  c #250602",
"N  c black",
"B  c #020000",
"V  c #6C4923",
"C  c #080C02",
"Z  c #83612C",
"A  c black",
"S  c black",
"D  c #630A00",
"F  c #7E1D03",
"G  c #740C00",
"H  c #040000",
"J  c black",
"K  c #7E5C2B",
"L  c #850D00",
"P  c #5E2613",
"I  c #5F4528",
"U  c #765125",
"Y  c black",
"T  c #D7F200",
"R  c #3F3016",
"E  c #DBFC03",
"W  c #DBFC03",
"Q  c #BF7125",
"!  c #7C592A",
"~  c #8D6A30",
"^  c black",
"/  c #624022",
"(  c #881B05",
")  c #987533",
"_  c #51475D",
"`  c #DF8B10",
"'  c #1E450B",
"]  c #493837",
"[  c #010000",
"{  c #050001",
"}  c #5C3D25",
"|  c #1C0903",
" . c #572126",
".. c #721909",
"X. c #020000",
"o. c #373244",
"O. c #823235",
"+. c black",
"@. c #D1FF00",
"#. c #32140A",
"$. c #DBFC03",
"%. c #400701",
"&. c #4C2C19",
"*. c #452A37",
"=. c #831302",
"-. c #8A3C00",
";. c #634A45",
":. c #A62000",
">. c #2A1507",
",. c #367C13",
"<. c #51BC1B",
"1. c #B5A115",
"2. c #537649",
"3. c #50B91E",
"4. c #251B0D",
"5. c #81602C",
"6. c #453318",
"7. c #84622D",
"8. c #153107",
"9. c #DAFC03",
"0. c #DCFD03",
"q. c #DDFD03",
"w. c #DBFC02",
"e. c #991A06",
"r. c None",
/* pixels */
"r.r.r.r.r.r.r.r.r.r.r.r.r.r.r.r.r.r.r.r.r.r.r.r.r.r.r.r.r.r.r.r.r.r.r.r.r.r.r.r.r.r.r.r.r.r.r.r.r.r.r.r.r.r.r.r.r.r.r.r.r.r.r.r.",
"r.r.r.r.r.r.r.r.r.r.r.r.r.r.r.r.r.r.r.r.r.r.r.r.r.r.r.r.r.r.r.r.r.r.r.r.r.r.r.r.r.r.r.r.r.r.r.r.r.r.r.r.r.r.r.r.r.r.r.r.r.r.r.r.",
"r.r.r.r.r.r.r.r.r.r.r.r.r.r.r.r.r.r.r.r.r.r.r.r.r.r.r , , , , , , , , , , , , , r.r.r.r.r.r.r.r.r.r.r.r.r.r.r.r.r.r.r.r.r.r.r.r.",
"r.r.r.r.r.r.r.r.r.r.r.r.r.r.r.r.r.r.r.r.r.r.r.r.r.r.B                           r.r.r.r.r.r.r.r.r.r.r.r.r.r.r.r.r.r.r.r.r.r.r.r.",
"r.r.r.r.r.r.r.r.r.r.r.r.r.r.r.r.r.r.7 f f f f f f f 4.y y y y y y y y y y y y y f f r.r.r.r.r.r.r.r.r.r.r.r.r.r.r.r.r.r.r.r.r.r.",
"r.r.r.r.r.r.r.r.r.r.r.r.r.r.r.r.r.r.S               R . $ . . . . . . . . . . .     r.r.r.r.r.r.r.r.r.r.r.r.r.r.r.r.r.r.r.r.r.r.",
"r.r.r.r.r.r.r.r.r.r.r.r.r.r.r.r.r.h Y < < < < < < < R . $ . . . . . . . - $ . $ < < h h h h h h r.r.r.r.r.r.r.r.r.r.r.r.r.r.r.r.",
"r.r.r.r.r.r.r.r.r.r.r.r.r.r.r.r.A   C . . . . . - . . $ . . . $ . . . . . . . . X X             r.r.r.r.r.r.r.r.r.r.r.r.r.r.r.r.",
"r.r.r.r.r.r.r.r.r.r.r.r.r.r.r.r.A   C . . . . - . $ . . . $ . . . . . . . . . . X X             r.r.r.r.r.r.r.r.r.r.r.r.r.r.r.r.",
"r.r.r.r.r.r.r.r.r.r.r.r.r.r.r.N N ) ) . . . . . . . . . . . . . . . . . . . . . X X = = / / / / N N N b r.r.r.r.r.r.r.r.r.r.r.r.",
"r.r.r.r.r.r.r.r.r.r.r.r.r.r.r.  < + ) . . . - . . . . . . . . . $ . . . . . $ . X X = = X X X X       b r.r.r.r.r.r.r.r.r.r.r.r.",
"r.r.r.r.r.r.r.r.r.r.r.H H H H >.>.+ ) . . $ . . . . . . . . ~ & & & 7.. 1 1 1 1 X X = = % X X X s s s 6.H u r.r.r.r.r.r.r.r.r.r.",
"r.r.r.r.r.r.r.r.r.r.r.        = = + ) . - - $ . . . . . . $ & + + + 7.. % X X X X X = = X X X X - . $ 1   l r.r.r.r.r.r.r.r.r.r.",
"r.r.r.r.r.r.r.r.r.J J 9 9 9 9 = = & ~ c c c c c c c c c 7.. ~ & & & K ! % X X X X X = = X X X % . . $ U 9 | J Y r.r.r.r.r.r.r.r.",
"r.r.r.r.r.r.r.r.r.    . . - . = = X V + + + + + + + + + ~ . 1 X X X X X X X X X X X = = X X X X . . . $ . I   m r.r.r.r.r.r.r.r.",
"r.r.r.r.r.r.r.r.r.    $ . . . = = X V + + + + + + + + + ~ - 1 X % X X X X % X X X X = = X X X X - Z . . . I   m r.r.r.r.r.r.r.r.",
"r.r.r.r.r.r.r.    - . . . . . = = X X X X X X X % X X X X X % X X X X X X X X X X X X X X X . - . . . . . I   m r.r.r.r.r.r.r.r.",
"r.r.r.r.r.r.r.    . . . . . . = = X X X X X X X X % X X X X X X X X X X X X X X X X X X % X . . . - . $ . I   m r.r.r.r.r.r.r.r.",
"r.r.r.r.r., , V V . . . . . . U U X X X X % X X X X X X X X X X X X X X X X X X X X ! ! ! ! . . - . . K V s   m r.r.r.r.r.r.r.r.",
"r.r.r.r.r.    . $ . . . - . . - n % X X X X X X X X X X X X % X X X X X X X X X X X . . . . . . . . . K X 8   m r.r.r.r.r.r.r.r.",
"r.r.r.r.r.    . . . . . . . . . 5.1 1 X % X X X X X X X X X X X X X X X 1 1 1 1 1 1 . - . . - . . n U 1 y #.H r r.r.r.r.r.r.r.r.",
"r.r.r.r.r.    $ . . . . . . . . . . K X X X X X X X X X X X X X X X X X n . . . . . $ . $ . - $ $ n X s   l r.r.r.r.r.r.r.r.r.r.",
"r.r.r.r.r.    Z Z . . . . . $ . . . K % % % % % % % % % % % % % % % % % n . - . . . . . . . n n n K / s N l r.r.r.r.r.r.r.r.r.r.",
"r.r.r.r.r.    + + . . . . . . . $ . . . . . . . Z $ . . . . . $ . . . . . . . . . . $ . . $ X X X }   b r.r.r.r.r.r.r.r.r.r.r.r.",
"r.r.r.r.r.    + + . . $ . - . . . . $ . . . . . . . . . $ . . - $ $ . . - . . . . . . . . . X X X }   b r.r.r.r.r.r.r.r.r.r.r.r.",
"r.r.r.r.r.h h < < + + + + . . . . . . . - . . . $ . $ . . . . . $ . . . $ . . . . . % % % % < < < [ h h r.r.r.r.r.r.r.r.r.r.r.r.",
"r.r.r.r.r.r.r.    + + + + . . . - . . . . . . . . . . . . . . Z . . . . . . . . . . X X X X       [ r.r.r.r.r.r.r.r.r.r.r.r.r.r.",
"r.r.r.r.r.r.r.f f R R R R & & & & & & & & & & & & & & & & & & & & & & & 1 1 1 1 1 1 ] ] ] ]     f r r.r.r.r.r.r.r.r.r.r.r.r.r.r.",
"r.r.r.r.r.r.r.r.r.        + + + + + + + + + + + + + + + + + + + + + + + % X X X X X @ @ @ @     r.r.r.r.r.r.r.r.r.r.r.r.r.r.r.r.",
"r.r.r.r.r.r.r.r.r., , , , 3 3 + + 3 3 3 3 3 3 3 3 3 3 3 3 3 3 3 3 3 3 3 U U V V } } @ @ @ @     r.r.r.r.r.r.r.r.r.r.r.r.r.r.r.r.",
"r.r.r.r.r.r.r.r.r.r.r.r.r.    * Q                                       Q * w w @ @ @ @ @ @     r.r.r.r.r.r.r.r.r.r.r.r.r.r.r.r.",
"r.r.r.r.r.r.r.r.r.r.r.r.r.    * Q                                       Q * w w @ @ @ @ @ @     r.r.r.r.r.r.r.r.r.r.r.r.r.r.r.r.",
"r.r.r.q.2 r.r.r.r.r.r.r.r.    o.o.p `                               z p * * o.@ ; ; @ o.@ o.    < [ r.r.r.r.r.r.r.r.r.r.r.r.r.r.",
"r.r.r.$.2 r.r.r.r.r.r.r.r.    @ o.p `                               z p * * @ @ ; ; @ @ @ @       [ r.r.r.r.r.r.r.r.r.r.r.r.r.r.",
"r.r.r.$.2 E E E E E E r.r.    _ _ p `                               z p * * _ _ ; ; @ @ o.@     g %., , , { r.r.r.r.r.r.r.r.r.r.",
"r.r.r.w.2 2 2 2 2 2 2 r.r.    ; ; p `                               z p * * ; ; ; ; @ @ @ @     # 6       l r.r.r.r.r.r.r.r.r.r.",
"r.r.r.9.0.2 2 2 2 2 2 3.3.' ' 2.2.1.1.' ' ' 8.                      z p * * ; ; ; ; @ o.I I     # 6 M M M b r r r r r r r Y r.r.",
"r.r.r.@.@.2 2 2 2 2 2 5 5 5 5 5 5 5 5 5 5 5 ,.                      z p * * ; ; ; ; @ @ w w     # # # # # g 0 0 0 0 0 0 0 r r.r.",
"r.r.r.r.r.W W W W W W 5 5 5 5 5 5 5 5 5 5 5 ,.                      z p * * ; ; ; ; o.o.w w < < # # # # # g               r r.r.",
"r.r.r.r.r.T T T T T T <.<.C C * * p ` C C C C                       z p * * Q Q w w w w =.=.G G # # # # # # 6 6 6 6 6 M   r r.r.",
"r.r.r.r.r.r.r.r.r.r.r.r.r.    * * p `                               z p * * * * w w w w O O O O # # # # # # # # # # # M   r r.r.",
"r.r.r.r.r.r.r.r.r.r.r.r.r.    x x x x : G                   D : : : x x x x x x ( ( ( ( O O O O > > > G # # # # # q v { Y 7 r.r.",
"r.r.r.r.r.r.r.r.r.r.r.r.r.    o o o o o e                   > o o o o o o o o o O O O O O O O O O O O > # # # # # q   B r.r.r.r.",
"r.r.r.r.r.r.r.r.r.r.r.r.r.    o o o o 4 t 6 6 6 6 6 6 6 6 6 : o o o o o o o o o : : O O O O O O O O O > G # q q q | B B B B B Y ",
"r.r.r.r.r.r.r.r.r.r.r.r.r.    o o o o o o 4 4 4 4 4 4 4 4 4 o o o o o o o o o o o o O O O O O O O O O O O D       { A { 0 0 0 j ",
"r.r.r.r.r.r.r.r.r.r.r.r.r.b b : : o o o o o o o o o o o o o 4 t 4 o o o o o o o o o O O O O O O O O O O O D a v   m Y H a v   j ",
"r.r.r.r.r.r.r.r.r.r.r.r.r.S S v a o o o o o o o o o o o o o : L t o o o o o o o o o O O O O O O O O O O O > G g   N ^ %.G M   j ",
"r.r.r.r.r.r.r.r.r.r.r.r.r.r.r.  < o o o o o o o o o o o o o e O t o o o o o o o o o O O O O O O O O O O O O O 6       g O q   j ",
"r.r.r.r.r.r.r.r.r.r.r.r.r.r.r.  < o o o o o o o o o o o o o e O L e e e e e o o o o t t t t O k O O O O O O O G D D D G k q   j ",
"r.r.r.r.r.r.r.r.r.r.r.r.r.r.r.  < o o o o o o o o o o o o o e O O O O O O k o o o o o o o o O k O k O k O O O O O O O O O q   j ",
"r.r.r.r.r.r.r.r.r.r.r.r.r.r.r.    O.O.o o o o o o o o o o o e O O O  . .O O : : : : : : : : O O O O O O O O O O O O k # q m u S ",
"r.r.r.r.r.r.r.r.r.r.r.r.r.r.r.  < ; _ o o o o o o o o o o o e O O O *.o.> O O O O k O O O O O O O O O k O O O O O O O q   r r.r.",
"r.r.r.r.r.r.r.r.r.r.r.r.r.r.r.  < ;.;.:.:.o o o 4 t 4 o o o : e L O  .*.F F F F ....O k O O O O O O O O O G # # # # # #.l j r.r.",
"r.r.r.r.r.r.r.r.r.r.r.r.r.r.r.  < i i i -.o o o t L : o o o 4 4 e O > > i i i i &.&.O O O O O O O O O O O D v v v v v B S 7 r.r.",
"r.r.r.r.r.r.r.r.r.r.r.r.r.r.r.  < i i i -.4 4 o t O : o 4 4 o o e O O k i i i i 8 8 O O > > > > > > > > > # 0 0 0 0 0 u r.r.r.r.",
"r.r.r.r.r.r.r.r.r.r.r.r.r.r.r.    s s s s P F o 4 t : e ..P e.o t t L O F F s s 8 8 P P a a a a a a a a a | j j j j j S r.r.r.r.",
"r.r.r.r.r.r.r.r.r.r.r.r.r.r.r.    8 8 8 8 8 P o o o : O P 8 ( o o o L O O O 8 8 8 8 8 8                   l r.r.r.r.r.r.r.r.r.r.",
"r.r.r.r.r.r.r.r.r.r.r.r.r.r.r.u u 9 9 9 9 9 >.g g g g q M 9 q g g g q q q q 9 9 9 9 9 9 u u u u u u u u u +.r.r.r.r.r.r.r.r.r.r.",
"r.r.r.r.r.r.r.r.r.r.r.r.r.r.r.r.A                                                       r.r.r.r.r.r.r.r.r.r.r.r.r.r.r.r.r.r.r.r.",
"r.r.r.r.r.r.r.r.r.r.r.r.r.r.r.r.A           ^ d d X.X.d d d d d d d d d 0           d d r.r.r.r.r.r.r.r.r.r.r.r.r.r.r.r.r.r.r.r.",
"r.r.r.r.r.r.r.r.r.r.r.r.r.r.r.r.A           l 7 7 7 7 7 7 7 7 7 7 7 7 7 N           7 7 r.r.r.r.r.r.r.r.r.r.r.r.r.r.r.r.r.r.r.r.",
"r.r.r.r.r.r.r.r.r.r.r.r.r.r.r.r.A ^ ^     < l r.r.r.r.r.r.r.r.r.r.r.r.r.b ^         r.r.r.r.r.r.r.r.r.r.r.r.r.r.r.r.r.r.r.r.r.r.",
"r.r.r.r.r.r.r.r.r.r.r.r.r.r.r.r.r.J +.      l r.r.r.r.r.r.r.r.r.r.r.r.r.J J         r.r.r.r.r.r.r.r.r.r.r.r.r.r.r.r.r.r.r.r.r.r.",
"r.r.r.r.r.r.r.r.r.r.r.r.r.r.r.r.r.r.S     < l r.r.r.r.r.r.r.r.r.r.r.r.r.r.r.        r.r.r.r.r.r.r.r.r.r.r.r.r.r.r.r.r.r.r.r.r.r."
};
