/* XPM */
static char *_d697e359e1045e6941bac78b5e7e8af[] = {
/* columns rows colors chars-per-pixel */
"64 64 124 2 ",
"   c black",
".  c #82602C",
"X  c #654223",
"o  c #B31300",
"O  c #800C00",
"+  c #5B0C03",
"@  c #9C7935",
"#  c #363245",
"$  c #664323",
"%  c #B11300",
"&  c #916F31",
"*  c #82602D",
"=  c #82612C",
"-  c black",
";  c #44260C",
":  c #724F26",
">  c black",
",  c black",
"<  c #030200",
"1  c #7A5F29",
"2  c black",
"3  c #544E66",
"4  c #C67523",
"5  c #1C140B",
"6  c #DBFC02",
"7  c #940F00",
"8  c #A51100",
"9  c #340500",
"0  c #560A01",
"q  c #7E0D00",
"w  c #490801",
"e  c #332711",
"r  c #50B51C",
"t  c black",
"y  c #47301B",
"u  c #DE8910",
"i  c #210401",
"p  c #850D00",
"a  c #040000",
"s  c #5C2714",
"d  c #9F5D1B",
"f  c #6A0B01",
"g  c #FF9D12",
"h  c black",
"j  c None",
"k  c #88652E",
"l  c #7D5A2A",
"z  c #050000",
"x  c #6C4A23",
"c  c #AD1200",
"v  c #8B0E00",
"b  c #815F2B",
"n  c black",
"m  c #C67823",
"M  c #9D1100",
"N  c black",
"B  c #410801",
"V  c #881C06",
"C  c #B52305",
"Z  c black",
"A  c black",
"S  c black",
"D  c #DDFF00",
"F  c black",
"G  c #7E4201",
"H  c black",
"J  c #7D1F05",
"K  c #C07124",
"L  c black",
"P  c #0D0100",
"I  c #5F4528",
"U  c #3F3016",
"Y  c #DCFF03",
"T  c #DBFD03",
"R  c #080C02",
"E  c black",
"W  c #8D6A30",
"Q  c #790C00",
"!  c black",
"~  c #624022",
"^  c #7C4902",
"/  c #987533",
"(  c #BC2A04",
")  c #574F64",
"_  c #51475D",
"`  c #493837",
"'  c black",
"]  c black",
"[  c black",
"{  c #5C3D25",
"}  c #4FB51C",
"|  c #DBFD03",
" . c #2A0F07",
".. c #2A1507",
"X. c black",
"o. c #1E450B",
"O. c #823235",
"+. c #ECFF00",
"@. c black",
"#. c #2F0602",
"$. c #210C04",
"%. c #644945",
"&. c #BC4211",
"*. c #9A5D20",
"=. c #9D340D",
"-. c #975A1E",
";. c #831302",
":. c #367C13",
">. c #FD9C12",
",. c #50B71C",
"<. c #49B624",
"1. c #4AA91A",
"2. c #251B0D",
"3. c #DAFF00",
"4. c #AB9B14",
"5. c #F29F13",
"6. c #BEA716",
"7. c #557749",
"8. c #52754A",
"9. c #B57700",
"0. c #B50000",
"q. c #00002C",
"w. c #47704C",
"e. c None",
/* pixels */
"e.e.e.e.e.e.e.e.e.e.e.e.e.e.e.e.e.e.e.e.e.e.e.e.e.e.e.e.e.e.e.e.e.e.e.e.e.e.e.e.e.e.e.e.e.e.e.e.e.e.e.e.e.e.e.e.e.e.e.e.e.e.e.e.",
"e.e.e.e.e.e.e.e.e.e.e.e.e.e.e.e.e.e.e.e.e.e.e.e.e.e.e.e.e.e.e.e.e.e.e.e.e.e.e.e.e.e.e.e.e.e.e.e.e.e.e.e.e.e.e.e.e.e.e.e.e.e.e.e.",
"e.e.e.e.e.e.e.e.e.e.e.e.e.e.e.e.e.e.e.e.e.e.e.e.e.e.h > > > > > > > > > > > > > e.e.e.e.e.e.e.e.e.e.e.e.e.e.e.e.e.e.e.e.e.e.e.e.",
"e.e.e.e.e.e.e.e.e.e.e.e.e.e.e.e.e.e.e.e.e.e.e.e.e.e.H                           e.e.e.e.e.e.e.e.e.e.e.e.e.e.e.e.e.e.e.e.e.e.e.e.",
"e.e.e.e.e.e.e.e.e.e.e.e.e.e.e.e.e.e.- 2 2 2 2 2 2 2 2.e e e e e e e e e e e e e 2 2 e.e.e.e.e.e.e.e.e.e.e.e.e.e.e.e.e.e.e.e.e.e.",
"e.e.e.e.e.e.e.e.e.e.e.e.e.e.e.e.e.e.]               U . . * . . . . . . * . . .     e.e.e.e.e.e.e.e.e.e.e.e.e.e.e.e.e.e.e.e.e.e.",
"e.e.e.e.e.e.e.e.e.e.e.e.e.e.e.e.e.t ] < < < < < < < U . . . . . . * . . . = . . < < t t t t t t e.e.e.e.e.e.e.e.e.e.e.e.e.e.e.e.",
"e.e.e.e.e.e.e.e.e.e.e.e.e.e.e.e.n   R . . . = . . . . . . . . . . . . . . . . . X X             e.e.e.e.e.e.e.e.e.e.e.e.e.e.e.e.",
"e.e.e.e.e.e.e.e.e.e.e.e.e.e.e.e.n   R . . . . . . . . . . . . . . . . . . . . * X X             e.e.e.e.e.e.e.e.e.e.e.e.e.e.e.e.",
"e.e.e.e.e.e.e.e.e.e.e.e.e.e.e.S S / / . . . . . . . . . . . * . . . . . . . . . X X ; ; ~ ~ ~ ~ S S S > e.e.e.e.e.e.e.e.e.e.e.e.",
"e.e.e.e.e.e.e.e.e.e.e.e.e.e.e.  < @ / . . . . . . . . . . . . . . . . . . . . . $ X ; ; X X X X       A e.e.e.e.e.e.e.e.e.e.e.e.",
"e.e.e.e.e.e.e.e.e.e.e.a a a a ....@ / . . . . . . . . . * . W & & & = * : : : : X X ; ; X X X X j j j j a 2 e.e.e.e.e.e.e.e.e.e.",
"e.e.e.e.e.e.e.e.e.e.e.        ; ; @ / . . . . . = . . = . . & @ @ @ = . $ X X $ X X ; ; X X X X . . . :   z e.e.e.e.e.e.e.e.e.e.",
"e.e.e.e.e.e.e.e.e.N N 5 5 5 5 ; ; & W k k k k k k k k k = * W & & & l l $ X X X X X ; ; X X X X * . = : 5 $.N ] e.e.e.e.e.e.e.e.",
"e.e.e.e.e.e.e.e.e.    . . . . ; ; X x @ @ @ @ @ @ @ @ @ W . x $ X X X X X X X X X X ; ; X X X X . . . . . I   L e.e.e.e.e.e.e.e.",
"e.e.e.e.e.e.e.e.e.    . . . . ; ; X x @ @ @ @ @ @ @ @ @ W . x X $ X X X X X X X X X ; ; X X X X . . * . = I   L e.e.e.e.e.e.e.e.",
"e.e.e.e.e.e.e.    . . . . . . ; ; X X X X X X X X X X X X X X X X X X X X X X X $ X X X X X . . * * . . . I   L e.e.e.e.e.e.e.e.",
"e.e.e.e.e.e.e.    . . = . . * ; ; X X X X X X X X X X X X X X X X X X X X X X X X X X X X $ . . . . . . = I   L e.e.e.e.e.e.e.e.",
"e.e.e.e.e.> > x x . * . . . = : : X X X X X X X X X X X X X X X X X X X $ X X $ X X l l l l . = . . . l x j   L e.e.e.e.e.e.e.e.",
"e.e.e.e.e.    . * . . . . . . = b $ X X X X X X X X X X X X $ X $ X X X X $ X X X X . . . . = . . . = l X y   L e.e.e.e.e.e.e.e.",
"e.e.e.e.e.    = . . . . . . . . . : : X X X X X X X X X X X X X X X X X : : : : : : = = . . . . = b : x e  .a h e.e.e.e.e.e.e.e.",
"e.e.e.e.e.    . . . . . * . . . . . l X X X X X X $ X X X X X X $ X X X b . . = * . . . . . * . . b X j   z e.e.e.e.e.e.e.e.e.e.",
"e.e.e.e.e.    . = . = . . . . . . . b $ $ $ $ $ $ $ $ X $ $ $ $ $ X $ $ b . . . . . . . . . b b b l ~ j S ' e.e.e.e.e.e.e.e.e.e.",
"e.e.e.e.e.    @ @ . . . . . . . . . . * . . . . . . . . . . . . . . . . . . * . . . . . . . X X X {   A e.e.e.e.e.e.e.e.e.e.e.e.",
"e.e.e.e.e.    @ @ . * . . . . * . . . . . * . . . . . . . . . = . . . . . . . . . = . = . . $ X X {   A e.e.e.e.e.e.e.e.e.e.e.e.",
"e.e.e.e.e.t t < < @ @ @ @ . . * . . . . . * . * . . . = . . * . . . = . . . . . . . $ X $ $ < < < Z t t e.e.e.e.e.e.e.e.e.e.e.e.",
"e.e.e.e.e.e.e.    @ @ @ @ . = . . . . . = . * . . . . . . . . . . * . . . . . . = . X X X X       Z e.e.e.e.e.e.e.e.e.e.e.e.e.e.",
"e.e.e.e.e.e.e.2 2 U U U U & & & & & & & & & & & & & & & & & & & & & & & : : : : : : ` ` ` `     2 h e.e.e.e.e.e.e.e.e.e.e.e.e.e.",
"e.e.e.e.e.e.e.e.e.        @ @ @ @ @ @ @ @ @ @ @ @ @ @ @ @ @ @ @ @ @ @ @ $ X X X X X # # # #     e.e.e.e.e.e.e.e.e.e.e.e.e.e.e.e.",
"e.e.e.e.e.e.e.e.e.> > > > 1 1 @ @ 1 1 1 1 1 1 1 1 1 1 1 1 1 1 1 1 1 1 1 : : x x { { # # # #     e.e.e.e.e.e.e.e.e.e.e.e.e.e.e.e.",
"e.e.e.e.e.e.e.e.e.e.e.e.e.    4 K                                       K 4 d d # # # # # #     e.e.e.e.e.e.e.e.e.e.e.e.e.e.e.e.",
"e.e.e.e.e.e.e.e.e.e.e.e.e.    4 K                                       K 4 d d # # # # # #     e.e.e.e.e.e.e.e.e.e.e.e.e.e.e.e.",
"e.e.e.e.e.e.e.e.e.e.e.e.e.    # # >.u                               u >.4 4 # # 3 3 # # # #     < Z e.e.e.e.e.e.e.e.e.e.e.e.e.e.",
"e.e.e.e.e.e.e.e.e.e.e.e.e.    # # g u                               u g m 4 # # 3 3 # # # #       Z e.e.e.e.e.e.e.e.e.e.e.e.e.e.",
"e.e.e.e.e.e.e.e.e.e.e.e.e.    _ _ g u                               u g m 4 _ _ 3 3 # # # #     B B z z z a e.e.e.e.e.e.e.e.e.e.",
"e.e.e.e.e.e.e.e.e.e.e.e.e.    3 ) g u                               u g m 4 3 3 3 3 # # # #     + 0       z e.e.e.e.e.e.e.e.e.e.",
"e.e.e.e.e.Y Y Y Y Y Y e.e.    8.7.6.4.o.o.o.e                       u g m 4 3 3 3 3 # # I I     + 0 i i i  .h h h [ e.e.e.e.e.e.",
"e.e.e.e.e.T T T T T T e.e.    r r r r r r r :.                      u g m 4 3 3 3 3 # # *.d     + + + + + B S S S a e.e.e.e.e.e.",
"e.e.e.+.+.6 6 6 6 6 6 <.<.< < r r r r r r r :.                      u g 4 4 ) ) ) ) # # d d     + + + + + B       a t t t n e.e.",
"e.e.e.| | 6 6 6 6 6 6 ,.,.1.1.m m 5.u R R R R                       u g m 4 K K *.*.-.-.;.;.    + + + + + + 0 0 0 #.Z Z Z @.e.e.",
"e.e.e.| 6 6 6 6 6 6 6 r r r r 4 4 g u                               u g m 4 4 4 d d d d O O     + + + + + + + + + 9       h e.e.",
"e.e.e.3.D D D D D D D } } } } C C ( ( 7 Q                   f 7 7 7 ( ( C C C C V V V V O O f f + + + + + + + + + 0 w i   h e.e.",
"e.e.e.e.e.e.e.e.e.e.e.e.e.e.e.o o o o % v                   Q o o o o o o o o o O O O O O O O O + + + + + + + + + + + i   h e.e.",
"e.e.e.e.e.e.e.e.e.e.e.e.e.H H o o o o o M 0 0 0 0 0 0 0 0 0 7 o o % o % o % o o O O O O O O O O f f f f + + + + + w 9 z H [ e.e.",
"e.e.e.e.e.e.e.e.e.e.e.e.e.F F o o o o o % % % % % % % % % % % o o o o o o o o o O O O O O O O O q O q Q + + + + + 9   H n e.e.e.",
"e.e.e.e.e.e.e.e.e.e.e.e.e.A A 7 7 o o o o o o o o o o o c c % o o o o o % o o % v v O O O O O O O O O Q + + w w w #.A h e.e.e.e.",
"e.e.e.e.e.e.e.e.e.e.e.e.e.! ! P P o % o o o o o o o o o 7 p 8 o o o o o o o o o c c O O O O O O O O O q q + P P P a ! - e.e.e.e.",
"e.e.e.e.e.e.e.e.e.e.e.e.e.e.e.  < o o o o o o o o o o % 7 O 8 o o o o o o o o o o o O O O O O O O O O O O +       a e.e.e.e.e.e.",
"e.e.e.e.e.e.e.e.e.e.e.e.e.e.e.  < o o o o o o o o % o o c 8 7 v v v c o o % o o o o O O O O O O O O O O O Q f B   E > > > > > N ",
"e.e.e.e.e.e.e.e.e.e.e.e.e.e.e.  < o o o o % o o o o o o o o 7 O O O c o o o % o o o O O O O O O O O O O O O q 0               X.",
"e.e.e.e.e.e.e.e.e.e.e.e.e.e.e.    O.O.o o o o o o o o o o o 7 O O O 7 7 7 7 o o o o M M M M O O O O O O O O O f w w w w w i   X.",
"e.e.e.e.e.e.e.e.e.e.e.e.e.e.e.  < 3 _ o o o o o o o o o o o 7 O O O O O O O o o o o o % o o O O O O O O O O O O O O O O q 9   X.",
"e.e.e.e.e.e.e.e.e.e.e.e.e.e.e.  < %.%.o o o c 8 C ( C o o o M v p O J J J J 8 8 8 8 8 8 8 8 O O O O O O O O O O O O O f + $.z [ ",
"e.e.e.e.e.e.e.e.e.e.e.e.e.e.e.  < ^ G o o o 8 p =.K &.o % % % c v O G G G G p p p p p p p p O O O O O O O O O O O O O B P 2 ! n ",
"e.e.e.e.e.e.e.e.e.e.e.e.e.e.e.  < ^ G % % % 8 O =.4 &.% % o o o v O G ^ ^ ^ q q q q q q O O O O O O O O O q q q q q q B F h e.e.",
"e.e.e.e.e.e.e.e.e.e.e.e.e.e.e.    j j s s s J 8 M V J s V o o o c 8 V J j j s s s s s s O O O O O O O O O f i i i i i a N ! e.e.",
"e.e.e.e.e.e.e.e.e.e.e.e.e.e.e.    y y y y y s o M O s y V o o o o o p O y y y y y y y y O O O O O O O O O +           H e.e.e.e.",
"e.e.e.e.e.e.e.e.e.e.e.e.e.e.e.2 2 5 5 5 5 5 ..w B 9 i 5 9 w w w w w 9 9 5 5 5 5 5 5 5 5 9 9 9 9 9 9 9 9 9  .2 2 2 2 2 [ e.e.e.e.",
"e.e.e.e.e.e.e.e.e.e.e.e.e.e.e.e.n                                                                         z e.e.e.e.e.e.e.e.e.e.",
"e.e.e.e.e.e.e.e.e.e.e.e.e.e.e.e.n           E , , , , , , , , , , , , , F           , , , , , , , , , , , H e.e.e.e.e.e.e.e.e.e.",
"e.e.e.e.e.e.e.e.e.e.e.e.e.e.e.e.n           ' - - - - - - - - - - - - - S           - - - - - - - - - - - t e.e.e.e.e.e.e.e.e.e.",
"e.e.e.e.e.e.e.e.e.e.e.e.e.e.e.e.n E E       ' e.e.e.e.e.e.e.e.e.e.e.e.e.A E         e.e.e.e.e.e.e.e.e.e.e.e.e.e.e.e.e.e.e.e.e.e.",
"e.e.e.e.e.e.e.e.e.e.e.e.e.e.e.e.e.N @.      ' e.e.e.e.e.e.e.e.e.e.e.e.e.N N         e.e.e.e.e.e.e.e.e.e.e.e.e.e.e.e.e.e.e.e.e.e.",
"e.e.e.e.e.e.e.e.e.e.e.e.e.e.e.e.e.e.]       ' e.e.e.e.e.e.e.e.e.e.e.e.e.e.e.        e.e.e.e.e.e.e.e.e.e.e.e.e.e.e.e.e.e.e.e.e.e."
};
