/* XPM */
static char *e6743946ba074024a996d036d30f8be9[] = {
/* columns rows colors chars-per-pixel */
"64 64 134 2 ",
"   c black",
".  c #82602C",
"X  c #654223",
"o  c #800D00",
"O  c #B31300",
"+  c #5B0C03",
"@  c #363245",
"#  c #9C7935",
"$  c #040100",
"%  c #47301C",
"&  c #C67523",
"*  c #83602C",
"=  c #554E65",
"-  c #916F31",
";  c #1C140B",
":  c #82612C",
">  c #44260C",
",  c #DBFD02",
"<  c #714F27",
"1  c #654323",
"2  c #7C0C00",
"3  c #543517",
"4  c #7C592A",
"5  c #B21300",
"6  c #010000",
"7  c #664B22",
"8  c black",
"9  c black",
"0  c black",
"q  c #940F00",
"w  c #1D0300",
"e  c #906D31",
"r  c black",
"t  c None",
"y  c #7A5F29",
"u  c #600900",
"i  c #840D00",
"p  c #981000",
"a  c #A41100",
"s  c #060301",
"d  c black",
"f  c #9B7835",
"g  c black",
"h  c #DE880F",
"j  c #FF9C11",
"k  c #AB1100",
"l  c #5B2715",
"z  c #9E5D1B",
"x  c #7C4901",
"c  c #2F0601",
"v  c black",
"b  c #624021",
"n  c #83612C",
"m  c #6F0F03",
"M  c #8A0E00",
"N  c black",
"B  c #900F00",
"V  c #400802",
"C  c black",
"Z  c black",
"A  c #483732",
"S  c #997533",
"D  c #B71C02",
"F  c #7D4201",
"G  c #9D7935",
"H  c black",
"J  c black",
"K  c #875322",
"L  c #392713",
"P  c black",
"I  c #4E2D19",
"U  c #6C4A25",
"Y  c black",
"T  c #4A0801",
"R  c black",
"E  c black",
"W  c #774907",
"Q  c yellow",
"!  c black",
"~  c #540C04",
"^  c #040301",
"/  c #1C140D",
"(  c #9E6020",
")  c #604720",
"_  c #831302",
"`  c #7E1E00",
"'  c #592024",
"]  c #8F3E09",
"[  c #876833",
"{  c #AE661F",
"}  c #3F3116",
"|  c #337511",
" . c #A91F01",
".. c #DCFF03",
"X. c #0C0D04",
"o. c #DCFD04",
"O. c black",
"+. c #300601",
"@. c #6A4725",
"#. c #A5320C",
"$. c #6B524A",
"%. c #281B0D",
"&. c #604439",
"*. c #A37730",
"=. c #3C8915",
"-. c #1F480B",
";. c #DBFD02",
":. c #DBFF00",
">. c #7F5D4D",
",. c #2B1D0E",
"<. c #851503",
"1. c #BB4211",
"2. c #823235",
"3. c #DDFF00",
"4. c #537549",
"5. c #51BC1B",
"6. c #78AE19",
"7. c #51B91E",
"8. c #DCFD05",
"9. c #7A5F28",
"0. c #2A0602",
"q. c #1A0300",
"w. c #290400",
"e. c #C46C21",
"r. c #472A35",
"t. c #2A5F0F",
"y. c #86A618",
"u. c #91AD18",
"i. c #264911",
"p. c #3F0000",
"a. c black",
"s. c #00002C",
"d. c #47704C",
"f. c None",
/* pixels */
"f.f.f.f.f.f.f.f.f.f.f.f.f.f.f.f.f.f.f.f.f.f.v                                   f.f.f.f.f.f.f.f.f.f.f.f.f.f.f.f.f.f.f.f.f.f.f.f.",
"f.f.f.f.f.f.f.f.f.f.f.f.f.f.f.f.f.f.f.f.f.f.v                                   f.f.f.f.f.f.f.f.f.f.f.f.f.f.f.f.f.f.f.f.f.f.f.f.",
"f.f.f.f.f.f.f.f.f.f.f.f.f.f.f.f.f.f.Z s s s ,.7 7 7 7 7 7 7 7 7 7 7 7 7 7 7 7 7 s s f.f.f.f.f.f.f.f.f.f.f.f.f.f.f.f.f.f.f.f.f.f.",
"f.f.f.f.f.f.f.f.f.f.f.f.f.f.f.f.f.f.Z       %.. . . * . . . . . . . . . : . . *     f.f.f.f.f.f.f.f.f.f.f.f.f.f.f.f.f.f.f.f.f.f.",
"f.f.f.f.f.f.f.f.f.f.f.f.f.f.f.f.Y H ^ L L L 3 . . . . . . . n . . . . . . . . . %.%.H H f.f.f.f.f.f.f.f.f.f.f.f.f.f.f.f.f.f.f.f.",
"f.f.f.f.f.f.f.f.f.f.f.f.f.f.f.f.0   X.. . . . . . . . . . . . . . . . . . . . . X X     f.f.f.f.f.f.f.f.f.f.f.f.f.f.f.f.f.f.f.f.",
"f.f.f.f.f.f.f.f.f.f.f.f.f.f.f.0 9 $ X.. . . * . . . . . . . . . . . . . . . . . X X     0 0 0 0 f.f.f.f.f.f.f.f.f.f.f.f.f.f.f.f.",
"f.f.f.f.f.f.f.f.f.f.f.f.f.f.f.  $ # S . . . . * . . . . . . . . . . . . . . . : X X > >         f.f.f.f.f.f.f.f.f.f.f.f.f.f.f.f.",
"f.f.f.f.f.f.f.f.f.f.f.f.f.f.f.  $ # S . . . . . * . . . . . * . . . * . . . . . X X > >         f.f.f.f.f.f.f.f.f.f.f.f.f.f.f.f.",
"f.f.f.f.f.f.f.f.f.f.f.f.f.g g > > G S . . . . . . . . : . . . . S # f f n . 1 1 X X > > b b b b g g g N f.f.f.f.f.f.f.f.f.f.f.f.",
"f.f.f.f.f.f.f.f.f.f.f.f.f.    > > # S . . . : . . . . . . . . . S # # # n * X X X X > > X 1 X X       N f.f.f.f.f.f.f.f.f.f.f.f.",
"f.f.f.f.f.f.f.f.f.f.f.R R     > > 4 4 - - e - - - - - - - - [ . 4 4 4 4 < < X X X X > > X X X X L L 3 A R 6 f.f.f.f.f.f.f.f.f.f.",
"f.f.f.f.f.f.f.f.f.f.f.        > > X @.f # G # # # # G # # # [ . U X X X X X X X X X > > X X X X X 1 . <   d f.f.f.f.f.f.f.f.f.f.",
"f.f.f.f.f.f.f.8 8 8 8 ; ; ; ; > > X @.e e e e e e e e e e e . 4 @.X X X X X X X X X I I X X X X U U . < ; s 8 Z f.f.f.f.f.f.f.f.",
"f.f.f.f.f.f.f.        . . . . > > 1 X X X X X X X X X X X X X X X 1 X X X X X X X X X X 1 X X X . . . . . )   C f.f.f.f.f.f.f.f.",
"f.f.f.f.f.f.f.        : . . . > > X X X X X X X X X X X X X X X X X X X X X X X X X X X X X X X . . . : * )   C f.f.f.f.f.f.f.f.",
"f.f.f.f.f.    . . : * . . . . . . X X X X X X X X X X X X X X X X X X X 1 1 X X X X X X . . . . . * . . . )   C f.f.f.f.f.f.f.f.",
"f.f.f.f.f.    . . . . . . . : . . X X X X X X X X X X X X 1 X X X X X X X X X X X X X X . * . . . . . . * )   C f.f.f.f.f.f.f.f.",
"f.f.f.f.f.    . . . . . . . . . . 4 4 X 1 X X X X X X X X X X 1 X X X X 4 4 4 4 4 4 4 4 . . . . . . . 4 U 3   C f.f.f.f.f.f.f.f.",
"f.f.f.f.f.    : : . . . . . . * . . y 1 X X X 1 X X X X X X X X X X X X . : : . * : . * . . : . . . n 4 1 %   C f.f.f.f.f.f.f.f.",
"f.f.f.f.f.    . . . : . . : . : . . . < < < < < < < < < < < < < < < < < . . . . . . . . . * . . < < < U L ,.R J f.f.f.f.f.f.f.f.",
"f.f.f.f.f.    . . . . . . . . . . . . . . . . . . . . . * : . . . : . : . . . * . . . : . . . . 1 X X 3   d f.f.f.f.f.f.f.f.f.f.",
"f.f.f.f.f.    n n n n . . . . . * . . . . . . . * . . . * . . . . . . . . . . . . . . . . . . . b b b 3 g d f.f.f.f.f.f.f.f.f.f.",
"f.f.f.f.f.    # # # # . . * . . . . . . . . . . . : . . . . . . . . . : : . . . . . : . X X X X       N f.f.f.f.f.f.f.f.f.f.f.f.",
"f.f.f.f.f.    # # # # . . . . . . . . . . . . . . * . . . . . * . . . . . . . . . . . . X X X X       N f.f.f.f.f.f.f.f.f.f.f.f.",
"f.f.f.f.f.0 0 $ $ $ $ f f f f * . . . . . . . . . . . . . . . * . * . . 1 X X 1 1 1 X 1 @ @ $ $ 0 0 0 0 f.f.f.f.f.f.f.f.f.f.f.f.",
"f.f.f.f.f.f.f.        G # # G . . . . . * . : : . . . . . . * . . . . . 1 X X X X X X 1 @ @     f.f.f.f.f.f.f.f.f.f.f.f.f.f.f.f.",
"f.f.f.f.f.f.f.H H H H } } } } - - - - - - - - - - - - - - - - - - - - - ( ( K K A A A A @ @     f.f.f.f.f.f.f.f.f.f.f.f.f.f.f.f.",
"f.f.f.f.f.f.f.f.f.f.f.        G # # G # # # f f f # # # # f # # # # # # & & z ( @ @ @ @ @ @     f.f.f.f.f.f.f.f.f.f.f.f.f.f.f.f.",
"f.f.f.f.f.f.f.f.f.f.f.s s     [ [ *.*.y y y y 9.y y y y y y y y y y S *.& & K K @ @ @ @ @ @     8 8 f.f.f.f.f.f.f.f.f.f.f.f.f.f.",
"f.f.f.f.f.f.f.f.f.f.f.f.f.    @ @ & {                               { & & & @ @ = = @ @ @ @       O.f.f.f.f.f.f.f.f.f.f.f.f.f.f.",
"f.f.f.f.f.f.f.f.f.f.f.f.f.    @ @ & {                               { & & & @ @ = = @ @ @ @       O.f.f.f.f.f.f.f.f.f.f.f.f.f.f.",
"f.f.f.f.f.f.f.f.f.f.f.f.f.    = = j h                               h j & & = = = = @ @ @ @     + ~ ! ! ! d f.f.f.f.f.f.f.f.f.f.",
"f.f.f.f.f.f.f.f.f.f.f.f.f.    = = j h                               h j & & = = = = @ @ @ @     + ~       d f.f.f.f.f.f.f.f.f.f.",
"f.f.f.f.f.f.f.f.f.f.f.f.f.    = = 6.6.=.=.=.t.                      h j & & = = = = @ @ K K     + + V V V +.d ^ f.f.f.f.f.f.f.f.",
"f.f.f.f.f.f.f.f.f.f.f.f.f.    = = t t t t t |                       h j & & = = = = @ @ z z     + + + + + V   C f.f.f.f.f.f.f.f.",
"f.f.f.f.f.f.f.........7.7.-.-.4.4.u.y.| | | i.                      h j & & >.>.$.$.&.&.] ]     + + + + + T w s J 8 f.f.f.f.f.f.",
"f.f.f.f.f.f.f., , , , t t t t t t j h $ $ $ $                       h j & & & & z ( z z o o     + + + + + + + V g E f.f.f.f.f.f.",
"f.f.f.f.f.:.:., , , , t t t t t t j h $ $                   $ $ $ $ h j & & & & z z z z o o $ $ + + + + + + + V $ R 0 Y f.f.f.f.",
"f.f.f.f.f.;.;., , , , 5.5.X.X. . .D D a i                   m a a a D D D D <.<._ _ _ _ o o 2 2 + + + + + + + + ~ c O.6 f.f.f.f.",
"f.f.f.f.f., , , , , , f.f.    O O O O O B                   2 5 O O O O O O o o o o o o o o o o + + + + + + + + + c   ^ f.f.f.f.",
"f.f.f.f.f., , , , 3.3.f.f.    O O O O O k q q q q B B q q q k O O O O O O O o o o o o o o o o o 2 2 + + + + + + + ~ T +.N v f.f.",
"f.f.f.f.f., , , , f.f.f.f.    O O O 5 O O O O O 5 O O O O O O O O O O O O O o o o o o o o o o o o 2 + + + + + + + + + 0.  J f.f.",
"f.f.f.f.f.8.o.o.o.f.f.f.f.E E + u O O O O O O O O O O O a p k O O O O 5 O O p p o o o o o o o o o o m m m + c c c c c w   J f.f.",
"f.f.f.f.f.Q Q Q Q f.f.f.f.Y Y $ $ O O O O O O O O O O O p o a 5 O O O O O O 5 5 o o o o o o o o o o o o o u               J f.f.",
"f.f.f.f.f.f.f.f.f.f.f.f.f.f.f.  $ O O O O O O O O O O O q o p k 5 O O O O O O O M M o o o o o o o o o o o u           P N v f.f.",
"f.f.f.f.f.f.f.f.f.f.f.f.f.f.f.  $ O O O O O O O O O O O q o i i k O O O O O O O k k o o o o o o o o o o o u           E Z 9 f.f.",
"f.f.f.f.f.f.f.f.f.f.f.f.f.f.f.  $ O O 5 O O O O O O O O q o o o a O O O O O O 5 O O o o o o o o o o o o o u           ^ f.f.f.f.",
"f.f.f.f.f.f.f.f.f.f.f.f.f.f.f.  $ O O O O O O O O O O O q o o o M M M M 5 O O O O O k k o o o o o o o o o 2 u u u u u +.s s s 8 ",
"f.f.f.f.f.f.f.f.f.f.f.f.f.f.f.  $ O O 5 O 5 O O O O O O q o o o o o o o 5 O O O O O O O o o o o o o o o o o o o o o o V       v ",
"f.f.f.f.f.f.f.f.f.f.f.f.f.f.f.  $ 2.2.O O O k p a O O O a p M o ' ' ' ' q p p p p p p p o o o o o o o o o o o o o o o u T w   v ",
"f.f.f.f.f.f.f.f.f.f.f.f.f.f.f.  $ = = O O O a o q O O O O O B o r.@ @ @ 2 o o o o o o o o o o o o o o o o o o o o o o o o c   v ",
"f.f.f.f.f.f.f.f.f.f.f.f.f.f.f.  $ $.&. . .O a o p #.D O O O B o I A A A ` ` ` ` m m o o o o o o o o o o o o o o o m u u u w.d 8 ",
"f.f.f.f.f.f.f.f.f.f.f.f.f.f.f.  $ W W F ] O a o #.e.1.O O O B o F W W W F F F F I I o o o o o o o o o o o o o o o T $ $ $ 6 Z 0 ",
"f.f.f.f.f.f.f.f.f.f.f.f.f.f.f.  $ x x x ] 5 a o #.& 1.5 5 5 B o F x x x x x x x % % o o 2 2 2 2 2 2 2 2 2 2 2 2 2 T g g g J f.f.",
"f.f.f.f.f.f.f.f.f.f.f.f.f.f.f.    3 3 3 3 l l l 3 b 3 l l l l l 3 3 3 3 3 3 3 3 % % l l w w w w w w w w w w w w w q.8 8 8 Z f.f.",
"f.f.f.f.f.f.f.f.f.f.f.f.f.f.f.    % % % % % % % % % % % % % % % % % % % % % % % % % % %                           E f.f.f.f.f.f.",
"f.f.f.f.f.f.f.f.f.f.f.f.f.f.f.6 6 ; ; ; ; ; ; ; ; ; ; ; ; ; ; ; ; ; ; ; / ; / ; ; / ; / 6 6 6 6 6 6 6 6 6 6 6 6 6 8 f.f.f.f.f.f.",
"f.f.f.f.f.f.f.f.f.f.f.f.f.f.f.f.0                                                       f.f.f.f.f.f.f.f.f.f.f.f.f.f.f.f.f.f.f.f.",
"f.f.f.f.f.f.f.f.f.f.f.f.f.f.f.f.0           P r r r r r r r r r r r r r !           r r f.f.f.f.f.f.f.f.f.f.f.f.f.f.f.f.f.f.f.f.",
"f.f.f.f.f.f.f.f.f.f.f.f.f.f.f.f.0           d 9 9 9 9 9 9 9 9 9 9 9 9 9 g           9 9 f.f.f.f.f.f.f.f.f.f.f.f.f.f.f.f.f.f.f.f.",
"f.f.f.f.f.f.f.f.f.f.f.f.f.f.f.f.Y P P     ! d f.f.f.f.f.f.f.f.f.f.f.f.f.N P         f.f.f.f.f.f.f.f.f.f.f.f.f.f.f.f.f.f.f.f.f.f.",
"f.f.f.f.f.f.f.f.f.f.f.f.f.f.f.f.f.8 v       d f.f.f.f.f.f.f.f.f.f.f.f.f.8 8         f.f.f.f.f.f.f.f.f.f.f.f.f.f.f.f.f.f.f.f.f.f.",
"f.f.f.f.f.f.f.f.f.f.f.f.f.f.f.f.f.f.Z     ! d f.f.f.f.f.f.f.f.f.f.f.f.f.f.f.        f.f.f.f.f.f.f.f.f.f.f.f.f.f.f.f.f.f.f.f.f.f."
};
