/* XPM */
static char *_1b99c28d1a340cabe46b28031e652e8[] = {
/* columns rows colors chars-per-pixel */
"64 64 144 2 ",
"   c black",
".  c #82602C",
"X  c #654223",
"o  c #B31300",
"O  c #800D00",
"+  c #5B0D04",
"@  c #363245",
"#  c #9C7935",
"$  c #47301B",
"%  c #83602C",
"&  c #040200",
"*  c #654323",
"=  c #916F31",
"-  c #44260C",
";  c #544E66",
":  c #1D140C",
">  c #684A23",
",  c #B31200",
"<  c #390600",
"1  c #C77623",
"2  c #714E27",
"3  c #82612C",
"4  c #010000",
"5  c #523617",
"6  c #AB1200",
"7  c #DBFD02",
"8  c #7C582A",
"9  c black",
"0  c #8B0E00",
"q  c #9B7835",
"w  c black",
"e  c black",
"r  c #2C0501",
"t  c black",
"y  c black",
"u  c #7C0D00",
"i  c #850E00",
"p  c #7A5F29",
"a  c black",
"s  c #FF9D12",
"d  c #7D4900",
"f  c black",
"g  c #930F00",
"h  c #B51A02",
"j  c #C47323",
"k  c #906D31",
"l  c #5D0900",
"z  c black",
"x  c black",
"c  c #634021",
"v  c #1C150A",
"b  c #79490D",
"n  c black",
"m  c #DE880F",
"M  c #50B71C",
"N  c #800C00",
"B  c black",
"V  c #815F2C",
"C  c #140200",
"Z  c #493834",
"A  c #D8F400",
"S  c #420701",
"D  c None",
"F  c #83612C",
"G  c #734206",
"H  c #977433",
"J  c black",
"K  c #A51100",
"L  c #352712",
"P  c #855321",
"I  c #3F3116",
"U  c #604721",
"Y  c #9E5C1A",
"T  c #562A16",
"R  c #9E5E1B",
"E  c black",
"W  c black",
"Q  c #4C321C",
"!  c #552228",
"~  c #941D07",
"^  c #DBFC03",
"/  c #327211",
"(  c #E18B10",
")  c black",
"_  c black",
"`  c #7E2F00",
"'  c black",
"]  c #583D1E",
"[  c #78584B",
"{  c #7E5B2B",
"}  c #412C3A",
"|  c #C36D21",
" . c #291B0B",
".. c #3C8915",
"X. c #82AC18",
"o. c #050401",
"O. c #352612",
"+. c black",
"@. c #2D0500",
"#. c #720C00",
"$. c #991000",
"%. c black",
"&. c #B82E0A",
"*. c #680A00",
"=. c #A32204",
"-. c #FA9610",
";. c #765428",
":. c #DBFC02",
">. c #89662E",
",. c #823235",
"<. c #520902",
"1. c #26580D",
"2. c #A73306",
"3. c #934011",
"4. c #5D4335",
"5. c #3D384C",
"6. c #70481A",
"7. c #624A45",
"8. c #110D05",
"9. c #B5762A",
"0. c #9D5F23",
"q. c #AF7F2D",
"w. c #A7662B",
"e. c #519D2E",
"r. c #55AA2A",
"t. c #3B3444",
"y. c #7C9F1F",
"u. c #50B71A",
"i. c #50B71C",
"p. c #DCFC03",
"a. c #DCFF03",
"s. c #E08117",
"d. c black",
"f. c #E58B19",
"g. c #0A0200",
"h. c #DBFE03",
"j. c #5F475A",
"k. c #387F13",
"l. c #382204",
"z. c #3C8914",
"x. c black",
"c. c #00002C",
"v. c #47704C",
"b. c None",
/* pixels */
"b.b.b.b.b.b.b.b.b.b.b.b.b.b.b.b.b.b.b.b.b.b.b.b.t                               b.b.b.b.b.b.b.b.b.b.b.b.b.b.b.b.b.b.b.b.b.b.b.b.",
"b.b.b.b.b.b.b.b.b.b.b.b.b.b.b.b.b.b.b.b.b.b.b.b.t                               b.b.b.b.b.b.b.b.b.b.b.b.b.b.b.b.b.b.b.b.b.b.b.b.",
"b.b.b.b.b.b.b.b.b.b.b.b.b.b.b.b.b.b.e n n n n n O.> > > > > > > > > > > > > > > n n b.b.b.b.b.b.b.b.b.b.b.b.b.b.b.b.b.b.b.b.b.b.",
"b.b.b.b.b.b.b.b.b.b.b.b.b.b.b.b.b.b.+.          L . . 3 . . . . . . . . . . . .     b.b.b.b.b.b.b.b.b.b.b.b.b.b.b.b.b.b.b.b.b.b.",
"b.b.b.b.b.b.b.b.b.b.b.b.b.b.b.b.' t o.L L L L L ] . . . . . . . % . . . . . . .  . .t t t t b.b.b.b.b.b.b.b.b.b.b.b.b.b.b.b.b.b.",
"b.b.b.b.b.b.b.b.b.b.b.b.b.b.b.b.y   8.. . . . . . . . . . 3 % . % . . % . . . . X X         b.b.b.b.b.b.b.b.b.b.b.b.b.b.b.b.b.b.",
"b.b.b.b.b.b.b.b.b.b.b.b.b.b.b.y 9 & 8.. . . . . . . . . . . . . . . . . . . . . X X     & & y y y y b.b.b.b.b.b.b.b.b.b.b.b.b.b.",
"b.b.b.b.b.b.b.b.b.b.b.b.b.b.b.  & # H . . . . . . . . . . . . . . . 3 . . . . . X X - - X X       _ b.b.b.b.b.b.b.b.b.b.b.b.b.b.",
"b.b.b.b.b.b.b.b.b.b.b.b.b.b.b.  & # H . . . . . . . . . . . . . . . . . . . . F X X - - * X       _ b.b.b.b.b.b.b.b.b.b.b.b.b.b.",
"b.b.b.b.b.b.b.b.b.b.b.b.b.x x - - # H . . . . . 3 . . . . . . . H q # q F % * * X X - - X X c c c ] x x x 4 b.b.b.b.b.b.b.b.b.b.",
"b.b.b.b.b.b.b.b.b.b.b.b.b.    - - q H . . . . . . % . . . . . . H # q # F . X X X X - - X X X X X ]       4 b.b.b.b.b.b.b.b.b.b.",
"b.b.b.b.b.b.b.b.b.f f f f     - - 8 { = = = = = = = = = = = >.. { 8 8 8 2 2 X X X X - - X X X X X c 5 5 5 O.f %.b.b.b.b.b.b.b.b.",
"b.b.b.b.b.b.b.b.b.            - - X > # # # # # # # # # # # >.. > X X X X X X X X X - - X X X X X * . . . U   B b.b.b.b.b.b.b.b.",
"b.b.b.b.b.b.b.z z v v v v v v - - X > k k k k k k k k k k k . 8 > X X X X X X X X X T $ X * X X > > . % . U   B b.b.b.b.b.b.b.b.",
"b.b.b.b.b.b.b.    . . . . . . - - X X X X X X X * X * X X X X X X X X X X X X X X X X c X X X X . 3 . . . U   B b.b.b.b.b.b.b.b.",
"b.b.b.b.b.b.b.    . . . . . . - - X * X X X X X X X X X X * X * X X * X X X X X X X X X X X X X . . . . . U   B b.b.b.b.b.b.b.b.",
"b.b.b.b.b.    . . . . . . . . 3 V X X X X X X X X X X X X X X X X X X X X * X X X X X X . . . . . 3 . . . U   B b.b.b.b.b.b.b.b.",
"b.b.b.b.b.    . . . . . . . . . V X X X X X X X X X X X X X X X X X X X X X X * X X X X . . . . . F 3 . . U   B b.b.b.b.b.b.b.b.",
"b.b.b.b.b.    . 3 . . . . . . . . 8 8 X X X X X X X X X X * X X X X X X 8 8 8 8 8 8 8 8 . . . . . . . { > 5   B b.b.b.b.b.b.b.b.",
"b.b.b.b.b.    . . . . . . % % 3 3 . { * X X * X X X * X X X X X X X X X V . . % . % . . . . . . . . . { X Q   B b.b.b.b.b.b.b.b.",
"b.b.b.b.b.    . . . . . . . . . . . V 2 2 2 2 2 2 2 2 2 2 2 2 2 2 2 2 2 V . 3 . . . . . . . . . ;.;.;.2 L O.f %.b.b.b.b.b.b.b.b.",
"b.b.b.b.b.    % . . . . 3 . . . . . . . . . . . . . . . . 3 . . . . . . . . . % . . . . . . . . X X X 5   4 b.b.b.b.b.b.b.b.b.b.",
"b.b.b.b.b.    F F F % . . . . . . . . . % . . . . . . . . . . . . . . . . . . . 3 . . . V V V V c c c 5 x 4 b.b.b.b.b.b.b.b.b.b.",
"b.b.b.b.b.    # # # # . . 3 . . . . . . . . . . . . . . . . . . . . . . . . . . . . . . X X X X       W b.b.b.b.b.b.b.b.b.b.b.b.",
"b.b.b.b.b.    # # # # . 3 . . . . . 3 . . . . F . . . . . . . . . . % . . . . . . . . . * X X X       W b.b.b.b.b.b.b.b.b.b.b.b.",
"b.b.b.b.b.y y & & & & q q q q q q . . . . . % 3 . . 3 . . . . . H q q q * * X * * * * * @ @ & & y y y y b.b.b.b.b.b.b.b.b.b.b.b.",
"b.b.b.b.b.b.b.        q # # # # q . . . . . . % . . . . . . . . H # # # * X X * X X X X @ @     b.b.b.b.b.b.b.b.b.b.b.b.b.b.b.b.",
"b.b.b.b.b.b.b.t t t t I I I I 9.9.= = = = = = = = = = = = = = = ] I I I 0.0.P P Z Z Z Z @ @     f f f f f f f %.b.b.b.b.b.b.b.b.",
"b.b.b.b.b.b.b.b.b.b.b.        1 1 # # # # # # # q # # # # # # #  .      | 1 R R @ @ @ @ @ @                   B b.b.b.b.b.b.b.b.",
"b.b.b.b.b.b.b.b.b.b.b.n n     w.w.q.q.p p p p p p p p p p p p p v    .l.j 1 P P 5.5.@ @ @ @     C C C C C C C 4 z +.b.b.b.b.b.b.",
"b.b.b.b.b.b.b.b.b.b.b.b.b.    @ t.s (                               m s 1 1 @ @ ; ; @ @ @ @     + + + + + + + <   E b.b.b.b.b.b.",
"b.b.b.b.b.b.b.b.b.b.b.b.b.    @ t.s (                               m s 1 1 @ @ ; ; @ @ @ @     + + + + + + + <   E b.b.b.b.b.b.",
"b.b.b.b.b.b.b.b.b.b.b.b.b.    ; ; s (                               m s 1 1 ; ; ; ; @ @ @ @     + + + + + + + + + < & o.b.b.b.b.",
"b.b.b.b.b.b.b.b.b.b.b.b.b.    ; ; s (                               m s 1 1 ; ; ; ; @ @ @ @     + + + + + + + + + r   o.b.b.b.b.",
"b.b.b.b.b.^ ^ h.^ ^ ^ i.i...z.e.e.X.X.......1.                      m s 1 j ; ; ; ; @ @ P P     + + + + + + + + + <.S @.4 J b.b.",
"b.b.b.b.b.7 7 7 7 7 7 M M M M M M M M M M M k.                      m s 1 1 ; ; ; ; @ @ R R     + + + + + + + + + + + r   a b.b.",
"b.b.b.p.a.7 7 7 7 7 7 u.u./ / y.y.X.X./ / / 1.                      m s 1 1 [ [ [ [ 4.4.3.3.r r + + + + + + + + + + + r   a b.b.",
"b.b.b.:.D 7 7 7 7 7 7 r.r.& & 1 1 s ( & & & &                       m s 1 1 1 j R R R R O O u u + + + + + + + + + + + r   a b.b.",
"b.b.b.:.D D D D D D D b.b.    j j -.m & &                     & & & m -.1 j j j Y Y Y Y O O O O + + + + + + + + + + + r   a b.b.",
"b.b.b.A A A A A A A A b.b.    h h h h K i                   #.K K K h h h h h h h h i i O O O O u u u u + S & & & r + r   a b.b.",
"b.b.b.b.b.b.b.b.b.b.b.b.b.    o o o o o 0                   u o o o , o o o o o o o O O O O O O O O O u + S       r + r   a b.b.",
"b.b.b.b.b.b.b.b.b.b.b.b.b.    o o o o o 6 g g g g g g g g g 6 , o o o o o o o o o o 6 6 N O O O O N O N u #.*.S   & C &   a b.b.",
"b.b.b.b.b.b.b.b.b.b.b.b.b.    o o o o o o o o o , o o o o o o o o o o o o o o o o o o o O O O O O O O O O O O <.          a b.b.",
"b.b.b.b.b.b.b.b.b.b.b.b.b.E E l l o o o o o o o o o o o o o o o o o o o o o o o , o o o O O O O O O O O O N O *.S S S C   a b.b.",
"b.b.b.b.b.b.b.b.b.b.b.b.b.' '   & o o o o o o o o o o o o o o o o o o o o o o o o o o o O O O O O O O O O O O O u u u <   a b.b.",
"b.b.b.b.b.b.b.b.b.b.b.b.b.b.b.  & o o o o o o o o o o o 6 6 6 6 6 6 6 6 6 6 o o o o o , 0 0 O O O O O N O N O O O O O <   a b.b.",
"b.b.b.b.b.b.b.b.b.b.b.b.b.b.b.  & o o o , o o o o o o o $.i i i i i i i i i o o o o o o 6 6 O O O O O O O O O O O O O <   a b.b.",
"b.b.b.b.b.b.b.b.b.b.b.b.b.b.b.  & o o o o o , o o , o o g O O O O O O O O O o o o o o o o o O O O O O O O O N O O O O <   a b.b.",
"b.b.b.b.b.b.b.b.b.b.b.b.b.b.b.  & o o o o o o o o o o o 6 K 0 O O O ! } u O 0 0 0 0 0 0 0 0 O O O O O O O O O O O O O #.*.@.n z ",
"b.b.b.b.b.b.b.b.b.b.b.b.b.b.b.  & o o o o , o o o , o o o o g O O O } @ u O O N O O O O O O O N O O O O O O O O O O O O O r   J ",
"b.b.b.b.b.b.b.b.b.b.b.b.b.b.b.  & ,.,.o o o 6 $.K o o o o o K $.i O } @ ! ! ! ! ` ` ` ` < < < < < < < < < < < < < < < l O r   J ",
"b.b.b.b.b.b.b.b.b.b.b.b.b.b.b.  & ; j.o o o K O g o o o o o o o 0 O } @ @ @ @ @ d d d d                               S O r   J ",
"b.b.b.b.b.b.b.b.b.b.b.b.b.b.b.  & 7.7.=.=.~ ~ 2.2.&.&.&.=.~ 6 o 0 O Q Z Z Z Z Z G G G G     4 4 4 4 4 4 4 4 4 4 4 4 4 @.l r   J ",
"b.b.b.b.b.b.b.b.b.b.b.b.b.b.b.  & b b d G T b -.s.| | | b T ~ o 0 O G b b b b b Q Q Q Q     e e e e e e e e e e e e e g.& &   J ",
"b.b.b.b.b.b.b.b.b.b.b.b.b.b.b.  & d d d G $ P s f.j j j 2 $ ~ o 0 O G d d d d d $ $ $ $     b.b.b.b.b.b.b.b.b.b.b.b.b.E x x x J ",
"b.b.b.b.b.b.b.b.b.b.b.b.b.b.b.    5 5 5 5 $ 5 6.6.c c c 5 $ T T T T 5 5 5 5 5 5 $ $ $ $     b.b.b.b.b.b.b.b.b.b.b.b.b.d.z z z e ",
"b.b.b.b.b.b.b.b.b.b.b.b.b.b.b.    $ $ $ $ $ $ $ $ $ $ $ $ $ $ $ $ $ $ $ $ $ $ $ $ $ $ $     b.b.b.b.b.b.b.b.b.b.b.b.b.b.b.b.b.b.",
"b.b.b.b.b.b.b.b.b.b.b.b.b.b.b.t t v : v : : : : : : : : : : : : : v : : : : : : : : : : t t b.b.b.b.b.b.b.b.b.b.b.b.b.b.b.b.b.b.",
"b.b.b.b.b.b.b.b.b.b.b.b.b.b.b.b.y                                                       b.b.b.b.b.b.b.b.b.b.b.b.b.b.b.b.b.b.b.b.",
"b.b.b.b.b.b.b.b.b.b.b.b.b.b.b.b.y           _ w w w w w w w w w w w w w &           w w b.b.b.b.b.b.b.b.b.b.b.b.b.b.b.b.b.b.b.b.",
"b.b.b.b.b.b.b.b.b.b.b.b.b.b.b.b.y           ) 9 9 9 9 9 9 9 9 9 9 9 9 9 x           9 9 b.b.b.b.b.b.b.b.b.b.b.b.b.b.b.b.b.b.b.b.",
"b.b.b.b.b.b.b.b.b.b.b.b.b.b.b.b.' W _       ) b.b.b.b.b.b.b.b.b.b.b.b.b.W W         b.b.b.b.b.b.b.b.b.b.b.b.b.b.b.b.b.b.b.b.b.b.",
"b.b.b.b.b.b.b.b.b.b.b.b.b.b.b.b.b.z J       ) b.b.b.b.b.b.b.b.b.b.b.b.b.z z         b.b.b.b.b.b.b.b.b.b.b.b.b.b.b.b.b.b.b.b.b.b.",
"b.b.b.b.b.b.b.b.b.b.b.b.b.b.b.b.b.b.+.      ) b.b.b.b.b.b.b.b.b.b.b.b.b.b.b.        b.b.b.b.b.b.b.b.b.b.b.b.b.b.b.b.b.b.b.b.b.b."
};
