/* XPM */
static char *_c5711e37fba4f43954b13aaa73a7ab8[] = {
/* columns rows colors chars-per-pixel */
"64 64 135 2 ",
"   c black",
".  c #82602C",
"X  c #800D00",
"o  c #654223",
"O  c #B31300",
"+  c #363245",
"@  c #5B0C04",
"#  c #9C7935",
"$  c #47301C",
"%  c #9B7834",
"&  c #1C130B",
"*  c #040200",
"=  c #82612C",
"-  c #544E66",
";  c #810C00",
":  c #654323",
">  c #44260C",
",  c #DBFD02",
"<  c #714E26",
"1  c #C77623",
"2  c #3F3116",
"3  c black",
"4  c #644A21",
"5  c black",
"6  c black",
"7  c black",
"8  c black",
"9  c #513518",
"0  c #FF9C12",
"q  c #7B582A",
"w  c #0E0200",
"e  c #B51A02",
"r  c #760C00",
"t  c #B21300",
"y  c #6B0B00",
"u  c #7C4903",
"i  c #9E5D1B",
"p  c #50B71C",
"a  c #654222",
"s  c #B31200",
"d  c #9A1303",
"f  c #060201",
"g  c black",
"h  c #C47323",
"j  c #940F00",
"k  c #926F31",
"l  c #AB1300",
"z  c #815F2B",
"x  c #020200",
"c  c #DE8710",
"v  c #2E0500",
"b  c #906D31",
"n  c #860D00",
"m  c #A71100",
"M  c #70410C",
"N  c #050000",
"B  c #2E280F",
"V  c #360701",
"C  c #7E5C2B",
"Z  c #5C3E1F",
"A  c #010000",
"S  c #6B4924",
"D  c #1B0300",
"F  c black",
"G  c #462A36",
"H  c #080000",
"J  c #A12303",
"K  c black",
"L  c #634020",
"P  c #230400",
"I  c #DCFD03",
"U  c #875322",
"Y  c #E28B11",
"T  c #060000",
"R  c black",
"E  c #4D391A",
"W  c #632818",
"Q  c #894308",
"!  c #6F3D46",
"~  c black",
"^  c #D5FF00",
"/  c black",
"(  c #4E2C15",
")  c black",
"_  c #8F0F00",
"`  c #78584B",
"'  c #3E0702",
"]  c #5D0900",
"[  c #82251E",
"{  c black",
"}  c #5F4B4E",
"|  c #BD6E23",
" . c #337511",
".. c #2C1C09",
"X. c #3C3648",
"o. c #86642D",
"O. c #3A2913",
"+. c #794A1D",
"@. c black",
"#. c #765428",
"$. c #8C6A30",
"%. c #6A4621",
"&. c #3C8915",
"*. c #A36428",
"=. c #80AE19",
"-. c #DCFD03",
";. c #DAFB04",
":. c #5F1E1F",
">. c #BE3605",
",. c #552715",
"<. c #5D4334",
"1. c #26570D",
"2. c #530800",
"3. c #814E18",
"4. c #493836",
"5. c black",
"6. c None",
"7. c #382204",
"8. c #B4762A",
"9. c #7C9F1F",
"0. c #519D2E",
"q. c #50B71C",
"w. c #D5FF01",
"e. c #402F16",
"r. c #1C0200",
"t. c black",
"y. c #5D443C",
"u. c #5C1F22",
"i. c #F89010",
"p. c black",
"a. c black",
"s. c #86A618",
"d. c #00002E",
"f. c #47704C",
"g. c None",
/* pixels */
"g.g.g.g.g.g.g.g.g.g.g.g.g.g.g.g.g.g.g.g.g.g.g.g.g.g.)                           g.g.g.g.g.g.g.g.g.g.g.g.g.g.g.g.g.g.g.g.g.g.g.g.",
"g.g.g.g.g.g.g.g.g.g.g.g.g.g.g.g.g.g.g.g.g.g.g.g.g.g.)                           g.g.g.g.g.g.g.g.g.g.g.g.g.g.g.g.g.g.g.g.g.g.g.g.",
"g.g.g.g.g.g.g.g.g.g.g.g.g.g.g.g.g.g.~ f f f f f f f O.4 4 4 4 4 4 4 4 4 4 4 4 4 f f g.g.g.g.g.g.g.g.g.g.g.g.g.g.g.g.g.g.g.g.g.g.",
"g.g.g.g.g.g.g.g.g.g.g.g.g.g.g.g.g.g.~               e.. . . . . . . . . . . . .     g.g.g.g.g.g.g.g.g.g.g.g.g.g.g.g.g.g.g.g.g.g.",
"g.g.g.g.g.g.g.g.g.g.g.g.g.g.g.g.R 6 x B B B B B B B Z . . . . . . . . . . . = . ....6 6 6 6 6 6 g.g.g.g.g.g.g.g.g.g.g.g.g.g.g.g.",
"g.g.g.g.g.g.g.g.g.g.g.g.g.g.g.g.g   w . . . . . . . = . . . . . . . . . . . . . o a             g.g.g.g.g.g.g.g.g.g.g.g.g.g.g.g.",
"g.g.g.g.g.g.g.g.g.g.g.g.g.g.g.g 5.* & . . . = . . . . . . . = . . . . = = . . . o o     * * * * g g g g g.g.g.g.g.g.g.g.g.g.g.g.",
"g.g.g.g.g.g.g.g.g.g.g.g.g.g.g.  * # % . . . . . . . . . . . = . . . . . = . . . : o > > o o o o       H g.g.g.g.g.g.g.g.g.g.g.g.",
"g.g.g.g.g.g.g.g.g.g.g.g.g.g.g.  * % % . . . . . . . . . . . . . . . . . . . . . o o > > o o o o       H g.g.g.g.g.g.g.g.g.g.g.g.",
"g.g.g.g.g.g.g.g.g.g.g.5 5 5 5 > > # % . . . . = . . . . . . k % % # o.. : : : : o o > > o a o o C C C < 5 T g.g.g.g.g.g.g.g.g.g.",
"g.g.g.g.g.g.g.g.g.g.g.        > > # % . . . . . . . . . . . k # # # o.= : o o o o o > > : o o o . . . <   { g.g.g.g.g.g.g.g.g.g.",
"g.g.g.g.g.g.g.g.g.N N E E E E > > q C k k k k k k k k k o.. C q q q < < o a o o o o > > o o o : . . . q E O.N t.g.g.g.g.g.g.g.g.",
"g.g.g.g.g.g.g.g.g.    . . . . > > o S # # # # # % # # # $.. < o o o : o o o o o o o > > a o o o . . . . . 4   A g.g.g.g.g.g.g.g.",
"g.g.g.g.g.g.g.3 3 & & . . . . > > o %.b b b b b b b b b = q S o o : o o o o o : o o ( ( o a S S . . . . z 4   A g.g.g.g.g.g.g.g.",
"g.g.g.g.g.g.g.    . . . . . . > > o o o o o o o o o a o o o : o o o a o o o : o o o a o o : . . . . . . . 4   A g.g.g.g.g.g.g.g.",
"g.g.g.g.g.g.g.    . . . . . . > > o o o o o o o o : o : o o o o o o o o o o o o o o o o o o . . . . . . z 4   A g.g.g.g.g.g.g.g.",
"g.g.g.g.g.    . . . . . . . . . z o o : o o o o o o o o o o a o o o o o o o a o o o . . . . . . = . . C o $   A g.g.g.g.g.g.g.g.",
"g.g.g.g.g.    . . . . . . . . . z o o o o o o o o o o : o o o o o o o o o o o o o o . . . . . . . . = C : $   A g.g.g.g.g.g.g.g.",
"g.g.g.g.g.    . . . . . . = . . . q q o o o o o o o o o o o o o a o o o q q q q q q . . . = . . . z S Z & f 3 p.g.g.g.g.g.g.g.g.",
"g.g.g.g.g.    . . . . . . . = . . . C o o o o o o a o o : o o o o o : o z . . . . . . . . . . . . z o 9   { g.g.g.g.g.g.g.g.g.g.",
"g.g.g.g.g.    $.$.. . . . . . . . . z < < < < < < < < < < < < < < < < < z . = . . . . . . . #.#.#.< > O.N x g.g.g.g.g.g.g.g.g.g.",
"g.g.g.g.g.    # # . . . . . . . . . . . . . . . . . = . . . . . . . . . . . . . . = . . . . o o o Z   H g.g.g.g.g.g.g.g.g.g.g.g.",
"g.g.g.g.g.5 5 % % = = = = . . . . . . . . . . . . . . . . = . . . . . = . . . . . . z z z z L L L Z 5 f g.g.g.g.g.g.g.g.g.g.g.g.",
"g.g.g.g.g.g.g.    # # # % . . = . . . . . . . . . . . . . . . . . . . . . . . . . . o o o o       @.g.g.g.g.g.g.g.g.g.g.g.g.g.g.",
"g.g.g.g.g.g.g.    # # # # = . . . . . . . . . . = . . . . . = . . . . . . . . . = . : o o o       @.g.g.g.g.g.g.g.g.g.g.g.g.g.g.",
"g.g.g.g.g.g.g.g g * * * * % % % % % % % % % % % % % % % % % % % % % % % %.: : : : : + + + +     g ~ 5 5 5 5 5 5 5 ) g.g.g.g.g.g.",
"g.g.g.g.g.g.g.g.g.        # # % # # # # # # # # # # # # % # # # # # # # : o o o o o + + + +     g.5.              ) g.g.g.g.g.g.",
"g.g.g.g.g.g.g.g.g.6 6 6 6 2 2 8.8.2 2 2 2 2 2 2 2 2 2 2 2 2 2 2 2 2 2 2 i *.U U 4.4.+ + + +     N A V V V V V V V f N N N 3 g.g.",
"g.g.g.g.g.g.g.g.g.g.g.g.g.    1 h                                       | 1 i i + + + + + +       * @ @ @ @ @ @ @ V       K g.g.",
"g.g.g.g.g.g.g.g.g.g.g.g.g.    *.*.7...                              ..7.h 1 U U X.X.+ + + +     w D @ @ @ @ @ @ @ ' w *   K g.g.",
"g.g.g.g.g.g.g.g.g.g.g.g.g.    + X.0 Y                               c 0 1 1 + + - - + + + +     @ @ @ @ @ @ @ @ @ @ @ v   K g.g.",
"g.g.g.g.g.g.g.g.g.g.g.g.g.    + X.0 Y                               c 0 1 1 + + - - + + + +     @ @ @ @ @ @ @ @ @ @ @ v   K g.g.",
"g.g.g.-., , , , , , , p p p p - - 0 Y                               c 0 1 1 - - - - + + + +     @ @ @ @ @ @ @ '       x R g.g.g.",
"g.g.g.-., , , , , , , p p p p - - 0 Y                               c 0 1 1 - - - - + + + +     @ @ @ @ @ @ @ '       x g.g.g.g.",
"g.g.g.;.;., , , , , , q.q.B B 0.0.=.=.&.&.&.1.                      c 0 1 1 - - - - + + U U     r r r r r r r y ] V   H { F g.g.",
"g.g.g.g.g., , , , , , g.g.    p p p p p p p  .                      c 0 1 1 - - - - + + i i     X ; ; X X X X ; ; '       K g.g.",
"g.g.g.g.g.I I I I I I g.g.    9.9.=.s. . . .1.                      c 0 1 1 ` ` ` ` <.<.Q Q v v X X X X X X X X X ] v v v N K ~ ",
"g.g.g.g.g.^ w.^ ^ ^ ^ g.g.    1 1 0 Y * * * *                       c 0 1 1 h h i i i i ; X X X X ; X X X X ; X X X X X X 6.a.F ",
"g.g.g.g.g.g.g.g.g.g.g.g.g.    h h 0 c * *                     * * * c 0 1 h h h i i i i X X X ; X X X X X X X X X X X X X v   F ",
"g.g.g.g.g.g.g.g.g.g.g.g.g.    e e e e m ;                   r m m m e e e e e e e e e e X X X ; X X X X X X ; X X X X X X v   F ",
"g.g.g.g.g.g.g.g.g.g.g.g.g.    O O O O O _                   r O O O O O O O O O O O O O X X X ; X X X X X X ; X X X X X X v   F ",
"g.g.g.g.g.g.g.g.g.g.g.g.g.    O O O O O l j j j j j j j j j m O O O O O t s s O s O n n ; X X X X X X ; X X X X X X X X X r y H ",
"g.g.g.g.g.g.g.g.g.g.g.g.g.    O O O O s O O O O O O O O O O O O O O O O O O O O O O ; X X X X X X X X X X X X X X X X X X X X P ",
"g.g.g.g.g.g.g.g.g.g.g.g.g.) ) ] ] t O O O O O O s O O O s O O O O O O O d d d d d d X X X ; X X X X X X X ; X ; X X X X X X X P ",
"g.g.g.g.g.g.g.g.g.g.g.g.g.R R   * O O O O O O O O O O O O t O O O O O s ; X ; X X X X X X X X X X X X X X X X X X X X X X X X P ",
"g.g.g.g.g.g.g.g.g.g.g.g.g.g.g.  * O O O O O s O O O O O s O l l l l l l ; X X X X X X X X X X X X X y y y y y y y y y y y r X P ",
"g.g.g.g.g.g.g.g.g.g.g.g.g.g.g.  * O O O O O O O O O O O O O j n n n n n X X X X X X X ; X ; X X X r w w w w w w w w w w w 2.X P ",
"g.g.g.g.g.g.g.g.g.g.g.g.g.g.g.  * O O O O t O O O O t O O O _ X X X X X X ; X X X X X X X X X X X r                       2.X P ",
"g.g.g.g.g.g.g.g.g.g.g.g.g.g.g.  * ! ! s t O O O O O O O O O l m m m n X X X G G G G G G D D D D D r.3 3 3 3 3 3 3 3 3 3 3 T D * ",
"g.g.g.g.g.g.g.g.g.g.g.g.g.g.g.  * - } O O O O O O O O O O O O O O O n X X X + + + + + +           @.g.g.g.g.g.g.g.g.g.g.g.A     ",
"g.g.g.g.g.g.g.g.g.g.g.g.g.g.g.  * - - ! [ O s s m j [ W d O O O t O d d X X :.:.Z Z Z Z     x x x 6 g.g.g.g.g.g.g.g.g.g.g.F x x ",
"g.g.g.g.g.g.g.g.g.g.g.g.g.g.g.  * - - - ! O O O d X u.+ [ O t O O O O O ; X X X u u u u     g.g.g.g.g.g.g.g.g.g.g.g.g.g.g.g.g.g.",
"g.g.g.g.g.g.g.g.g.g.g.g.g.g.g.  * } } } ! d J >.>.J M y.[ d J J J J t O _ _ X X M M M M     g.g.g.g.g.g.g.g.g.g.g.g.g.g.g.g.g.g.",
"g.g.g.g.g.g.g.g.g.g.g.g.g.g.g.  * u u u M ( 3.i.c | | | +.( M Q Q Q l O l t X X 9 9 9 9     g.g.g.g.g.g.g.g.g.g.g.g.g.g.g.g.g.g.",
"g.g.g.g.g.g.g.g.g.g.g.g.g.g.g.  * u u u M $ 3.0 Y h h h +.$ M u u u l t t t X X $ $ $ $     g.g.g.g.g.g.g.g.g.g.g.g.g.g.g.g.g.g.",
"g.g.g.g.g.g.g.g.g.g.g.g.g.g.g.    9 9 9 9 $ 9 +.%.L L L 9 $ 9 9 9 9 W W W W ,.,.$ $ $ $     g.g.g.g.g.g.g.g.g.g.g.g.g.g.g.g.g.g.",
"g.g.g.g.g.g.g.g.g.g.g.g.g.g.g.    $ $ $ $ $ $ $ $ $ $ $ $ $ $ $ $ $ $ $ $ $ $ $ $ $ $ $     g.g.g.g.g.g.g.g.g.g.g.g.g.g.g.g.g.g.",
"g.g.g.g.g.g.g.g.g.g.g.g.g.g.g.6 x & & & & & & & & & & & & & & & & & & & & & & & & & & & 6 6 g.g.g.g.g.g.g.g.g.g.g.g.g.g.g.g.g.g.",
"g.g.g.g.g.g.g.g.g.g.g.g.g.g.g.g.g                                                       g.g.g.g.g.g.g.g.g.g.g.g.g.g.g.g.g.g.g.g.",
"g.g.g.g.g.g.g.g.g.g.g.g.g.g.g.g.g           / 8 8 8 8 8 8 8 8 8 8 8 8 8 *           8 8 g.g.g.g.g.g.g.g.g.g.g.g.g.g.g.g.g.g.g.g.",
"g.g.g.g.g.g.g.g.g.g.g.g.g.g.g.g.g           T 7 7 7 7 7 7 7 7 7 7 7 7 7 5           7 7 g.g.g.g.g.g.g.g.g.g.g.g.g.g.g.g.g.g.g.g.",
"g.g.g.g.g.g.g.g.g.g.g.g.g.g.g.g.R / /       T g.g.g.g.g.g.g.g.g.g.g.g.g.H /         g.g.g.g.g.g.g.g.g.g.g.g.g.g.g.g.g.g.g.g.g.g.",
"g.g.g.g.g.g.g.g.g.g.g.g.g.g.g.g.g.3 F       T g.g.g.g.g.g.g.g.g.g.g.g.g.3 3         g.g.g.g.g.g.g.g.g.g.g.g.g.g.g.g.g.g.g.g.g.g.",
"g.g.g.g.g.g.g.g.g.g.g.g.g.g.g.g.g.R ~       T g.g.g.g.g.g.g.g.g.g.g.g.g.g.g.        g.g.g.g.g.g.g.g.g.g.g.g.g.g.g.g.g.g.g.g.g.g."
};
