/* XPM */
static char *_ce01879d2764c9ab4cf5547aaa92cbc[] = {
/* columns rows colors chars-per-pixel */
"64 64 134 2 ",
"   c black",
".  c #82602C",
"X  c None",
"o  c #800C00",
"O  c #654223",
"+  c #B31300",
"@  c #363245",
"#  c #48301B",
"$  c #9C7935",
"%  c #644020",
"&  c #030201",
"*  c #1C130B",
"=  c #9B7834",
"-  c #544E66",
";  c #83602C",
":  c #82612C",
">  c #44260C",
",  c #800D00",
"<  c #DBFD02",
"1  c #664323",
"2  c #704E27",
"3  c black",
"4  c #A81100",
"5  c #5A0C03",
"6  c #916E31",
"7  c #3F3116",
"8  c #C77623",
"9  c black",
"0  c #7C4902",
"q  c #533616",
"w  c #FF9D12",
"e  c #7B582A",
"r  c #930F00",
"t  c #664B22",
"y  c #380600",
"u  c #180200",
"i  c #50B71C",
"p  c #860D00",
"a  c black",
"s  c #C47323",
"d  c #010100",
"f  c black",
"g  c black",
"h  c #040201",
"j  c #9C1103",
"k  c #060000",
"l  c black",
"z  c #9E5E1D",
"x  c #B61B02",
"c  c #DE880F",
"v  c #B31200",
"b  c #814500",
"n  c #2E280F",
"m  c #815F2C",
"M  c #050000",
"N  c #6E4208",
"B  c #7B0D00",
"V  c black",
"C  c #DBFA05",
"Z  c #6B4823",
"A  c #6E0D01",
"S  c #A42200",
"D  c black",
"F  c black",
"G  c black",
"H  c black",
"J  c #7F5D2B",
"K  c black",
"L  c black",
"P  c #DBFB04",
"I  c #E48C13",
"U  c black",
"Y  c black",
"T  c #7D5B2B",
"R  c #4C391A",
"E  c #5F0900",
"W  c #881E08",
"Q  c #66504A",
"!  c #0B0301",
"~  c #765226",
"^  c #4C4559",
"/  c #7E2F00",
"(  c #AD1200",
")  c #499300",
"_  c #B21802",
"`  c #9F5C1A",
"'  c #8C692F",
"]  c #5D3D20",
"[  c #5F4620",
"{  c None",
"}  c #C36D21",
"|  c #875325",
" . c #342003",
".. c #7F5D4D",
"X. c #9D7935",
"o. c #B92E0A",
"O. c #502B36",
"+. c #692528",
"@. c #58464C",
"#. c #794A1C",
"$. c #84521C",
"%. c #327211",
"&. c #3C8915",
"*. c #DBFC03",
"=. c #3C2C14",
"-. c #7C3135",
";. c #2F0400",
":. c #500800",
">. c #26570D",
",. c #5D0D04",
"<. c #934011",
"1. c #DD8414",
"2. c #432E3D",
"3. c #483837",
"4. c #020000",
"5. c #291B0E",
"6. c #3D384C",
"7. c #B4762A",
"8. c #A5652A",
"9. c #536952",
"0. c #50B71C",
"q. c #78AE19",
"w. c #3A3444",
"e. c #402F16",
"r. c #1A0401",
"t. c #000200",
"y. c #8B4225",
"u. c #387F13",
"i. c #362312",
"p. c #86A618",
"a. c #91AD18",
"s. c #00002C",
"d. c #47704C",
"f. c #820000",
/* pixels */
"X X X X X X X X X X X X X X X X X X X X X X X X X X k                           X X X X X X X X X X X X X X X X X X X X X X X X ",
"X X X X X X X X X X X X X X X X X X X X X X X X X X k                           X X X X X X X X X X X X X X X X X X X X X X X X ",
"X X X X X X X X X X X X X X X X X X F h h h h h h h =.t t t t t t t t t t t t t h h X X X X X X X X X X X X X X X X X X X X X X ",
"X X X X X X X X X X X X X X X X X X F               e.. . . . . . . . . . . . :     X X X X X X X X X X X X X X X X X X X X X X ",
"X X X X X X X X X X X X X X X X ) g d n n n n n n n [ . . . . . ; . . ; . . ; . 5.5.g g g g g g X X X X X X X X X X X X X X X X ",
"X X X X X X X X X X X X X X X X a   ! . . . : . . ; . . . . . . . . . . . ; . . O O             X X X X X X X X X X X X X X X X ",
"X X X X X X X X X X X X X X X a 9 & * : . . . . . . . ; . . . . . . . ; . . . . O O     & & & & a a a a X X X X X X X X X X X X ",
"X X X X X X X X X X X X X X X   & $ = . . ; . . : . . . . . . ; . . . . . . . . O O > > O O 1 O       M X X X X X X X X X X X X ",
"X X X X X X X X X X X X X X X   & $ = . . . : . . . : . . ; . ; . . . . . . . . O O > > 1 O O O       M X X X X X X X X X X X X ",
"X X X X X X X X X X X f f f f > > $ = . . . . . . . . . : . 6 = = $ : . 1 1 1 1 O 1 > > 1 O O O J J J 2 f U X X X X X X X X X X ",
"X X X X X X X X X X X         > > $ = . . . . . . . . . . . 6 $ $ $ : . 1 O O O O O > > O O O O . . . 2   K X X X X X X X X X X ",
"X X X X X X X X X t.V R R R R > > e T 6 6 6 6 6 6 6 6 6 ' . T e e e 2 2 O O O O O O > > O O O 1 . . . e R =.V g X X X X X X X X ",
"X X X X X X X X X     : . . . > > O Z $ $ X.$ $ $ X.X.$ ' . 2 O O O O O O O O O O O > > O O O O . . . : . [   3 X X X X X X X X ",
"X X X X X X X l l * * . . . . > > O Z 6 6 6 6 6 6 6 6 6 ; e Z O O O O O O O O O O 1 > # O O Z Z . . . . . [   3 X X X X X X X X ",
"X X X X X X X     . . : . . . > > O O O O O O O O O O O O O O O O O O O O O O O O O 1 O O O . . . . . . . [   3 X X X X X X X X ",
"X X X X X X X     . : . ; . . > > O O O O O O O O O O 1 O O O O O O O O 1 O O O O O O O O O . . ; . . . . [   3 X X X X X X X X ",
"X X X X X     . . . . . . . . . m O O O O O O O O O O O O O O O O O O O O O O O O O . . . . . ; . . . T O #   3 X X X X X X X X ",
"X X X X X     ; . . . . . . . . m O 1 O O 1 O O O O O O O O O O O O O O O O O O O O . . . : . . : . . T O #   3 X X X X X X X X ",
"X X X X X     ; . . . . . . : . . e e O O O O O O O 1 O O O O O O O O O e e e e e e . . . . . . . J Z ] * h l L X X X X X X X X ",
"X X X X X     . . . . . . . . . . . J O O O O O O O O O O O O O O O O O m . . ; . . : . . . . . . J O q   K X X X X X X X X X X ",
"X X X X X     ' ' . . . . . . ; . . J 2 2 2 2 2 2 2 2 2 2 2 2 2 2 2 2 2 m . . . . . . . . . ~ ~ ~ ~ > i.V Y X X X X X X X X X X ",
"X X X X X     $ = . . . . ; . . . . . . ; . . . . . . : . . . . . . . : . . . . . . . . . ; O O O ]   M X X X X X X X X X X X X ",
"X X X X X f f = = : : : : . . . : . . . . ; ; . . . ; . . . . . . . . . . . . . . . m m m m % % % ] f h X X X X X X X X X X X X ",
"X X X X X X X     $ $ $ $ . . . . . . . . . . : . . . . . . . . : . . . . . . ; . . O O O O       D X X X X X X X X X X X X X X ",
"X X X X X X X     $ $ $ $ ; . . . . . . . . ; . . . . . . . . . . . . . . : . ; . . 1 O O O       D X X X X X X X X X X X X X X ",
"X X X X X X X a a & & & & = = = = = = = = = = = = = $ = = $ = = $ = = = 1 1 1 1 1 1 @ @ @ @     a a X X X X X G f f f d X X X X ",
"X X X X X X X X X         $ $ $ $ $ $ $ = = $ $ $ $ $ $ $ $ $ $ $ $ $ $ 1 O O O O O @ @ @ @     X X X X X X X G       d X X X X ",
"X X X X X X X X X g g g g 7 7 7.7.7 7 7 7 7 7 7 7 7 7 7 7 7 7 7 7 7 7 7 z z $.$.3.3.@ @ @ @     X 9 V V V V V r.y u   d X X X X ",
"X X X X X X X X X X X X X     8 s                                       } 8 z z @ @ @ @ @ @     X F           u 5 y   d X X X X ",
"X X X C C C C C C C C X X     8.8. . .                               . .s 8 | | 6.6.@ @ @ @     l 4.u u u u u { 5 y   d X X X X ",
"X X X *.< < < < < < < X X     @ w.w I                               c w 8 8 @ @ - - @ @ @ @       & 5 5 5 5 5 5 5 y   d X X X X ",
"X X X *.< < < < < < < X X     @ w.w I                               c w 8 8 @ @ - - @ @ @ @       & 5 5 5 5 5 5 5 y   d X X X X ",
"X X X ) ) < < < < < < i i i i i i w I                               c w 8 8 - - - - @ @ @ @     5 ,., , , , , , , o , y & G X X ",
"X X X X X < < < < < < i i i i i i w I                               c w 8 8 - - - - @ @ @ @     5 ,.o , , , , , , , , y   G X X ",
"X X X X X P P P P P P 0.0.n n 9.9.q.q.&.&.&.>.                      c w 8 8 - - - - @ @ | | E E B B , , , , , , , , , A E ;.K l ",
"X X X X X X X X X X X X X     - - i i i i i u.                      c w 8 8 - - - - @ @ z z , , o , o , , , o , o , , , o {   4.",
"X X X X X X X X X X X X X     ....a.p.%.%.%.>.                      c w 8 8 ....Q Q O O <.<.o o , , , , , , , , , , , , , :.{ k ",
"X X X X X X X X X X X X X     s 8 w c & & & &                       c w 8 8 s s z z z z , , , , , , , , , , , o , , , , , , B { ",
"X X X X X X X X X X X X X     s s w c & &                     & & & 1.w 8 s s s ` ` ` ` , , , , , , , , , , , , , o , , B B B u ",
"X X X X X X X X X X X X X     x x x x 4 ,                   A 4 4 4 x x x x x x _ _ _ _ ( ( , , , o , , , , , , , , , y ! ! !   ",
"X X X X X X X X X X X X X     + + + + + r                   B + + + + + + + + + + + + + + + , , o , , , , , , o , , , y         ",
"X X X X X X X X X X X X X     + + v + + ( r r r r r r r r r 4 + + + + + + + + + + v v + p p , , , , , , , , , 5 u u u k L L L L ",
"X X X X X X X X X X X X X     + + + + + + v + + + + + + + + + + + + + + + + + + + + + + , , , , , , , , o , , 5       d X X X X ",
"X X X X X X X X X X X X X k k 5 E + + + + + + + + + + + + + + + + v + + + + + + j j j j , , , , , , , , , A y ;.k k k l X X X X ",
"X X X X X X X X X X X X X H H   & + + + + + + + + + + + + + + + + + + + + + + + , , , , , , , , , , , , , E   3 H H H ) X X X X ",
"X X X X X X X X X X X X X X X   & j j + + + + + + + v v + + ( 4 4 4 4 4 4 4 4 4 , , , , , , , , , o o B A :.M k X X X X X X X X ",
"X X X X X X X X X X X X X X X   & 2.O.+ + + + + + + v + + + r p p p p p p p p p , , , , , , o , , , , A ! h F F X X X X X X X X ",
"X X X X X X X X X X X X X X X     @ 2.+ + + + + + + + + + + r , o , , , , , , , , , , , , , , , , , , A   K X X X X X X X X X X ",
"X X X X X X X X X X X X X X X   & ^ ^ O.+.+ + + + + + + + v ( 4 4 4 p , , , , , , , o , , , , , u u u M l L X X X X X X X X X X ",
"X X X X X X X X X X X X X X X   & - - @ O.+ + + + + + + + + + + + + p , , , , , , , , , , , , ,       M X X X X X X X X X X X X ",
"X X X X X X X X X X X X X X X   & - - ^ @.-.-.+.W + + + 4 r 4 + + + j j j j , , / / / / y y y y d d d G X X X X X X X X X X X X ",
"X X X X X X X X X X X X X X X   & - - - - - ^ @ +.+ + + r , 4 + + + + + + + , , 0 0 0 0         X X X X X X X X X X X X X X X X ",
"X X X X X X X X X X X X X X X   & Q Q Q @.^ @.2 y.o.o.o.W A W S S S S S S S W W N N N N     K K X X X X X X X X X X X X X X X X ",
"X X X X X X X X X X X X X X X   & 0 0 0 N # ~ I 1.} } } #.# N b b b b b b b b b # # # #     F F X X X X X X X X X X X X X X X X ",
"X X X X X X X X X X X X X X X   & 0 0 0 N # $.w I s s s #.# N 0 0 0 0 0 0 0 0 0 # # # #     X X X X X X X X X X X X X X X X X X ",
"X X X X X X X X X X X X X X X   & q q q q # q #.Z % % % q # q q q q q q q q q q # # # #     X X X X X X X X X X X X X X X X X X ",
"X X X X X X X X X X X X X X X   & # # # # # # # # # # # # # # # # # # # # # # # # # # #     X X X X X X X X X X X X X X X X X X ",
"X X X X X X X X X X X X X X X Y Y * * * * * * * * * * * * * * * * * * * * * * * * * * * Y Y X X X X X X X X X X X X X X X X X X ",
"X X X X X X X X X X X X X X X X a                                                       X X X X X X X X X X X X X X X X X X X X ",
"X X X X X X X X X X X X X X X X a           D 3 3 3 3 3 3 3 3 3 3 3 3 3 &           3 3 X X X X X X X X X X X X X X X X X X X X ",
"X X X X X X X X X X X X X X X X a           U 9 9 9 9 9 9 9 9 9 9 9 9 9 f           9 9 X X X X X X X X X X X X X X X X X X X X ",
"X X X X X X X X X X X X X X X X H D D       U X X X X X X X X X X X X X M D         X X X X X X X X X X X X X X X X X X X X X X ",
"X X X X X X X X X X X X X X X X X l G       U X X X X X X X X X X X X X l l         X X X X X X X X X X X X X X X X X X X X X X ",
"X X X X X X X X X X X X X X X X X X F       U X X X X X X X X X X X X X X X         X X X X X X X X X X X X X X X X X X X X X X "
};
