/* XPM */
static char *affe49152d924004a141899f00fa14eb[] = {
/* columns rows colors chars-per-pixel */
"64 64 125 2 ",
"   c #82602C",
".  c black",
"X  c #B31300",
"o  c #654223",
"O  c #800D00",
"+  c #9C7935",
"@  c #363245",
"#  c #5B0C03",
"$  c #010000",
"%  c #544E65",
"&  c #020201",
"*  c #916F31",
"=  c #DBFC02",
"-  c #47301B",
";  c #C77623",
":  c #44260C",
">  c #1C140B",
",  c #664323",
"<  c #704E26",
"1  c #82612C",
"2  c #8C0E00",
"3  c #7A5F29",
"4  c #320501",
"5  c black",
"6  c #010000",
"7  c #AE1200",
"8  c #9C1201",
"9  c #060201",
"0  c #644122",
"q  c black",
"w  c #780C00",
"e  c #FE9D12",
"r  c #332711",
"t  c black",
"y  c #DE8910",
"u  c #654323",
"i  c #940F00",
"p  c #9F5D1B",
"a  c black",
"s  c #5D3F29",
"d  c #513719",
"f  c black",
"g  c black",
"h  c None",
"j  c black",
"k  c #570900",
"l  c #840E00",
"z  c #88652E",
"x  c #8D6A30",
"c  c #800C00",
"v  c #4A0800",
"b  c black",
"n  c #0D0100",
"m  c #B82605",
"M  c #52B71C",
"N  c #A81100",
"B  c #020000",
"V  c black",
"C  c #815F2C",
"Z  c #784806",
"A  c #3B3211",
"S  c #BF7226",
"D  c #5D0900",
"F  c black",
"G  c #050000",
"H  c #420801",
"J  c #7C592A",
"K  c black",
"L  c #624821",
"P  c black",
"I  c #6F4921",
"U  c #5B4A51",
"Y  c black",
"T  c #4EB31A",
"R  c #670B01",
"E  c #7F5C2B",
"W  c #210501",
"Q  c #602815",
"!  c black",
"~  c #B11300",
"^  c #6F3E45",
"/  c #1A0300",
"(  c #987533",
")  c #493837",
"_  c #745326",
"`  c #030000",
"'  c #562714",
"]  c #995C1F",
"[  c #7E4E1D",
"{  c #3A3344",
"}  c #DBFB04",
"|  c #347711",
" . c #4F932F",
".. c #84622D",
"X. c #320F07",
"o. c #AC2105",
"O. c #882114",
"+. c #4D2D19",
"@. c black",
"#. c #C33003",
"$. c #3C2715",
"%. c #0B0A03",
"&. c #060E02",
"*. c #909809",
"=. c #1E450B",
"-. c #711708",
";. c #80FF00",
":. c #DD610A",
">. c #291808",
",. c #DCFC03",
"<. c #55AA2A",
"1. c #3C8914",
"2. c #50B71B",
"3. c #50B71C",
"4. c #453319",
"5. c #1A1409",
"6. c #81602C",
"7. c #664222",
"8. c #6C3D18",
"9. c #F89010",
"0. c #BEA716",
"q. c blue",
"w. c #006000",
"e. c #47704C",
"r. c None",
/* pixels */
"r.r.r.r.r.r.r.r.r.r.r.r.r.r.r.r.r.r.r.r.r.r.r.r.r.r.r.r.r.r.r.r.r.r.r.r.r.r.r.r.r.r.r.r.r.r.r.r.r.r.r.r.r.r.r.r.r.r.r.r.r.r.r.r.",
"r.r.r.r.r.r.r.r.r.r.r.r.r.r.r.r.r.r.r.r.r.r.r.r.r.r.r.r.r.r.r.r.r.r.r.r.r.r.r.r.r.r.r.r.r.r.r.r.r.r.r.r.r.r.r.r.r.r.r.r.r.r.r.r.",
"r.r.r.r.r.r.r.r.r.r.r.r.r.r.r.r.r.r.r.r.r.r.r.r.r.r.K 6 6 6 6 6 6 6 6 6 6 6 6 6 r.r.r.r.r.r.r.r.r.r.r.r.r.r.r.r.r.r.r.r.r.r.r.r.",
"r.r.r.r.r.r.r.r.r.r.r.r.r.r.r.r.r.r.r.r.r.r.r.r.r.r.` . . . . . . . . . . . . . r.r.r.r.r.r.r.r.r.r.r.r.r.r.r.r.r.r.r.r.r.r.r.r.",
"r.r.r.r.r.r.r.r.r.r.r.r.r.r.r.r.r.r.5 t t t t t t t 9 r r r r r r r r r r r r r t t r.r.r.r.r.r.r.r.r.r.r.r.r.r.r.r.r.r.r.r.r.r.",
"r.r.r.r.r.r.r.r.r.r.r.r.r.r.r.r.r.r.a . . . . $ . . -                           . . r.r.r.r.r.r.r.r.r.r.r.r.r.r.r.r.r.r.r.r.r.r.",
"r.r.r.r.r.r.r.r.r.r.r.r.r.r.r.r.r.f ! & & & & & & & -       1     1             & & f f f f f f r.r.r.r.r.r.r.r.r.r.r.r.r.r.r.r.",
"r.r.r.r.r.r.r.r.r.r.r.r.r.r.r.r.F . %.                1                         o o . . . . $ . r.r.r.r.r.r.r.r.r.r.r.r.r.r.r.r.",
"r.r.r.r.r.r.r.r.r.r.r.r.r.r.r.r.F . %.    1                                     o o . $ . . . . r.r.r.r.r.r.r.r.r.r.r.r.r.r.r.r.",
"r.r.r.r.r.r.r.r.r.r.r.r.r.r.r.h h ( (                                           o o : : 0 0 0 0 h h h 6 r.r.r.r.r.r.r.r.r.r.r.r.",
"r.r.r.r.r.r.r.r.r.r.r.r.r.r.r.. & + (                                       1   o o : : o o u o . . . b r.r.r.r.r.r.r.r.r.r.r.r.",
"r.r.r.r.r.r.r.r.r.r.r.Y Y Y Y >.>.+ ( 1       1           1 x * * * ..  < < < < o o : : o o o o d d d 4.Y g r.r.r.r.r.r.r.r.r.r.",
"r.r.r.r.r.r.r.r.r.r.r.. . . . : : + (                       * + + + ..  , o o o o o : : o o o o       < . @.r.r.r.r.r.r.r.r.r.r.",
"r.r.r.r.r.r.r.r.r.q q > > > > : : * x z z z z z z z z z ..  x * * * E J , u o o u o : : o o o o       _ > 5.q ! r.r.r.r.r.r.r.r.",
"r.r.r.r.r.r.r.r.r.. .         : : o I + + + + + + + + + x   < o o o o u o o o o o o : : o o o o           L $ G r.r.r.r.r.r.r.r.",
"r.r.r.r.r.r.r.r.r.. .         : : o I + + + + + + + + + x   < o o o o o o o o o o o : : o o o o           L . G r.r.r.r.r.r.r.r.",
"r.r.r.r.r.r.r.. .             : : o o o u o o o o o o o o o o o o o o o o o o o o o o o o o               L . G r.r.r.r.r.r.r.r.",
"r.r.r.r.r.r.r.$ .     1   1   : : o o o o o o o o o o o o o o o o o o o o o o u o o o o u o               L . G r.r.r.r.r.r.r.r.",
"r.r.r.r.r.6 6 L L             _ _ o o o o o o o o o o o o o o o o o o o o o o o u o J J J J           E I d . G r.r.r.r.r.r.r.r.",
"r.r.r.r.r.. .                   C o o o o o o o o o o o u o o o u o o o o o o o o o     1             J o - . G r.r.r.r.r.r.r.r.",
"r.r.r.r.r.. .                   6.< < o o o o o o o o o o o o o o o o o < < < < < <     1         C _ < $.X.Y K r.r.r.r.r.r.r.r.",
"r.r.r.r.r.. .       1               E o o u o o u o o o o o u o o o o o C             1           C o d . @.r.r.r.r.r.r.r.r.r.r.",
"r.r.r.r.r.. . 1 1                   E , , , , , , , , , , , , , , , , , C   1               C C C E 0 d h V r.r.r.r.r.r.r.r.r.r.",
"r.r.r.r.r.. . + +   1                                       1                   1           o o o s . b r.r.r.r.r.r.r.r.r.r.r.r.",
"r.r.r.r.r.. . + +                                                                           o o o s . b r.r.r.r.r.r.r.r.r.r.r.r.",
"r.r.r.r.r.f f & & + + + +                       1                             1     , 7., , & & & B f f r.r.r.r.r.r.r.r.r.r.r.r.",
"r.r.r.r.r.r.r.. . + + + +                                                           o o o o . . . B r.r.r.r.r.r.r.r.r.r.r.r.r.r.",
"r.r.r.r.r.,.,.*.*.A A A A * * * * * * * * * * * * * * * * * * * * * * * < < < < < < ) ) ) ) . . t K r.r.r.r.r.r.r.r.r.r.r.r.r.r.",
"r.r.r.r.r.= = = = . . . . + + + + + + + + + + + + + + + + + + + + + + + , o o o o o @ @ @ @ . . r.r.r.r.r.r.r.r.r.r.r.r.r.r.r.r.",
"r.r.r.r.r.= = = = A A 6 6 3 3 + + 3 3 3 3 3 3 3 3 3 3 3 3 3 3 3 3 3 3 3 [ [ I I s s @ @ @ @ . . r.r.r.r.r.r.r.a q q q a r.r.r.r.",
"r.r.r.r.r.= = = = = = r.r.. . ; S . . . . . . . $ . . . . . . . . . . . S ; p p @ @ @ @ @ @ . $ r.r.r.r.r.r.r.K . . . g r.r.r.r.",
"r.r.r.r.r.= = = = = = r.r.. . ; S . . . . . . . . . . . . . . . . . . . S ; p p @ @ @ @ @ @ . . r.r.r.r.r.r.r.K . . . g r.r.r.r.",
"r.r.r.r.r.;.;.= = = = r.r.. . @ { e y . . . . . $ . . . . . . . . . y e ; ; @ @ % % @ @ @ @ . . r.r.r.! & & & W # 4 . g r.r.r.r.",
"r.r.r.r.r.r.r.= = = = r.r.. . @ { e y . . . . . $ . . . . . . . . . y e ; ; @ @ % % @ @ @ @ . $ r.r.r.! . . . W # 4 . g r.r.r.r.",
"r.r.r.r.r.r.r.} } } } 3.3.1.1. . .e y . . . . $ . . . . . . . . . . y e ; ; % % % % @ @ @ @ . . P P P 6 H H H v # 4 $ b P P P q ",
"r.r.r.r.r.r.r.r.r.r.r.M M M M M M e y . . . . $ $ . $ . . . . . . . y e ; ; % % % % @ @ @ @ $ . . . . n # # # # # 4 . . . . . j ",
"r.r.r.r.r.r.r.r.r.r.r.2.2.| |  . .0.*.=.=.=.r . . . . . . . . . . . y e ; ; % % % % @ @ s s . . W W W 4 # # # # # 4 . / 4 n . j ",
"r.r.r.r.r.r.r.r.r.r.r.<.<.& & % % M M T T T | . . . . . . . . . . . y e ; ; % % % % @ @ p p . . # # # # # # # # # 4 . H O 4 . j ",
"r.r.r.r.r.r.r.r.r.r.r.r.r.. . % % M M T T T | . . . . . . . . . . . y e ; ; % % % % { { p p $ $ # # # # # # # # # 4 $ v O 4 . j ",
"r.r.r.r.r.r.r.r.r.r.r.r.r.. . S S e y &.&.&.%.$ . . . . . . . . . . y e ; ; S S ] ] ] ] l l w w O O O w # # # R O w w O O 4 . j ",
"r.r.r.r.r.r.r.r.r.r.r.r.r.. . ; ; e y . . . . . . $ . . . . . . . . y e ; ; ; ; p p p p O O O O O O O w # # # R O O O O O 4 . j ",
"r.r.r.r.r.r.r.r.r.r.r.r.r.. . m m #.m i w $ . . . . . . . . R i i i m #.m m m m o.o.O.O.O O O O O O O O w w w w O O O O O 4 . j ",
"r.r.r.r.r.r.r.r.r.r.r.r.r.. . X X X X X 2 . . . $ . . . . . w ~ X X X X X X X X X X c c c O O O O O O O O O O O O O O O O 4 . j ",
"r.r.r.r.r.r.r.r.r.r.r.r.r.. . X X X X ~ 8 k k k k k k k k k i X X X X X X X X X X X 8 8 8 8 8 8 O O O O O O O O O O O D H 9 ` ! ",
"r.r.r.r.r.r.r.r.r.r.r.r.r.. . X X X X ~ ~ ~ ~ ~ ~ ~ ~ ~ ~ ~ ~ X X X X X X X X X X X ~ ~ ~ ~ X ~ O O O O c O O O O O O H $ K F r.",
"r.r.r.r.r.r.r.r.r.r.r.r.r.b b i i X X X X X X X X X X X X X X X X X X X X X X X X X X X N N N N O O O O O O O O O w R X.b j r.r.",
"r.r.r.r.r.r.r.r.r.r.r.r.r.a a n / ~ X X X X X X X X X X X X X X X X X X X X X X X X X X l l l l O O O O c O O O O v n ` a 5 r.r.",
"r.r.r.r.r.r.r.r.r.r.r.r.r.r.r.. $ X X X ~ X X X X X ~ X X X X X X X X X X X X X X X X X O O O O O O O O O O O O O v . g r.r.r.r.",
"r.r.r.r.r.r.r.r.r.r.r.r.r.r.r.. & ^ ^ X X X X X X ~ X ~ X X X X i 2 2 2 2 2 2 2 2 2 2 2 c O O O O O O O O R / / / G q a r.r.r.r.",
"r.r.r.r.r.r.r.r.r.r.r.r.r.r.r.. & % U X X X X X X X X X X X X X 2 O O O O O O O O O O O O O O O O O O O O D . . . ` r.r.r.r.r.r.",
"r.r.r.r.r.r.r.r.r.r.r.r.r.r.r.. & % % ^ O.X X X X X N i N X X X 8 8 l O O O O O O O O c O O O O O w 4 4 4 X.g g g q r.r.r.r.r.r.",
"r.r.r.r.r.r.r.r.r.r.r.r.r.r.r.$ & % % % ^ X X X X X 8 O 8 X X X X X l O O O c O O O O c O O c O c w . . . @.r.r.r.r.r.r.r.r.r.r.",
"r.r.r.r.r.r.r.r.r.r.r.r.r.r.r.. & U U U ^ 8 o.#.m X 8 2 8 N 7 X X X i 2 2 2 2 2 O O -.-.D D D D D # V V V ` r.r.r.r.r.r.r.r.r.r.",
"r.r.r.r.r.r.r.r.r.r.r.r.r.r.r.. & Z Z Z Z +.[ 9.:.X ~ 7 i l N X X X 7 7 7 7 7 7 O c +.+.n n n n n B a a a 5 r.r.r.r.r.r.r.r.r.r.",
"r.r.r.r.r.r.r.r.r.r.r.r.r.r.r.. & Z Z Z Z - [ e :.~ ~ ~ i O 8 ~ ~ ~ X X X X ~ ~ O O - - . . h h h B r.r.r.r.r.r.r.r.r.r.r.r.r.r.",
"r.r.r.r.r.r.r.r.r.r.r.r.r.r.r.. $ d d d d - d I 8.Q Q Q ' ' Q Q 8 X X X X X 2 2 ' ' - - . . q q q q r.r.r.r.r.r.r.r.r.r.r.r.r.r.",
"r.r.r.r.r.r.r.r.r.r.r.r.r.r.r.. $ - - - - - - - - - - - - - - - 8 X X X X X O O - - - - . . r.r.r.r.r.r.r.r.r.r.r.r.r.r.r.r.r.r.",
"r.r.r.r.r.r.r.r.r.r.r.r.r.r.r.t t > > > > > > > > > > > > > > > H v v v v v 4 4 > > > > t t r.r.r.r.r.r.r.r.r.r.r.r.r.r.r.r.r.r.",
"r.r.r.r.r.r.r.r.r.r.r.r.r.r.r.r.F . . . . . . . . $ . $ . . . . $ . . . . . . . . . . . r.r.r.r.r.r.r.r.r.r.r.r.r.r.r.r.r.r.r.r.",
"r.r.r.r.r.r.r.r.r.r.r.r.r.r.r.r.F . . . . . B 9 9 9 9 9 9 9 9 9 9 9 9 9 & . . . . $ 9 9 r.r.r.r.r.r.r.r.r.r.r.r.r.r.r.r.r.r.r.r.",
"r.r.r.r.r.r.r.r.r.r.r.r.r.r.r.r.F . . . . . V 5 5 5 5 5 5 5 5 5 5 5 5 5 h . . . . . 5 5 r.r.r.r.r.r.r.r.r.r.r.r.r.r.r.r.r.r.r.r.",
"r.r.r.r.r.r.r.r.r.r.r.r.r.r.r.r.F B B . . . V r.r.r.r.r.r.r.r.r.r.r.r.r.b B . . . . r.r.r.r.r.r.r.r.r.r.r.r.r.r.r.r.r.r.r.r.r.r.",
"r.r.r.r.r.r.r.r.r.r.r.r.r.r.r.r.r.q j . . . V r.r.r.r.r.r.r.r.r.r.r.r.r.q q . . . . r.r.r.r.r.r.r.r.r.r.r.r.r.r.r.r.r.r.r.r.r.r.",
"r.r.r.r.r.r.r.r.r.r.r.r.r.r.r.r.r.F a . . . V r.r.r.r.r.r.r.r.r.r.r.r.r.r.r.. . . . r.r.r.r.r.r.r.r.r.r.r.r.r.r.r.r.r.r.r.r.r.r."
};
