/* XPM */
static char *_a87804accc9444f9ad988ffe8d353ff[] = {
/* columns rows colors chars-per-pixel */
"64 64 126 2 ",
"   c black",
".  c #82602C",
"X  c #654223",
"o  c #B31300",
"O  c #800C00",
"+  c #9C7935",
"@  c #363245",
"#  c #5B0C03",
"$  c #DBFD02",
"%  c #916F31",
"&  c black",
"*  c #544E66",
"=  c #482F1B",
"-  c #8B0E00",
";  c #C67623",
":  c #82612C",
">  c #44260C",
",  c #030201",
"<  c #654323",
"1  c #664323",
"2  c #AF1300",
"3  c #560800",
"4  c #714E26",
"5  c #7A5F29",
"6  c black",
"7  c #1C140B",
"8  c #50B51B",
"9  c #322711",
"0  c #960F00",
"q  c #DE8910",
"w  c black",
"e  c #FF9D12",
"r  c black",
"t  c #780C00",
"y  c black",
"u  c #0D0100",
"i  c black",
"p  c #380500",
"a  c black",
"s  c #9F5D1B",
"d  c black",
"f  c #410701",
"g  c #300702",
"h  c #B92704",
"j  c #88652E",
"k  c black",
"l  c #8D6A30",
"z  c #220401",
"x  c #490700",
"c  c black",
"v  c #543517",
"b  c #080000",
"n  c #815F2C",
"m  c black",
"M  c #6E4823",
"N  c #040000",
"B  c #BF7125",
"V  c #9F1000",
"C  c #030000",
"Z  c #801D02",
"A  c #613F21",
"S  c #644550",
"D  c #DBFB04",
"F  c black",
"G  c #7E5C2B",
"H  c black",
"J  c #624821",
"K  c #070000",
"L  c #7E4400",
"P  c #D5FF00",
"I  c #7C4900",
"U  c #3F3016",
"Y  c black",
"T  c #080C02",
"R  c #7C592A",
"E  c #711909",
"W  c None",
"Q  c black",
"!  c #030000",
"~  c #850F00",
"^  c #A71100",
"/  c #DCFD03",
"(  c #987633",
")  c #493837",
"_  c #DBFC02",
"`  c #745326",
"'  c black",
"]  c black",
"[  c #5C402F",
"{  c #6A0B00",
"}  c #995C1F",
"|  c #861B05",
" . c #393344",
".. c #347711",
"X. c #4E475E",
"o. c #363244",
"O. c #4D391A",
"+. c #612915",
"@. c #1E440A",
"#. c #83622D",
"$. c #620A00",
"%. c #000100",
"&. c #42250C",
"*. c #8A3C00",
"=. c #A62000",
"-. c #291807",
";. c #794A08",
":. c #A57731",
">. c #537649",
",. c #55AA2A",
"<. c #50B71B",
"1. c #3C8915",
"2. c #453318",
"3. c #251B0D",
"4. c #1A1409",
"5. c #312010",
"6. c #2C0400",
"7. c #3C2715",
"8. c #DDFD03",
"9. c #9F5F1B",
"0. c #BEA716",
"q. c #AB9B14",
"w. c #F29F13",
"e. c #51B71C",
"r. c #50B71C",
"t. c None",
/* pixels */
"t.t.t.t.t.t.t.t.t.t.t.t.t.t.t.t.t.t.t.t.t.t.t.t.t.t.t.t.t.t.t.t.t.t.t.t.t.t.t.t.t.t.t.t.t.t.t.t.t.t.t.t.t.t.t.t.t.t.t.t.t.t.t.t.",
"t.t.t.t.t.t.t.t.t.t.t.t.t.t.t.t.t.t.t.t.t.t.t.t.t.t.t.t.t.t.t.t.t.t.t.t.t.t.t.t.t.t.t.t.t.t.t.t.t.t.t.t.t.t.t.t.t.t.t.t.t.t.t.t.",
"t.t.t.t.t.t.t.t.t.t.t.t.t.t.t.t.t.t.t.t.t.t.t.t.t.t.F 6 6 6 6 6 6 6 6 6 6 6 6 6 t.t.t.t.t.t.t.t.t.t.t.t.t.t.t.t.t.t.t.t.t.t.t.t.",
"t.t.t.t.t.t.t.t.t.t.t.t.t.t.t.t.t.t.t.t.t.t.t.t.t.t.k                           t.t.t.t.t.t.t.t.t.t.t.t.t.t.t.t.t.t.t.t.t.t.t.t.",
"t.t.t.t.t.t.t.t.t.t.t.t.t.t.t.t.t.t.& r r r r r r r 3.9 9 9 9 9 9 9 9 9 9 9 9 9 r r t.t.t.t.t.t.t.t.t.t.t.t.t.t.t.t.t.t.t.t.t.t.",
"t.t.t.t.t.t.t.t.t.t.t.t.t.t.t.t.t.t.]               U . . . . . . . . . . . . .     t.t.t.t.t.t.t.t.t.t.t.t.t.t.t.t.t.t.t.t.t.t.",
"t.t.t.t.t.t.t.t.t.t.t.t.t.t.t.t.t.& ] , , , , , , , U . . . . . . . . . . . . . , , & & & & & & t.t.t.t.t.t.t.t.t.t.t.t.t.t.t.t.",
"t.t.t.t.t.t.t.t.t.t.t.t.t.t.t.t.a   T : . . : . . . . : . . : . . : . . . . : : X X             t.t.t.t.t.t.t.t.t.t.t.t.t.t.t.t.",
"t.t.t.t.t.t.t.t.t.t.t.t.t.t.t.t.a   T . : . . . . . . . . . . . . . . . . . . . X X             t.t.t.t.t.t.t.t.t.t.t.t.t.t.t.t.",
"t.t.t.t.t.t.t.t.t.t.t.t.t.t.t.m m ( ( . . . . . . . . . . . . . . . . . . . . . X X &.&.A A A A m m m K t.t.t.t.t.t.t.t.t.t.t.t.",
"t.t.t.t.t.t.t.t.t.t.t.t.t.t.t.  , + ( . . . . . . . . . . . . . . . . . . . : . X X > > X X X X       ! t.t.t.t.t.t.t.t.t.t.t.t.",
"t.t.t.t.t.t.t.t.t.t.t.N N N N -.-.+ ( . . . . . . . . . . . l % % % #.. 4 4 4 4 X X > > X X X X O.O.O.2.N C t.t.t.t.t.t.t.t.t.t.",
"t.t.t.t.t.t.t.t.t.t.t.        > > + ( . . . . . . . . : . . % + + + #.. 1 X X < X X > > < X X X . . . 4   b t.t.t.t.t.t.t.t.t.t.",
"t.t.t.t.t.t.t.t.t.y y 7 7 7 7 > > % l j j j j j j j j j #.. l % % % G R 1 X X X X X > > X X X X . . . ` 7 4.y ] t.t.t.t.t.t.t.t.",
"t.t.t.t.t.t.t.t.t.    . . . . > > X M + + + + + + + + + l . 4 X X X X X X X X X X X > > X X X X . . . . . J   H t.t.t.t.t.t.t.t.",
"t.t.t.t.t.t.t.t.t.    . . . . > > X M + + + + + + + + + l . 4 X X X X < < X X < X X > > < X X X . . . . . J   H t.t.t.t.t.t.t.t.",
"t.t.t.t.t.t.t.    . . . . . . > > X X X X X X X X X X X X < X X X X X < X X X X X X X X X X . . . . . . . J   H t.t.t.t.t.t.t.t.",
"t.t.t.t.t.t.t.    . . . . . . > > X X X X X X X X X X X X X X X X X X X < X X X X X X X < X : . . . . . . J   H t.t.t.t.t.t.t.t.",
"t.t.t.t.t.6 6 J J . . . . . . ` ` X X X < X X < X < X X X X X X X X X < X X X X X X R R R R . . . . . G M v   H t.t.t.t.t.t.t.t.",
"t.t.t.t.t.    . . . . . . . . . n X X X X X X X X X X X X X X X X < X X X X X X X X . . . . . . . . . G X =   H t.t.t.t.t.t.t.t.",
"t.t.t.t.t.    . . . . . . : . . . 4 4 X X X X < X X X X X X X X < X X X 4 4 4 4 4 4 . . . . . . . n ` 4 7.5.N F t.t.t.t.t.t.t.t.",
"t.t.t.t.t.    . . . : . . . . . . . G X X X X X X < < X X < X X X X X X n . . . . . . . . . . . . n X v   b t.t.t.t.t.t.t.t.t.t.",
"t.t.t.t.t.    : . . . . . . . . . . G 1 X 1 1 1 1 1 1 1 1 1 1 1 1 1 1 1 n . . . . . . . : . n n n G A v m d t.t.t.t.t.t.t.t.t.t.",
"t.t.t.t.t.    + + . . . . . . . . . . . . . . . . . . . : . . . . . . . . : . . . : . . . . X X X A   ! t.t.t.t.t.t.t.t.t.t.t.t.",
"t.t.t.t.t.    + + . . . . . . . . . . . : . . . . . . . . . . . . . : . . . . . . . . . . . X X < A   ! t.t.t.t.t.t.t.t.t.t.t.t.",
"t.t.t.t.t.& & , , + + + + . . . . . . . . . . . . . . . . . . . . . . . : : . . . . 1 X 1 1 , , , i & a t.t.t.t.t.t.t.t.t.t.t.t.",
"t.t.t.t.t.t.t.    + + + + . . . . : . . . . . . . . . . . . . . . . . . . . . . . . X X < X       i t.t.t.t.t.t.t.t.t.t.t.t.t.t.",
"t.t.t.t.t.t.t.r r U U U U % % % % % % % % % % % % % % % % % % % % % % % 4 4 4 4 4 4 ) ) ) )     r F t.t.t.t.t.t.t.t.t.t.t.t.t.t.",
"t.t.t.t.t.t.t.t.t.        + + + + + + + + + + + + + + + + + + + + + + + 1 X X X X X @ @ @ o.    t.t.t.t.t.t.t.t.t.t.t.t.t.t.t.t.",
"t.t.t.D D D D t.t.6 6 6 6 5 5 :.:.5 5 5 5 5 5 5 5 5 5 5 5 5 5 5 5 5 5 5 4 4 M M [ [ @ @ @ @     t.t.t.t.t.t.t.t.t.t.t.t.t.t.t.t.",
"t.t.t._ $ $ $ t.t.t.t.t.t.    ; B                                       B ; s s @ @ @ o.@ @     t.t.t.t.t.t.t.t.t.t.t.t.t.t.t.t.",
"t.t.t._ $ $ $ t.t.t.t.t.t.    ; B                                       B ; s 9.@ @ @ @ @ @     t.t.t.t.t.t.t.t.t.t.t.t.t.t.t.t.",
"t.t.t._ $ $ $ $ $ $ $ t.t.    @  .e q                               q e ; ; @ @ * * @ @ @ @     W i t.t.t.t.t.F W W W k t.t.t.t.",
"t.t.t._ $ $ $ $ $ $ $ t.t.    @  .e q                               q e ; ; @ @ * * @ @ @ o.      i t.t.t.t.t.F       k t.t.t.t.",
"t.t.t.D D $ $ $ $ $ $ e.r.1.1.X.X.e q                               q e ; ; X.X.* * @ @ @ @     f f b b b b b K f z   k t.t.t.t.",
"t.t.t.t.t.$ $ $ $ $ $ 8 8 8 8 * * e q                               q e ; ; * * * * @ @ @ @     # 3           z # g   k t.t.t.t.",
"t.t.t.t.t./ / / 8./ / <.<.....>.>.0.q.@.@.@.9                       q e ; ; * * * * @ @ [ [     # # z z z z z p # g   k t.t.t.t.",
"t.t.t.t.t.P P P P P P ,.,., , 8 8 8 8 8 8 8 ..                      q e ; ; * * * * @ @ s s     # # # # # # # # # g   k t.t.t.t.",
"t.t.t.t.t.t.t.t.t.t.t.t.t.    8 8 8 8 8 8 8 ..                      q e ; ; * * * *  . .s s , , # # # # # # # # # g   k a a a t.",
"t.t.t.t.t.t.t.t.t.t.t.t.t.    ; ; w.q T T T T                       q e ; ; B B } } } } ~ ~ t t O t # # # # # # # g   m i i i y ",
"t.t.t.t.t.t.t.t.t.t.t.t.t.    ; ; e q                               q e ; ; ; ; s s s s O O O O O O # # # # # # # g           Y ",
"t.t.t.t.t.t.t.t.t.t.t.t.t.    h h h h 0 t                   $.0 0 0 h h h h h h | | | | O O O O O O t t t t t 3 u u   p { z   Y ",
"t.t.t.t.t.t.t.t.t.t.t.t.t.    o o o o o -                   t o o o o o o o o o O O O O O O O O O O O O O O O 3       f O g   Y ",
"t.t.t.t.t.t.t.t.t.t.t.t.t.    o o o o o V 3 3 3 3 3 3 3 3 3 0 o o o o o o o o o 0 0 O O O O O O O O O O O O O { f f f $.O g   Y ",
"t.t.t.t.t.t.t.t.t.t.t.t.t.    o o o o o o 2 2 2 2 2 2 2 2 2 o o o o o o o o o o o o O O O O O O O O O O O O O O O O O O O g   Y ",
"t.t.t.t.t.t.t.t.t.t.t.t.t.K K 0 0 o o o o o o o o o o o o o o o o o o o o o o o o o - - - - O O O O O O O O O O O O O t { 6.K y ",
"t.t.t.t.t.t.t.t.t.t.t.t.t.c c u u o o o o o o o o o o o o o o o o o o o o o o o o o 2 2 2 2 O O O O O O O O O O O O O f u C c a ",
"t.t.t.t.t.t.t.t.t.t.t.t.t.t.t.  , o o o o o o o o o o o o o o o o o o o o o o o o o o o o o O O O O O O O O O O O O O p   F t.t.",
"t.t.t.t.t.t.t.t.t.t.t.t.t.t.t.  , S S o o o o o o o o o o o 0 - - - - - - - - - - - - - - - O O O O O O O O O O O 3 z N ' c t.t.",
"t.t.t.t.t.t.t.t.t.t.t.t.t.t.t.  , * S o o o o o o o o o o o - O O O O O O O O O O O O O O O O O O O O O O O O O O x   k t.t.t.t.",
"t.t.t.t.t.t.t.t.t.t.t.t.t.t.t.  , * S o o o o o o o o o o o V V ~ O O O O O O O O O O O O O O O O O O t p p p p p b k ' t.t.t.t.",
"t.t.t.t.t.t.t.t.t.t.t.t.t.t.t.  , * S o o o o o o o o o o o o o - O O O O O O O O O O O O O O O O O O {         W N t.t.t.t.t.t.",
"t.t.t.t.t.t.t.t.t.t.t.t.t.t.t.  , S S =.=.o o o o o 2 ^ 2 o o o 0 - O O Z Z Z Z E E E E # # # # # # # # d d d d d r t.t.t.t.t.t.",
"t.t.t.t.t.t.t.t.t.t.t.t.t.t.t.  , ;.;.L *.o o o o o V ~ V o o o 2 2 ~ O L L L L = = = = u u u u u u u ! c c c c c & t.t.t.t.t.t.",
"t.t.t.t.t.t.t.t.t.t.t.t.t.t.t.  , I I I *.2 2 2 o o 0 O V o o o o o ~ O L I I I = = = =     Q Q Q Q Q K t.t.t.t.t.t.t.t.t.t.t.t.",
"t.t.t.t.t.t.t.t.t.t.t.t.t.t.t.  , v v v v +.+.+.Z o 2 ^ 0 - ^ o o o ^ ^ Z Z v v = = = =     y y y y y ' t.t.t.t.t.t.t.t.t.t.t.t.",
"t.t.t.t.t.t.t.t.t.t.t.t.t.t.t.  , = = = = = = = E o o o 0 O V o o o o o O O = = = = = =     t.t.t.t.t.t.t.t.t.t.t.t.t.t.t.t.t.t.",
"t.t.t.t.t.t.t.t.t.t.t.t.t.t.t.C C 7 7 7 7 7 7 7 -.x x x f p f x x x x x p p 7 7 7 7 7 7 C C t.t.t.t.t.t.t.t.t.t.t.t.t.t.t.t.t.t.",
"t.t.t.t.t.t.t.t.t.t.t.t.t.t.t.t.a                                                       t.t.t.t.t.t.t.t.t.t.t.t.t.t.t.t.t.t.t.t.",
"t.t.t.t.t.t.t.t.t.t.t.t.t.t.t.t.a           i w w w w w %.w w w w w %.w W           w w t.t.t.t.t.t.t.t.t.t.t.t.t.t.t.t.t.t.t.t.",
"t.t.t.t.t.t.t.t.t.t.t.t.t.t.t.t.a           d & & & & & & & & & & & & & m           & & t.t.t.t.t.t.t.t.t.t.t.t.t.t.t.t.t.t.t.t.",
"t.t.t.t.t.t.t.t.t.t.t.t.t.t.t.t.a i i       d t.t.t.t.t.t.t.t.t.t.t.t.t.! i         t.t.t.t.t.t.t.t.t.t.t.t.t.t.t.t.t.t.t.t.t.t.",
"t.t.t.t.t.t.t.t.t.t.t.t.t.t.t.t.t.y Y       d t.t.t.t.t.t.t.t.t.t.t.t.t.' y         t.t.t.t.t.t.t.t.t.t.t.t.t.t.t.t.t.t.t.t.t.t.",
"t.t.t.t.t.t.t.t.t.t.t.t.t.t.t.t.t.t.]       d t.t.t.t.t.t.t.t.t.t.t.t.t.t.t.        t.t.t.t.t.t.t.t.t.t.t.t.t.t.t.t.t.t.t.t.t.t."
};
